<?xml version="1.0" encoding="utf-8"?>
<!-- Generator: Adobe Illustrator 22.1.0, SVG Export Plug-In . SVG Version: 6.00 Build 0)  -->
<svg version="1.1" xmlns="http://www.w3.org/2000/svg" xmlns:xlink="http://www.w3.org/1999/xlink" x="0px" y="0px"
	 viewBox="0 0 289 282" style="enable-background:new 0 0 289 282;" xml:space="preserve">
<style type="text/css">
	.st0{display:none;}
	.st1{display:inline;fill:#C9C9C9;}
	.st2{display:inline;}
	.st3{fill:none;stroke:#000000;stroke-miterlimit:10;}
	.st4{fill:none;stroke:#000000;stroke-width:3;stroke-miterlimit:10;}
	.st5{fill:#C9C9C9;}
</style>
<g id="software_x5F_sensors" class="st0">
	<ellipse id="shadow_2_" class="st1" cx="143" cy="234" rx="101" ry="17"/>
	<g id="background_windows" class="st2">
		<path class="st3" d="M252,151c0,0,12.4,0.4,14.7-0.3c2.3-0.7,5.3-1.7,7.4-5.3c2.1-3.6,1.9-4.4,1.9-6.4s0-112,0-116s-0.3-6.4-3-9
			s-5-3-9-3S76,10,71,11s-5,1-8.6,3.6S59,23,59,23l0,7"/>
		<path class="st3" d="M35,51c0,0-7.6,0-11.8,0S13,57.8,13,62.4S13,174,13,179s4,12,12,12s192.7,0.5,195.3-0.2
			C223,190,230,188,230,179s0-9,0-9"/>
	</g>
	<g id="main_window" class="st2">
		<g id="display">
			<g>
				<g>
					<path d="M140.6,119.3c3,0.1,6.4,0.8,9.2-0.7c4-2.2,4.9-7.6,5.7-11.5c-1,0-1.9,0-2.9,0c1.5,7.5,2.9,15.1,4.4,22.6
						c0.3,1.4,2.6,1.4,2.9,0c2.1-10.4,3.7-21,5-31.5c-1,0.1-2,0.3-2.9,0.4c2.6,12.1,5.2,24.3,7.7,36.4c0.4,1.8,2.8,1.2,2.9-0.4
						c0.7-8.1,0.5-16.4,2.6-24.4c-0.7,0.3-1.5,0.6-2.2,0.9c2.8,1.5,3.1,8.7,3.7,11.4c1.3,5.7,2.4,11.3,3.4,17.1
						c0.3,1.8,2.8,1.2,2.9-0.4c1.3-15.6,2.2-31.2,2.7-46.8c-1,0-2,0-3,0c-0.2,12.1,1,24.4,3.1,36.3c0.3,1.7,3,1.3,2.9-0.4
						c0-2.6,1.7-5.9,2.6-8.3c1-2.8,2.2-5.6,2.8-8.5c-1-0.1-2-0.3-2.9-0.4c0.8,5.7,2.2,11.3,2.9,17.1c0.2,1.8,3.1,2,3,0
						c-0.2-4.3,1.5-8.9,2.4-13.1c1.2-6.5,2.1-13,3.5-19.5c-1,0-1.9,0-2.9,0c2.2,13,4.2,26,6.1,39c0.3,1.8,2.7,1.1,2.9-0.4
						c1.4-10.8,2.9-21.7,4.3-32.5c-1,0-2,0-3,0c0.2,4.1,0.3,8.2,1,12.3c0.3,1.9,0.5,5.3,2.4,6.4c0.6,0.4,1.3,0.2,1.8-0.2
						c1.3-1,0.8-3.3,1.9-4.2c0.4-0.4,2.8,0.5,3.7,0.5c1.8,0.1,3.4-0.3,5.2-0.9c1.8-0.7,1-3.6-0.8-2.9c-2.8,1-4.9,0.1-7.6,0
						c-0.7,0-1.2,0-1.8,0.4c-1.8,1.1-1.3,3.9-2.7,5c0.6-0.1,1.2-0.2,1.8-0.2c-1.1-0.7-1.3-7-1.4-8.1c-0.2-2.6-0.3-5.3-0.4-8
						c-0.1-2-2.8-1.9-3,0c-1.4,10.8-2.9,21.7-4.3,32.5c1-0.1,2-0.3,2.9-0.4c-1.8-13-3.8-26-6.1-39c-0.3-1.5-2.6-1.4-2.9,0
						c-1.5,6.8-2.3,13.7-3.7,20.5c-0.9,4.2-2.4,8.7-2.3,13c1,0,2,0,3,0c-0.7-5.7-2.2-11.3-2.9-17.1c-0.2-1.5-2.5-2.2-2.9-0.4
						c-1.3,5.7-5.6,11.7-5.5,17.6c1-0.1,2-0.3,2.9-0.4c-2-11.6-3.2-23.7-3-35.5c0-1.9-2.9-1.9-3,0c-0.5,15.6-1.3,31.2-2.7,46.8
						c1-0.1,2-0.3,2.9-0.4c-1.2-6.9-2.7-13.8-4.2-20.6c-0.7-3.1-1.2-8-4.3-9.7c-0.8-0.4-1.9-0.1-2.2,0.9c-2.2,8.2-1.9,16.8-2.7,25.2
						c1-0.1,2-0.3,2.9-0.4c-2.6-12.1-5.2-24.3-7.7-36.4c-0.4-1.8-2.8-1.1-2.9,0.4c-1.3,10.3-2.9,20.5-4.9,30.7c1,0,1.9,0,2.9,0
						c-1.5-7.5-2.9-15.1-4.4-22.6c-0.3-1.4-2.6-1.4-2.9,0c-0.6,3.4-1.3,8.8-5.1,10.1c-2.1,0.7-4.7,0-6.8,0
						C138.6,116.3,138.6,119.3,140.6,119.3L140.6,119.3z"/>
				</g>
			</g>
			<rect x="131" y="80.8" class="st3" width="106.9" height="77.3"/>
		</g>
		<g id="code">
			<g>
				<g>
					<path d="M74.2,150.9c5.2,0,10.5,0,15.7,0c1.9,0,1.9-3,0-3c-5.2,0-10.5,0-15.7,0C72.3,147.9,72.3,150.9,74.2,150.9L74.2,150.9z"
						/>
				</g>
			</g>
			<g>
				<g>
					<path d="M96.6,147.4c-0.1,0-0.2,0-0.3,0c-0.8,0-1.5,0.7-1.5,1.5c0,0.8,0.7,1.5,1.5,1.5c0.1,0,0.2,0,0.3,0
						c0.8,0,1.5-0.7,1.5-1.5C98.1,148.1,97.4,147.4,96.6,147.4L96.6,147.4z"/>
				</g>
			</g>
			<g>
				<g>
					<path d="M86.4,134.9c1.6,0,3.3,0,4.9,0c1.9,0,1.9-3,0-3c-1.6,0-3.3,0-4.9,0C84.5,131.9,84.5,134.9,86.4,134.9L86.4,134.9z"/>
				</g>
			</g>
			<g>
				<g>
					<path d="M80,140.5c-0.1,0-0.2,0-0.3,0c-0.8,0-1.5,0.7-1.5,1.5c0,0.8,0.7,1.5,1.5,1.5c0.1,0,0.2,0,0.3,0c0.8,0,1.5-0.7,1.5-1.5
						C81.5,141.2,80.9,140.5,80,140.5L80,140.5z"/>
				</g>
			</g>
			<g>
				<g>
					<path d="M86.1,143.2c3.4,0,6.8,0,10.2,0c1.9,0,1.9-3,0-3c-3.4,0-6.8,0-10.2,0C84.2,140.2,84.2,143.2,86.1,143.2L86.1,143.2z"/>
				</g>
			</g>
			<g>
				<g>
					<path d="M79.7,134.9c1.9,0,1.9-3,0-3C77.8,131.9,77.8,134.9,79.7,134.9L79.7,134.9z"/>
				</g>
			</g>
			<g>
				<g>
					<path d="M77.2,125.2c1.9,0,3.8,0,5.7,0c1.9,0,1.9-3,0-3c-1.9,0-3.8,0-5.7,0C75.3,122.2,75.3,125.2,77.2,125.2L77.2,125.2z"/>
				</g>
			</g>
			<g>
				<g>
					<path d="M87.9,124.9c5.3,0,10.7,0,16,0c1.9,0,1.9-3,0-3c-5.3,0-10.7,0-16,0C85.9,121.9,85.9,124.9,87.9,124.9L87.9,124.9z"/>
				</g>
			</g>
			<g>
				<g>
					<path d="M109.2,124.9c1.4,0,2.9,0,4.3,0c1.9,0,1.9-3,0-3c-1.4,0-2.9,0-4.3,0C107.3,121.9,107.3,124.9,109.2,124.9L109.2,124.9z
						"/>
				</g>
			</g>
			<g>
				<g>
					<path d="M93.6,99.4c3.1,0,6.1,0,9.2,0c1.9,0,1.9-3,0-3c-3.1,0-6.1,0-9.2,0C91.7,96.4,91.7,99.4,93.6,99.4L93.6,99.4z"/>
				</g>
			</g>
			<g>
				<g>
					<path d="M71.9,116.9c6.2,0,12.5,0,18.7,0c1.9,0,1.9-3,0-3c-6.2,0-12.5,0-18.7,0C69.9,113.9,69.9,116.9,71.9,116.9L71.9,116.9z"
						/>
				</g>
			</g>
			<g>
				<g>
					<path d="M96.2,116.2c3.3,0,6.7,0,10,0c1.9,0,1.9-3,0-3c-3.3,0-6.7,0-10,0C94.3,113.2,94.3,116.2,96.2,116.2L96.2,116.2z"/>
				</g>
			</g>
			<g>
				<g>
					<path d="M112.7,114.7c0-0.1,0-0.2,0-0.3c0-0.8-0.7-1.5-1.5-1.5c-0.8,0-1.5,0.7-1.5,1.5c0,0.1,0,0.2,0,0.3
						c0,0.8,0.7,1.5,1.5,1.5C112,116.1,112.7,115.5,112.7,114.7L112.7,114.7z"/>
				</g>
			</g>
			<g>
				<g>
					<path d="M63.5,99.2c5.2,0,10.5,0,15.7,0c1.9,0,1.9-3,0-3c-5.2,0-10.5,0-15.7,0C61.6,96.2,61.6,99.2,63.5,99.2L63.5,99.2z"/>
				</g>
			</g>
			<g>
				<g>
					<path d="M86.5,99.2c1.9,0,1.9-3,0-3C84.6,96.2,84.6,99.2,86.5,99.2L86.5,99.2z"/>
				</g>
			</g>
			<g>
				<g>
					<path d="M56.5,108.5c6.3,0,12.7,0,19,0c1.9,0,1.9-3,0-3c-6.3,0-12.7,0-19,0C54.6,105.5,54.6,108.5,56.5,108.5L56.5,108.5z"/>
				</g>
			</g>
			<g>
				<g>
					<path d="M82.2,108.2c6.7,0,13.3,0,20,0c1.9,0,1.9-3,0-3c-6.7,0-13.3,0-20,0C80.3,105.2,80.3,108.2,82.2,108.2L82.2,108.2z"/>
				</g>
			</g>
			<g>
				<g>
					<path d="M55.2,90.5c6.7,0,13.3,0,20,0c1.9,0,1.9-3,0-3c-6.7,0-13.3,0-20,0C53.2,87.5,53.2,90.5,55.2,90.5L55.2,90.5z"/>
				</g>
			</g>
			<g>
				<g>
					<path d="M82.5,90.2c0.1,0,0.2,0,0.3,0c0.8,0,1.5-0.7,1.5-1.5c0-0.8-0.7-1.5-1.5-1.5c-0.1,0-0.2,0-0.3,0c-0.8,0-1.5,0.7-1.5,1.5
						C81.1,89.5,81.7,90.2,82.5,90.2L82.5,90.2z"/>
				</g>
			</g>
			<g>
				<g>
					<path d="M56.2,99.2c1.9,0,1.9-3,0-3C54.2,96.2,54.2,99.2,56.2,99.2L56.2,99.2z"/>
				</g>
			</g>
			<g>
				<g>
					<path d="M56.8,116.5c0.2,0,0.4,0,0.7,0c0.8,0,1.5-0.7,1.5-1.5c0-0.8-0.7-1.5-1.5-1.5c-0.2,0-0.4,0-0.7,0
						c-0.8,0-1.5,0.7-1.5,1.5C55.4,115.8,56,116.5,56.8,116.5L56.8,116.5z"/>
				</g>
			</g>
			<g>
				<g>
					<path d="M63.8,116.5c1.9,0,1.9-3,0-3C61.9,113.5,61.9,116.5,63.8,116.5L63.8,116.5z"/>
				</g>
			</g>
			<g>
				<g>
					<path d="M56.8,125.2c4.7,0,9.3,0,14,0c1.9,0,1.9-3,0-3c-4.7,0-9.3,0-14,0C54.9,122.2,54.9,125.2,56.8,125.2L56.8,125.2z"/>
				</g>
			</g>
			<g>
				<g>
					<path d="M57.4,135.2c3.2,0,6.4,0,9.7,0c1.9,0,1.9-3,0-3c-3.2,0-6.4,0-9.7,0C55.4,132.2,55.4,135.2,57.4,135.2L57.4,135.2z"/>
				</g>
			</g>
			<g>
				<g>
					<path d="M73.1,132.2c-0.1,0-0.2,0-0.3,0c-0.8,0-1.5,0.7-1.5,1.5c0,0.8,0.7,1.5,1.5,1.5c0.1,0,0.2,0,0.3,0
						c0.8,0,1.5-0.7,1.5-1.5C74.6,132.9,74,132.2,73.1,132.2L73.1,132.2z"/>
				</g>
			</g>
			<g>
				<g>
					<path d="M56.6,143.8c5.4,0,10.9,0,16.3,0c1.9,0,1.9-3,0-3c-5.4,0-10.9,0-16.3,0C54.6,140.8,54.6,143.8,56.6,143.8L56.6,143.8z"
						/>
				</g>
			</g>
			<g>
				<g>
					<path d="M56.8,151.8c4,0,7.9,0,11.9,0c1.9,0,1.9-3,0-3c-4,0-7.9,0-11.9,0C54.9,148.8,54.9,151.8,56.8,151.8L56.8,151.8z"/>
				</g>
			</g>
		</g>
		<g id="secondary_buttons">
			<g>
				<g>
					<path d="M143.1,41.3c-1.8,2.5-4.2,5.1-4.1,8.4c0.1,3.4,3.1,5.9,5.4,7.9c1.4,1.3,3.6-0.8,2.1-2.1c-1.9-1.7-4.9-3.9-4.4-6.8
						c0.4-2.2,2.3-4.2,3.6-6C146.8,41.2,144.2,39.7,143.1,41.3L143.1,41.3z"/>
				</g>
			</g>
			<g>
				<g>
					<path d="M140.5,51.4c3.9,0,7.9,0,11.8,0c1.9,0,1.9-3,0-3c-3.9,0-7.9,0-11.8,0C138.5,48.4,138.5,51.4,140.5,51.4L140.5,51.4z"/>
				</g>
			</g>
			<g>
				<g>
					<path d="M215,54.7c-5.6,6.8-15.9-2.5-11.2-9.3c3.5-5,10.9-4.3,13.1,1.4c0.7,1.8,3.6,1,2.9-0.8c-1.5-4.1-4.8-7-9.3-7
						c-4,0-7.9,2.3-9.8,5.8c-5.1,9.7,9,21.1,16.4,12C218.3,55.3,216.2,53.2,215,54.7L215,54.7z"/>
				</g>
			</g>
			<g>
				<g>
					<path d="M212.2,46.8c1.9,1.1,5,4,7.4,2.8c1.2-0.6,1.4-1.9,1.7-3.1c0.5-1.5,0.9-3.1,1.4-4.6c0.6-1.9-2.3-2.6-2.9-0.8
						c-0.3,0.9-0.5,1.7-0.8,2.6c-0.2,0.6-0.4,2.5-0.9,2.9c-0.4,0.4,0.1,0.2-0.4,0.1c-0.4-0.1-0.9-0.5-1.3-0.8
						c-0.9-0.5-1.8-1.1-2.8-1.6C212,43.2,210.5,45.8,212.2,46.8L212.2,46.8z"/>
				</g>
			</g>
			<g>
				<g>
					<path d="M177,42.8c1.3,1.8,3.2,3.7,3.6,6c0.5,2.9-2.5,5-4.4,6.8c-1.4,1.3,0.7,3.4,2.1,2.1c2.3-2.1,5.3-4.5,5.4-7.9
						c0.1-3.3-2.3-5.9-4.1-8.4C178.5,39.7,175.9,41.2,177,42.8L177,42.8z"/>
				</g>
			</g>
			<g>
				<g>
					<path d="M182.3,48.4c-3.9,0-7.9,0-11.8,0c-1.9,0-1.9,3,0,3c3.9,0,7.9,0,11.8,0C184.2,51.4,184.2,48.4,182.3,48.4L182.3,48.4z"
						/>
				</g>
			</g>
		</g>
		<g id="main_sequence_buttons">
			<g>
				<g>
					<path d="M69.7,49.1c-0.2-4.2-3-8-7.4-8.3c-4.5-0.3-8.3,3.2-8.9,7.6c-0.6,4.3,2.3,8.6,6.7,9.1C65,58.1,69.4,54,69.7,49.1
						c0.1-1.9-2.9-1.9-3,0c-0.1,3.2-3.5,6.2-6.8,5.3c-2.8-0.7-4.2-3.7-3.5-6.3c1.6-6.1,10-5.3,10.3,1C66.7,51.1,69.7,51.1,69.7,49.1
						z"/>
				</g>
			</g>
			<g>
				<g>
					<path d="M82.3,44.2c6.7,0.3,5,10.3-0.8,10.3C74.7,54.4,76.4,44.5,82.3,44.2c1.9-0.1,1.9-3.1,0-3c-9.7,0.5-11.5,16.2-0.8,16.3
						c4.3,0,7.5-3.7,8.1-7.7c0.7-4.9-2.5-8.3-7.3-8.6C80.4,41.1,80.4,44.1,82.3,44.2z"/>
				</g>
			</g>
			<g>
				<g>
					<path d="M100.1,44.9c6.6-2.9,10.4,7.6,3.5,9.2c-1.9,0.4-4.2,0-5.5-1.5C96.2,50.1,97.6,46.3,100.1,44.9c1.7-1,0.2-3.5-1.5-2.6
						c-4,2.3-5.7,7.8-3.1,11.7c2.1,3.1,6.5,3.9,9.8,2.7c4.1-1.5,6.1-6.1,4.5-10.1c-1.8-4.7-6.9-6.3-11.3-4.3
						C96.9,43.1,98.4,45.6,100.1,44.9z"/>
				</g>
			</g>
		</g>
		<g id="frame">
			<g>
				<g>
					<path d="M36.3,69.9c71.6,0,143.3,0,214.9,0c1.9,0,1.9-3,0-3c-71.6,0-143.3,0-214.9,0C34.4,66.9,34.4,69.9,36.3,69.9L36.3,69.9z
						"/>
				</g>
			</g>
			<path class="st4" d="M240,170H47c-6.6,0-12-5.4-12-12V42c0-6.6,5.4-12,12-12h193c6.6,0,12,5.4,12,12v116
				C252,164.6,246.6,170,240,170z"/>
		</g>
	</g>
</g>
<g id="power_x5F_systems" class="st0">
	<ellipse class="st1" cx="230.5" cy="219" rx="16.5" ry="9"/>
	<path class="st1" d="M124.8,216c-1.8,1.8-5.5,2-7.7,2.4c-4,0.8-8.8,1.6-13.1,1.2c-1,0.1-2,0.2-3,0.2c-1.4,0-2.8-0.1-4.2-0.3
		c-3.6,0-7.2-0.2-10.6-0.2c-0.1,0-0.1,0-0.2,0c-4.1,0-8.2,0.2-12.3,0.1c-3.9,0.3-8.2,0-11.3-2.4c-3.3-2.6-5.2-6.6-5.2-10.7
		c0-0.2,0.1-0.4,0.2-0.5c-0.1-0.4-0.1-0.9-0.1-1.3C31.9,205.9,13,211.8,13,219c0,8.3,25.3,15,56.5,15s56.5-6.7,56.5-15
		C126,218,125.6,217,124.8,216z"/>
	<g id="wires" class="st2">
		<g>
			<g>
				<path d="M83.9,101.1c-0.1-5.5-0.5-10.9-0.5-16.4c-0.1-6.5-0.6-14.9,4.4-19.7c3.8-3.7,9.4-4.4,14.5-5c6.3-0.7,12.7-1.1,19-1.5
					c12.1-0.6,24.1-0.1,36.2,0.6c6.5,0.4,10.6,2.1,12.8,8.6c1.7,5.1,1.8,10.9,2.1,16.2c1.3,24,0.1,48,1.4,72
					c0.3,5.9,0.7,11.7,1.3,17.6c0.3,2.8,0.9,5.5,3.1,7.5c4.2,4,11.1,3.4,16.4,3.3c5.7-0.1,11.3,0.1,17-0.4
					c4.5-0.4,10.2-0.7,14.3-2.9c4.2-2.2,3.8-6,3.8-10.2c0-6.9-0.3-13.8-0.9-20.7c-0.2-1.9-3.2-1.9-3,0c0.5,5.6,0.8,11.3,0.9,16.9
					c0.1,4,1,9.2-3.3,11.7c-2.5,1.5-7.2,1.7-10,2c-8.4,0.9-17.7,1.3-26.1,0.6c-4.1-0.3-7.8-1.7-8.9-6c-1.6-6.3-1.3-13.8-1.6-20.3
					c-0.6-12.3-0.8-24.6-0.9-36.9c0-11.7,0.1-23.4-0.5-35.1c-0.4-7.4-0.4-16.9-5.7-22.7c-2.2-2.4-4.8-3.4-7.9-3.8
					c-5.7-0.7-11.7-0.8-17.4-1c-12.1-0.5-24.1,0-36.2,1c-8.4,0.7-19,0.9-24.2,8.8c-3.1,4.6-3.2,10.5-3.3,15.8
					c-0.1,6.7,0.4,13.4,0.5,20.1C80.9,103,83.9,103,83.9,101.1L83.9,101.1z"/>
			</g>
		</g>
		<g>
			<g>
				<path d="M233.6,148.2c-0.1,11.6,1.2,23.3,0.5,34.9c-0.2,3.7-0.6,7.3-4.2,9.3c-2.3,1.3-5,2.1-7.5,2.8c-5.5,1.6-11.2,2.5-16.9,2.6
					c-10.5,0.3-21.5-0.3-32-1.2c-6.1-0.5-11.7-2.2-14.6-8.1c-2.1-4.3-2.2-9.4-2.3-14.1c-0.3-22.2,0.2-44.4-0.6-66.5
					c-0.4-9.9-0.2-20.5-1.9-30.3c-1.6-9.3-8.8-9.9-17.1-9.9c-6.3,0-12.5,0.3-18.8,0.5c-3.5,0.2-7.2,0.1-10.5,1.5
					c-3.1,1.3-4.8,3.6-5.3,6.9c-1,5.8-0.1,12.3,0.1,18.1c0,1.9,3,1.9,3,0c-0.1-5.5-1.5-12.8-0.1-18.1c1.5-5.6,8.2-5.1,12.8-5.3
					c5.4-0.2,10.7-0.4,16.1-0.5c6.7-0.1,15.4-0.8,16.8,7.5c1.8,10.5,1.6,21.9,2,32.5c0.4,11.5,0.4,22.9,0.4,34.4
					c0,10.7-0.2,21.4,0.2,32.1c0.3,6.8,1.5,14.3,7.3,18.6c6.7,5,16.8,4,24.6,4.4c10.6,0.5,21.2,1.4,31.7-0.7
					c7.7-1.5,18.3-3.6,19.5-12.8c1.7-12.7-0.4-25.9-0.2-38.6C236.6,146.3,233.6,146.3,233.6,148.2L233.6,148.2z"/>
			</g>
		</g>
	</g>
	<g id="battery" class="st2">
		<g id="chargers">
			<g>
				<g>
					<path d="M79.1,105.3c0.1-2.8,4.1-2.2,6-2c0.7,0.1,1.1,0,1.7,0.5c0.8,0.6,0.7,0.8,0.7,1.7c0,1.1,0.2,3.1-0.4,4.1
						c-1,1.8-4.8,1.2-6.4,1c-1.7-0.2-1.9-0.6-1.8-2.3C79,107.3,79.1,106.3,79.1,105.3c0.1-1.9-2.9-1.9-3,0c-0.2,3.8-0.7,8,4.3,8.3
						c2.2,0.1,4.7,0.4,6.9-0.3c2.1-0.7,2.8-2.3,3.1-4.4c0.3-1.9,0.6-4.6-0.3-6.4c-0.9-1.8-2.7-2-4.6-2.2c-4.2-0.3-9.2-0.2-9.4,5
						C76,107.2,79,107.2,79.1,105.3z"/>
				</g>
			</g>
			<g>
				<g>
					<path d="M106.7,110.5c-1.4,0.3-3.6,0.7-5,0.3c-2-0.5-1.8-1.9-1.8-3.6c0-1.9-1.1-8.6,0.8-9.7c0.7-0.4,3.4-0.1,4.2,0
						c2.1,0.3,2,1.4,2.1,3.4C107.1,102,108.1,110.2,106.7,110.5c-1.9,0.4-1.1,3.3,0.8,2.9c1.9-0.4,2.6-1.8,2.8-3.7
						c0.3-3.6,0.1-7.7-0.4-11.3c-0.2-1.9-0.8-3.5-2.9-3.9c-2.1-0.4-6.1-0.5-8.1,0.2c-1.9,0.7-2.1,2.4-2.1,4.2c0,3.3,0,6.7,0.1,10.1
						c0.1,6,6.1,5.1,10.6,4.4C109.4,113,108.6,110.1,106.7,110.5z"/>
				</g>
			</g>
		</g>
		<g id="body">
			<g>
				<g>
					<path d="M110.4,106.1c3.8,0.1,6.6,0,9.2,3.2c1.2,1.4,2.3,3.2,3.4,4.7c1.4,1.9,3,3.1,2.4,5.6c0.2,1.9-0.8,2.5-2.8,2
						c-1.2,0.1-2.5,0.1-3.7,0c-8.2,0-16.5-0.1-24.7-0.1c-8.6,0-17.3,0.1-25.9,0.1c-1.3,0-4.4,0.5-5.5-0.5c-3-2.7,1-6.7,2.6-8.6
						c0.9-1.1,1.8-2.2,2.7-3.2c2.8-2.9,5.5-3.1,9.3-3.2c1.9,0,1.9-3,0-3c-2.8,0-6.2,0-8.6,1.5c-2,1.2-3.6,3.4-5.1,5.2
						c-2.3,2.7-6.9,7.2-5.5,11.2c1.5,4.3,8.2,3.6,11.7,3.5c8.1-0.1,16.2,0,24.2,0c7.6,0,15.2-0.1,22.9,0c3.2,0,10.4,1.1,12.1-2.8
						c1.8-4.2-3.7-9.4-5.8-12.4c-3.6-5-6.8-6.1-12.9-6.2C108.4,103,108.4,106,110.4,106.1L110.4,106.1z"/>
				</g>
			</g>
			<g>
				<g>
					<path d="M57.8,144.9c0.7,1.8,1,2.8,2.8,3.5c2.8,1.1,6.8,0.8,9.8,1.1c8.2,0.7,16.3,0.7,24.5,0.6c7.6-0.1,15.3-0.1,22.9-0.4
						c3.6-0.1,10.5,0.1,11.2-4.7c0.3-1.9-2.6-2.7-2.9-0.8c-0.5,3.7-13.4,2.5-15.9,2.5c-5.1,0.1-10.2,0.3-15.3,0.4
						c-5,0.1-10,0.1-15.1-0.1c-3.1-0.1-17.7,0.6-19.1-2.9C60,142.4,57.1,143.1,57.8,144.9L57.8,144.9z"/>
				</g>
			</g>
			<g>
				<g>
					<path d="M126,120.5c0,15.1,0,30.2,0,45.2c0,8.3-0.1,16.5-0.2,24.8c-0.1,7.1,2.5,22.1-5.5,25.3c-6.3,2.5-15.3,1-21.9,1.1
						c-8.7,0.1-17.3,0.3-26,0c-4.2-0.1-9.2-0.2-11.3-4.6c-1.9-3.9-0.8-9.9-0.7-14.2c0.1-7.6,0-15.2,0-22.8c0-18.3,0.3-36.7,0.5-55
						c0-1.9-3-1.9-3,0c-0.2,18.9-0.5,37.9-0.5,56.8c0,9,0,18-0.1,27c-0.1,6.2,0.7,12.7,7.5,14.9c3.1,1,6.5,0.8,9.7,0.9
						c5.3,0.1,10.6,0.1,16,0.1c8.7-0.1,17.8,0.5,26.5-0.4c6-0.7,10.1-3.6,11.2-9.7c1.5-8.5,0.6-17.9,0.7-26.5
						c0.3-20.9,0.2-41.9,0.2-62.8C129,118.6,126,118.6,126,120.5L126,120.5z"/>
				</g>
			</g>
			<g>
				<g>
					<path d="M95.7,103c0.4-0.1,0.3-0.1-0.3,0c-0.2,0-0.4,0-0.6,0c-0.7,0-1.3,0-2,0c-1.2,0-2.5,0-3.7,0.1c-1.9,0-1.9,3,0,3
						c1.5,0,3.1-0.1,4.6-0.1c1.1,0,2.5,0.2,3.6-0.4C98.9,104.6,97.4,102,95.7,103L95.7,103z"/>
				</g>
			</g>
			<g id="lightning_bolt">
				<g>
					<path d="M102.1,193c2.6-3.5,7.9-8.5,7.2-13.4c-0.5-4.1-4.6-3.5-7.8-3.6c-0.8,0-4.5,0.3-5.2-0.1c-1.4-0.9-0.7-1.4-0.6-2.7
						c0.1-2.7,0.8-5.2,1.2-7.8c0.2-1.8,0.1-4.6-2.6-4c-1.1,0.2-1.7,1.7-2.2,2.5c-1.6,2.5-3,5.2-4.4,7.7c-1.8,3.1-4,6.2-5.5,9.4
						c-0.6,1.2-1.3,2.6-0.7,4c1.3,3.5,7.2,2.4,9.8,2.2c1.1-0.1,2.9-0.7,3.5,0.3c0.3,0.6-2.3,6.2-2.3,6.2c-1.4,3.2-3.1,6.3-4.8,9.3
						c-0.7,1.2,0.8,3,2.1,2.1c4.6-3.4,8.7-7.2,12.2-11.7c1.2-1.5-0.9-3.6-2.1-2.1c-3.4,4.3-7.2,8-11.6,11.2c0.7,0.7,1.4,1.4,2.1,2.1
						c1.8-3.2,11-16.7,6.5-20.1c-2.8-2.1-7.5,1.5-10.4,0c-3.1-1.6,0.5-5.4,1.6-7.2c1.5-2.5,2.9-5,4.4-7.5c0.2-0.3,3-4.6,2.7-4.8
						c-1.2-1.2-1.7,3.7-1.7,3.9c-0.2,1.8-2,6.9-1,8.8c1.3,2.3,6.3,1.3,8.4,1.4c0.8,0,3.8-0.3,4.3,0.1c1.1,0.8,0.4,3.9-0.1,4.9
						c-1.1,2.6-3.7,5.2-5.4,7.5C98.3,193,100.9,194.5,102.1,193z"/>
				</g>
			</g>
		</g>
	</g>
	<g id="lightbulb" class="st2">
		<g id="bulb">
			<g>
				<g>
					<path d="M223.8,134.6c-0.6-2,6.5-1.6,7.4-1.7c0.6,0,1.2-0.1,1.8-0.1c0.2,0,3.1-0.2,2.4,0.4c-0.8,0.7-0.5,1.9,0.3,2.4
						c1.6,0.5,1.9,1.2,0.7,2.1c-0.9,0.5-1,2.1,0,2.6c0.2,0.6,0.4,1.2,0.6,1.9c-1,0.5-0.9,2.1,0,2.6c-0.1,0.5-0.3,1-0.4,1.4
						c-0.4,0.1-0.9,0.1-1.3,0.2c-0.6,0.1-1.3,0-2,0c-0.9,0.1-1.7,0.2-2.6,0.3c-0.8,0.1-7.6,0.4-6.2-1.3c0.5-0.7,0.7-1.9-0.3-2.4
						c-0.5-1-0.3-1.7,0.4-2.4c0.6-0.8,0-2-0.9-2.2c0.1-0.6,0.2-1.1,0.4-1.7c0.6-0.6,0.6-1.5,0-2.1c-0.2-0.2-0.5-0.5-0.7-0.7
						c-1.4-1.4-3.5,0.8-2.1,2.1c0.2,0.2,0.5,0.5,0.7,0.7c0-0.7,0-1.4,0-2.1c-2.1,2.2-2.9,5.8,1,6.7c-0.3-0.7-0.6-1.5-0.9-2.2
						c-1.6,2.1-2.3,5.2,0.7,6.5c-0.1-0.8-0.2-1.6-0.3-2.4c-1.5,1.9-1.5,4.2,0.6,5.6c2.3,1.5,5.7,1,8.3,0.7c2.5-0.3,6.1,0.3,8.1-1.6
						c1.9-1.8,1.2-4.7-1-5.9c0,0.9,0,1.7,0,2.6c3.6-1.6,2.2-5.6-0.6-7c0,0.9,0,1.7,0,2.6c3.9-2.3,2.5-5.2-0.7-7.3
						c0.1,0.8,0.2,1.6,0.3,2.4c1.3-1.2,2.3-3.1,1.1-4.7c-1.2-1.6-3.4-1.2-5.1-0.9c-3.8,0.6-14.7-1.4-12.5,5.7
						C221.5,137.3,224.4,136.5,223.8,134.6z"/>
				</g>
			</g>
			<g>
				<g>
					<path d="M224.5,131.9c-1.1-4.3-3.3-7.5-6.2-10.7c-4.1-4.5-6.6-9.1-7-15.2c-0.9-11.4,7.1-22.1,19.2-21.4
						c10.7,0.6,17.7,10.1,16.9,20.7c-0.4,5.4-3.5,9.3-6.4,13.6c-2.7,4-4.6,8.1-5.7,12.8c-0.4,1.9,2.4,2.7,2.9,0.8
						c1.7-7.2,6-12,9.6-18.3c2.7-4.7,3.3-10.3,2.1-15.5c-2.3-9.9-9.1-16.7-19.4-17.1c-10.9-0.4-19.6,6.9-21.8,17.5
						c-1,5.1-0.5,10.9,1.5,15.7c2.8,6.8,9.5,10.6,11.4,17.9C222.1,134.6,225,133.8,224.5,131.9L224.5,131.9z"/>
				</g>
			</g>
			<g>
				<g>
					<path d="M229,131.1c0.3-8.8-1.3-17-5.7-24.7c-1-1.7-3.6-0.2-2.6,1.5c4.2,7.3,5.5,14.9,5.3,23.2C225.9,133,228.9,133,229,131.1
						L229,131.1z"/>
				</g>
			</g>
			<g>
				<g>
					<path d="M233.2,131.1c0.3-8.6,0.8-17.2,5.9-24.4c1.1-1.6-1.5-3.1-2.6-1.5c-5.5,7.6-6.1,16.8-6.4,25.9
						C230.1,133.1,233.1,133.1,233.2,131.1L233.2,131.1z"/>
				</g>
			</g>
			<g>
				<g>
					<path d="M221.7,107.9c0.8,0.8,1.5,1.7,2.7,1.2c1.5-0.5,1.7-2.5,2.8-3.5c-0.6,0.1-1.2,0.2-1.8,0.2c-0.3-0.6-0.4-0.5-0.1,0.1
						c0.1,0.5,0.2,1,0.4,1.5c0.2,1,0.5,2,0.7,3c0.4,1.5,2.4,1.3,2.9,0c0.6-1.7,1.2-3.5,1.8-5.2c-0.8,0.2-1.7,0.4-2.5,0.7
						c0.8,1,1.4,2,2,3.2c0.5,1,2.1,0.9,2.6,0c0.4-0.7,0.7-1.7,1.2-2.3c-0.5,0.1-1,0.3-1.5,0.4c0.7,0.1,1.2,0.8,2,0.9
						c0.9,0.1,1.7-0.2,2.4-0.7c1.6-1.1,0.1-3.7-1.5-2.6c-0.7,0.5-2.2-0.9-3.1-0.5c-1.2,0.5-1.7,2.3-2.2,3.3c0.9,0,1.7,0,2.6,0
						c-0.6-1.4-1.4-2.6-2.4-3.8c-0.8-0.9-2.2-0.3-2.5,0.7c-0.6,1.7-1.2,3.5-1.8,5.2c1,0,1.9,0,2.9,0c-0.4-1.8-0.5-5.3-2.4-6.3
						c-0.6-0.4-1.3-0.2-1.8,0.2c-0.4,0.3-0.6,0.6-0.9,1c-0.2,0.3-0.4,0.6-0.5,0.9c-0.4,0.4-0.4,0.5,0.1,0.4
						C222.5,104.4,220.4,106.5,221.7,107.9L221.7,107.9z"/>
				</g>
			</g>
		</g>
		<g id="sparks">
			<g>
				<g>
					<path d="M193.4,131.5c1.8-1.6,3.6-3.3,5.4-4.9c1.4-1.3-0.7-3.4-2.1-2.1c-1.8,1.6-3.6,3.3-5.4,4.9
						C189.8,130.7,191.9,132.8,193.4,131.5L193.4,131.5z"/>
				</g>
			</g>
			<g>
				<g>
					<path d="M188.1,107.5c2.1,0.4,4.2,0.6,6.3,0.4c1.9-0.1,1.9-3.1,0-3c-1.9,0.1-3.7,0-5.5-0.3C187,104.3,186.2,107.2,188.1,107.5
						L188.1,107.5z"/>
				</g>
			</g>
			<g>
				<g>
					<path d="M194.2,84.8c1.6,1.7,3.6,2.8,5.9,3.3c1.9,0.4,2.7-2.5,0.8-2.9c-1.8-0.4-3.3-1.2-4.6-2.5
						C195,81.2,192.8,83.4,194.2,84.8L194.2,84.8z"/>
				</g>
			</g>
			<g>
				<g>
					<path d="M222.9,72c0.1-2.2,0.3-4.5,0.4-6.7c0.1-1.9-2.9-1.9-3,0c-0.1,2.2-0.3,4.5-0.4,6.7C219.8,73.9,222.8,73.9,222.9,72
						L222.9,72z"/>
				</g>
			</g>
			<g>
				<g>
					<path d="M242.6,76.5c1.3-1.7,2.7-3.4,4.3-4.9c1.4-1.3-0.7-3.5-2.1-2.1c-1.7,1.7-3.3,3.5-4.7,5.5
						C238.9,76.6,241.5,78,242.6,76.5L242.6,76.5z"/>
				</g>
			</g>
			<g>
				<g>
					<path d="M259.6,92.1c2-1.1,4-2.2,6-3.3c1.7-0.9,0.2-3.5-1.5-2.6c-2,1.1-4,2.2-6,3.3C256.4,90.5,257.9,93.1,259.6,92.1
						L259.6,92.1z"/>
				</g>
			</g>
			<g>
				<g>
					<path d="M259.4,109.3c2.3,2,4.9,3.5,7.7,4.5c1.8,0.6,2.6-2.3,0.8-2.9c-2.4-0.8-4.5-2.1-6.4-3.7
						C260.1,105.9,258,108,259.4,109.3L259.4,109.3z"/>
				</g>
			</g>
			<g>
				<g>
					<path d="M252,126.6c1.3,1.6,2.8,2.9,4.6,4c1.7,1,3.2-1.6,1.5-2.6c-1.5-0.9-2.9-2.1-4-3.5c-0.5-0.6-1.6-0.5-2.1,0
						C251.4,125.1,251.5,126,252,126.6L252,126.6z"/>
				</g>
			</g>
		</g>
	</g>
</g>
<g id="motions" class="st0">
	<ellipse id="shadow" class="st1" cx="141" cy="240" rx="68" ry="18"/>
	<g id="big_gear" class="st2">
		<g>
			<path d="M165.1,26.4c1.8,0,2,0.5,2.1,0.7c0.5,1.2,0.4,4.1,0.3,6.4c-0.2,4.3-0.4,8.8,2.3,11.3c1.7,1.6,6.2,5.2,11.1,5.2
				c1.4,0,2.6-0.3,3.8-0.8c2.3-1.1,3.9-2.9,5.1-4.4c0.7-0.8,1.3-1.7,2.1-2.7c1.4-2,3.5-5,5-5c0.1,0,0.2,0,0.3,0
				c1.4,0.3,2.6,1.6,4.2,3.1l5,5.1c0.9,0.9,1.8,1.8,2.2,2.7c0.7,1.7-3.7,4.9-6,6.6c-1.4,1-2.7,2-3.6,2.9c-0.5,0.5-1.4,1.4-1.8,2.8
				c-1.4,4.9,3.2,10.4,6.9,12c1.1,0.5,2.4,0.7,4,0.7c1.9,0,3.9-0.3,5.9-0.7c1.7-0.3,3.5-0.6,4.9-0.6c1.2,0,1.9,0.2,2.1,0.6
				c0.3,0.5,0.4,1.4,0.5,2.3c0.1,0.6,0.2,1.2,0.3,1.9c0.5,3.2,1.4,9.2-0.1,11.3c-0.1,0.1-0.2,0.3-1.3,0.3c-0.5,0-1.2-0.1-1.8-0.1
				c-0.8-0.1-1.6-0.1-2.4-0.1c0,0,0,0,0,0c-1,0-4.1,0-6.4,2.5c-1.5,1.6-1.9,3.7-2.2,5.2l-0.8,4.1c-0.3,1.7-0.8,3.8-0.4,5.9
				c0.7,5,4.9,6.6,8,7.7c2.4,0.9,3.6,1.4,3.9,2.5c0.8,3-5.3,11.2-9.2,13.3c-0.9-0.6-1.8-1.4-2.7-2.2c-2.4-2.1-5.2-4.5-9-4.5
				c-1.9,0-3.8,0.6-5.6,1.8l-3.1,2l-1.9,1.2c-1.1,0.7-2.7,1.8-3.5,3.7c-1,2.3-0.3,5.4,0.3,8.1c0.2,0.8,0.4,1.6,0.4,2
				c0.1,0.9,0.3,1.7,0.5,2.5c0.6,2.5,0.5,2.8-0.6,3.6c-1.5,1.1-3.9,1.4-5.9,1.6l-4.6,0.5l-2.2,0.3c-0.6,0.1-1.3,0.1-2.1,0.1
				c-0.8,0-1.8-0.1-2.2-0.6c-0.5-0.5-0.5-1.9-0.6-3.1c0-0.2,0-0.4,0-0.7c-0.3-5.7-1.7-11.2-9.2-13.1c-0.6-0.1-1.1-0.3-1.6-0.4
				c-2.1-0.6-4.2-1.2-6.5-1.2c-2.4,0-4.6,0.7-6.5,2c-1.5,1-2.6,2.4-3.5,3.6l-3.9,4.9c-0.6,0.7-1.4,1.8-2,1.9c-0.1,0-0.2,0-0.3,0
				c-0.5,0-1.7-0.4-3.9-2.9l-2.4-2.7l-4.5-5.1c-1-1.1-1.5-2.1-1.5-2.7c0.1-0.9,1.8-2.3,3.2-3.5c2.5-2.1,5.7-4.6,6.1-8.8
				c0.1-1.2-0.3-2.1-0.5-2.6c-1.4-3.3-2.9-6.6-4.4-9.9c-0.3-0.6-0.9-1.8-2.1-2.6c-0.8-0.5-1.7-0.7-2.7-0.7c-0.4,0-0.8,0-1.2,0.1
				c-2.6,0.3-5,1.2-7.3,2.1c-2.3,0.9-4.5,1.7-6.5,1.8l-0.1,0c-0.4,0-0.6-0.1-0.7-0.1c-0.1-0.1-0.3-0.7-0.4-0.8
				c-0.1-0.3-0.3-0.7-0.4-1.1c-1.2-3.3-4-11.1-2.9-14c0.7-1.7,5.7-1.7,7.8-1.7l0.3,0l0.3,0c0.6,0,1.2,0,1.6,0
				c7.5-0.3,9.3-1,12.2-8.2c1.1-2.8,1.7-5.5,2.2-8.3c1.4-7-4.8-9.8-8.4-11.4c-4.2-1.9-5.3-3.3-5.6-4.3c-0.3-1.1,0.6-2.5,1.3-3.5
				c2.5-3.3,5.1-6.6,7.8-9.8c0.7-0.9,1.4-1.3,2-1.3c2.2,0,5.8,4.6,7.6,7c0.8,1,1.5,1.9,2.1,2.7c1,1.1,2.7,3,5.3,3.3
				c0.2,0,0.5,0,0.7,0c2,0,3.6-1,4.7-1.6c0.4-0.3,0.9-0.5,1.4-0.8c2.9-1.6,6.9-3.8,7.1-8.7c0.1-1.1-0.1-2.1-0.3-3
				c-0.2-1-0.6-2.2-1-3.6c-0.5-1.7-1.8-5.5-1.5-6.7l0,0c1.3-2.1,7.4-2.6,10.3-2.8c0.6,0,1.1-0.1,1.6-0.1c0.5-0.1,1.1-0.1,1.7-0.2
				C163,26.6,164.1,26.4,165.1,26.4 M165.1,23.4c-1.8,0-3.7,0.4-5.2,0.5c-3.9,0.4-11.8,0.6-14.1,4.4c-1.7,2.5,1.6,9.6,2.1,12.4
				c0.1,0.8,0.3,1.6,0.2,2.4c-0.2,4-4.2,5.4-7.1,7.1c-1,0.6-2,1.2-3.1,1.2c-0.1,0-0.2,0-0.3,0c-1.4-0.2-2.4-1.3-3.4-2.3
				c-2.8-3.2-7.3-10.8-12.1-10.8c-1.4,0-2.9,0.7-4.3,2.4c-2.7,3.2-5.4,6.5-7.9,9.9c-4.7,6.2-0.4,9.7,5.4,12.3
				c3.9,1.7,7.6,3.5,6.7,8.1c-0.5,2.7-1.1,5.2-2.1,7.7c-2.4,5.9-2.8,6.1-9.5,6.3c-0.5,0-1,0-1.5,0c-0.2,0-0.4,0-0.6,0
				c-3.8,0-9.2,0.1-10.6,3.7c-1.6,4.3,1.8,13.1,3.3,17.2c0.2,0.6,0.5,1.3,0.9,1.8c0.7,0.8,1.9,1.2,3,1.2c0.1,0,0.1,0,0.2,0
				c4.8-0.2,9.2-3.3,14-3.9c0.3,0,0.5-0.1,0.8-0.1c0.4,0,0.8,0.1,1.1,0.3c0.5,0.3,0.7,0.8,1,1.3c1.5,3.2,3,6.5,4.4,9.8
				c0.2,0.4,0.3,0.7,0.3,1.1c-0.6,7.2-14.7,8.7-7.1,17.2c2.3,2.6,4.6,5.2,6.9,7.9c1.7,1.9,3.8,3.9,6.2,3.9c0.4,0,0.8-0.1,1.2-0.2
				c1.5-0.5,2.5-1.7,3.5-3c1.3-1.6,2.6-3.3,3.9-4.9c0.8-1.1,1.7-2.2,2.8-3c1.6-1.1,3.2-1.5,4.8-1.5c2.4,0,4.9,0.9,7.4,1.5
				c5.5,1.4,6.6,5,6.9,10.4c0.1,1.9,0.1,4.1,1.3,5.5c1.1,1.3,2.8,1.6,4.5,1.6c0.8,0,1.6-0.1,2.4-0.2c2.2-0.3,4.5-0.5,6.7-0.8
				c2.6-0.3,5.2-0.7,7.3-2.2c3.7-2.6,1.8-5.5,1.4-8.9c-0.3-2.2-1.8-6.6-1-8.6c0.4-1.1,1.5-1.8,2.4-2.4c1.6-1.1,3.3-2.2,4.9-3.2
				c1.5-1,2.8-1.3,4-1.3c3.9,0,6.7,4,10.2,6.3c0.4,0.3,0.9,0.5,1.4,0.6c0,0,0,0,0.1,0c0.4,0,0.8-0.2,1.2-0.4
				c4.3-2.1,12.4-11.7,10.9-16.9c-1.5-5.5-10.9-3.6-11.8-9.8c-0.2-1.6,0.1-3.3,0.4-4.9c0.3-1.4,0.6-2.7,0.8-4.1
				c0.3-1.3,0.6-2.7,1.5-3.8c1.1-1.2,2.6-1.5,4.2-1.5c1.4,0,2.9,0.2,4.2,0.2c1.5,0,2.8-0.3,3.7-1.5c2.7-3.6,1-11.4,0.4-15.4
				c-0.2-1.2-0.3-2.4-0.9-3.4c-0.9-1.6-2.6-2-4.7-2c-3.3,0-7.5,1.3-10.8,1.3c-1.1,0-2-0.1-2.8-0.5c-2.7-1.1-6-5.3-5.2-8.4
				c0.2-0.6,0.6-1.1,1-1.5c3.1-3.1,12.4-7.6,10.3-12.8c-0.6-1.4-1.7-2.6-2.8-3.7c-1.7-1.7-3.3-3.4-5-5.1c-1.6-1.7-3.3-3.4-5.6-3.9
				c-0.4-0.1-0.7-0.1-1-0.1c-4.1,0-7,6.1-9.4,8.8c-1.2,1.4-2.5,2.8-4.2,3.6c-0.8,0.4-1.7,0.5-2.5,0.5c-3.3,0-6.9-2.4-9.1-4.4
				c-3-2.7-0.1-12.6-2-16.8C169,23.9,167.1,23.4,165.1,23.4L165.1,23.4z"/>
		</g>
		<g>
			<path d="M165.6,70.8L165.6,70.8c0.3,0,0.5,0,0.8,0c4.7,0.2,9.1,2.2,12.3,5.7c3.2,3.5,4.8,8,4.6,12.7c-0.4,9.5-8.2,16.9-17.7,16.9
				c-0.3,0-0.5,0-0.8,0c-4.7-0.2-9.1-2.2-12.3-5.7s-4.8-8-4.6-12.7C148.4,78.2,156.1,70.8,165.6,70.8 M165.6,67.8
				c-11,0-20.2,8.7-20.7,19.8c-0.5,11.4,8.4,21.1,19.8,21.6c0.3,0,0.6,0,0.9,0c11,0,20.2-8.7,20.7-19.8c0.5-11.4-8.4-21.1-19.8-21.6
				C166.3,67.8,166,67.8,165.6,67.8L165.6,67.8z"/>
		</g>
	</g>
	<g id="middle_gear" class="st2">
		<g id="outer">
			<path d="M78,111.4c1.5,0,2.3,0.3,3.1,3.1c1.5,5.4,3,6.6,9.5,7.6c1.9,0.3,3.4,0.5,4.7,0.5c4.5,0,6.1-2,7.4-3.6
				c0.1-0.2,0.3-0.3,0.4-0.5c0.2-0.2,0.3-0.4,0.5-0.6c1.1-1.3,2-2.4,3-2.4c0.6,0,1.9,0.3,4.2,2.5c2.9,2.7,3.3,4.3,3.3,5.1
				c0,0.8-0.7,1.6-1.6,2.4c-4.1,3.6-3.1,8.6-1.6,13c2.2,6.3,5.2,7.4,7.9,7.9l0.2,0c0.8,0.2,1.6,0.2,2.4,0.3c0.9,0.1,2.1,0.1,2.4,0.5
				c0.1,0.1,0.7,1,0.2,4.4c-0.8,6.1-2.3,6.1-3.3,6.1c-0.7,0-1.6-0.1-2.6-0.3c-1.2-0.2-2.1-0.4-3-0.4c-3.9,0-5.6,2.3-8,5.6l-0.2,0.3
				l-0.2,0.3c-2.9,3.6-4.4,5.7-2.6,11.3c0.2,0.5,0.3,1,0.5,1.5c0.4,1.2,0.9,2.4,0.6,3c-0.1,0.3-0.8,1.4-4.8,2.9
				c-2,0.8-3.3,0.9-4,0.9c-1.4,0-1.7-0.4-2.5-2.7c-0.1-0.4-0.2-0.8-0.4-1.1c-1.4-3.7-3.1-5.5-10-6.7c-2-0.4-3.6-0.5-4.9-0.5
				c-3.9,0-5.8,1.6-7.5,4.1c-0.1,0.1-0.2,0.3-0.3,0.5c-0.8,1.3-1.6,2.1-2.7,2.1c-1.1,0-2.7-0.8-4.5-2.2c-3.1-2.5-3.5-4-3.5-4.5
				c0-0.9,0.7-1.8,1.7-2.7l0.2-0.2l0,0l0,0c3.2-3.4,3.5-7.3,1-12.9c-2.6-6-5.5-7-8.4-7.5c-0.2,0-0.4-0.1-0.5-0.1
				c-0.4-0.1-0.7-0.1-1.1-0.2c-1.4-0.2-2.5-0.4-3-1.1c-0.6-0.8-0.7-2.4-0.4-4.5c0.9-5.6,2.4-5.6,3.6-5.6c0.6,0,1.2,0.1,1.9,0.1
				l0.6,0.1c0.7,0.1,1.5,0.1,2.3,0.1c4,0,6.2-1.8,9-5.5c3.4-4.2,6.1-7.5,3-12.9l0,0c-0.6-1.3-1.2-2.6-0.9-3.4
				c0.1-0.4,0.8-1.4,3.6-2.6C75,111.8,76.7,111.4,78,111.4 M78,108.4c-1.6,0-3.6,0.4-6.2,1.4c-7.7,3.3-5.7,7.2-4.2,10.2
				c2,3.5,1,5.2-2.6,9.6c-2.7,3.5-4.1,4.3-6.6,4.3c-0.6,0-1.3,0-2-0.1c-0.9-0.1-1.9-0.2-2.8-0.2c-2.9,0-5.5,1.2-6.6,8.1
				c-1.4,9.2,4.7,8.8,6.9,9.3c2.3,0.5,4.5,0.4,6.9,5.9c2.4,5.5,1.2,7.8-0.5,9.6c-1.8,1.8-6.1,5.5,1.8,11.9c2.6,2.2,4.7,2.9,6.4,2.9
				c3.3,0,4.9-3.1,5.4-3.9c1.3-1.9,2.4-2.8,5-2.8c1.1,0,2.5,0.2,4.4,0.5c6.1,1.1,6.7,2.3,7.7,4.8c0.7,2,1.2,5.7,5.6,5.7
				c1.3,0,3-0.3,5.1-1.1c9.3-3.5,6.7-6.9,5.4-11.1c-1.4-4.5-0.5-5.4,2.3-8.8c2.5-3.3,3.4-4.8,5.9-4.8c0.7,0,1.5,0.1,2.4,0.3
				c1.1,0.2,2.2,0.3,3.1,0.3c3,0,5.3-1.5,6.2-8.7c1.3-9.6-4-7.8-7.3-8.6c-1.8-0.4-4-0.5-5.9-6c-1.9-5.5-1.3-7.9,0.7-9.8
				c2-1.8,5.4-5.3-1.6-11.9c-2.6-2.4-4.6-3.3-6.3-3.3c-2.9,0-4.6,2.6-5.8,4c-1.5,1.7-2.1,3.1-5.6,3.1c-1.1,0-2.4-0.1-4.2-0.4
				c-5.7-0.8-6-1.4-7.1-5.4C83.2,110.9,81.9,108.4,78,108.4L78,108.4z"/>
		</g>
		<g id="circle">
			<path d="M87.2,139.8c4.1,0,7.5,3.4,7.5,7.5s-3.4,7.5-7.5,7.5c-4.1,0-7.5-3.4-7.5-7.5S83.1,139.8,87.2,139.8 M87.2,136.8
				c-5.8,0-10.5,4.7-10.5,10.5s4.7,10.5,10.5,10.5c5.8,0,10.5-4.7,10.5-10.5S93,136.8,87.2,136.8L87.2,136.8z"/>
		</g>
	</g>
	<g id="small_gear" class="st2">
		<g id="outer_1_">
			<path d="M138.6,151.8c0.9,0,1.1,0,1.4,1.6c0.9,4.2,2.2,5.4,7,6.4c1.7,0.4,3,0.6,4.1,0.6c3,0,4.4-1.4,5.3-2.5
				c0.1-0.1,0.2-0.2,0.3-0.3c0.1-0.1,0.2-0.3,0.4-0.4c0.4-0.4,1.1-1.2,1.4-1.2c0,0,0.7,0,2.2,1.6c1.8,2,1.8,2.9,1.8,3
				c0,0.3-0.7,0.8-0.9,1c-3.5,2.7-2.9,6.7-2,9.9c1.3,4.7,3.5,5.9,5.8,6.5l0.1,0c0.6,0.2,1.2,0.3,1.8,0.3c0.3,0,0.7,0.1,1,0.2
				c0,0.3,0.1,1-0.2,2.3c-0.6,2.8-1.2,3.3-1.2,3.3c0,0,0,0,0,0c0,0-0.1,0-0.2,0c-0.5,0-1.1-0.2-1.8-0.3c-1-0.3-1.9-0.4-2.6-0.4
				c-2.9,0-4.4,1.8-6.1,3.9l-0.2,0.2l-0.1,0.2c-2.3,2.4-3.6,4.2-2.5,8.5c0.1,0.4,0.2,0.7,0.3,1.1c0.1,0.5,0.3,1.2,0.3,1.5
				c-0.2,0.2-0.8,0.7-2.8,1.3c-1.2,0.4-1.9,0.4-2.3,0.4c-0.4,0-0.5-0.1-0.5-0.1c0,0,0,0,0,0c-0.2-0.2-0.3-0.9-0.4-1.2
				c-0.1-0.3-0.1-0.6-0.2-0.8c-1-3.3-2.7-4.6-7.3-5.7c-1.8-0.4-3.1-0.6-4.2-0.6c-2.9,0-4.4,1.5-5.5,2.8c-0.1,0.1-0.2,0.2-0.3,0.3
				c-0.3,0.3-0.7,1-1.1,1c-0.1,0-0.9-0.1-2.5-1.5c-1.5-1.4-1.9-2.3-1.9-2.6c0-0.3,0.7-0.9,1-1.1l0.2-0.1l0,0l0,0
				c2.6-2.5,3.1-5.5,1.5-9.9c-1.7-4.7-4-5.6-6.1-6.2c-0.1,0-0.2-0.1-0.3-0.1c-0.2-0.1-0.5-0.1-0.8-0.2c-0.5-0.1-1.3-0.3-1.5-0.5
				c-0.1-0.2-0.3-1,0.1-2.5c0.7-3,1.3-3,1.6-3c0.4,0,0.9,0.1,1.5,0.2l0.4,0.1c0.9,0.1,1.6,0.2,2.3,0.2c2.8,0,4.5-1.4,6.6-3.7
				c2.5-2.8,4.9-5.4,2.8-9.8c-0.2-0.5-0.6-1.4-0.5-1.7c0,0,0.3-0.5,2.1-1.2C136.8,152,137.8,151.8,138.6,151.8 M138.6,148.8
				c-1,0-2.3,0.2-3.9,0.7c-5.5,1.9-4.2,4.8-3.4,6.9c1.3,2.5,0.4,3.6-2.3,6.6c-1.9,2.1-2.9,2.7-4.4,2.7c-0.5,0-1.1-0.1-1.8-0.2
				c-0.8-0.1-1.6-0.3-2.3-0.3c-1.9,0-3.5,0.9-4.5,5.4c-1.4,6.3,2.9,6.3,4.3,6.7c1.6,0.4,3.1,0.4,4.5,4.4c1.4,3.9,0.5,5.5-0.8,6.7
				c-1.3,1.2-4.5,3.6,0.7,8.3c1.9,1.7,3.3,2.3,4.5,2.3c2.2,0,3.3-1.9,3.7-2.5c0.9-1.1,1.6-1.7,3.2-1.7c0.9,0,1.9,0.2,3.4,0.5
				c4.2,1,4.6,1.9,5.1,3.7c0.4,1.4,0.6,4.2,4,4.2c0.8,0,1.9-0.2,3.2-0.6c6.6-2,5-4.5,4.2-7.4c-0.8-3.2-0.1-3.8,2-6
				c1.8-2.1,2.5-3.1,4.1-3.1c0.5,0,1.1,0.1,1.9,0.3c0.9,0.2,1.7,0.4,2.5,0.4c1.9,0,3.4-1.1,4.4-5.7c1.3-6.6-2.4-5.6-4.7-6.2
				c-1.2-0.3-2.7-0.5-3.8-4.4c-1.1-3.9-0.6-5.6,0.9-6.7s4-3.4-0.6-8.3c-1.8-1.9-3.2-2.6-4.4-2.6c-1.9,0-3.1,1.6-4,2.5
				c-1,1.1-1.5,1.9-3.5,1.9c-0.8,0-1.9-0.1-3.4-0.5c-3.9-0.8-4.1-1.3-4.7-4.1C142.5,150.7,141.7,148.8,138.6,148.8L138.6,148.8z"/>
		</g>
		<g id="circle_1_">
			<path d="M143.7,171.9L143.7,171.9c0.1,0,0.2,0,0.3,0c1.1,0.1,2.2,0.6,2.9,1.4c0.8,0.9,1.1,2,1.1,3.1c-0.1,2.2-2,4-4.3,4
				c-0.1,0-0.2,0-0.3,0c-2.4-0.1-4.1-2.2-4-4.5C139.6,173.6,141.5,171.9,143.7,171.9 M143.7,168.9c-3.8,0-7,3-7.3,6.8
				c-0.3,4,2.8,7.5,6.8,7.7c0.2,0,0.3,0,0.5,0c3.8,0,7-3,7.3-6.8c0.3-4-2.8-7.5-6.8-7.7C144,168.9,143.9,168.9,143.7,168.9
				L143.7,168.9z"/>
		</g>
	</g>
</g>
<g id="science" class="st0">
	<ellipse id="shadow_1_" class="st1" cx="145" cy="248.5" rx="59" ry="14.5"/>
	<g id="inner_components" class="st2">
		<g>
			<g>
				<path d="M195.3,197.7c4.4-4.7,6-11.1,0.6-15.6c-5.9-5-15.3-7.9-22.7-9.7c-17.8-4.3-38.2-3.2-56.1,0.5c-9.8,2-33.9,10-28.8,24.4
					c2.3,6.3,12.1,9.7,17.9,11.5c8.9,2.7,18.5,3.1,27.8,3.2c10.9,0.1,22-0.5,32.7-2.5C176.4,207.6,187.7,204.5,195.3,197.7
					c1.4-1.3-0.7-3.4-2.1-2.1c-11.4,10.1-30.1,12-44.5,12.9c-14.6,0.9-30.8,1.5-44.7-3.7c-6.5-2.4-17.6-8-11.3-16.3
					c4.3-5.7,11.8-9.1,18.4-11.1c13.5-4.1,29-5,43.1-4.5c8.4,0.3,16.8,1.5,24.8,4.2c3.9,1.3,7.8,3,11.4,4.9c2.2,1.1,5.1,2.8,5.9,5.4
					c0.9,3-1.2,6.1-3.1,8.2C191.8,197,193.9,199.2,195.3,197.7z"/>
			</g>
		</g>
		<g>
			<g>
				<path d="M157.1,146.5c7-3.4,9.5-11.1,1.2-14.7c-9.4-4.1-21.7-2.9-30.8,1.5c-6.7,3.3-11.3,9.8-2.8,14c9.2,4.6,22.8,2.9,32.1-0.7
					c1.8-0.7,1-3.6-0.8-2.9c-6.1,2.4-13.2,3.5-19.8,3.1c-3.2-0.2-7.1-0.6-10-2c-4.8-2.4-2-6.2,1.5-8.2c5.6-3.1,12.5-4.4,18.8-4.1
					c3.2,0.1,6.4,0.6,9.4,1.7c2.6,0.9,6,2.3,4.3,6.2c-0.7,1.6-3.2,2.8-4.7,3.5C153.8,144.7,155.4,147.3,157.1,146.5z"/>
			</g>
		</g>
		<g>
			<g>
				<path d="M90.8,191c4.7-8.6,10.8-16.8,16.4-24.9c2.9-4.1,5.9-8.1,8.5-12.4c2.9-4.9,5.4-9.9,8.9-14.4c1.2-1.5-0.9-3.6-2.1-2.1
					c-6.3,8.1-10.9,17.6-16.9,26c-6,8.5-12.4,17.2-17.4,26.4C87.3,191.2,89.8,192.7,90.8,191L90.8,191z"/>
			</g>
		</g>
		<g>
			<g>
				<path d="M160,136.4c9.3,17.6,21.4,32.8,34,48.1c1.2,1.5,3.3-0.6,2.1-2.1c-12.5-15.1-24.4-30.1-33.6-47.4
					C161.7,133.2,159.1,134.7,160,136.4L160,136.4z"/>
			</g>
		</g>
	</g>
	<g id="outer_frame" class="st2">
		<g>
			<g>
				<path d="M148.1,62c4.8,0.2,10.2,0.3,14.9,1.7c4.4,1.4,2.4,6.1,0.8,9.1c-2.8,5.3-7.4,9.4-8.3,15.6c-0.5,3.6,0.2,7.5,0.4,11.1
					c0.3,4.6,0.6,9.3,1.1,13.9c0.8,8,4.3,13.9,8.8,20.4c10.2,14.5,22.3,27.5,32.5,41.9c2.3,3.3,4.6,6.7,6.3,10.3
					c2.8,5.9,0.3,11.2-4.4,15.3c-6.4,5.6-15,8.5-23.2,10.4c-17.5,4-36.4,5.5-54.3,4.1c-11.9-1-25.9-2.8-35.8-10.2
					c-14.1-10.6-0.1-24.6,6.6-35.1c4.8-7.4,9.3-15.1,14.2-22.4c4.4-6.5,9.6-12.6,12.8-19.8c3.3-7.5,4.2-16.1,4.6-24.2
					c0.3-7.5-0.4-16.4-5.4-22.4c-1.9-2.3-4.2-3.5-6.6-5.2c-2.5-1.7-5.5-5-2.9-8c1.1-1.4,3.7-2,5.3-2.5
					C126.1,62.7,137.2,61.7,148.1,62c1.9,0.1,1.9-2.9,0-3c-10.2-0.3-20.4,0.6-30.4,3.2c-4.5,1.1-11.6,2.9-11.5,8.8
					c0.1,7.2,9.5,9.2,12.7,14.5c5.2,8.6,3.6,20.7,2.1,30.2c-1.5,10.1-6.4,17.5-12.2,25.6c-6,8.5-11.3,17.4-16.8,26.1
					c-6.3,10-20.5,23.6-11.4,36c6.5,8.9,19.6,12.1,29.8,13.8c19.4,3.2,39,1.9,58.4-1c8.9-1.4,17.9-3.5,26-7.7
					c6.1-3.2,13.2-8.4,14.2-15.8c1.1-7.7-5.8-15.6-10.1-21.4c-5.9-7.9-12.3-15.4-18.4-23.1c-4-5-7.9-10-11.5-15.3
					c-3.5-4.9-7.3-9.9-8.5-15.9c-1.1-5.7-1.1-11.8-1.5-17.6c-0.5-6.5-1.2-12.1,2.5-17.9c2.9-4.6,8.3-10.1,7.2-16.1
					c-0.4-2.1-1.8-3.6-3.8-4.4c-4.9-1.9-11.6-1.9-16.8-2.1C146.1,58.9,146.2,61.9,148.1,62z"/>
			</g>
		</g>
	</g>
	<g id="bubbles" class="st2">
		<g>
			<g>
				<path d="M149.7,121.3c2.7-1.2,4.4-4.5,4.2-7.4c-0.3-4.3-4.8-5.3-8.4-4.3c-3.7,1-6.1,4.1-4.3,7.9c1.4,2.9,4.9,5,8.2,4
					c1.8-0.6,1-3.5-0.8-2.9c-1.8,0.6-3.8-0.6-4.6-2.2c-1.2-2.4,0.9-3.6,3-4c2-0.4,4.2,0.2,3.9,2.6c-0.2,1.6-1.2,3.1-2.7,3.8
					C146.4,119.5,147.9,122.1,149.7,121.3z"/>
			</g>
		</g>
		<g>
			<g>
				<path d="M144.4,94.1c2.5-1.8,3.7-4.9,2.7-7.8c-1.1-3-4.4-4.3-7.3-3.2c-3.1,1.2-5.4,5-4.6,8.3C136.1,95.8,141.1,96.1,144.4,94.1
					c1.6-1,0.1-3.6-1.5-2.6c-1.9,1.2-5.2,1.4-4.9-1.7c0.1-1.7,1.5-3.7,3.3-4.1c3.6-0.7,4,4.1,1.6,5.8
					C141.4,92.6,142.9,95.2,144.4,94.1z"/>
			</g>
		</g>
		<g>
			<g>
				<path d="M147.9,67.9c-1.8,2-2.5,5-0.2,7.1c2.1,1.9,5.2,1.9,7.6,0.6c3.9-2.1,2.9-7.3-0.8-9C152.2,65.5,149.7,66.1,147.9,67.9
					c-1.4,1.4,0.8,3.5,2.1,2.1c0.9-0.9,2-1.3,3.1-0.7c0.9,0.4,1.7,1.5,1.6,2.4c-0.3,2.9-8.1,1.9-4.8-1.7
					C151.4,68.6,149.2,66.5,147.9,67.9z"/>
			</g>
		</g>
		<g>
			<g>
				<path d="M140,50.1c1.8-3.1,1.3-7.3-1.5-9.6c-3.1-2.4-7.5-1.1-9.8,1.7c-2.5,3-2.2,7.6,1.2,9.9C133.2,54.4,137.7,53.2,140,50.1
					c1.1-1.6-1.5-3.1-2.6-1.5c-1.3,1.8-4.3,2.3-6.1,0.9c-2-1.6-1.5-4.2,0.1-5.8c1.4-1.4,3.9-2.2,5.5-0.5c1.4,1.5,1.5,3.8,0.5,5.4
					C136.4,50.2,139,51.8,140,50.1z"/>
			</g>
		</g>
		<g>
			<g>
				<path d="M153.3,163.9c1.5-1.9,2.1-4.4,0-6.1c-1.6-1.3-4.1-1.6-6.1-1c-2.3,0.7-3.7,2.6-3.3,5
					C144.7,166.2,150.6,166.9,153.3,163.9c1.3-1.4-0.8-3.6-2.1-2.1c-1.3,1.4-4.7,1.3-4.3-1c0.1-0.3,0.3-0.6,0.5-0.7
					c0.4-0.3,0.9-0.4,1.4-0.5c0.8-0.1,1.9,0,2.6,0.5c0.2,0.1,0.3,0.4,0.3,0.4c0,0.4-0.2,0.9-0.5,1.3
					C150,163.3,152.1,165.4,153.3,163.9z"/>
			</g>
		</g>
		<g>
			<g>
				<path d="M141.1,188.3c1.7-2.7,1.9-8.2-2.1-9.1c-2.3-0.5-5.2,1-6.5,2.8c-1.6,2.2-1,5.3,1,6.9C136.1,191,139.2,191.1,141.1,188.3
					c1.1-1.6-1.5-3.1-2.6-1.5c-1.1,1.5-3.2,0.3-3.7-1.2c-0.7-1.8,1.4-3.2,3-3.5c0.5-0.1,0.8,0,0.9,0.1c0.3,0.3,0.5,0.6,0.6,1.2
					c0.2,1-0.1,2.4-0.7,3.3C137.5,188.4,140.1,190,141.1,188.3z"/>
			</g>
		</g>
		<g>
			<g>
				<path d="M152.2,183.8c2-0.2,3.6-1.6,3.5-3.8c-0.1-1.9-1.4-3.7-3.2-4.1c-2.2-0.6-5,0.9-5.1,3.3
					C147.4,181.7,149.8,183.8,152.2,183.8c1.9,0,1.9-3,0-3c-0.7,0-2-0.7-1.8-1.6c0.1-0.5,1.2-0.5,1.4-0.4c0.3,0.1,0.5,0.3,0.6,0.5
					c0.2,0.2,0.1,0.2,0.2,0.4c0,0.1,0.1,0.6,0.1,0.4c0.1,0.5,0,0.7-0.5,0.8c-0.8,0.1-1.5,0.6-1.5,1.5
					C150.7,183,151.4,183.8,152.2,183.8z"/>
			</g>
		</g>
		<g>
			<g>
				<path d="M165.2,34.2c2.8-4.7,2.1-11.4-2.4-14.9c-4.8-3.7-11.5-1.4-15,2.9c-3.8,4.6-3.3,11.4,1.8,15
					C154.6,40.7,161.7,39,165.2,34.2c1.1-1.6-1.5-3.1-2.6-1.5c-2.6,3.6-8.3,4.6-11.8,1.7c-3.7-3-3-8.1,0.2-11.2
					c2.8-2.8,7.6-4,10.7-0.9c2.7,2.8,2.9,7.2,1,10.4C161.6,34.3,164.2,35.9,165.2,34.2z"/>
			</g>
		</g>
	</g>
</g>
<g id="business_x5F_pr">
	<ellipse id="shadow_3_" class="st5" cx="145" cy="228.5" rx="62.4" ry="13.5"/>
	<g id="social_media">
		<g id="twitter">
			<g>
				<g>
					<path d="M229.6,80.1c-0.9,0.9-2,1.6-3.1,2.2c0.6,0.1,1.2,0.2,1.8,0.2c-5.1-4.1-10.5-2.5-11.1,4.4c0.6-0.5,1.3-1,1.9-1.4
						c-4.1-1.1-6.9-4.7-10-7.3c-0.6-0.5-1.5-0.6-2.1,0c-3.8,3.6-0.7,9,2.4,11.4c0.4-0.9,0.7-1.7,1.1-2.6c-0.9,0.1-3.9,0.3-4.6-0.2
						c-1.1-0.9-2.9-0.1-2.5,1.5c1.1,4,3.6,6.6,7.4,8c0.1-1,0.3-2,0.4-2.9c-1.7,0.2-3.3,0.3-5,0.3c-1.3,0-1.9,1.6-1.1,2.6
						c1.2,1.3,2.5,2.4,4.2,3.2c1,0.5,2.5,0.5,3.4,1.1c-0.1-0.8-0.2-1.6-0.3-2.4c-1.6,1.9-5.7,3.5-8.3,3c-1.7-0.3-2.6,1.8-1.2,2.7
						c5.4,3.7,14.4,2.7,20-0.4c2.6-1.5,4.6-3.6,5.7-6.5c0.6-1.6,0.8-3.2,1-4.9c0.1-1.3-0.1-1.9,0.7-2.8c0.6-0.6,2.4-1.2,3.1-1.6
						c0.9-0.5,1-2.2,0-2.6c-1.6-0.7-2.9-1-4.6-1c0.5,0.6,1,1.3,1.4,1.9c0.5-1.3,1.1-2.7,1.7-4c0.8-1.7-1.8-3.3-2.6-1.5
						c-0.7,1.6-1.4,3.1-2,4.7c-0.4,0.9,0.6,1.9,1.4,1.9c1,0.2,2.1,0.4,3.1,0.6c0-0.9,0-1.7,0-2.6c-1.5,0.7-3.9,1.4-4.9,2.8
						c-1.2,1.7-0.4,5-0.9,6.8c-2.2,8-15.3,10.9-21.7,6.5c-0.4,0.9-0.8,1.8-1.2,2.7c3.6,0.7,8.9-0.9,11.2-3.8
						c0.6-0.8,0.6-1.8-0.3-2.4c-2.3-1.5-4.8-1.5-7-3.9c-0.4,0.9-0.7,1.7-1.1,2.6c1.7,0,3.3-0.1,5-0.3c1.7-0.2,2.1-2.3,0.4-2.9
						c-3-1.1-4.5-2.9-5.3-5.9c-0.8,0.5-1.7,1-2.5,1.5c1.7,1.3,4.7,1.2,6.7,1.1c1.2-0.1,2.2-1.7,1.1-2.6c-1.6-1.3-4.5-5.2-2.4-7.1
						c-0.7,0-1.4,0-2.1,0c3.5,3,6.6,6.8,11.3,8.1c1,0.3,1.8-0.5,1.9-1.4c-0.2-3.3,1.8-4,5.9-2.2c0.5,0.4,1.2,0.6,1.8,0.2
						c1.4-0.8,2.5-1.6,3.7-2.7C233.1,80.9,231,78.8,229.6,80.1L229.6,80.1z"/>
				</g>
			</g>
		</g>
		<g id="instagram">
			<g>
				<g>
					<path d="M232.4,150c-1.9,2.7-13.8,2.5-16.6,1.1c-3.5-1.8-3.3-5.4-3.4-8.8c-0.1-3.5-0.5-7.2,2.4-9.5c3.7-2.9,16.9-3.6,18,2.4
						C233.6,139.7,234.3,145.9,232.4,150c-0.8,1.7,1.8,3.3,2.6,1.5c1.9-4.1,1.5-8.3,1.1-12.7c-0.2-2.9-0.2-6.4-2.1-8.7
						c-2.5-2.9-8.4-2.3-11.8-2.2c-3.8,0-8.9,0.2-11.2,3.7c-2.3,3.5-1.7,9.2-1.4,13.1c0.3,3.5,0.6,6.9,4,8.7
						c3.7,1.9,8.6,1.3,12.6,1.2c3.7-0.1,6.5,0.2,8.8-3.1C236.1,149.9,233.5,148.4,232.4,150z"/>
				</g>
			</g>
			<g>
				<g>
					<path d="M227.8,146.3c1.8-2.7,1.7-6.5-0.7-8.8c-2.2-2.2-6-2.2-8.3-0.1c-2.3,2.1-2.3,6.8-0.2,9c2.2,2.4,6.7,2.6,8.9,0.1
						c1.3-1.4-0.8-3.6-2.1-2.1c-1.1,1.2-3.8,1.1-4.8-0.3c-1-1.4-0.8-4.1,0.7-4.9c3.7-2,5.7,2.8,3.8,5.5
						C224.2,146.4,226.8,147.9,227.8,146.3z"/>
				</g>
			</g>
			<g>
				<g>
					<path d="M231.5,135.4c0.1-1-0.6-2.2-1.7-2.4c-1.2-0.3-2.5,0.6-2.7,1.8c-0.1,1.1,0.5,2.1,1.6,2.5c1.2,0.4,2.5-0.3,2.8-1.5
						c0.2-0.8-0.2-1.7-1-1.8c-0.8-0.2-1.7,0.2-1.8,1c0,0,0,0.1,0,0.1c0.1-0.3,0.3-0.5,0.6-0.5c0.3-0.1,0.3-0.2,0.5-0.1
						c0.4,0.1,0.5,0.5,0.4,0.9c-0.1,0.2-0.1,0.3-0.3,0.4c-0.2,0.1-0.7,0.1-0.9,0c-0.2-0.1-0.3-0.3-0.4-0.5c0.1,0.2,0-0.2,0,0
						c-0.1,0.8,0.7,1.5,1.5,1.5C230.9,136.8,231.5,136.2,231.5,135.4z"/>
				</g>
			</g>
		</g>
		<g id="medium">
			<g>
				<g>
					<path d="M187.9,178.9c0,4.3,0,8.6,0,12.9c0,1.9,3,1.9,3,0c0-4.3,0-8.6,0-12.9C190.9,176.9,187.9,176.9,187.9,178.9L187.9,178.9
						z"/>
				</g>
			</g>
			<g>
				<g>
					<path d="M189.2,193.5c2.9,0.6,5.9,1.2,8.8,1.8c1.9,0.4,2.7-2.5,0.8-2.9c-2.9-0.6-5.9-1.2-8.8-1.8
						C188.1,190.2,187.3,193.1,189.2,193.5L189.2,193.5z"/>
				</g>
			</g>
			<g>
				<g>
					<path d="M200.1,193.6c0-4.4,0-8.7,0-13.1c0-1.9-3-1.9-3,0c0,4.4,0,8.7,0,13.1C197.1,195.5,200.1,195.5,200.1,193.6L200.1,193.6
						z"/>
				</g>
			</g>
			<g>
				<g>
					<path d="M189.3,179.5c3.1,0.5,6.2,1.2,9.4,1.5c1.9,0.2,1.9-2.8,0-3c-2.9-0.3-5.7-1-8.6-1.4
						C188.2,176.4,187.3,179.3,189.3,179.5L189.3,179.5z"/>
				</g>
			</g>
			<g>
				<g>
					<path d="M207.4,188.9c-1.4-1.9-3-3.6-4.4-5.6c-1.1-1.5-1.8-3.5-3.1-4.8c-1.3-1.4-3.5,0.7-2.1,2.1c0.6,0.6,1,1.7,1.4,2.5
						c0.6,1,1.3,2,2,2.9c1.3,1.7,2.7,3.3,4,5C206.4,192.5,208.5,190.4,207.4,188.9L207.4,188.9z"/>
				</g>
			</g>
			<g>
				<g>
					<path d="M203.3,183.5c0.9-1.7,1.9-3.3,2.9-4.9c1-1.6-1.6-3.1-2.6-1.5c-1,1.6-2,3.2-2.9,4.9
						C199.8,183.7,202.4,185.2,203.3,183.5L203.3,183.5z"/>
				</g>
			</g>
			<g>
				<g>
					<path d="M207.8,190.5c2.1-2.4,3.1-5.6,4.9-8.2c1.1-1.6-1.5-3.1-2.6-1.5c-1.6,2.4-2.5,5.4-4.4,7.6
						C204.5,189.8,206.6,192,207.8,190.5L207.8,190.5z"/>
				</g>
			</g>
			<g>
				<g>
					<path d="M205.2,179c1.2,0.1,2.5,0.8,3.6,1.2c1.1,0.4,2.4,0.6,3.5,1.2c1.7,0.8,3.3-1.7,1.5-2.6c-1.3-0.7-2.8-1-4.2-1.5
						c-1.4-0.5-2.9-1.1-4.4-1.3C203.3,175.8,203.3,178.8,205.2,179L205.2,179z"/>
				</g>
			</g>
			<g>
				<g>
					<path d="M211.6,180c0,4.4,0,8.8,0,13.2c0,1.9,3,1.9,3,0c0-4.4,0-8.8,0-13.2C214.6,178.1,211.6,178.1,211.6,180L211.6,180z"/>
				</g>
			</g>
			<g>
				<g>
					<path d="M199.1,189.4c4.4,2.1,9,3.9,13.7,5.6c1.8,0.7,2.6-2.2,0.8-2.9c-4.3-1.6-8.8-3.3-12.9-5.3
						C198.9,186,197.4,188.6,199.1,189.4L199.1,189.4z"/>
				</g>
			</g>
		</g>
		<g id="facebook">
			<g>
				<g>
					<path d="M191,43.2c-0.1,1-0.1,1.9,0,2.9c0.5-0.5,1-1,1.5-1.5c-4.3-0.1-5.2,2.3-5,6.2c0.1,0.9,0.6,1.4,1.5,1.5
						c2.4,0.2,1.6-0.5,1.5,2.2c0.5-0.5,1-1,1.5-1.5c-1,0-2,0.1-2.9,0.1c-0.8,0-1.5,0.7-1.5,1.5c0.1,2.1,0.2,4.3,0.2,6.4
						c0.5-0.5,1-1,1.5-1.5c-1.5,0.1-3,0.2-4.5,0.1c0.5,0.5,1,1,1.5,1.5c0-2.1,0.1-4.3,0-6.4c0-0.7-0.7-1.6-1.5-1.5
						c-0.4,0-0.8,0.1-1.2,0.1c-1.3,0.1-1.6,0.1-0.8,0.1c0.4,0.7,0.5-2,0.5-1.8c-0.5,0.5-1,1-1.5,1.5c0.8-0.1,1.7-0.2,2.5-0.3
						c0.8-0.1,1.5-0.6,1.5-1.5c0-1.3-0.4-3.5,0-4.7c0.9-3,4-2.6,6.3-2.2c1.9,0.4,2.7-2.5,0.8-2.9c-2.8-0.5-6.4-0.7-8.6,1.3
						c-2.3,2.1-1.4,5.8-1.5,8.5c0.5-0.5,1-1,1.5-1.5c-0.8,0.1-1.7,0.2-2.5,0.3c-0.9,0.1-1.4,0.6-1.5,1.5c-0.3,4.2,0.2,5.1,4.5,4.6
						c-0.5-0.5-1-1-1.5-1.5c0.1,2.1,0,4.3,0,6.4c0,0.8,0.7,1.4,1.5,1.5c1.5,0.1,3,0,4.5-0.1c0.8-0.1,1.5-0.6,1.5-1.5
						c0-2.1,0-4.3-0.2-6.4c-0.5,0.5-1,1-1.5,1.5c1-0.1,2-0.1,2.9-0.1c0.8,0,1.5-0.7,1.5-1.5c0-1.3,0.3-2.7,0-4c-0.1-0.5-0.6-0.9-1-1
						c-1.1-0.3-2.4-0.1-3.5-0.1c0.5,0.5,1,1,1.5,1.5c-0.1-1.4-0.5-3.3,2-3.2c0.8,0,1.5-0.7,1.5-1.5c-0.1-1,0-1.9,0-2.9
						C194.1,41.2,191.1,41.2,191,43.2L191,43.2z"/>
				</g>
			</g>
			<g>
				<g>
					<path d="M199,53.7c0-2.9,0-5.7,0-8.6c0-1.9,0.4-4.6-0.5-6.4c-1.6-3.2-5.4-3.3-8.4-3.3c-8.3-0.1-18.1-1.4-18.6,9.1
						c-0.2,4.4-0.9,10.2,0.3,14.6c1,3.7,5.3,3.8,8.6,3.9c2.9,0.1,5.7-0.1,8.6-0.1c2,0,4.2,0.3,6.1-0.4
						C198.9,60.9,199.1,57.2,199,53.7c-0.1-1.9-3.1-1.9-3,0c0.1,2.9-0.6,5.9-3.8,6.2c-1,0.1-2.1,0-3.2,0c-3.1,0-6.3,0.3-9.5,0.1
						c-4.2-0.3-4.7-1.4-5-5c-0.3-3.3-0.2-6.6-0.1-9.8c0.2-4,1.8-6.2,6-6.5c3.1-0.3,6.5-0.3,9.6-0.2c2.8,0.1,5.1-0.2,5.9,3.1
						c0.3,1.1,0,2.5,0,3.7c0,2.9,0,5.7,0,8.6C196,55.6,199,55.6,199,53.7z"/>
				</g>
			</g>
		</g>
	</g>
	<g id="pie_chart">
		<g id="lightbulb_1_">
			<g>
				<g>
					<path d="M121.2,171c-0.4-2.8,2.9-5.1,3.7-7.7c0.6-1.9,0.6-4.1-0.1-6c-1.2-3.2-4.3-5.4-7.7-5.5c-3.5-0.1-6.5,2.1-7.8,5.3
						c-0.7,1.8-0.8,3.9-0.4,5.8c0.6,2.7,3,4.7,3.3,7.4c0.3,1.9,3.2,1.1,2.9-0.8c-0.4-3.1-3.2-5.1-3.4-8.3c-0.4-4.4,3.8-8.2,8-5.7
						c4,2.4,2.7,6.9,0.5,9.9c-1.5,2.1-2.1,3.7-1.8,6.3C118.6,173.7,121.5,172.9,121.2,171L121.2,171z"/>
				</g>
			</g>
			<g>
				<g>
					<path d="M114.7,176.6c0.2-0.3,0.4-0.6,0.5-1c0.2-0.6-0.1-1.4-0.7-1.7c-0.1-0.1-0.3-0.2-0.4-0.2c-0.2-0.1-0.2-0.1-0.1,0
						c-0.1,0.4-0.1,0.8-0.2,1.2c0.4-0.8,1.2-0.9,1.4-2c0.1-0.6-0.1-1.7-0.8-1.9c-0.4-0.2-0.6,0.5-0.3,0.6c0,0,0.3-0.1,0.4-0.1
						c0.4,0.1,1.1-0.1,1.6-0.1c0.8,0,1.7,0,2.5,0.1c0.2,0,0.4,0,0.6,0c0.1,0,0.3,0,0.4,0c0.4,0.1,0.3-0.1-0.1-0.8
						c-0.6-0.1-0.9,1.6-0.9,2c0,0.7,0.5,1.3,1.1,1.4c0.5-0.9,0.6-1.1,0.1-0.6c-0.2,0.1-0.4,0.3-0.5,0.5c-0.2,0.3-0.3,0.7-0.3,1
						c0,0.3,0.1,0.6,0.3,0.8c0.1,0.1,0.7,0.6,0.7,0.7c0.2,0.2,0.2,0.1,0-0.1c-0.3,0.1-0.6,0.2-0.8,0.2c-0.5,0.1-1.1,0.1-1.6,0.2
						c-0.5,0-1.1,0-1.6,0C115.4,176.8,115,176.7,114.7,176.6C114.1,176.4,114.1,176.4,114.7,176.6c1.1-1.6-1.5-3.1-2.6-1.5
						c-2.9,4.2,3.9,5,6.5,4.7c1.6-0.2,3.3-0.6,4-2.2c0.3-0.7,0.3-1.5,0-2.2c-0.2-0.4-0.9-1.1-1-1.1c0,0.5,0,1,0,1.5
						c0.5-0.9,1.4-1.1,1.1-2.4c-0.2-1.2-1.3-1.8-2.4-2.1c0.4,0.5,0.7,1,1.1,1.4c0,0.4,0.6-0.6,0.7-0.8c0.2-0.5,0.3-0.9,0.2-1.4
						c-0.2-0.9-0.9-1.5-1.7-1.8c-1.2-0.4-2.7-0.3-4-0.3c-1.4,0-3.1-0.1-4.3,0.8c-1.7,1.2-1,2.9,0,4.2c-0.1-0.4-0.1-0.8-0.2-1.2
						c-0.1,0.3-0.7,0.7-0.9,0.9c-0.3,0.5-0.4,0.9-0.3,1.5c0.2,1.1,1,1.5,1.9,2c-0.2-0.6-0.5-1.1-0.7-1.7c-0.1,0.1-0.1,0.2-0.2,0.2
						C111,176.7,113.6,178.2,114.7,176.6z"/>
				</g>
			</g>
			<g>
				<g>
					<path d="M113.6,162.5c0.2,2,0.4,4,0.4,6c0,1,1.5,1,1.5,0c-0.1-2-0.2-4-0.4-6C115,161.6,113.5,161.6,113.6,162.5L113.6,162.5z"
						/>
				</g>
			</g>
			<g>
				<g>
					<path d="M118.2,168.7c0.6-2.1,0.9-4.3,1-6.5c0-1-1.5-1-1.5,0c-0.1,2.1-0.4,4.1-1,6.1C116.5,169.2,117.9,169.6,118.2,168.7
						L118.2,168.7z"/>
				</g>
			</g>
			<g>
				<g>
					<path d="M113.5,162.9c0.3,0.6,1,1.4,1.7,1c0.7-0.4,1.3-1.5,1.8-2.3c-0.5-0.1-0.9-0.1-1.4-0.2c0.2,0.7,0.4,2.2,1.3,2.4
						c0.8,0.1,1.3-1,1.6-1.6c0.4-0.9-0.9-1.6-1.3-0.8c-0.1,0.2-0.2,0.4-0.3,0.6c-0.1,0.2-0.5,0.4-0.1,0.3c0.2,0,0.4,0.1,0.6,0.1
						c0.3,0.2,0-0.5,0-0.5c-0.1-0.3-0.2-0.6-0.3-0.8c-0.2-0.6-1-0.8-1.4-0.2c-0.3,0.5-0.7,1.4-1.3,1.8c0.3,0,0.5,0,0.8,0
						c-0.2-0.1-0.3-0.3-0.4-0.5C114.3,161.3,113,162.1,113.5,162.9L113.5,162.9z"/>
				</g>
			</g>
		</g>
		<g id="clouds">
			<g>
				<g>
					<path d="M95.6,88.4c3.7-1.2,5.6,0.8,6.9,4.1c0.3,0.8,1.3,1.5,2.2,0.9c2.2-1.4,4.6,0.1,4.3,3.6c-0.1,0.8,0.7,1.5,1.5,1.5
						c5.1-0.1,1.1,4.3,0.5,5.4c0,0-2.3,6.8-3.5,2c-0.3-1.1-1.7-1.4-2.5-0.7c-1.9,0.2-3.8,0.5-5.6,0.7c-0.7-1.1-2.3-0.9-2.7,0.4
						c-4.3,3.7-6.8,3.5-7.6-0.6c-0.2-0.8-1.1-1.2-1.8-1c-3.1,0.7-6.5-6.9-2.1-6.6c0.8,0,1.5-0.7,1.5-1.5c0-2.3,2.5-3.1,3.6-1.1
						c0.8,1.4,2.7,0.7,2.8-0.8c0.2-2.5,0.4-4.9,2.9-6.5c1.6-1,0.1-3.6-1.5-2.6c-3.4,2.1-4.2,5.2-4.4,9.1c0.9-0.3,1.9-0.5,2.8-0.8
						c-3.1-5.7-9.2-3.9-9.2,2.6c0.5-0.5,1-1,1.5-1.5c-3.6-0.2-6.5,3.7-6.1,7.3c0.5,4.1,5.4,6,9,5.2c-0.6-0.3-1.2-0.7-1.8-1
						c1.6,7.5,11,7.7,13.4,0.6c-0.9,0.1-1.8,0.2-2.7,0.4c2.8,4.1,7.1,2.9,10.3-0.1c-0.8-0.2-1.7-0.4-2.5-0.7c0.5,2,2.1,3.6,4.3,3.6
						c3-0.1,3.6-2.3,4.6-4.5c1.1-2.3,3.4-3.8,2.5-6.8c-0.8-2.5-3.1-3.6-5.5-3.5c0.5,0.5,1,1,1.5,1.5c0.4-4.9-4.1-9.3-8.8-6.2
						c0.7,0.3,1.5,0.6,2.2,0.9c-1.9-4.9-5-8-10.6-6.2C93,86.1,93.8,89,95.6,88.4z"/>
				</g>
			</g>
			<g>
				<g>
					<path d="M81.8,125.8c-0.3-2.3,4-2.1,4.5-0.5c0.2,0.6,0.8,1.1,1.4,1.1c1.4,0,4.1,0.8,2.8,2.8c-0.4,0.6-1.3,0.6-1.8,1.1
						c-0.4,0.4-0.3,0.9-0.6,1.3c-0.9,1.3-5,3-5.9,0.3c-0.3-1-1.3-1.4-2.2-0.9c-1.4-1.3-1.5-2.2-0.3-2.6c0.4-0.3,0.9-0.5,1.4-0.5
						c1.9-0.4,1.1-3.3-0.8-2.9c-2.7,0.6-5.2,2.7-4.7,5.8c0.5,2.9,3.4,4.1,6,2.8c-0.7-0.3-1.5-0.6-2.2-0.9c1,3,3.7,3.8,6.7,3.4
						c1.2-0.2,2.5-0.6,3.5-1.4c0.8-0.6,1.1-1.6,1.6-2.3c0.7-0.8,1.7-1,2.2-2.2c0.4-0.9,0.5-2,0.3-3c-0.7-2.6-3.4-3.8-5.9-3.7
						c0.5,0.4,1,0.7,1.4,1.1c-1.7-5.5-11.2-4-10.3,2.1C79.2,128.5,82.1,127.7,81.8,125.8L81.8,125.8z"/>
				</g>
			</g>
			<g>
				<g>
					<path d="M87.3,154.3c-1.1,4,3.5,6.7,6.4,3.7c-0.6,0.1-1.2,0.2-1.8,0.2c2,1.1,4.7,0.8,5.8-1.4c0.5-0.9,0.5-2.1,0.1-3
						c-0.2-0.5-0.5-1-1-1.4c-0.1-0.1-1.3-0.9-0.9-0.5c0.1,0.4,0.3,0.7,0.4,1.1c-0.3-2.5-1-5.1-3.9-5.5c-2.4-0.3-4.3,1.5-4.6,3.8
						c0.8-0.4,1.5-0.9,2.3-1.3c-2.2-1.2-5.4-1.3-5.7,1.9c-0.3,2.6,2.1,4.7,4.6,4.6c1.9-0.1,1.9-3.1,0-3c-0.6,0.1-1.1-0.1-1.4-0.6
						c0.2-0.6,0.6-0.7,1-0.3c1.1,0.6,2.1-0.2,2.3-1.3c0.2-1.7,2-0.3,2.3,0.5c0.2,0.6,0,1.4,0.3,2c0.3,0.4,0.9,0.5,1.1,0.9
						c0.8,1.1-0.3,1.6-1.3,1.1c-0.6-0.3-1.4-0.2-1.8,0.2c-0.9,0.8-1.4,0.5-1.4-0.8C90.7,153.3,87.8,152.5,87.3,154.3L87.3,154.3z"/>
				</g>
			</g>
		</g>
		<g id="circle_and_lines">
			<g>
				<path d="M126,54c19.4,0,37.4,7.7,50.8,21.8c12.9,13.6,19.7,31.3,19.2,50c-0.5,18.7-8.2,36.1-21.8,48.9
					C161.1,187.2,144,194,126,194c-19.4,0-37.4-7.7-50.8-21.8c-12.9-13.6-19.7-31.3-19.2-50c0.5-18.7,8.2-36.1,21.8-48.9
					C90.9,60.8,108,54,126,54L126,54 M126,51c-18,0-36.1,6.6-50.2,20.1c-29.2,27.8-30.5,74-2.7,103.2c14.4,15.1,33.6,22.7,53,22.7
					c18,0,36.1-6.6,50.2-20.1c29.2-27.8,30.5-74,2.7-103.2C164.6,58.6,145.3,51,126,51L126,51z"/>
			</g>
			<g>
				<g>
					<path d="M125,124.6c21.1,11.4,42.2,22.8,63.2,34.1c1.7,0.9,3.2-1.7,1.5-2.6c-21.1-11.4-42.2-22.8-63.2-34.1
						C124.8,121.1,123.3,123.7,125,124.6L125,124.6z"/>
				</g>
			</g>
			<g>
				<g>
					<path d="M141.7,54.2c-4.8,23.1-12.3,45.6-17.1,68.7c-0.4,1.9,2.5,2.7,2.9,0.8c4.8-23.1,12.3-45.6,17.1-68.7
						C145,53.1,142.1,52.3,141.7,54.2L141.7,54.2z"/>
				</g>
			</g>
			<g>
				<g>
					<path d="M196.3,115.4c-23.4,3.4-47.1,4.1-70.4,7.4c-1.9,0.3-1.1,3.2,0.8,2.9c23.4-3.4,47.1-4.1,70.4-7.4
						C199,118,198.2,115.1,196.3,115.4L196.3,115.4z"/>
				</g>
			</g>
			<g>
				<g>
					<path d="M186.2,85c-19.7,13-40.8,23.8-60.5,36.8c-1.6,1.1-0.1,3.7,1.5,2.6c19.7-13,40.8-23.8,60.5-36.8
						C189.4,86.5,187.9,83.9,186.2,85L186.2,85z"/>
				</g>
			</g>
			<g>
				<g>
					<path d="M124.7,124c12.6,20.4,25.2,40.8,37.8,61.1c1,1.6,3.6,0.1,2.6-1.5c-12.6-20.4-25.2-40.8-37.8-61.1
						C126.2,120.9,123.7,122.4,124.7,124L124.7,124z"/>
				</g>
			</g>
		</g>
	</g>
</g>
</svg>
