<?xml version="1.0" encoding="utf-8"?>
<!-- Generator: Adobe Illustrator 22.1.0, SVG Export Plug-In . SVG Version: 6.00 Build 0)  -->
<svg version="1.1" xmlns="http://www.w3.org/2000/svg" xmlns:xlink="http://www.w3.org/1999/xlink" x="0px" y="0px"
	 viewBox="0 0 289 282" style="enable-background:new 0 0 289 282;" xml:space="preserve">
<style type="text/css">
	.st0{fill:#7C7C7C;}
	.st1{fill:none;stroke:#FFFFFF;stroke-miterlimit:10;}
	.st2{fill:#FFFFFF;}
	.st3{fill:#FFFFFF;stroke:#FFFFFF;stroke-width:4;stroke-miterlimit:10;}
</style>
<g id="Layer_2">
</g>
<g id="Layer_1">
	<g id="software_x5F_sensors">
		<ellipse id="shadow_2_" class="st0" cx="143" cy="234" rx="101" ry="17"/>
		<g id="background_windows">
			<path class="st1" d="M252,151c0,0,12.4,0.4,14.7-0.3c2.3-0.7,5.3-1.7,7.4-5.3s1.9-4.4,1.9-6.4s0-112,0-116s-0.3-6.4-3-9s-5-3-9-3
				S76,10,71,11s-5,1-8.6,3.6S59,23,59,23v7"/>
			<path class="st1" d="M35,51c0,0-7.6,0-11.8,0S13,57.8,13,62.4S13,174,13,179s4,12,12,12s192.7,0.5,195.3-0.2
				C223,190,230,188,230,179s0-9,0-9"/>
		</g>
		<g id="main_window">
			<g id="display">
				<g>
					<g>
						<path class="st2" d="M140.6,119.3c3,0.1,6.4,0.8,9.2-0.7c4-2.2,4.9-7.6,5.7-11.5c-1,0-1.9,0-2.9,0c1.5,7.5,2.9,15.1,4.4,22.6
							c0.3,1.4,2.6,1.4,2.9,0c2.1-10.4,3.7-21,5-31.5c-1,0.1-2,0.3-2.9,0.4c2.6,12.1,5.2,24.3,7.7,36.4c0.4,1.8,2.8,1.2,2.9-0.4
							c0.7-8.1,0.5-16.4,2.6-24.4c-0.7,0.3-1.5,0.6-2.2,0.9c2.8,1.5,3.1,8.7,3.7,11.4c1.3,5.7,2.4,11.3,3.4,17.1
							c0.3,1.8,2.8,1.2,2.9-0.4c1.3-15.6,2.2-31.2,2.7-46.8c-1,0-2,0-3,0c-0.2,12.1,1,24.4,3.1,36.3c0.3,1.7,3,1.3,2.9-0.4
							c0-2.6,1.7-5.9,2.6-8.3c1-2.8,2.2-5.6,2.8-8.5c-1-0.1-2-0.3-2.9-0.4c0.8,5.7,2.2,11.3,2.9,17.1c0.2,1.8,3.1,2,3,0
							c-0.2-4.3,1.5-8.9,2.4-13.1c1.2-6.5,2.1-13,3.5-19.5c-1,0-1.9,0-2.9,0c2.2,13,4.2,26,6.1,39c0.3,1.8,2.7,1.1,2.9-0.4
							c1.4-10.8,2.9-21.7,4.3-32.5c-1,0-2,0-3,0c0.2,4.1,0.3,8.2,1,12.3c0.3,1.9,0.5,5.3,2.4,6.4c0.6,0.4,1.3,0.2,1.8-0.2
							c1.3-1,0.8-3.3,1.9-4.2c0.4-0.4,2.8,0.5,3.7,0.5c1.8,0.1,3.4-0.3,5.2-0.9c1.8-0.7,1-3.6-0.8-2.9c-2.8,1-4.9,0.1-7.6,0
							c-0.7,0-1.2,0-1.8,0.4c-1.8,1.1-1.3,3.9-2.7,5c0.6-0.1,1.2-0.2,1.8-0.2c-1.1-0.7-1.3-7-1.4-8.1c-0.2-2.6-0.3-5.3-0.4-8
							c-0.1-2-2.8-1.9-3,0c-1.4,10.8-2.9,21.7-4.3,32.5c1-0.1,2-0.3,2.9-0.4c-1.8-13-3.8-26-6.1-39c-0.3-1.5-2.6-1.4-2.9,0
							c-1.5,6.8-2.3,13.7-3.7,20.5c-0.9,4.2-2.4,8.7-2.3,13c1,0,2,0,3,0c-0.7-5.7-2.2-11.3-2.9-17.1c-0.2-1.5-2.5-2.2-2.9-0.4
							c-1.3,5.7-5.6,11.7-5.5,17.6c1-0.1,2-0.3,2.9-0.4c-2-11.6-3.2-23.7-3-35.5c0-1.9-2.9-1.9-3,0c-0.5,15.6-1.3,31.2-2.7,46.8
							c1-0.1,2-0.3,2.9-0.4c-1.2-6.9-2.7-13.8-4.2-20.6c-0.7-3.1-1.2-8-4.3-9.7c-0.8-0.4-1.9-0.1-2.2,0.9
							c-2.2,8.2-1.9,16.8-2.7,25.2c1-0.1,2-0.3,2.9-0.4c-2.6-12.1-5.2-24.3-7.7-36.4c-0.4-1.8-2.8-1.1-2.9,0.4
							c-1.3,10.3-2.9,20.5-4.9,30.7c1,0,1.9,0,2.9,0c-1.5-7.5-2.9-15.1-4.4-22.6c-0.3-1.4-2.6-1.4-2.9,0c-0.6,3.4-1.3,8.8-5.1,10.1
							c-2.1,0.7-4.7,0-6.8,0C138.6,116.3,138.6,119.3,140.6,119.3L140.6,119.3z"/>
					</g>
				</g>
				<rect x="131" y="80.8" class="st3" width="106.9" height="77.3"/>
			</g>
			<g id="code">
				<g>
					<g>
						<path class="st2" d="M74.2,150.9c5.2,0,10.5,0,15.7,0c1.9,0,1.9-3,0-3c-5.2,0-10.5,0-15.7,0C72.3,147.9,72.3,150.9,74.2,150.9
							L74.2,150.9z"/>
					</g>
				</g>
				<g>
					<g>
						<path class="st2" d="M96.6,147.4c-0.1,0-0.2,0-0.3,0c-0.8,0-1.5,0.7-1.5,1.5s0.7,1.5,1.5,1.5c0.1,0,0.2,0,0.3,0
							c0.8,0,1.5-0.7,1.5-1.5C98.1,148.1,97.4,147.4,96.6,147.4L96.6,147.4z"/>
					</g>
				</g>
				<g>
					<g>
						<path class="st2" d="M86.4,134.9c1.6,0,3.3,0,4.9,0c1.9,0,1.9-3,0-3c-1.6,0-3.3,0-4.9,0C84.5,131.9,84.5,134.9,86.4,134.9
							L86.4,134.9z"/>
					</g>
				</g>
				<g>
					<g>
						<path class="st2" d="M80,140.5c-0.1,0-0.2,0-0.3,0c-0.8,0-1.5,0.7-1.5,1.5s0.7,1.5,1.5,1.5c0.1,0,0.2,0,0.3,0
							c0.8,0,1.5-0.7,1.5-1.5S80.9,140.5,80,140.5L80,140.5z"/>
					</g>
				</g>
				<g>
					<g>
						<path class="st2" d="M86.1,143.2c3.4,0,6.8,0,10.2,0c1.9,0,1.9-3,0-3c-3.4,0-6.8,0-10.2,0C84.2,140.2,84.2,143.2,86.1,143.2
							L86.1,143.2z"/>
					</g>
				</g>
				<g>
					<g>
						<path class="st2" d="M79.7,134.9c1.9,0,1.9-3,0-3C77.8,131.9,77.8,134.9,79.7,134.9L79.7,134.9z"/>
					</g>
				</g>
				<g>
					<g>
						<path class="st2" d="M77.2,125.2c1.9,0,3.8,0,5.7,0c1.9,0,1.9-3,0-3s-3.8,0-5.7,0S75.3,125.2,77.2,125.2L77.2,125.2z"/>
					</g>
				</g>
				<g>
					<g>
						<path class="st2" d="M87.9,124.9c5.3,0,10.7,0,16,0c1.9,0,1.9-3,0-3c-5.3,0-10.7,0-16,0C85.9,121.9,85.9,124.9,87.9,124.9
							L87.9,124.9z"/>
					</g>
				</g>
				<g>
					<g>
						<path class="st2" d="M109.2,124.9c1.4,0,2.9,0,4.3,0c1.9,0,1.9-3,0-3c-1.4,0-2.9,0-4.3,0C107.3,121.9,107.3,124.9,109.2,124.9
							L109.2,124.9z"/>
					</g>
				</g>
				<g>
					<g>
						<path class="st2" d="M93.6,99.4c3.1,0,6.1,0,9.2,0c1.9,0,1.9-3,0-3c-3.1,0-6.1,0-9.2,0C91.7,96.4,91.7,99.4,93.6,99.4
							L93.6,99.4z"/>
					</g>
				</g>
				<g>
					<g>
						<path class="st2" d="M71.9,116.9c6.2,0,12.5,0,18.7,0c1.9,0,1.9-3,0-3c-6.2,0-12.5,0-18.7,0C69.9,113.9,69.9,116.9,71.9,116.9
							L71.9,116.9z"/>
					</g>
				</g>
				<g>
					<g>
						<path class="st2" d="M96.2,116.2c3.3,0,6.7,0,10,0c1.9,0,1.9-3,0-3c-3.3,0-6.7,0-10,0C94.3,113.2,94.3,116.2,96.2,116.2
							L96.2,116.2z"/>
					</g>
				</g>
				<g>
					<g>
						<path class="st2" d="M112.7,114.7c0-0.1,0-0.2,0-0.3c0-0.8-0.7-1.5-1.5-1.5s-1.5,0.7-1.5,1.5c0,0.1,0,0.2,0,0.3
							c0,0.8,0.7,1.5,1.5,1.5C112,116.1,112.7,115.5,112.7,114.7L112.7,114.7z"/>
					</g>
				</g>
				<g>
					<g>
						<path class="st2" d="M63.5,99.2c5.2,0,10.5,0,15.7,0c1.9,0,1.9-3,0-3c-5.2,0-10.5,0-15.7,0C61.6,96.2,61.6,99.2,63.5,99.2
							L63.5,99.2z"/>
					</g>
				</g>
				<g>
					<g>
						<path class="st2" d="M86.5,99.2c1.9,0,1.9-3,0-3S84.6,99.2,86.5,99.2L86.5,99.2z"/>
					</g>
				</g>
				<g>
					<g>
						<path class="st2" d="M56.5,108.5c6.3,0,12.7,0,19,0c1.9,0,1.9-3,0-3c-6.3,0-12.7,0-19,0C54.6,105.5,54.6,108.5,56.5,108.5
							L56.5,108.5z"/>
					</g>
				</g>
				<g>
					<g>
						<path class="st2" d="M82.2,108.2c6.7,0,13.3,0,20,0c1.9,0,1.9-3,0-3c-6.7,0-13.3,0-20,0C80.3,105.2,80.3,108.2,82.2,108.2
							L82.2,108.2z"/>
					</g>
				</g>
				<g>
					<g>
						<path class="st2" d="M55.2,90.5c6.7,0,13.3,0,20,0c1.9,0,1.9-3,0-3c-6.7,0-13.3,0-20,0C53.2,87.5,53.2,90.5,55.2,90.5
							L55.2,90.5z"/>
					</g>
				</g>
				<g>
					<g>
						<path class="st2" d="M82.5,90.2c0.1,0,0.2,0,0.3,0c0.8,0,1.5-0.7,1.5-1.5s-0.7-1.5-1.5-1.5c-0.1,0-0.2,0-0.3,0
							c-0.8,0-1.5,0.7-1.5,1.5C81.1,89.5,81.7,90.2,82.5,90.2L82.5,90.2z"/>
					</g>
				</g>
				<g>
					<g>
						<path class="st2" d="M56.2,99.2c1.9,0,1.9-3,0-3C54.2,96.2,54.2,99.2,56.2,99.2L56.2,99.2z"/>
					</g>
				</g>
				<g>
					<g>
						<path class="st2" d="M56.8,116.5c0.2,0,0.4,0,0.7,0c0.8,0,1.5-0.7,1.5-1.5s-0.7-1.5-1.5-1.5c-0.2,0-0.4,0-0.7,0
							c-0.8,0-1.5,0.7-1.5,1.5C55.4,115.8,56,116.5,56.8,116.5L56.8,116.5z"/>
					</g>
				</g>
				<g>
					<g>
						<path class="st2" d="M63.8,116.5c1.9,0,1.9-3,0-3S61.9,116.5,63.8,116.5L63.8,116.5z"/>
					</g>
				</g>
				<g>
					<g>
						<path class="st2" d="M56.8,125.2c4.7,0,9.3,0,14,0c1.9,0,1.9-3,0-3c-4.7,0-9.3,0-14,0C54.9,122.2,54.9,125.2,56.8,125.2
							L56.8,125.2z"/>
					</g>
				</g>
				<g>
					<g>
						<path class="st2" d="M57.4,135.2c3.2,0,6.4,0,9.7,0c1.9,0,1.9-3,0-3c-3.2,0-6.4,0-9.7,0C55.4,132.2,55.4,135.2,57.4,135.2
							L57.4,135.2z"/>
					</g>
				</g>
				<g>
					<g>
						<path class="st2" d="M73.1,132.2c-0.1,0-0.2,0-0.3,0c-0.8,0-1.5,0.7-1.5,1.5s0.7,1.5,1.5,1.5c0.1,0,0.2,0,0.3,0
							c0.8,0,1.5-0.7,1.5-1.5S74,132.2,73.1,132.2L73.1,132.2z"/>
					</g>
				</g>
				<g>
					<g>
						<path class="st2" d="M56.6,143.8c5.4,0,10.9,0,16.3,0c1.9,0,1.9-3,0-3c-5.4,0-10.9,0-16.3,0C54.6,140.8,54.6,143.8,56.6,143.8
							L56.6,143.8z"/>
					</g>
				</g>
				<g>
					<g>
						<path class="st2" d="M56.8,151.8c4,0,7.9,0,11.9,0c1.9,0,1.9-3,0-3c-4,0-7.9,0-11.9,0C54.9,148.8,54.9,151.8,56.8,151.8
							L56.8,151.8z"/>
					</g>
				</g>
			</g>
			<g id="secondary_buttons">
				<g>
					<g>
						<path class="st2" d="M143.1,41.3c-1.8,2.5-4.2,5.1-4.1,8.4c0.1,3.4,3.1,5.9,5.4,7.9c1.4,1.3,3.6-0.8,2.1-2.1
							c-1.9-1.7-4.9-3.9-4.4-6.8c0.4-2.2,2.3-4.2,3.6-6C146.8,41.2,144.2,39.7,143.1,41.3L143.1,41.3z"/>
					</g>
				</g>
				<g>
					<g>
						<path class="st2" d="M140.5,51.4c3.9,0,7.9,0,11.8,0c1.9,0,1.9-3,0-3c-3.9,0-7.9,0-11.8,0C138.5,48.4,138.5,51.4,140.5,51.4
							L140.5,51.4z"/>
					</g>
				</g>
				<g>
					<g>
						<path class="st2" d="M215,54.7c-5.6,6.8-15.9-2.5-11.2-9.3c3.5-5,10.9-4.3,13.1,1.4c0.7,1.8,3.6,1,2.9-0.8
							c-1.5-4.1-4.8-7-9.3-7c-4,0-7.9,2.3-9.8,5.8c-5.1,9.7,9,21.1,16.4,12C218.3,55.3,216.2,53.2,215,54.7L215,54.7z"/>
					</g>
				</g>
				<g>
					<g>
						<path class="st2" d="M212.2,46.8c1.9,1.1,5,4,7.4,2.8c1.2-0.6,1.4-1.9,1.7-3.1c0.5-1.5,0.9-3.1,1.4-4.6
							c0.6-1.9-2.3-2.6-2.9-0.8c-0.3,0.9-0.5,1.7-0.8,2.6c-0.2,0.6-0.4,2.5-0.9,2.9c-0.4,0.4,0.1,0.2-0.4,0.1
							c-0.4-0.1-0.9-0.5-1.3-0.8c-0.9-0.5-1.8-1.1-2.8-1.6C212,43.2,210.5,45.8,212.2,46.8L212.2,46.8z"/>
					</g>
				</g>
				<g>
					<g>
						<path class="st2" d="M177,42.8c1.3,1.8,3.2,3.7,3.6,6c0.5,2.9-2.5,5-4.4,6.8c-1.4,1.3,0.7,3.4,2.1,2.1
							c2.3-2.1,5.3-4.5,5.4-7.9c0.1-3.3-2.3-5.9-4.1-8.4C178.5,39.7,175.9,41.2,177,42.8L177,42.8z"/>
					</g>
				</g>
				<g>
					<g>
						<path class="st2" d="M182.3,48.4c-3.9,0-7.9,0-11.8,0c-1.9,0-1.9,3,0,3c3.9,0,7.9,0,11.8,0C184.2,51.4,184.2,48.4,182.3,48.4
							L182.3,48.4z"/>
					</g>
				</g>
			</g>
			<g id="main_sequence_buttons">
				<g>
					<g>
						<path class="st2" d="M69.7,49.1c-0.2-4.2-3-8-7.4-8.3c-4.5-0.3-8.3,3.2-8.9,7.6c-0.6,4.3,2.3,8.6,6.7,9.1
							C65,58.1,69.4,54,69.7,49.1c0.1-1.9-2.9-1.9-3,0c-0.1,3.2-3.5,6.2-6.8,5.3c-2.8-0.7-4.2-3.7-3.5-6.3c1.6-6.1,10-5.3,10.3,1
							C66.7,51.1,69.7,51.1,69.7,49.1z"/>
					</g>
				</g>
				<g>
					<g>
						<path class="st2" d="M82.3,44.2c6.7,0.3,5,10.3-0.8,10.3C74.7,54.4,76.4,44.5,82.3,44.2c1.9-0.1,1.9-3.1,0-3
							c-9.7,0.5-11.5,16.2-0.8,16.3c4.3,0,7.5-3.7,8.1-7.7c0.7-4.9-2.5-8.3-7.3-8.6C80.4,41.1,80.4,44.1,82.3,44.2z"/>
					</g>
				</g>
				<g>
					<g>
						<path class="st2" d="M100.1,44.9c6.6-2.9,10.4,7.6,3.5,9.2c-1.9,0.4-4.2,0-5.5-1.5C96.2,50.1,97.6,46.3,100.1,44.9
							c1.7-1,0.2-3.5-1.5-2.6c-4,2.3-5.7,7.8-3.1,11.7c2.1,3.1,6.5,3.9,9.8,2.7c4.1-1.5,6.1-6.1,4.5-10.1c-1.8-4.7-6.9-6.3-11.3-4.3
							C96.9,43.1,98.4,45.6,100.1,44.9z"/>
					</g>
				</g>
			</g>
			<g id="frame">
				<g>
					<g>
						<path class="st2" d="M36.3,69.9c71.6,0,143.3,0,214.9,0c1.9,0,1.9-3,0-3c-71.6,0-143.3,0-214.9,0
							C34.4,66.9,34.4,69.9,36.3,69.9L36.3,69.9z"/>
					</g>
				</g>
				<path class="st1" d="M240,170H47c-6.6,0-12-5.4-12-12V42c0-6.6,5.4-12,12-12h193c6.6,0,12,5.4,12,12v116
					C252,164.6,246.6,170,240,170z"/>
			</g>
		</g>
	</g>
</g>
</svg>
