<?xml version="1.0" encoding="utf-8"?>
<!-- Generator: Adobe Illustrator 22.1.0, SVG Export Plug-In . SVG Version: 6.00 Build 0)  -->
<svg version="1.1" xmlns="http://www.w3.org/2000/svg" xmlns:xlink="http://www.w3.org/1999/xlink" x="0px" y="0px"
	 viewBox="0 0 289 282" style="enable-background:new 0 0 289 282;" xml:space="preserve">
<style type="text/css">
	.st0{opacity:0.3;fill:#7C7C7C;}
	.st1{fill:#FFFFFF;stroke:#FFFFFF;stroke-width:0.6776;stroke-miterlimit:10;}
	.st2{fill:#FFFFFF;}
	.st3{fill:none;stroke:#FFFFFF;stroke-width:4.0659;stroke-miterlimit:10;}
</style>
<g id="Layer_2">
</g>
<g id="Layer_1">
	<g id="business_x5F_pr">
		<ellipse id="shadow_3_" class="st0" cx="137.4" cy="262.3" rx="67.6" ry="14.6"/>
		<g id="social_media">
			<g id="twitter">
				<g>
					<g>
						<path class="st1" d="M280.2,72.2c-1.2,1.2-2.7,2.2-4.2,3c0.8,0.1,1.6,0.3,2.4,0.3c-6.9-5.6-14.2-3.4-15,6
							c0.8-0.7,1.8-1.4,2.6-1.9c-5.6-1.5-9.4-6.4-13.6-9.9c-0.8-0.7-2-0.8-2.8,0c-5.2,4.9-0.9,12.2,3.3,15.5
							c0.5-1.2,0.9-2.3,1.5-3.5c-1.2,0.1-5.3,0.4-6.2-0.3c-1.5-1.2-3.9-0.1-3.4,2c1.5,5.4,4.9,8.9,10,10.8c0.1-1.4,0.4-2.7,0.5-3.9
							c-2.3,0.3-4.5,0.4-6.8,0.4c-1.8,0-2.6,2.2-1.5,3.5c1.6,1.8,3.4,3.3,5.7,4.3c1.4,0.7,3.4,0.7,4.6,1.5c-0.1-1.1-0.3-2.2-0.4-3.3
							c-2.2,2.6-7.7,4.7-11.2,4.1c-2.3-0.4-3.5,2.4-1.6,3.7c7.3,5,19.5,3.7,27.1-0.5c3.5-2,6.2-4.9,7.7-8.8c0.8-2.2,1.1-4.3,1.4-6.6
							c0.1-1.8-0.1-2.6,0.9-3.8c0.8-0.8,3.3-1.6,4.2-2.2c1.2-0.7,1.4-3,0-3.5c-2.2-0.9-3.9-1.4-6.2-1.4c0.7,0.8,1.4,1.8,1.9,2.6
							c0.7-1.8,1.5-3.7,2.3-5.4c1.1-2.3-2.4-4.5-3.5-2c-0.9,2.2-1.9,4.2-2.7,6.4c-0.5,1.2,0.8,2.6,1.9,2.6c1.4,0.3,2.8,0.5,4.2,0.8
							c0-1.2,0-2.3,0-3.5c-2,0.9-5.3,1.9-6.6,3.8c-1.6,2.3-0.5,6.8-1.2,9.2c-3,10.8-20.7,14.8-29.4,8.8c-0.5,1.2-1.1,2.4-1.6,3.7
							c4.9,0.9,12.1-1.2,15.2-5.2c0.8-1.1,0.8-2.4-0.4-3.3c-3.1-2-6.5-2-9.5-5.3c-0.5,1.2-0.9,2.3-1.5,3.5c2.3,0,4.5-0.1,6.8-0.4
							s2.8-3.1,0.5-3.9c-4.1-1.5-6.1-3.9-7.2-8c-1.1,0.7-2.3,1.4-3.4,2c2.3,1.8,6.4,1.6,9.1,1.5c1.6-0.1,3-2.3,1.5-3.5
							c-2.2-1.8-6.1-7-3.3-9.6c-0.9,0-1.9,0-2.8,0c4.7,4.1,8.9,9.2,15.3,11c1.4,0.4,2.4-0.7,2.6-1.9c-0.3-4.5,2.4-5.4,8-3
							c0.7,0.5,1.6,0.8,2.4,0.3c1.9-1.1,3.4-2.2,5-3.7C284.9,73.3,282.1,70.4,280.2,72.2L280.2,72.2z"/>
					</g>
				</g>
			</g>
			<g id="instagram">
				<g>
					<g>
						<path class="st1" d="M277.6,166.9c-2.6,3.7-18.7,3.4-22.5,1.5c-4.7-2.4-4.5-7.3-4.6-11.9c-0.1-4.7-0.7-9.8,3.3-12.9
							c5-3.9,22.9-4.9,24.4,3.3C279.2,152.9,280.2,161.4,277.6,166.9c-1.1,2.3,2.4,4.5,3.5,2c2.6-5.6,2-11.2,1.5-17.2
							c-0.3-3.9-0.3-8.7-2.8-11.8c-3.4-3.9-11.4-3.1-16-3c-5.2,0-12.1,0.3-15.2,5c-3.1,4.7-2.3,12.5-1.9,17.8
							c0.4,4.7,0.8,9.4,5.4,11.8c5,2.6,11.7,1.8,17.1,1.6c5-0.1,8.8,0.3,11.9-4.2C282.6,166.8,279.1,164.7,277.6,166.9z"/>
					</g>
				</g>
				<g>
					<g>
						<path class="st1" d="M271.4,161.9c2.4-3.7,2.3-8.8-0.9-11.9c-3-3-8.1-3-11.2-0.1c-3.1,2.8-3.1,9.2-0.3,12.2
							c3,3.3,9.1,3.5,12.1,0.1c1.8-1.9-1.1-4.9-2.8-2.8c-1.5,1.6-5.2,1.5-6.5-0.4c-1.4-1.9-1.1-5.6,0.9-6.6c5-2.7,7.7,3.8,5.2,7.5
							C266.5,162,270,164.1,271.4,161.9z"/>
					</g>
				</g>
				<g>
					<g>
						<path class="st1" d="M276.4,147.1c0.1-1.4-0.8-3-2.3-3.3c-1.6-0.4-3.4,0.8-3.7,2.4c-0.1,1.5,0.7,2.8,2.2,3.4
							c1.6,0.5,3.4-0.4,3.8-2c0.3-1.1-0.3-2.3-1.4-2.4c-1.1-0.3-2.3,0.3-2.4,1.4v0.1c0.1-0.4,0.4-0.7,0.8-0.7
							c0.4-0.1,0.4-0.3,0.7-0.1c0.5,0.1,0.7,0.7,0.5,1.2c-0.1,0.3-0.1,0.4-0.4,0.5c-0.3,0.1-0.9,0.1-1.2,0c-0.3-0.1-0.4-0.4-0.5-0.7
							c0.1,0.3,0-0.3,0,0c-0.1,1.1,0.9,2,2,2C275.6,149,276.4,148.2,276.4,147.1z"/>
					</g>
				</g>
			</g>
			<g id="medium">
				<g>
					<g>
						<path class="st1" d="M217.3,206.1c0,5.8,0,11.7,0,17.5c0,2.6,4.1,2.6,4.1,0c0-5.8,0-11.7,0-17.5
							C221.4,203.4,217.3,203.4,217.3,206.1L217.3,206.1z"/>
					</g>
				</g>
				<g>
					<g>
						<path class="st1" d="M219.1,225.9c3.9,0.8,8,1.6,11.9,2.4c2.6,0.5,3.7-3.4,1.1-3.9c-3.9-0.8-8-1.6-11.9-2.4
							C217.6,221.4,216.5,225.3,219.1,225.9L219.1,225.9z"/>
					</g>
				</g>
				<g>
					<g>
						<path class="st1" d="M233.8,226c0-6,0-11.8,0-17.8c0-2.6-4.1-2.6-4.1,0c0,6,0,11.8,0,17.8C229.8,228.6,233.8,228.6,233.8,226
							L233.8,226z"/>
					</g>
				</g>
				<g>
					<g>
						<path class="st1" d="M219.2,206.9c4.2,0.7,8.4,1.6,12.7,2c2.6,0.3,2.6-3.8,0-4.1c-3.9-0.4-7.7-1.4-11.7-1.9
							C217.7,202.7,216.5,206.6,219.2,206.9L219.2,206.9z"/>
					</g>
				</g>
				<g>
					<g>
						<path class="st1" d="M243.7,219.6c-1.9-2.6-4.1-4.9-6-7.6c-1.5-2-2.4-4.7-4.2-6.5c-1.8-1.9-4.7,0.9-2.8,2.8
							c0.8,0.8,1.4,2.3,1.9,3.4c0.8,1.4,1.8,2.7,2.7,3.9c1.8,2.3,3.7,4.5,5.4,6.8C242.4,224.5,245.2,221.7,243.7,219.6L243.7,219.6z
							"/>
					</g>
				</g>
				<g>
					<g>
						<path class="st1" d="M238.2,212.3c1.2-2.3,2.6-4.5,3.9-6.6c1.4-2.2-2.2-4.2-3.5-2c-1.4,2.2-2.7,4.3-3.9,6.6
							C233.4,212.6,236.9,214.6,238.2,212.3L238.2,212.3z"/>
					</g>
				</g>
				<g>
					<g>
						<path class="st1" d="M244.3,221.8c2.8-3.3,4.2-7.6,6.6-11.1c1.5-2.2-2-4.2-3.5-2c-2.2,3.3-3.4,7.3-6,10.3
							C239.8,220.8,242.6,223.8,244.3,221.8L244.3,221.8z"/>
					</g>
				</g>
				<g>
					<g>
						<path class="st1" d="M240.7,206.2c1.6,0.1,3.4,1.1,4.9,1.6c1.5,0.5,3.3,0.8,4.7,1.6c2.3,1.1,4.5-2.3,2-3.5
							c-1.8-0.9-3.8-1.4-5.7-2c-1.9-0.7-3.9-1.5-6-1.8C238.2,201.9,238.2,205.9,240.7,206.2L240.7,206.2z"/>
					</g>
				</g>
				<g>
					<g>
						<path class="st1" d="M249.4,207.6c0,6,0,11.9,0,17.9c0,2.6,4.1,2.6,4.1,0c0-6,0-11.9,0-17.9C253.5,205,249.4,205,249.4,207.6
							L249.4,207.6z"/>
					</g>
				</g>
				<g>
					<g>
						<path class="st1" d="M232.5,220.3c6,2.8,12.2,5.3,18.6,7.6c2.4,0.9,3.5-3,1.1-3.9c-5.8-2.2-11.9-4.5-17.5-7.2
							C232.2,215.7,230.2,219.2,232.5,220.3L232.5,220.3z"/>
					</g>
				</g>
			</g>
			<g id="facebook">
				<g>
					<g>
						<path class="st1" d="M222.9,15.4c-0.1,1.4-0.1,2.6,0,3.9c0.7-0.7,1.4-1.4,2-2c-5.8-0.1-7,3.1-6.8,8.4c0.1,1.2,0.8,1.9,2,2
							c3.3,0.3,2.2-0.7,2,3c0.7-0.7,1.4-1.4,2-2c-1.4,0-2.7,0.1-3.9,0.1c-1.1,0-2,0.9-2,2c0.1,2.8,0.3,5.8,0.3,8.7
							c0.7-0.7,1.4-1.4,2-2c-2,0.1-4.1,0.3-6.1,0.1c0.7,0.7,1.4,1.4,2,2c0-2.8,0.1-5.8,0-8.7c0-0.9-0.9-2.2-2-2
							c-0.5,0-1.1,0.1-1.6,0.1c-1.8,0.1-2.2,0.1-1.1,0.1c0.5,0.9,0.7-2.7,0.7-2.4c-0.7,0.7-1.4,1.4-2,2c1.1-0.1,2.3-0.3,3.4-0.4
							c1.1-0.1,2-0.8,2-2c0-1.8-0.5-4.7,0-6.4c1.2-4.1,5.4-3.5,8.5-3c2.6,0.5,3.7-3.4,1.1-3.9c-3.8-0.7-8.7-0.9-11.7,1.8
							c-3.1,2.8-1.9,7.9-2,11.5c0.7-0.7,1.4-1.4,2-2c-1.1,0.1-2.3,0.3-3.4,0.4c-1.2,0.1-1.9,0.8-2,2c-0.4,5.7,0.3,6.9,6.1,6.2
							c-0.7-0.7-1.4-1.4-2-2c0.1,2.8,0,5.8,0,8.7c0,1.1,0.9,1.9,2,2c2,0.1,4.1,0,6.1-0.1c1.1-0.1,2-0.8,2-2c0-2.8,0-5.8-0.3-8.7
							c-0.7,0.7-1.4,1.4-2,2c1.4-0.1,2.7-0.1,3.9-0.1c1.1,0,2-0.9,2-2c0-1.8,0.4-3.7,0-5.4c-0.1-0.7-0.8-1.2-1.4-1.4
							c-1.5-0.4-3.3-0.1-4.7-0.1c0.7,0.7,1.4,1.4,2,2c-0.1-1.9-0.7-4.5,2.7-4.3c1.1,0,2-0.9,2-2c-0.1-1.4,0-2.6,0-3.9
							C227.1,12.7,223,12.7,222.9,15.4L222.9,15.4z"/>
					</g>
				</g>
				<g>
					<g>
						<path class="st1" d="M233.7,29.6c0-3.9,0-7.7,0-11.7c0-2.6,0.5-6.2-0.7-8.7c-2.2-4.3-7.3-4.5-11.4-4.5
							c-11.2-0.1-24.5-1.9-25.2,12.3c-0.3,6-1.2,13.8,0.4,19.8c1.4,5,7.2,5.2,11.7,5.3c3.9,0.1,7.7-0.1,11.7-0.1
							c2.7,0,5.7,0.4,8.3-0.5C233.6,39.4,233.8,34.4,233.7,29.6c-0.1-2.6-4.2-2.6-4.1,0c0.1,3.9-0.8,8-5.2,8.4c-1.4,0.1-2.8,0-4.3,0
							c-4.2,0-8.5,0.4-12.9,0.1c-5.7-0.4-6.4-1.9-6.8-6.8c-0.4-4.5-0.3-8.9-0.1-13.3c0.3-5.4,2.4-8.4,8.1-8.8
							c4.2-0.4,8.8-0.4,13-0.3c3.8,0.1,6.9-0.3,8,4.2c0.4,1.5,0,3.4,0,5c0,3.9,0,7.7,0,11.7C229.6,32.2,233.7,32.2,233.7,29.6z"/>
					</g>
				</g>
			</g>
		</g>
		<g id="pie_chart">
			<g id="lightbulb_1_">
				<g>
					<g>
						<path class="st2" d="M126.9,195.4c-0.5-3.8,3.9-6.9,5-10.4c0.8-2.6,0.8-5.6-0.1-8.1c-1.6-4.3-5.8-7.3-10.4-7.5
							c-4.7-0.1-9.5,2.7-11.2,7c-0.9,2.4-1.1,5.6-0.5,8.1c0.8,3.7,4.7,6.2,5.2,9.9c0.4,2.6,4.3,1.5,3.9-1.1
							c-1.6-3.9-4.9-6.9-5.2-11.2c-0.5-6,5.7-11.1,11.4-7.7c4.2,4.1,4.7,8.5,1.8,12.6c-2,2.8-3.9,5.8-3.5,9.4
							C123.4,199,127.3,197.9,126.9,195.4L126.9,195.4z"/>
					</g>
				</g>
				<g>
					<g>
						<path class="st2" d="M118.1,203c0.3-0.4,0.5-0.8,0.7-1.4c0.3-0.8-0.1-1.9-0.9-2.3c-0.1-0.1-0.4-0.3-0.5-0.3
							c-0.3-0.1-0.3-0.1-0.1,0c-0.1,0.5-0.1,1.1-0.3,1.6c0.5-1.1,1.6-1.2,1.9-2.7c0.1-0.8-0.1-2.3-1.1-2.6c-0.5-0.3-0.8,0.7-0.4,0.8
							c0,0,0.4-0.1,0.5-0.1c0.5,0.1,1.5-0.1,2.2-0.1c1.1,0,2.3,0,3.4,0.1c0.3,0,0.5,0,0.8,0c0.1,0,0.4,0,0.5,0
							c0.5,0.1,0.4-0.1-0.1-1.1c-0.8-0.1-1.2,2.2-1.2,2.7c0,0.9,0.7,1.8,1.5,1.9c0.7-1.2,0.8-1.5,0.1-0.8c-0.3,0.1-0.5,0.4-0.7,0.7
							c-0.3,0.4-0.4,0.9-0.4,1.4s0.1,0.8,0.4,1.1c0.1,0.1,0.9,0.8,0.9,0.9c0.3,0.3,0.3,0.1,0-0.1c-0.4,0.1-0.8,0.3-1.1,0.3
							c-0.7,0.1-1.5,0.1-2.2,0.3c-0.7,0-1.5,0-2.2,0C119,203.2,118.5,203.1,118.1,203C117.3,202.7,117.3,202.7,118.1,203
							c1.5-2.2-2-4.2-3.5-2c-3.9,5.7,5.3,6.8,8.8,6.4c2.2-0.3,4.5-0.8,5.4-3c0.4-0.9,0.4-2,0-3c-0.3-0.5-1.2-1.5-1.4-1.5
							c0,0.7,0,1.4,0,2c0.7-1.2,1.9-1.5,1.5-3.3c-0.3-1.6-1.8-2.4-3.3-2.8c0.5,0.7,0.9,1.4,1.5,1.9c0,0.5,0.8-0.8,0.9-1.1
							c0.3-0.7,0.4-1.2,0.3-1.9c-0.3-1.2-1.2-2-2.3-2.4c-1.6-0.5-3.7-0.4-5.4-0.4c-1.9,0-4.2-0.1-5.8,1.1c-2.3,1.6-1.4,3.9,0,5.7
							c-0.1-0.5-0.1-1.1-0.3-1.6c-0.1,0.4-0.9,0.9-1.2,1.2c-0.4,0.7-0.5,1.2-0.4,2c0.3,1.5,1.4,2,2.6,2.7c-0.3-0.8-0.7-1.5-0.9-2.3
							c-0.1,0.1-0.1,0.3-0.3,0.3C113.1,203.1,116.6,205.1,118.1,203z"/>
					</g>
				</g>
				<g>
					<g>
						<path class="st2" d="M116.6,183.8c0.3,2.7,0.5,5.4,0.5,8.1c0,1.4,2,1.4,2,0c-0.1-2.7-0.3-5.4-0.5-8.1
							C118.5,182.6,116.5,182.6,116.6,183.8L116.6,183.8z"/>
					</g>
				</g>
				<g>
					<g>
						<path class="st2" d="M123.9,192.3c0.8-2.8,0.1-5.8,0.3-8.8c0-1.4-2-1.4-2,0c-0.1,2.8,0.7,5.8-0.1,8.5
							C121.7,193.2,123.9,192.3,123.9,192.3z"/>
					</g>
				</g>
				<g>
					<g>
						<path class="st2" d="M116.5,184.4c0.4,0.8,1.4,1.9,2.3,1.4c0.9-0.5,1.8-2,2.4-3.1c-0.7-0.1-1.2-0.1-1.9-0.3
							c0.3,0.9,0.5,3,1.8,3.3c1.1,0.1,1.8-1.4,2.2-2.2c0.5-1.2-1.2-2.2-1.8-1.1c-0.1,0.3-0.3,0.5-0.4,0.8c-0.1,0.3-0.7,0.5-0.1,0.4
							c0.3,0,0.5,0.1,0.8,0.1c0.4,0.3,0-0.7,0-0.7c-0.1-0.4-0.3-0.8-0.4-1.1c-0.3-0.8-1.4-1.1-1.9-0.3c-0.4,0.7-0.9,1.9-1.8,2.4
							c0.4,0,0.7,0,1.1,0c-0.3-0.1-0.4-0.4-0.5-0.7C117.5,182.2,115.8,183.3,116.5,184.4L116.5,184.4z"/>
					</g>
				</g>
			</g>
			<g id="clouds">
				<g>
					<g>
						<path class="st2" d="M92.2,83.4c5-1.6,7.6,1.1,9.4,5.6c0.4,1.1,1.8,2,3,1.2c3-1.9,6.2,0.1,5.8,4.9c-0.1,1.1,0.9,2,2,2
							c6.9-0.1,1.5,5.8,0.7,7.3c0,0-3.1,9.2-4.7,2.7c-0.4-1.5-2.3-1.9-3.4-0.9c-2.6,0.3-5.2,0.7-7.6,0.9c-0.9-1.5-3.1-1.2-3.7,0.5
							c-5.8,5-9.2,4.7-10.3-0.8c-0.3-1.1-1.5-1.6-2.4-1.4c-4.2,0.9-8.8-9.4-2.8-8.9c1.1,0,2-0.9,2-2c0-3.1,3.4-4.2,4.9-1.5
							c1.1,1.9,3.7,0.9,3.8-1.1c0.3-3.4,0.5-6.6,3.9-8.8c2.2-1.4,0.1-4.9-2-3.5c-4.6,2.8-5.7,7-6,12.3c1.2-0.4,2.6-0.7,3.8-1.1
							c-4.2-7.7-12.5-5.3-12.5,3.5c0.7-0.7,1.4-1.4,2-2c-4.9-0.3-8.8,5-8.3,9.9c0.7,5.6,7.3,8.1,12.2,7c-0.8-0.4-1.6-0.9-2.4-1.4
							c2.2,10.2,14.9,10.4,18.2,0.8c-1.2,0.1-2.4,0.3-3.7,0.5c3.8,5.6,9.6,3.9,14-0.1c-1.1-0.3-2.3-0.5-3.4-0.9
							c0.7,2.7,2.8,4.9,5.8,4.9c4.1-0.1,4.9-3.1,6.2-6.1c1.5-3.1,4.6-5.2,3.4-9.2c-1.1-3.4-4.2-4.9-7.5-4.7c0.7,0.7,1.4,1.4,2,2
							c0.5-6.6-5.6-12.6-11.9-8.4c0.9,0.4,2,0.8,3,1.2c-2.6-6.6-6.8-10.8-14.4-8.4C88.7,80.3,89.8,84.2,92.2,83.4z"/>
					</g>
				</g>
				<g>
					<g>
						<path class="st2" d="M73.5,134.1c-0.4-3.1,5.4-2.8,6.1-0.7c0.3,0.8,1.1,1.5,1.9,1.5c1.9,0,5.6,1.1,3.8,3.8
							c-0.5,0.8-1.8,0.8-2.4,1.5c-0.5,0.5-0.4,1.2-0.8,1.8c-1.2,1.8-6.8,4.1-8,0.4c-0.4-1.4-1.8-1.9-3-1.2c-1.9-1.8-2-3-0.4-3.5
							c0.5-0.4,1.2-0.7,1.9-0.7c2.6-0.5,1.5-4.5-1.1-3.9c-3.7,0.8-7,3.7-6.4,7.9c0.7,3.9,4.6,5.6,8.1,3.8c-0.9-0.4-2-0.8-3-1.2
							c1.4,4.1,5,5.2,9.1,4.6c1.6-0.3,3.4-0.8,4.7-1.9c1.1-0.8,1.5-2.2,2.2-3.1c0.9-1.1,2.3-1.4,3-3c0.5-1.2,0.7-2.7,0.4-4.1
							c-0.9-3.5-4.6-5.2-8-5c0.7,0.5,1.4,0.9,1.9,1.5c-2.3-7.5-15.2-5.4-14,2.8C70,137.8,73.9,136.7,73.5,134.1L73.5,134.1z"/>
					</g>
				</g>
				<g>
					<g>
						<path class="st2" d="M81,172.7c-1.5,5.4,4.7,9.1,8.7,5c-0.8,0.1-1.6,0.3-2.4,0.3c2.7,1.5,6.4,1.1,7.9-1.9
							c0.7-1.2,0.7-2.8,0.1-4.1c-0.3-0.7-0.7-1.4-1.4-1.9c-0.1-0.1-1.8-1.2-1.2-0.7c0.1,0.5,0.4,0.9,0.5,1.5
							c-0.4-3.4-1.4-6.9-5.3-7.5c-3.3-0.4-5.8,2-6.2,5.2c1.1-0.5,2-1.2,3.1-1.8c-3-1.6-7.3-1.8-7.7,2.6c-0.4,3.5,2.8,6.4,6.2,6.2
							c2.6-0.1,2.6-4.2,0-4.1c-0.8,0.1-1.5-0.1-1.9-0.8c0.3-0.8,0.8-0.9,1.4-0.4c1.5,0.8,2.8-0.3,3.1-1.8c0.3-2.3,2.7-0.4,3.1,0.7
							c0.3,0.8,0,1.9,0.4,2.7c0.4,0.5,1.2,0.7,1.5,1.2c1.1,1.5-0.4,2.2-1.8,1.5c-0.8-0.4-1.9-0.3-2.4,0.3c-1.2,1.1-1.9,0.7-1.9-1.1
							C85.6,171.4,81.6,170.3,81,172.7L81,172.7z"/>
					</g>
				</g>
			</g>
			<g id="circle_and_lines">
				<g>
					<path class="st3" d="M133.4,36.8c26.3,0,50.7,10.4,68.8,29.5c17.5,18.4,26.7,42.4,26,67.8s-11.1,48.9-29.5,66.3
						c-17.8,16.9-40.9,26.2-65.3,26.2c-26.3,0-50.7-10.4-68.8-29.5c-17.5-18.4-26.7-42.4-26-67.8S49.6,80.3,68.1,63
						C85.8,46,109,36.8,133.4,36.8L133.4,36.8 M133.4,32.7c-24.4,0-48.9,8.9-68,27.2C25.8,97.7,24,160.3,61.7,199.8
						c19.5,20.5,45.5,30.8,71.8,30.8c24.4,0,48.9-8.9,68-27.2c39.6-37.7,41.3-100.3,3.7-139.9C185.7,43,159.6,32.7,133.4,32.7
						L133.4,32.7z"/>
				</g>
				<g>
					<g>
						<path class="st3" d="M132,132.5c28.6,15.5,57.2,30.9,85.7,46.2c2.3,1.2,4.3-2.3,2-3.5c-28.6-15.5-57.2-30.9-85.7-46.2
							C131.8,127.7,129.7,131.3,132,132.5L132,132.5z"/>
					</g>
				</g>
				<g>
					<g>
						<path class="st3" d="M154.7,37.1c-6.5,31.3-16.7,61.8-23.2,93.1c-0.5,2.6,3.4,3.7,3.9,1.1c6.5-31.3,16.7-61.8,23.2-93.1
							C159.2,35.6,155.2,34.5,154.7,37.1L154.7,37.1z"/>
					</g>
				</g>
				<g>
					<g>
						<path class="st3" d="M228.7,120c-31.7,4.6-63.8,5.6-95.4,10c-2.6,0.4-1.5,4.3,1.1,3.9c31.7-4.6,63.8-5.6,95.4-10
							C232.3,123.5,231.3,119.6,228.7,120L228.7,120z"/>
					</g>
				</g>
				<g>
					<g>
						<path class="st3" d="M215,78.8c-26.7,17.6-55.3,32.3-82,49.9c-2.2,1.5-0.1,5,2,3.5c26.7-17.6,55.3-32.3,82-49.9
							C219.3,80.8,217.3,77.3,215,78.8L215,78.8z"/>
					</g>
				</g>
				<g>
					<g>
						<path class="st3" d="M131.6,131.7c17.1,27.6,34.2,55.3,51.2,82.8c1.4,2.2,4.9,0.1,3.5-2c-17.1-27.6-34.2-55.3-51.2-82.8
							C133.7,127.5,130.3,129.5,131.6,131.7L131.6,131.7z"/>
					</g>
				</g>
			</g>
		</g>
	</g>
</g>
</svg>
