<?xml version="1.0" encoding="utf-8"?>
<!-- Generator: Adobe Illustrator 22.1.0, SVG Export Plug-In . SVG Version: 6.00 Build 0)  -->
<svg version="1.1" id="Layer_1" xmlns="http://www.w3.org/2000/svg" xmlns:xlink="http://www.w3.org/1999/xlink" x="0px" y="0px"
	 viewBox="0 0 289 282" style="enable-background:new 0 0 289 282;" xml:space="preserve">
<style type="text/css">
	.st0{fill:#7C7C7C;}
	.st1{fill:#FFFFFF;stroke:#FFFFFF;stroke-width:0.5;stroke-miterlimit:10;}
	.st2{fill:#FFFFFF;}
	.st3{fill:none;stroke:#FFFFFF;stroke-width:3;stroke-miterlimit:10;}
</style>
<g id="business_x5F_pr">
	<ellipse id="shadow_3_" class="st0" cx="145" cy="228.5" rx="62.4" ry="13.5"/>
	<g id="social_media">
		<g id="twitter">
			<g>
				<g>
					<path class="st1" d="M234.3,80.1c-0.9,0.9-2,1.6-3.1,2.2c0.6,0.1,1.2,0.2,1.8,0.2c-5.1-4.1-10.5-2.5-11.1,4.4
						c0.6-0.5,1.3-1,1.9-1.4c-4.1-1.1-6.9-4.7-10-7.3c-0.6-0.5-1.5-0.6-2.1,0c-3.8,3.6-0.7,9,2.4,11.4c0.4-0.9,0.7-1.7,1.1-2.6
						c-0.9,0.1-3.9,0.3-4.6-0.2c-1.1-0.9-2.9-0.1-2.5,1.5c1.1,4,3.6,6.6,7.4,8c0.1-1,0.3-2,0.4-2.9c-1.7,0.2-3.3,0.3-5,0.3
						c-1.3,0-1.9,1.6-1.1,2.6c1.2,1.3,2.5,2.4,4.2,3.2c1,0.5,2.5,0.5,3.4,1.1c-0.1-0.8-0.2-1.6-0.3-2.4c-1.6,1.9-5.7,3.5-8.3,3
						c-1.7-0.3-2.6,1.8-1.2,2.7c5.4,3.7,14.4,2.7,20-0.4c2.6-1.5,4.6-3.6,5.7-6.5c0.6-1.6,0.8-3.2,1-4.9c0.1-1.3-0.1-1.9,0.7-2.8
						c0.6-0.6,2.4-1.2,3.1-1.6c0.9-0.5,1-2.2,0-2.6c-1.6-0.7-2.9-1-4.6-1c0.5,0.6,1,1.3,1.4,1.9c0.5-1.3,1.1-2.7,1.7-4
						c0.8-1.7-1.8-3.3-2.6-1.5c-0.7,1.6-1.4,3.1-2,4.7c-0.4,0.9,0.6,1.9,1.4,1.9c1,0.2,2.1,0.4,3.1,0.6c0-0.9,0-1.7,0-2.6
						c-1.5,0.7-3.9,1.4-4.9,2.8c-1.2,1.7-0.4,5-0.9,6.8c-2.2,8-15.3,10.9-21.7,6.5c-0.4,0.9-0.8,1.8-1.2,2.7
						c3.6,0.7,8.9-0.9,11.2-3.8c0.6-0.8,0.6-1.8-0.3-2.4c-2.3-1.5-4.8-1.5-7-3.9c-0.4,0.9-0.7,1.7-1.1,2.6c1.7,0,3.3-0.1,5-0.3
						c1.7-0.2,2.1-2.3,0.4-2.9c-3-1.1-4.5-2.9-5.3-5.9c-0.8,0.5-1.7,1-2.5,1.5c1.7,1.3,4.7,1.2,6.7,1.1c1.2-0.1,2.2-1.7,1.1-2.6
						c-1.6-1.3-4.5-5.2-2.4-7.1c-0.7,0-1.4,0-2.1,0c3.5,3,6.6,6.8,11.3,8.1c1,0.3,1.8-0.5,1.9-1.4c-0.2-3.3,1.8-4,5.9-2.2
						c0.5,0.4,1.2,0.6,1.8,0.2c1.4-0.8,2.5-1.6,3.7-2.7C237.8,80.9,235.7,78.8,234.3,80.1L234.3,80.1z"/>
				</g>
			</g>
		</g>
		<g id="instagram">
			<g>
				<g>
					<path class="st1" d="M232.4,150c-1.9,2.7-13.8,2.5-16.6,1.1c-3.5-1.8-3.3-5.4-3.4-8.8c-0.1-3.5-0.5-7.2,2.4-9.5
						c3.7-2.9,16.9-3.6,18,2.4C233.6,139.7,234.3,145.9,232.4,150c-0.8,1.7,1.8,3.3,2.6,1.5c1.9-4.1,1.5-8.3,1.1-12.7
						c-0.2-2.9-0.2-6.4-2.1-8.7c-2.5-2.9-8.4-2.3-11.8-2.2c-3.8,0-8.9,0.2-11.2,3.7s-1.7,9.2-1.4,13.1c0.3,3.5,0.6,6.9,4,8.7
						c3.7,1.9,8.6,1.3,12.6,1.2c3.7-0.1,6.5,0.2,8.8-3.1C236.1,149.9,233.5,148.4,232.4,150z"/>
				</g>
			</g>
			<g>
				<g>
					<path class="st1" d="M227.8,146.3c1.8-2.7,1.7-6.5-0.7-8.8c-2.2-2.2-6-2.2-8.3-0.1c-2.3,2.1-2.3,6.8-0.2,9
						c2.2,2.4,6.7,2.6,8.9,0.1c1.3-1.4-0.8-3.6-2.1-2.1c-1.1,1.2-3.8,1.1-4.8-0.3c-1-1.4-0.8-4.1,0.7-4.9c3.7-2,5.7,2.8,3.8,5.5
						C224.2,146.4,226.8,147.9,227.8,146.3z"/>
				</g>
			</g>
			<g>
				<g>
					<path class="st1" d="M231.5,135.4c0.1-1-0.6-2.2-1.7-2.4c-1.2-0.3-2.5,0.6-2.7,1.8c-0.1,1.1,0.5,2.1,1.6,2.5
						c1.2,0.4,2.5-0.3,2.8-1.5c0.2-0.8-0.2-1.7-1-1.8c-0.8-0.2-1.7,0.2-1.8,1v0.1c0.1-0.3,0.3-0.5,0.6-0.5c0.3-0.1,0.3-0.2,0.5-0.1
						c0.4,0.1,0.5,0.5,0.4,0.9c-0.1,0.2-0.1,0.3-0.3,0.4c-0.2,0.1-0.7,0.1-0.9,0s-0.3-0.3-0.4-0.5c0.1,0.2,0-0.2,0,0
						c-0.1,0.8,0.7,1.5,1.5,1.5C230.9,136.8,231.5,136.2,231.5,135.4z"/>
				</g>
			</g>
		</g>
		<g id="medium">
			<g>
				<g>
					<path class="st1" d="M187.9,178.9c0,4.3,0,8.6,0,12.9c0,1.9,3,1.9,3,0c0-4.3,0-8.6,0-12.9C190.9,176.9,187.9,176.9,187.9,178.9
						L187.9,178.9z"/>
				</g>
			</g>
			<g>
				<g>
					<path class="st1" d="M189.2,193.5c2.9,0.6,5.9,1.2,8.8,1.8c1.9,0.4,2.7-2.5,0.8-2.9c-2.9-0.6-5.9-1.2-8.8-1.8
						C188.1,190.2,187.3,193.1,189.2,193.5L189.2,193.5z"/>
				</g>
			</g>
			<g>
				<g>
					<path class="st1" d="M200.1,193.6c0-4.4,0-8.7,0-13.1c0-1.9-3-1.9-3,0c0,4.4,0,8.7,0,13.1C197.1,195.5,200.1,195.5,200.1,193.6
						L200.1,193.6z"/>
				</g>
			</g>
			<g>
				<g>
					<path class="st1" d="M189.3,179.5c3.1,0.5,6.2,1.2,9.4,1.5c1.9,0.2,1.9-2.8,0-3c-2.9-0.3-5.7-1-8.6-1.4
						C188.2,176.4,187.3,179.3,189.3,179.5L189.3,179.5z"/>
				</g>
			</g>
			<g>
				<g>
					<path class="st1" d="M207.4,188.9c-1.4-1.9-3-3.6-4.4-5.6c-1.1-1.5-1.8-3.5-3.1-4.8c-1.3-1.4-3.5,0.7-2.1,2.1
						c0.6,0.6,1,1.7,1.4,2.5c0.6,1,1.3,2,2,2.9c1.3,1.7,2.7,3.3,4,5C206.4,192.5,208.5,190.4,207.4,188.9L207.4,188.9z"/>
				</g>
			</g>
			<g>
				<g>
					<path class="st1" d="M203.3,183.5c0.9-1.7,1.9-3.3,2.9-4.9c1-1.6-1.6-3.1-2.6-1.5s-2,3.2-2.9,4.9S202.4,185.2,203.3,183.5
						L203.3,183.5z"/>
				</g>
			</g>
			<g>
				<g>
					<path class="st1" d="M207.8,190.5c2.1-2.4,3.1-5.6,4.9-8.2c1.1-1.6-1.5-3.1-2.6-1.5c-1.6,2.4-2.5,5.4-4.4,7.6
						C204.5,189.8,206.6,192,207.8,190.5L207.8,190.5z"/>
				</g>
			</g>
			<g>
				<g>
					<path class="st1" d="M205.2,179c1.2,0.1,2.5,0.8,3.6,1.2s2.4,0.6,3.5,1.2c1.7,0.8,3.3-1.7,1.5-2.6c-1.3-0.7-2.8-1-4.2-1.5
						s-2.9-1.1-4.4-1.3C203.3,175.8,203.3,178.8,205.2,179L205.2,179z"/>
				</g>
			</g>
			<g>
				<g>
					<path class="st1" d="M211.6,180c0,4.4,0,8.8,0,13.2c0,1.9,3,1.9,3,0c0-4.4,0-8.8,0-13.2C214.6,178.1,211.6,178.1,211.6,180
						L211.6,180z"/>
				</g>
			</g>
			<g>
				<g>
					<path class="st1" d="M199.1,189.4c4.4,2.1,9,3.9,13.7,5.6c1.8,0.7,2.6-2.2,0.8-2.9c-4.3-1.6-8.8-3.3-12.9-5.3
						C198.9,186,197.4,188.6,199.1,189.4L199.1,189.4z"/>
				</g>
			</g>
		</g>
		<g id="facebook">
			<g>
				<g>
					<path class="st1" d="M192,38.2c-0.1,1-0.1,1.9,0,2.9c0.5-0.5,1-1,1.5-1.5c-4.3-0.1-5.2,2.3-5,6.2c0.1,0.9,0.6,1.4,1.5,1.5
						c2.4,0.2,1.6-0.5,1.5,2.2c0.5-0.5,1-1,1.5-1.5c-1,0-2,0.1-2.9,0.1c-0.8,0-1.5,0.7-1.5,1.5c0.1,2.1,0.2,4.3,0.2,6.4
						c0.5-0.5,1-1,1.5-1.5c-1.5,0.1-3,0.2-4.5,0.1c0.5,0.5,1,1,1.5,1.5c0-2.1,0.1-4.3,0-6.4c0-0.7-0.7-1.6-1.5-1.5
						c-0.4,0-0.8,0.1-1.2,0.1c-1.3,0.1-1.6,0.1-0.8,0.1c0.4,0.7,0.5-2,0.5-1.8c-0.5,0.5-1,1-1.5,1.5c0.8-0.1,1.7-0.2,2.5-0.3
						s1.5-0.6,1.5-1.5c0-1.3-0.4-3.5,0-4.7c0.9-3,4-2.6,6.3-2.2c1.9,0.4,2.7-2.5,0.8-2.9c-2.8-0.5-6.4-0.7-8.6,1.3
						c-2.3,2.1-1.4,5.8-1.5,8.5c0.5-0.5,1-1,1.5-1.5c-0.8,0.1-1.7,0.2-2.5,0.3c-0.9,0.1-1.4,0.6-1.5,1.5c-0.3,4.2,0.2,5.1,4.5,4.6
						c-0.5-0.5-1-1-1.5-1.5c0.1,2.1,0,4.3,0,6.4c0,0.8,0.7,1.4,1.5,1.5c1.5,0.1,3,0,4.5-0.1c0.8-0.1,1.5-0.6,1.5-1.5
						c0-2.1,0-4.3-0.2-6.4c-0.5,0.5-1,1-1.5,1.5c1-0.1,2-0.1,2.9-0.1c0.8,0,1.5-0.7,1.5-1.5c0-1.3,0.3-2.7,0-4c-0.1-0.5-0.6-0.9-1-1
						c-1.1-0.3-2.4-0.1-3.5-0.1c0.5,0.5,1,1,1.5,1.5c-0.1-1.4-0.5-3.3,2-3.2c0.8,0,1.5-0.7,1.5-1.5c-0.1-1,0-1.9,0-2.9
						C195.1,36.2,192.1,36.2,192,38.2L192,38.2z"/>
				</g>
			</g>
			<g>
				<g>
					<path class="st1" d="M200,48.7c0-2.9,0-5.7,0-8.6c0-1.9,0.4-4.6-0.5-6.4c-1.6-3.2-5.4-3.3-8.4-3.3c-8.3-0.1-18.1-1.4-18.6,9.1
						c-0.2,4.4-0.9,10.2,0.3,14.6c1,3.7,5.3,3.8,8.6,3.9c2.9,0.1,5.7-0.1,8.6-0.1c2,0,4.2,0.3,6.1-0.4
						C199.9,55.9,200.1,52.2,200,48.7c-0.1-1.9-3.1-1.9-3,0c0.1,2.9-0.6,5.9-3.8,6.2c-1,0.1-2.1,0-3.2,0c-3.1,0-6.3,0.3-9.5,0.1
						c-4.2-0.3-4.7-1.4-5-5c-0.3-3.3-0.2-6.6-0.1-9.8c0.2-4,1.8-6.2,6-6.5c3.1-0.3,6.5-0.3,9.6-0.2c2.8,0.1,5.1-0.2,5.9,3.1
						c0.3,1.1,0,2.5,0,3.7c0,2.9,0,5.7,0,8.6C197,50.6,200,50.6,200,48.7z"/>
				</g>
			</g>
		</g>
	</g>
	<g id="pie_chart">
		<g id="lightbulb_1_">
			<g>
				<g>
					<path class="st2" d="M121.2,171c-0.4-2.8,2.9-5.1,3.7-7.7c0.6-1.9,0.6-4.1-0.1-6c-1.2-3.2-4.3-5.4-7.7-5.5
						c-3.5-0.1-7,2-8.3,5.2c-0.7,1.8-0.8,4.1-0.4,6c0.6,2.7,3.5,4.6,3.8,7.3c0.3,1.9,3.2,1.1,2.9-0.8c-1.2-2.9-3.6-5.1-3.8-8.3
						c-0.4-4.4,4.2-8.2,8.4-5.7c3.1,3,3.5,6.3,1.3,9.3c-1.5,2.1-2.9,4.3-2.6,6.9C118.6,173.7,121.5,172.9,121.2,171L121.2,171z"/>
				</g>
			</g>
			<g>
				<g>
					<path class="st2" d="M114.7,176.6c0.2-0.3,0.4-0.6,0.5-1c0.2-0.6-0.1-1.4-0.7-1.7c-0.1-0.1-0.3-0.2-0.4-0.2
						c-0.2-0.1-0.2-0.1-0.1,0c-0.1,0.4-0.1,0.8-0.2,1.2c0.4-0.8,1.2-0.9,1.4-2c0.1-0.6-0.1-1.7-0.8-1.9c-0.4-0.2-0.6,0.5-0.3,0.6
						c0,0,0.3-0.1,0.4-0.1c0.4,0.1,1.1-0.1,1.6-0.1c0.8,0,1.7,0,2.5,0.1c0.2,0,0.4,0,0.6,0c0.1,0,0.3,0,0.4,0
						c0.4,0.1,0.3-0.1-0.1-0.8c-0.6-0.1-0.9,1.6-0.9,2c0,0.7,0.5,1.3,1.1,1.4c0.5-0.9,0.6-1.1,0.1-0.6c-0.2,0.1-0.4,0.3-0.5,0.5
						c-0.2,0.3-0.3,0.7-0.3,1s0.1,0.6,0.3,0.8c0.1,0.1,0.7,0.6,0.7,0.7c0.2,0.2,0.2,0.1,0-0.1c-0.3,0.1-0.6,0.2-0.8,0.2
						c-0.5,0.1-1.1,0.1-1.6,0.2c-0.5,0-1.1,0-1.6,0C115.4,176.8,115,176.7,114.7,176.6C114.1,176.4,114.1,176.4,114.7,176.6
						c1.1-1.6-1.5-3.1-2.6-1.5c-2.9,4.2,3.9,5,6.5,4.7c1.6-0.2,3.3-0.6,4-2.2c0.3-0.7,0.3-1.5,0-2.2c-0.2-0.4-0.9-1.1-1-1.1
						c0,0.5,0,1,0,1.5c0.5-0.9,1.4-1.1,1.1-2.4c-0.2-1.2-1.3-1.8-2.4-2.1c0.4,0.5,0.7,1,1.1,1.4c0,0.4,0.6-0.6,0.7-0.8
						c0.2-0.5,0.3-0.9,0.2-1.4c-0.2-0.9-0.9-1.5-1.7-1.8c-1.2-0.4-2.7-0.3-4-0.3c-1.4,0-3.1-0.1-4.3,0.8c-1.7,1.2-1,2.9,0,4.2
						c-0.1-0.4-0.1-0.8-0.2-1.2c-0.1,0.3-0.7,0.7-0.9,0.9c-0.3,0.5-0.4,0.9-0.3,1.5c0.2,1.1,1,1.5,1.9,2c-0.2-0.6-0.5-1.1-0.7-1.7
						c-0.1,0.1-0.1,0.2-0.2,0.2C111,176.7,113.6,178.2,114.7,176.6z"/>
				</g>
			</g>
			<g>
				<g>
					<path class="st2" d="M113.6,162.5c0.2,2,0.4,4,0.4,6c0,1,1.5,1,1.5,0c-0.1-2-0.2-4-0.4-6C115,161.6,113.5,161.6,113.6,162.5
						L113.6,162.5z"/>
				</g>
			</g>
			<g>
				<g>
					<path class="st2" d="M119,168.7c0.6-2.1,0.1-4.3,0.2-6.5c0-1-1.5-1-1.5,0c-0.1,2.1,0.5,4.3-0.1,6.3
						C117.4,169.4,119,168.7,119,168.7z"/>
				</g>
			</g>
			<g>
				<g>
					<path class="st2" d="M113.5,162.9c0.3,0.6,1,1.4,1.7,1s1.3-1.5,1.8-2.3c-0.5-0.1-0.9-0.1-1.4-0.2c0.2,0.7,0.4,2.2,1.3,2.4
						c0.8,0.1,1.3-1,1.6-1.6c0.4-0.9-0.9-1.6-1.3-0.8c-0.1,0.2-0.2,0.4-0.3,0.6c-0.1,0.2-0.5,0.4-0.1,0.3c0.2,0,0.4,0.1,0.6,0.1
						c0.3,0.2,0-0.5,0-0.5c-0.1-0.3-0.2-0.6-0.3-0.8c-0.2-0.6-1-0.8-1.4-0.2c-0.3,0.5-0.7,1.4-1.3,1.8c0.3,0,0.5,0,0.8,0
						c-0.2-0.1-0.3-0.3-0.4-0.5C114.3,161.3,113,162.1,113.5,162.9L113.5,162.9z"/>
				</g>
			</g>
		</g>
		<g id="clouds">
			<g>
				<g>
					<path class="st2" d="M95.6,88.4c3.7-1.2,5.6,0.8,6.9,4.1c0.3,0.8,1.3,1.5,2.2,0.9c2.2-1.4,4.6,0.1,4.3,3.6
						c-0.1,0.8,0.7,1.5,1.5,1.5c5.1-0.1,1.1,4.3,0.5,5.4c0,0-2.3,6.8-3.5,2c-0.3-1.1-1.7-1.4-2.5-0.7c-1.9,0.2-3.8,0.5-5.6,0.7
						c-0.7-1.1-2.3-0.9-2.7,0.4c-4.3,3.7-6.8,3.5-7.6-0.6c-0.2-0.8-1.1-1.2-1.8-1c-3.1,0.7-6.5-6.9-2.1-6.6c0.8,0,1.5-0.7,1.5-1.5
						c0-2.3,2.5-3.1,3.6-1.1c0.8,1.4,2.7,0.7,2.8-0.8c0.2-2.5,0.4-4.9,2.9-6.5c1.6-1,0.1-3.6-1.5-2.6c-3.4,2.1-4.2,5.2-4.4,9.1
						c0.9-0.3,1.9-0.5,2.8-0.8c-3.1-5.7-9.2-3.9-9.2,2.6c0.5-0.5,1-1,1.5-1.5c-3.6-0.2-6.5,3.7-6.1,7.3c0.5,4.1,5.4,6,9,5.2
						c-0.6-0.3-1.2-0.7-1.8-1c1.6,7.5,11,7.7,13.4,0.6c-0.9,0.1-1.8,0.2-2.7,0.4c2.8,4.1,7.1,2.9,10.3-0.1c-0.8-0.2-1.7-0.4-2.5-0.7
						c0.5,2,2.1,3.6,4.3,3.6c3-0.1,3.6-2.3,4.6-4.5c1.1-2.3,3.4-3.8,2.5-6.8c-0.8-2.5-3.1-3.6-5.5-3.5c0.5,0.5,1,1,1.5,1.5
						c0.4-4.9-4.1-9.3-8.8-6.2c0.7,0.3,1.5,0.6,2.2,0.9c-1.9-4.9-5-8-10.6-6.2C93,86.1,93.8,89,95.6,88.4z"/>
				</g>
			</g>
			<g>
				<g>
					<path class="st2" d="M81.8,125.8c-0.3-2.3,4-2.1,4.5-0.5c0.2,0.6,0.8,1.1,1.4,1.1c1.4,0,4.1,0.8,2.8,2.8
						c-0.4,0.6-1.3,0.6-1.8,1.1c-0.4,0.4-0.3,0.9-0.6,1.3c-0.9,1.3-5,3-5.9,0.3c-0.3-1-1.3-1.4-2.2-0.9c-1.4-1.3-1.5-2.2-0.3-2.6
						c0.4-0.3,0.9-0.5,1.4-0.5c1.9-0.4,1.1-3.3-0.8-2.9c-2.7,0.6-5.2,2.7-4.7,5.8c0.5,2.9,3.4,4.1,6,2.8c-0.7-0.3-1.5-0.6-2.2-0.9
						c1,3,3.7,3.8,6.7,3.4c1.2-0.2,2.5-0.6,3.5-1.4c0.8-0.6,1.1-1.6,1.6-2.3c0.7-0.8,1.7-1,2.2-2.2c0.4-0.9,0.5-2,0.3-3
						c-0.7-2.6-3.4-3.8-5.9-3.7c0.5,0.4,1,0.7,1.4,1.1c-1.7-5.5-11.2-4-10.3,2.1C79.2,128.5,82.1,127.7,81.8,125.8L81.8,125.8z"/>
				</g>
			</g>
			<g>
				<g>
					<path class="st2" d="M87.3,154.3c-1.1,4,3.5,6.7,6.4,3.7c-0.6,0.1-1.2,0.2-1.8,0.2c2,1.1,4.7,0.8,5.8-1.4
						c0.5-0.9,0.5-2.1,0.1-3c-0.2-0.5-0.5-1-1-1.4c-0.1-0.1-1.3-0.9-0.9-0.5c0.1,0.4,0.3,0.7,0.4,1.1c-0.3-2.5-1-5.1-3.9-5.5
						c-2.4-0.3-4.3,1.5-4.6,3.8c0.8-0.4,1.5-0.9,2.3-1.3c-2.2-1.2-5.4-1.3-5.7,1.9c-0.3,2.6,2.1,4.7,4.6,4.6c1.9-0.1,1.9-3.1,0-3
						c-0.6,0.1-1.1-0.1-1.4-0.6c0.2-0.6,0.6-0.7,1-0.3c1.1,0.6,2.1-0.2,2.3-1.3c0.2-1.7,2-0.3,2.3,0.5c0.2,0.6,0,1.4,0.3,2
						c0.3,0.4,0.9,0.5,1.1,0.9c0.8,1.1-0.3,1.6-1.3,1.1c-0.6-0.3-1.4-0.2-1.8,0.2c-0.9,0.8-1.4,0.5-1.4-0.8
						C90.7,153.3,87.8,152.5,87.3,154.3L87.3,154.3z"/>
				</g>
			</g>
		</g>
		<g id="circle_and_lines">
			<g>
				<path class="st3" d="M126,54c19.4,0,37.4,7.7,50.8,21.8c12.9,13.6,19.7,31.3,19.2,50s-8.2,36.1-21.8,48.9
					C161.1,187.2,144,194,126,194c-19.4,0-37.4-7.7-50.8-21.8c-12.9-13.6-19.7-31.3-19.2-50s8.2-36.1,21.8-48.9
					C90.9,60.8,108,54,126,54L126,54 M126,51c-18,0-36.1,6.6-50.2,20.1c-29.2,27.8-30.5,74-2.7,103.2c14.4,15.1,33.6,22.7,53,22.7
					c18,0,36.1-6.6,50.2-20.1c29.2-27.8,30.5-74,2.7-103.2C164.6,58.6,145.3,51,126,51L126,51z"/>
			</g>
			<g>
				<g>
					<path class="st3" d="M125,124.6c21.1,11.4,42.2,22.8,63.2,34.1c1.7,0.9,3.2-1.7,1.5-2.6c-21.1-11.4-42.2-22.8-63.2-34.1
						C124.8,121.1,123.3,123.7,125,124.6L125,124.6z"/>
				</g>
			</g>
			<g>
				<g>
					<path class="st3" d="M141.7,54.2c-4.8,23.1-12.3,45.6-17.1,68.7c-0.4,1.9,2.5,2.7,2.9,0.8c4.8-23.1,12.3-45.6,17.1-68.7
						C145,53.1,142.1,52.3,141.7,54.2L141.7,54.2z"/>
				</g>
			</g>
			<g>
				<g>
					<path class="st3" d="M196.3,115.4c-23.4,3.4-47.1,4.1-70.4,7.4c-1.9,0.3-1.1,3.2,0.8,2.9c23.4-3.4,47.1-4.1,70.4-7.4
						C199,118,198.2,115.1,196.3,115.4L196.3,115.4z"/>
				</g>
			</g>
			<g>
				<g>
					<path class="st3" d="M186.2,85c-19.7,13-40.8,23.8-60.5,36.8c-1.6,1.1-0.1,3.7,1.5,2.6c19.7-13,40.8-23.8,60.5-36.8
						C189.4,86.5,187.9,83.9,186.2,85L186.2,85z"/>
				</g>
			</g>
			<g>
				<g>
					<path class="st3" d="M124.7,124c12.6,20.4,25.2,40.8,37.8,61.1c1,1.6,3.6,0.1,2.6-1.5c-12.6-20.4-25.2-40.8-37.8-61.1
						C126.2,120.9,123.7,122.4,124.7,124L124.7,124z"/>
				</g>
			</g>
		</g>
	</g>
</g>
</svg>
