<?xml version="1.0" encoding="utf-8"?>
<!-- Generator: Adobe Illustrator 22.1.0, SVG Export Plug-In . SVG Version: 6.00 Build 0)  -->
<svg version="1.1" xmlns="http://www.w3.org/2000/svg" xmlns:xlink="http://www.w3.org/1999/xlink" x="0px" y="0px"
	 viewBox="0 0 1241 1203" style="enable-background:new 0 0 1241 1203;" xml:space="preserve">
<style type="text/css">
	.st0{opacity:0.2;}
	.st1{fill:#FFFFFF;}
	.st2{opacity:0.3;}
</style>
<g id="Layer_2">
</g>
<g id="Layer_1">
</g>
<g id="lines" class="st0">
	<g>
		<g>
			<path class="st1" d="M81,243.7c30-22.5,60.8-44.1,92.2-64.6c4.3-2.8,0.3-9.7-4-6.9c-31.4,20.5-62.2,42-92.2,64.6
				C72.9,239.8,76.9,246.8,81,243.7L81,243.7z"/>
		</g>
	</g>
	<g>
		<g>
			<path class="st1" d="M95.3,52.9c-10.4,63.6-19.4,127.4-27.1,191.3c-0.6,5.1,7.4,5.1,8,0C83.8,181,92.8,117.9,103,55
				C103.8,50,96.1,47.8,95.3,52.9L95.3,52.9z"/>
		</g>
	</g>
	<g>
		<g>
			<path class="st1" d="M663.4,548.9c22.3-20.4,44.7-40.7,67-61.1c2.4-2.2-1.2-5.7-3.5-3.5c-22.3,20.4-44.7,40.7-67,61.1
				C657.5,547.6,661.1,551.1,663.4,548.9L663.4,548.9z"/>
		</g>
	</g>
	<g>
		<g>
			<path class="st1" d="M1048.2,409c14,51.5,27.9,103.1,45.4,153.6c0.6-1.5,1.2-3,1.8-4.5c-38,17.6-75.9,35.3-113.8,53.1
				c-13.1,6.2-26.3,12.4-39.4,18.6c-4.6,2.2-0.6,9.1,4,6.9c46.5-22.1,93.2-43.8,139.8-65.5c4.4-2.1,8.9-4.1,13.3-6.2
				c1.5-0.7,2.4-3,1.8-4.5c-17.5-50.4-31.4-102.1-45.4-153.6C1054.6,401.9,1046.9,404,1048.2,409L1048.2,409z"/>
		</g>
	</g>
	<g>
		<g>
			<path class="st1" d="M190.8,920.9c-0.4,20.9-0.8,41.8-1.1,62.7c-0.1,3.2,4.9,3.2,5,0c0.4-20.9,0.8-41.8,1.1-62.7
				C195.9,917.7,190.9,917.7,190.8,920.9L190.8,920.9z"/>
		</g>
	</g>
	<g>
		<g>
			<path class="st1" d="M195.1,923.5c33.6-19.2,66.5-39.5,98.9-60.7c2.7-1.8,0.2-6.1-2.5-4.3c-32.3,21.2-65.3,41.5-98.9,60.7
				C189.7,920.8,192.3,925.1,195.1,923.5L195.1,923.5z"/>
		</g>
	</g>
	<g>
		<g>
			<path class="st1" d="M72.4,581.1c11.5,19.5,22.3,39.4,32.6,59.6c1.5,2.9,5.8,0.3,4.3-2.5C99,618,88.2,598.1,76.7,578.6
				C75,575.8,70.7,578.3,72.4,581.1L72.4,581.1z"/>
		</g>
	</g>
	<g>
		<g>
			<path class="st1" d="M107.1,640.5c17.7-9.5,35.1-19.7,52-30.6c2.7-1.7,0.2-6.1-2.5-4.3c-16.9,10.9-34.2,21.1-52,30.6
				C101.7,637.7,104.2,642,107.1,640.5L107.1,640.5z"/>
		</g>
	</g>
	<g>
		<g>
			<path class="st1" d="M984.1,288.8c8.1,10.9,15,22.5,20.8,34.7c1.4,2.9,5.7,0.4,4.3-2.5c-5.8-12.2-12.7-23.8-20.8-34.7
				C986.5,283.7,982.2,286.2,984.1,288.8L984.1,288.8z"/>
		</g>
	</g>
	<g>
		<g>
			<path class="st1" d="M986.5,288.6c13-2,26-3.9,38.9-5.9c3.2-0.5,1.8-5.3-1.3-4.8c-13,2-26,3.9-38.9,5.9
				C982,284.2,983.4,289,986.5,288.6L986.5,288.6z"/>
		</g>
	</g>
	<g>
		<g>
			<path class="st1" d="M1026.2,279.5c-4.7-68-9.4-136.1-14-204.1c-1.1,0.8-2.1,1.6-3.2,2.4c44.1,16,88.1,32.5,131.4,50.4
				c13.3,5.5,26.6,11.1,39.5,17.5c-0.3-1.1-0.6-2.3-0.9-3.4c-19.5,34.7-39,69.4-58.8,104c-4.3,7.5-8.5,15-13,22.4
				c0.7-0.4,1.4-0.8,2.2-1.2c-27.7,3.2-55.5,6.4-83,10.5c-3.2,0.5-1.8,5.3,1.3,4.8c21.4-3.3,43-5.8,64.5-8.3
				c5.5-0.7,11.6-0.7,17.1-2c3.4-0.8,5.5-6.7,7.2-9.6c17.4-30.1,34.4-60.5,51.5-90.8c5.1-9.1,10.2-18.2,15.4-27.3
				c0.6-1.1,0.3-2.8-0.9-3.4c-25.1-12.4-51.4-22.5-77.4-32.7c-26-10.2-52.1-20-78.2-29.6c-5.5-2-11-4-16.5-6
				c-1.5-0.5-3.3,0.9-3.2,2.4c4.7,68,9.4,136.1,14,204.1C1021.4,282.7,1026.4,282.7,1026.2,279.5L1026.2,279.5z"/>
		</g>
	</g>
	<g>
		<g>
			<path class="st1" d="M75.5,579.1c4.7-14.4,9.5-28.8,14.2-43.1c4.8-14.7,9.4-29.4,15.9-43.5c1.3-2.9-3-5.4-4.3-2.5
				c-6.4,13.9-11,28.4-15.8,42.8c-4.9,15-9.9,30-14.8,45C69.6,580.8,74.5,582.1,75.5,579.1L75.5,579.1z"/>
		</g>
	</g>
	<g>
		<g>
			<path class="st1" d="M107.4,490.3c17.8,39,34.7,78.4,50.6,118.2c1.2,2.9,6,1.7,4.8-1.3c-16.1-40.2-33.2-80-51.1-119.4
				C110.4,484.8,106.1,487.4,107.4,490.3L107.4,490.3z"/>
		</g>
	</g>
	<g>
		<g>
			<path class="st1" d="M1078.1,817.5c-25.1-6.3-50.5-11.6-75.9-17c-6.7-1.4-13.8-3.7-20.7-4.3c-0.8-0.1-1.5-0.1-2.3,0.2
				c-2,0.7-4.2,2.8-6,3.9c-2.3,1.5-4.5,3-6.8,4.5c-8.3,5.4-16.6,10.8-24.8,16.2c-18.8,12.3-37.6,24.7-55.9,37.8
				c-2.6,1.9-0.1,6.2,2.5,4.3c15.7-11.3,31.8-22,48-32.6c8.1-5.3,16.2-10.5,24.2-15.8c3.8-2.5,7.7-5,11.5-7.5c2-1.3,4-2.6,6-3.9
				c0.5-0.3,2.8-2.3,2-2.2c1.5-0.3,4.4,0.9,5.8,1.2c4.2,0.9,8.4,1.8,12.5,2.6c12.4,2.6,24.7,5.3,37.1,8c13.8,3,27.6,6.1,41.3,9.5
				C1079.9,823.1,1081.2,818.3,1078.1,817.5L1078.1,817.5z"/>
		</g>
	</g>
	<g>
		<g>
			<path class="st1" d="M885.9,862.9c63.1-18.2,127.4-32.1,192.4-41.5c3.2-0.5,1.8-5.3-1.3-4.8c-65,9.5-129.3,23.3-192.4,41.5
				C881.5,858.9,882.8,863.8,885.9,862.9L885.9,862.9z"/>
		</g>
	</g>
	<g>
		<g>
			<path class="st1" d="M1071.2,1159.2c20.4-12.7,41.2-24.7,62.4-36c2.8-1.5,0.3-5.8-2.5-4.3c-21.2,11.3-42,23.3-62.4,36
				C1065.9,1156.5,1068.4,1160.9,1071.2,1159.2L1071.2,1159.2z"/>
		</g>
	</g>
	<g>
		<g>
			<path class="st1" d="M1131.1,1120.8c7.1,23.4,13.5,47.1,19,71c0.7,3.1,5.5,1.8,4.8-1.3c-5.5-23.9-11.9-47.6-19-71
				C1135,1116.4,1130.1,1117.7,1131.1,1120.8L1131.1,1120.8z"/>
		</g>
	</g>
	<g>
		<g>
			<path class="st1" d="M657.6,549c9.9,30.4,19.2,60.9,27.9,91.6c0.9,3.1,5.7,1.8,4.8-1.3c-8.7-30.7-18-61.3-27.9-91.6
				C661.4,544.7,656.6,546,657.6,549L657.6,549z"/>
		</g>
	</g>
	<g>
		<g>
			<path class="st1" d="M689.4,641.3c20.4-23.3,40.9-46.7,61.3-70c2.1-2.4-1.4-6-3.5-3.5c-20.4,23.3-40.9,46.7-61.3,70
				C683.7,640.1,687.3,643.7,689.4,641.3L689.4,641.3z"/>
		</g>
	</g>
</g>
<g id="dots" class="st2">
	<g>
		<g>
			<path class="st1" d="M115.9,342.6c-0.6-0.6-1.1-1.1-1.7-1.7c-1.4-1.5-3-2.5-4.8-3.1c-1.8-0.9-3.7-1.4-5.8-1.3
				c-2.1-0.1-4,0.4-5.8,1.3c-1.9,0.6-3.5,1.6-4.8,3.1c-0.8,1-1.6,2-2.3,3c-1.4,2.3-2,4.9-2,7.6c0.2,1.3,0.4,2.7,0.5,4
				c0.7,2.5,2,4.7,3.9,6.6c0.6,0.6,1.1,1.1,1.7,1.7c1.4,1.5,3,2.5,4.8,3.1c1.8,0.9,3.7,1.4,5.8,1.3c2.1,0.1,4-0.4,5.8-1.3
				c1.9-0.6,3.5-1.6,4.8-3.1c0.8-1,1.6-2,2.3-3c1.4-2.3,2-4.9,2-7.6c-0.2-1.3-0.4-2.7-0.5-4C119,346.7,117.7,344.5,115.9,342.6
				L115.9,342.6z"/>
		</g>
	</g>
	<g>
		<g>
			<path class="st1" d="M175.7,163.9c-0.6,0-1.1,0-1.7,0c-2.1-0.1-4,0.4-5.8,1.3c-1.9,0.6-3.5,1.6-4.8,3.1c-1.5,1.4-2.5,3-3.1,4.8
				c-0.9,1.8-1.4,3.7-1.3,5.8c0.2,1.3,0.4,2.7,0.5,4c0.7,2.5,2,4.7,3.9,6.6c1,0.8,2,1.6,3,2.3c2.3,1.4,4.9,2,7.6,2
				c0.6,0,1.1,0,1.7,0c2.1,0.1,4-0.4,5.8-1.3c1.9-0.6,3.5-1.6,4.8-3.1c1.5-1.4,2.5-3,3.1-4.8c0.9-1.8,1.4-3.7,1.3-5.8
				c-0.2-1.3-0.4-2.7-0.5-4c-0.7-2.5-2-4.7-3.9-6.6c-1-0.8-2-1.6-3-2.3C180.9,164.6,178.4,163.9,175.7,163.9L175.7,163.9z"/>
		</g>
	</g>
	<g>
		<g>
			<path class="st1" d="M195.4,410.4c-0.6,0-1.1,0-1.7,0c-2.1-0.1-4,0.4-5.8,1.3c-1.9,0.6-3.5,1.6-4.8,3.1c-1.5,1.4-2.5,3-3.1,4.8
				c-0.9,1.8-1.4,3.7-1.3,5.8c0.2,1.3,0.4,2.7,0.5,4c0.7,2.5,2,4.7,3.9,6.6c1,0.8,2,1.6,3,2.3c2.3,1.4,4.9,2,7.6,2
				c0.6,0,1.1,0,1.7,0c2.1,0.1,4-0.4,5.8-1.3c1.9-0.6,3.5-1.6,4.8-3.1c1.5-1.4,2.5-3,3.1-4.8c0.9-1.8,1.4-3.7,1.3-5.8
				c-0.2-1.3-0.4-2.7-0.5-4c-0.7-2.5-2-4.7-3.9-6.6c-1-0.8-2-1.6-3-2.3C200.7,411.1,198.1,410.4,195.4,410.4L195.4,410.4z"/>
		</g>
	</g>
	<g>
		<g>
			<path class="st1" d="M98.6,68.2c7.8,0,15.4-6.9,15-15c-0.4-8.1-6.6-15-15-15c-7.8,0-15.4,6.9-15,15
				C83.9,61.4,90.2,68.2,98.6,68.2L98.6,68.2z"/>
		</g>
	</g>
	<g>
		<g>
			<path class="st1" d="M1095.3,271.4c0,0.8,0,1.6,0,2.4c-0.1,2.1,0.4,4,1.3,5.8c0.6,1.9,1.6,3.5,3.1,4.8c1.4,1.5,3,2.5,4.8,3.1
				c1.8,0.9,3.7,1.4,5.8,1.3c1.3-0.2,2.7-0.4,4-0.5c2.5-0.7,4.7-2,6.6-3.9c0.8-1,1.6-2,2.3-3c1.4-2.3,2-4.9,2-7.6c0-0.8,0-1.6,0-2.4
				c0.1-2.1-0.4-4-1.3-5.8c-0.6-1.9-1.6-3.5-3.1-4.8c-1.4-1.5-3-2.5-4.8-3.1c-1.8-0.9-3.7-1.4-5.8-1.3c-1.3,0.2-2.7,0.4-4,0.5
				c-2.5,0.7-4.7,2-6.6,3.9c-0.8,1-1.6,2-2.3,3C1096,266.1,1095.4,268.7,1095.3,271.4L1095.3,271.4z"/>
		</g>
	</g>
	<g>
		<g>
			<path class="st1" d="M1048.5,421.9c7.8,0,15.4-6.9,15-15c-0.4-8.1-6.6-15-15-15c-7.8,0-15.4,6.9-15,15
				C1033.9,415,1040.1,421.9,1048.5,421.9L1048.5,421.9z"/>
		</g>
	</g>
	<g>
		<g>
			<path class="st1" d="M1096.1,576.4c7.8,0,15.4-6.9,15-15c-0.4-8.1-6.6-15-15-15c-7.8,0-15.4,6.9-15,15
				C1081.4,569.6,1087.7,576.4,1096.1,576.4L1096.1,576.4z"/>
		</g>
	</g>
	<g>
		<g>
			<path class="st1" d="M305.1,689.8c0-0.8,0-1.6,0-2.4c0.1-2.1-0.4-4-1.3-5.8c-0.6-1.9-1.6-3.5-3.1-4.8c-1.4-1.5-3-2.5-4.8-3.1
				c-1.8-0.9-3.7-1.4-5.8-1.3c-1.3,0.2-2.7,0.4-4,0.5c-2.5,0.7-4.7,2-6.6,3.9c-0.8,1-1.6,2-2.3,3c-1.4,2.3-2,4.9-2,7.6
				c0,0.8,0,1.6,0,2.4c-0.1,2.1,0.4,4,1.3,5.8c0.6,1.9,1.6,3.5,3.1,4.8c1.4,1.5,3,2.5,4.8,3.1c1.8,0.9,3.7,1.4,5.8,1.3
				c1.3-0.2,2.7-0.4,4-0.5c2.5-0.7,4.7-2,6.6-3.9c0.8-1,1.6-2,2.3-3C304.4,695.1,305.1,692.5,305.1,689.8L305.1,689.8z"/>
		</g>
	</g>
	<g>
		<g>
			<path class="st1" d="M85.6,880.8c7.8,0,15.4-6.9,15-15c-0.4-8.1-6.6-15-15-15c-7.8,0-15.4,6.9-15,15
				C71,873.9,77.2,880.8,85.6,880.8L85.6,880.8z"/>
		</g>
	</g>
	<g>
		<g>
			<path class="st1" d="M1072.3,834.5c7.8,0,15.4-6.9,15-15c-0.4-8.1-6.6-15-15-15c-7.8,0-15.4,6.9-15,15
				C1057.7,827.6,1063.9,834.5,1072.3,834.5L1072.3,834.5z"/>
		</g>
	</g>
	<g>
		<g>
			<path class="st1" d="M104.6,500.1c12.9,0,12.9-20,0-20C91.8,480.1,91.7,500.1,104.6,500.1L104.6,500.1z"/>
		</g>
	</g>
	<g>
		<g>
			<path class="st1" d="M81.4,247.6c0-0.8,0-1.6,0-2.4c0.1-1.4-0.2-2.7-0.9-3.9c-0.4-1.2-1.1-2.3-2.1-3.2c-0.9-1-2-1.7-3.2-2.1
				c-1.2-0.6-2.5-0.9-3.9-0.9c-0.9,0.1-1.8,0.2-2.7,0.4c-1.7,0.5-3.2,1.3-4.4,2.6c-1.8,2-2.9,4.4-2.9,7.1c0,0.8,0,1.6,0,2.4
				c-0.1,1.4,0.2,2.7,0.9,3.9c0.4,1.2,1.1,2.3,2.1,3.2c0.9,1,2,1.7,3.2,2.1c1.2,0.6,2.5,0.9,3.9,0.9c0.9-0.1,1.8-0.2,2.7-0.4
				c1.7-0.5,3.2-1.3,4.4-2.6C80.2,252.7,81.4,250.3,81.4,247.6L81.4,247.6z"/>
		</g>
	</g>
	<g>
		<g>
			<path class="st1" d="M1008.1,86.5c16.1,0,16.1-25,0-25C992,61.5,992,86.5,1008.1,86.5L1008.1,86.5z"/>
		</g>
	</g>
	<g>
		<g>
			<path class="st1" d="M661.5,242.8c0-0.8,0-1.6,0-2.4c0.1-1.4-0.2-2.7-0.9-3.9c-0.4-1.2-1.1-2.3-2.1-3.2c-0.9-1-2-1.7-3.2-2.1
				c-1.2-0.6-2.5-0.9-3.9-0.9c-0.9,0.1-1.8,0.2-2.7,0.4c-1.7,0.5-3.2,1.3-4.4,2.6c-1.8,2-2.9,4.4-2.9,7.1c0,0.8,0,1.6,0,2.4
				c-0.1,1.4,0.2,2.7,0.9,3.9c0.4,1.2,1.1,2.3,2.1,3.2c0.9,1,2,1.7,3.2,2.1c1.2,0.6,2.5,0.9,3.9,0.9c0.9-0.1,1.8-0.2,2.7-0.4
				c1.7-0.5,3.2-1.3,4.4-2.6C660.3,248,661.5,245.6,661.5,242.8L661.5,242.8z"/>
		</g>
	</g>
	<g>
		<g>
			<path class="st1" d="M513.6,440.7c12.9,0,12.9-20,0-20C500.7,420.7,500.7,440.7,513.6,440.7L513.6,440.7z"/>
		</g>
	</g>
	<g>
		<g>
			<path class="st1" d="M1179.3,150.6c12.9,0,12.9-20,0-20C1166.4,130.6,1166.4,150.6,1179.3,150.6L1179.3,150.6z"/>
		</g>
	</g>
	<g>
		<g>
			<path class="st1" d="M311.5,393.1c12.9,0,12.9-20,0-20C298.6,373.1,298.6,393.1,311.5,393.1L311.5,393.1z"/>
		</g>
	</g>
	<g>
		<g>
			<path class="st1" d="M480.3,741.6c-0.8,0-1.6,0-2.4,0c-1.4-0.1-2.7,0.2-3.9,0.9c-1.2,0.4-2.3,1.1-3.2,2.1c-1,0.9-1.7,2-2.1,3.2
				c-0.6,1.2-0.9,2.5-0.9,3.9c0.1,0.9,0.2,1.8,0.4,2.7c0.5,1.7,1.3,3.2,2.6,4.4c2,1.8,4.4,2.9,7.1,2.9c0.8,0,1.6,0,2.4,0
				c1.4,0.1,2.7-0.2,3.9-0.9c1.2-0.4,2.3-1.1,3.2-2.1c1-0.9,1.7-2,2.1-3.2c0.6-1.2,0.9-2.5,0.9-3.9c-0.1-0.9-0.2-1.8-0.4-2.7
				c-0.5-1.7-1.3-3.2-2.6-4.4C485.4,742.8,483,741.6,480.3,741.6L480.3,741.6z"/>
		</g>
	</g>
	<g>
		<g>
			<path class="st1" d="M660.6,559c12.9,0,12.9-20,0-20C647.7,539,647.7,559,660.6,559L660.6,559z"/>
		</g>
	</g>
	<g>
		<g>
			<path class="st1" d="M302.5,863.4c0-0.4,0-0.9,0-1.3c0-12.9-20-12.9-20,0c0,0.4,0,0.9,0,1.3C282.5,876.3,302.5,876.3,302.5,863.4
				c0-0.4,0-0.9,0-1.3c0-12.9-20-12.9-20,0c0,0.4,0,0.9,0,1.3C282.5,876.3,302.5,876.3,302.5,863.4L302.5,863.4z"/>
		</g>
	</g>
	<g>
		<g>
			<path class="st1" d="M889.2,848.6c-0.8,0-1.6,0-2.4,0c-1.4-0.1-2.7,0.2-3.9,0.9c-1.2,0.4-2.3,1.1-3.2,2.1c-1,0.9-1.7,2-2.1,3.2
				c-0.6,1.2-0.9,2.5-0.9,3.9c0.1,0.9,0.2,1.8,0.4,2.7c0.5,1.7,1.3,3.2,2.6,4.4c2,1.8,4.4,2.9,7.1,2.9c0.8,0,1.6,0,2.4,0
				c1.4,0.1,2.7-0.2,3.9-0.9c1.2-0.4,2.3-1.1,3.2-2.1c1-0.9,1.7-2,2.1-3.2c0.6-1.2,0.9-2.5,0.9-3.9c-0.1-0.9-0.2-1.8-0.4-2.7
				c-0.5-1.7-1.3-3.2-2.6-4.4C894.3,849.8,891.9,848.6,889.2,848.6L889.2,848.6z"/>
		</g>
	</g>
	<g>
		<g>
			<path class="st1" d="M982,789.2c-0.8,0-1.6,0-2.4,0c-1.4-0.1-2.7,0.2-3.9,0.9c-1.2,0.4-2.3,1.1-3.2,2.1c-1,0.9-1.7,2-2.1,3.2
				c-0.6,1.2-0.9,2.5-0.9,3.9c0.1,0.9,0.2,1.8,0.4,2.7c0.5,1.7,1.3,3.2,2.6,4.4c2,1.8,4.4,2.9,7.1,2.9c0.8,0,1.6,0,2.4,0
				c1.4,0.1,2.7-0.2,3.9-0.9c1.2-0.4,2.3-1.1,3.2-2.1c1-0.9,1.7-2,2.1-3.2c0.6-1.2,0.9-2.5,0.9-3.9c-0.1-0.9-0.2-1.8-0.4-2.7
				c-0.5-1.7-1.3-3.2-2.6-4.4C987.1,790.3,984.7,789.2,982,789.2L982,789.2z"/>
		</g>
	</g>
	<g>
		<g>
			<path class="st1" d="M941.5,640.4c12.9,0,12.9-20,0-20C928.7,620.4,928.6,640.4,941.5,640.4L941.5,640.4z"/>
		</g>
	</g>
	<g>
		<g>
			<path class="st1" d="M157.8,617.7c12.9,0,12.9-20,0-20C144.9,597.7,144.9,617.7,157.8,617.7L157.8,617.7z"/>
		</g>
	</g>
	<g>
		<g>
			<path class="st1" d="M104.7,649c12.9,0,12.9-20,0-20C91.9,629,91.9,649,104.7,649L104.7,649z"/>
		</g>
	</g>
	<g>
		<g>
			<path class="st1" d="M1119.2,911c-0.4,0-0.9,0-1.3,0c-12.9,0-12.9,20,0,20c0.4,0,0.9,0,1.3,0C1132.1,931,1132.1,911,1119.2,911
				c-0.4,0-0.9,0-1.3,0c-12.9,0-12.9,20,0,20c0.4,0,0.9,0,1.3,0C1132.1,931,1132.1,911,1119.2,911L1119.2,911z"/>
		</g>
	</g>
	<g>
		<g>
			<path class="st1" d="M1148.1,967.1c12.9,0,12.9-20,0-20C1135.3,947.1,1135.2,967.1,1148.1,967.1L1148.1,967.1z"/>
		</g>
	</g>
	<g>
		<g>
			<path class="st1" d="M314.4,270.5c6.4,0,6.4-10,0-10C308,260.5,307.9,270.5,314.4,270.5L314.4,270.5z"/>
		</g>
	</g>
	<g>
		<g>
			<path class="st1" d="M244.5,328.4c6.4,0,6.4-10,0-10C238.1,318.4,238.1,328.4,244.5,328.4L244.5,328.4z"/>
		</g>
	</g>
	<g>
		<g>
			<path class="st1" d="M124,147.6c6.4,0,6.4-10,0-10C117.6,137.6,117.6,147.6,124,147.6L124,147.6z"/>
		</g>
	</g>
	<g>
		<g>
			<path class="st1" d="M49.3,183.8c6.4,0,6.4-10,0-10C42.9,173.8,42.9,183.8,49.3,183.8L49.3,183.8z"/>
		</g>
	</g>
	<g>
		<g>
			<path class="st1" d="M78.4,581.2c0-0.8,0-1.6,0-2.4c0-1.3-0.6-2.6-1.5-3.5c-0.9-0.9-2.3-1.5-3.5-1.5c-1.3,0.1-2.6,0.5-3.5,1.5
				c-0.9,1-1.5,2.2-1.5,3.5c0,0.8,0,1.6,0,2.4c0,1.3,0.6,2.6,1.5,3.5c0.9,0.9,2.3,1.5,3.5,1.5c1.3-0.1,2.6-0.5,3.5-1.5
				C77.9,583.8,78.4,582.5,78.4,581.2L78.4,581.2z"/>
		</g>
	</g>
	<g>
		<g>
			<path class="st1" d="M37.3,622.3c6.4,0,6.4-10,0-10C30.8,612.3,30.8,622.3,37.3,622.3L37.3,622.3z"/>
		</g>
	</g>
	<g>
		<g>
			<path class="st1" d="M30,550c6.4,0,6.4-10,0-10C23.6,540,23.6,550,30,550L30,550z"/>
		</g>
	</g>
	<g>
		<g>
			<path class="st1" d="M39.7,723.5c6.4,0,6.4-10,0-10C33.3,713.5,33.2,723.5,39.7,723.5L39.7,723.5z"/>
		</g>
	</g>
	<g>
		<g>
			<path class="st1" d="M34.9,774.1c6.4,0,6.4-10,0-10C28.4,764.1,28.4,774.1,34.9,774.1L34.9,774.1z"/>
		</g>
	</g>
	<g>
		<g>
			<path class="st1" d="M109.6,750c6.4,0,6.4-10,0-10C103.1,740,103.1,750,109.6,750L109.6,750z"/>
		</g>
	</g>
	<g>
		<g>
			<path class="st1" d="M172.2,713.9c6.4,0,6.4-10,0-10C165.8,703.9,165.8,713.9,172.2,713.9L172.2,713.9z"/>
		</g>
	</g>
	<g>
		<g>
			<path class="st1" d="M191.5,786.2c6.4,0,6.4-10,0-10C185.1,776.2,185,786.2,191.5,786.2L191.5,786.2z"/>
		</g>
	</g>
	<g>
		<g>
			<path class="st1" d="M1113.1,515c-0.8-0.8-1.6-1.6-2.4-2.4c-0.9-0.9-2.3-1.5-3.5-1.5c-1.2,0-2.7,0.5-3.5,1.5
				c-0.9,1-1.5,2.2-1.5,3.5c0.1,1.3,0.5,2.6,1.5,3.5c0.8,0.8,1.6,1.6,2.4,2.4c0.9,0.9,2.3,1.5,3.5,1.5c1.2,0,2.7-0.5,3.5-1.5
				c0.9-1,1.5-2.2,1.5-3.5C1114.5,517.2,1114.1,516,1113.1,515L1113.1,515z"/>
		</g>
	</g>
	<g>
		<g>
			<path class="st1" d="M1022.8,528c-0.8,0-1.6,0-2.4,0c-1.3,0-2.6,0.6-3.5,1.5c-0.9,0.9-1.5,2.3-1.5,3.5c0.1,1.3,0.5,2.6,1.5,3.5
				c1,0.9,2.2,1.5,3.5,1.5c0.8,0,1.6,0,2.4,0c1.3,0,2.6-0.6,3.5-1.5c0.9-0.9,1.5-2.3,1.5-3.5c-0.1-1.3-0.5-2.6-1.5-3.5
				C1025.4,528.6,1024.2,528,1022.8,528L1022.8,528z"/>
		</g>
	</g>
	<g>
		<g>
			<path class="st1" d="M1015.6,509.1c6.4,0,6.4-10,0-10C1009.2,499.1,1009.1,509.1,1015.6,509.1L1015.6,509.1z"/>
		</g>
	</g>
	<g>
		<g>
			<path class="st1" d="M1008.4,330.9c9.7,0,9.7-15,0-15C998.7,315.9,998.7,330.9,1008.4,330.9L1008.4,330.9z"/>
		</g>
	</g>
	<g>
		<g>
			<path class="st1" d="M1025.2,290c12.9,0,12.9-20,0-20C1012.4,270,1012.3,290,1025.2,290L1025.2,290z"/>
		</g>
	</g>
	<g>
		<g>
			<path class="st1" d="M984.3,294.7c9.7,0,9.7-15,0-15C974.6,279.7,974.6,294.7,984.3,294.7L984.3,294.7z"/>
		</g>
	</g>
	<g>
		<g>
			<path class="st1" d="M408.4,600.7c6.4,0,6.4-10,0-10C401.9,590.7,401.9,600.7,408.4,600.7L408.4,600.7z"/>
		</g>
	</g>
	<g>
		<g>
			<path class="st1" d="M687.9,644.8c6.4,0,6.4-10,0-10C681.5,634.8,681.5,644.8,687.9,644.8L687.9,644.8z"/>
		</g>
	</g>
	<g>
		<g>
			<path class="st1" d="M193.9,926c6.4,0,6.4-10,0-10C187.5,916,187.5,926,193.9,926L193.9,926z"/>
		</g>
	</g>
	<g>
		<g>
			<path class="st1" d="M193.9,986.2c6.4,0,6.4-10,0-10C187.5,976.2,187.5,986.2,193.9,986.2L193.9,986.2z"/>
		</g>
	</g>
	<g>
		<g>
			<path class="st1" d="M962.6,952.5c6.4,0,6.4-10,0-10C956.1,942.5,956.1,952.5,962.6,952.5L962.6,952.5z"/>
		</g>
	</g>
	<g>
		<g>
			<path class="st1" d="M1018,942.8c6.4,0,6.4-10,0-10C1011.6,932.8,1011.6,942.8,1018,942.8L1018,942.8z"/>
		</g>
	</g>
	<g>
		<g>
			<path class="st1" d="M916.8,812.7c6.4,0,6.4-10,0-10C910.4,802.7,910.3,812.7,916.8,812.7L916.8,812.7z"/>
		</g>
	</g>
	<g>
		<g>
			<path class="st1" d="M931.7,895.9c6.4,0,6.4-10,0-10C925.2,885.9,925.2,895.9,931.7,895.9L931.7,895.9z"/>
		</g>
	</g>
	<g>
		<g>
			<path class="st1" d="M1054.1,771.7c6.4,0,6.4-10,0-10C1047.7,761.7,1047.7,771.7,1054.1,771.7L1054.1,771.7z"/>
		</g>
	</g>
	<g>
		<g>
			<path class="st1" d="M1087.9,742.8c6.4,0,6.4-10,0-10C1081.4,732.8,1081.4,742.8,1087.9,742.8L1087.9,742.8z"/>
		</g>
	</g>
	<g>
		<g>
			<path class="st1" d="M1136.1,860.9c6.4,0,6.4-10,0-10C1129.6,850.9,1129.6,860.9,1136.1,860.9L1136.1,860.9z"/>
		</g>
	</g>
	<g>
		<g>
			<path class="st1" d="M1152.9,812.7c6.4,0,6.4-10,0-10C1146.5,802.7,1146.5,812.7,1152.9,812.7L1152.9,812.7z"/>
		</g>
	</g>
	<g>
		<g>
			<path class="st1" d="M589.1,116.3c6.4,0,6.4-10,0-10C582.6,106.3,582.6,116.3,589.1,116.3L589.1,116.3z"/>
		</g>
	</g>
	<g>
		<g>
			<path class="st1" d="M459,154.9c6.4,0,6.4-10,0-10C452.5,144.9,452.5,154.9,459,154.9L459,154.9z"/>
		</g>
	</g>
	<g>
		<g>
			<path class="st1" d="M463.8,217.5c6.4,0,6.4-10,0-10C457.3,207.5,457.3,217.5,463.8,217.5L463.8,217.5z"/>
		</g>
	</g>
	<g>
		<g>
			<path class="st1" d="M648.5,742.5c6.4,0,6.4-10,0-10C642.1,732.5,642.1,742.5,648.5,742.5L648.5,742.5z"/>
		</g>
	</g>
	<g>
		<g>
			<path class="st1" d="M738.5,969.3c6.4,0,6.4-10,0-10C732,959.3,732,969.3,738.5,969.3L738.5,969.3z"/>
		</g>
	</g>
	<g>
		<g>
			<path class="st1" d="M555.3,1017.5c6.4,0,6.4-10,0-10C548.9,1007.5,548.9,1017.5,555.3,1017.5L555.3,1017.5z"/>
		</g>
	</g>
	<g>
		<g>
			<path class="st1" d="M145.1,1106.8c0-0.7,0-1.3,0-2c0-6.4-10-6.4-10,0c0,0.7,0,1.3,0,2C135.1,1113.2,145.1,1113.2,145.1,1106.8
				c0-0.7,0-1.3,0-2c0-6.4-10-6.4-10,0c0,0.7,0,1.3,0,2C135.1,1113.2,145.1,1113.2,145.1,1106.8L145.1,1106.8z"/>
		</g>
	</g>
	<g>
		<g>
			<path class="st1" d="M45.9,1037.7c6.4,0,6.4-10,0-10C39.4,1027.7,39.4,1037.7,45.9,1037.7L45.9,1037.7z"/>
		</g>
	</g>
	<g>
		<g>
			<path class="st1" d="M255.1,1087.2c6.4,0,6.4-10,0-10C248.6,1077.2,248.6,1087.2,255.1,1087.2L255.1,1087.2z"/>
		</g>
	</g>
	<g>
		<g>
			<path class="st1" d="M716.7,1097.6c0.8,0.8,1.6,1.6,2.4,2.4c0.9,0.9,2.3,1.5,3.5,1.5c1.2,0,2.7-0.5,3.5-1.5
				c0.9-1,1.5-2.2,1.5-3.5c-0.1-1.3-0.5-2.6-1.5-3.5c-0.8-0.8-1.6-1.6-2.4-2.4c-0.9-0.9-2.3-1.5-3.5-1.5c-1.2,0-2.7,0.5-3.5,1.5
				c-0.9,1-1.5,2.2-1.5,3.5C715.3,1095.4,715.8,1096.6,716.7,1097.6L716.7,1097.6z"/>
		</g>
	</g>
	<g>
		<g>
			<path class="st1" d="M930.4,164c6.4,0,6.4-10,0-10C924,154,924,164,930.4,164L930.4,164z"/>
		</g>
	</g>
	<g>
		<g>
			<path class="st1" d="M1124,41.2c6.4,0,6.4-10,0-10C1117.6,31.2,1117.6,41.2,1124,41.2L1124,41.2z"/>
		</g>
	</g>
	<g>
		<g>
			<path class="st1" d="M373.1,95.5c6.4,0,6.4-10,0-10C366.7,85.5,366.7,95.5,373.1,95.5L373.1,95.5z"/>
		</g>
	</g>
	<g>
		<g>
			<path class="st1" d="M349.5,74.2c6.4,0,6.4-10,0-10C343.1,64.2,343.1,74.2,349.5,74.2L349.5,74.2z"/>
		</g>
	</g>
	<g>
		<g>
			<path class="st1" d="M210.1,1063.8c0-0.8,0-1.6,0-2.4c0.1-2.1-0.4-4-1.3-5.8c-0.6-1.9-1.6-3.5-3.1-4.8c-1.4-1.5-3-2.5-4.8-3.1
				c-1.8-0.9-3.7-1.4-5.8-1.3c-1.3,0.2-2.7,0.4-4,0.5c-2.5,0.7-4.7,2-6.6,3.9c-0.8,1-1.6,2-2.3,3c-1.4,2.3-2,4.9-2,7.6
				c0,0.8,0,1.6,0,2.4c-0.1,2.1,0.4,4,1.3,5.8c0.6,1.9,1.6,3.5,3.1,4.8c1.4,1.5,3,2.5,4.8,3.1c1.8,0.9,3.7,1.4,5.8,1.3
				c1.3-0.2,2.7-0.4,4-0.5c2.5-0.7,4.7-2,6.6-3.9c0.8-1,1.6-2,2.3-3C209.4,1069.1,210.1,1066.5,210.1,1063.8L210.1,1063.8z"/>
		</g>
	</g>
	<g>
		<g>
			<path class="st1" d="M1087.1,1105.8c0-0.8,0-1.6,0-2.4c0.1-2.1-0.4-4-1.3-5.8c-0.6-1.9-1.6-3.5-3.1-4.8c-1.4-1.5-3-2.5-4.8-3.1
				c-1.8-0.9-3.7-1.4-5.8-1.3c-1.3,0.2-2.7,0.4-4,0.5c-2.5,0.7-4.7,2-6.6,3.9c-0.8,1-1.6,2-2.3,3c-1.4,2.3-2,4.9-2,7.6
				c0,0.8,0,1.6,0,2.4c-0.1,2.1,0.4,4,1.3,5.8c0.6,1.9,1.6,3.5,3.1,4.8c1.4,1.5,3,2.5,4.8,3.1c1.8,0.9,3.7,1.4,5.8,1.3
				c1.3-0.2,2.7-0.4,4-0.5c2.5-0.7,4.7-2,6.6-3.9c0.8-1,1.6-2,2.3-3C1086.4,1111.1,1087.1,1108.5,1087.1,1105.8L1087.1,1105.8z"/>
		</g>
	</g>
	<g>
		<g>
			<path class="st1" d="M1069.6,1162c6.4,0,6.4-10,0-10C1063.1,1152,1063.1,1162,1069.6,1162L1069.6,1162z"/>
		</g>
	</g>
	<g>
		<g>
			<path class="st1" d="M1132.2,1125.9c6.4,0,6.4-10,0-10C1125.8,1115.9,1125.8,1125.9,1132.2,1125.9L1132.2,1125.9z"/>
		</g>
	</g>
	<g>
		<g>
			<path class="st1" d="M1151.5,1198.2c6.4,0,6.4-10,0-10C1145.1,1188.2,1145,1198.2,1151.5,1198.2L1151.5,1198.2z"/>
		</g>
	</g>
	<g>
		<g>
			<path class="st1" d="M123.8,1146.7c12.9,0,12.9-20,0-20C110.9,1126.7,110.9,1146.7,123.8,1146.7L123.8,1146.7z"/>
		</g>
	</g>
	<g>
		<g>
			<path class="st1" d="M1008.8,1192.7c12.9,0,12.9-20,0-20C995.9,1172.7,995.9,1192.7,1008.8,1192.7L1008.8,1192.7z"/>
		</g>
	</g>
	<g>
		<g>
			<path class="st1" d="M408.8,1166.7c12.9,0,12.9-20,0-20C395.9,1146.7,395.9,1166.7,408.8,1166.7L408.8,1166.7z"/>
		</g>
	</g>
	<g>
		<g>
			<path class="st1" d="M730.8,488.2c6.4,0,6.4-10,0-10C724.4,478.2,724.3,488.2,730.8,488.2L730.8,488.2z"/>
		</g>
	</g>
	<g>
		<g>
			<path class="st1" d="M704.6,879.4c6.4,0,6.4-10,0-10C698.2,869.4,698.2,879.4,704.6,879.4L704.6,879.4z"/>
		</g>
	</g>
	<g>
		<g>
			<path class="st1" d="M734.2,569.8c0,0.2,0,0.4,0,0.6c-0.1,1.4,0.2,2.7,0.9,3.9c0.4,1.2,1.1,2.3,2.1,3.2c0.9,1,2,1.7,3.2,2.1
				c1.2,0.6,2.5,0.9,3.9,0.9c0.9-0.1,1.8-0.2,2.7-0.4c1.7-0.5,3.2-1.3,4.4-2.6c1.8-2,2.9-4.4,2.9-7.1c0-0.2,0-0.4,0-0.6
				c0.1-1.4-0.2-2.7-0.9-3.9c-0.4-1.2-1.1-2.3-2.1-3.2c-0.9-1-2-1.7-3.2-2.1c-1.2-0.6-2.5-0.9-3.9-0.9c-0.9,0.1-1.8,0.2-2.7,0.4
				c-1.7,0.5-3.2,1.3-4.4,2.6C735.3,564.7,734.2,567.1,734.2,569.8L734.2,569.8z"/>
		</g>
	</g>
	<g>
		<g>
			<path class="st1" d="M352.9,1007.5c6.4,0,6.4-10,0-10C346.4,997.5,346.4,1007.5,352.9,1007.5L352.9,1007.5z"/>
		</g>
	</g>
	<g>
		<g>
			<path class="st1" d="M118.7,1029.2c6.4,0,6.4-10,0-10C112.2,1019.2,112.2,1029.2,118.7,1029.2L118.7,1029.2z"/>
		</g>
	</g>
	<g>
		<g>
			<path class="st1" d="M105.2,1048.6c6.4,0,6.4-10,0-10C98.7,1038.6,98.7,1048.6,105.2,1048.6L105.2,1048.6z"/>
		</g>
	</g>
	<g>
		<g>
			<path class="st1" d="M14,1119.3c-0.3,0.3-0.6,0.6-0.8,0.8c-0.9,0.9-1.5,2.3-1.5,3.5c0,1.2,0.5,2.7,1.5,3.5c1,0.9,2.2,1.5,3.5,1.5
				c1.3-0.1,2.6-0.5,3.5-1.5c0.3-0.3,0.6-0.6,0.8-0.8c0.9-0.9,1.5-2.3,1.5-3.5c0-1.2-0.5-2.7-1.5-3.5c-1-0.9-2.2-1.5-3.5-1.5
				C16.2,1117.9,14.9,1118.4,14,1119.3L14,1119.3z"/>
		</g>
	</g>
	<g>
		<g>
			<path class="st1" d="M15,1159.1c6.4,0,6.4-10,0-10C8.5,1149.1,8.5,1159.1,15,1159.1L15,1159.1z"/>
		</g>
	</g>
	<g>
		<g>
			<path class="st1" d="M27.6,972.9c-0.3,0-0.6,0-0.8,0c-1.3,0-2.6,0.6-3.5,1.5c-0.9,0.9-1.5,2.3-1.5,3.5c0.1,1.3,0.5,2.6,1.5,3.5
				c1,0.9,2.2,1.5,3.5,1.5c0.3,0,0.6,0,0.8,0c1.3,0,2.6-0.6,3.5-1.5c0.9-0.9,1.5-2.3,1.5-3.5c-0.1-1.3-0.5-2.6-1.5-3.5
				C30.2,973.4,29,972.9,27.6,972.9L27.6,972.9z"/>
		</g>
	</g>
	<g>
		<g>
			<path class="st1" d="M5.7,1016.6c0,0.3,0,0.6,0,0.8c0,1.3,0.6,2.6,1.5,3.5c0.9,0.9,2.3,1.5,3.5,1.5c1.3-0.1,2.6-0.5,3.5-1.5
				c0.9-1,1.5-2.2,1.5-3.5c0-0.3,0-0.6,0-0.8c0-1.3-0.6-2.6-1.5-3.5c-0.9-0.9-2.3-1.5-3.5-1.5c-1.3,0.1-2.6,0.5-3.5,1.5
				C6.3,1014.1,5.7,1015.3,5.7,1016.6L5.7,1016.6z"/>
		</g>
	</g>
	<g>
		<g>
			<path class="st1" d="M342.7,1142.3c0,0.7,0,1.4,0,2.1c0,1.3,0.6,2.6,1.5,3.5c0.9,0.9,2.3,1.5,3.5,1.5c1.3-0.1,2.6-0.5,3.5-1.5
				c0.9-1,1.5-2.2,1.5-3.5c0-0.7,0-1.4,0-2.1c0-1.3-0.6-2.6-1.5-3.5c-0.9-0.9-2.3-1.5-3.5-1.5c-1.3,0.1-2.6,0.5-3.5,1.5
				C343.3,1139.8,342.7,1141,342.7,1142.3L342.7,1142.3z"/>
		</g>
	</g>
	<g>
		<g>
			<path class="st1" d="M311.7,1189.7c6.4,0,6.4-10,0-10C305.3,1179.7,305.3,1189.7,311.7,1189.7L311.7,1189.7z"/>
		</g>
	</g>
	<g>
		<g>
			<path class="st1" d="M337.9,1174.1c0-0.7,0-1.4,0-2.1c0-1.3-0.6-2.6-1.5-3.5c-0.9-0.9-2.3-1.5-3.5-1.5c-1.3,0.1-2.6,0.5-3.5,1.5
				c-0.9,1-1.5,2.2-1.5,3.5c0,0.7,0,1.4,0,2.1c0,1.3,0.6,2.6,1.5,3.5c0.9,0.9,2.3,1.5,3.5,1.5c1.3-0.1,2.6-0.5,3.5-1.5
				C337.3,1176.6,337.9,1175.4,337.9,1174.1L337.9,1174.1z"/>
		</g>
	</g>
	<g>
		<g>
			<path class="st1" d="M176.3,118.5c6.4,0,6.4-10,0-10C169.8,108.5,169.8,118.5,176.3,118.5L176.3,118.5z"/>
		</g>
	</g>
	<g>
		<g>
			<path class="st1" d="M178.4,59.8c-0.7,0-1.4,0-2.1,0c-1.3,0-2.6,0.6-3.5,1.5c-0.9,0.9-1.5,2.3-1.5,3.5c0.1,1.3,0.5,2.6,1.5,3.5
				c1,0.9,2.2,1.5,3.5,1.5c0.7,0,1.4,0,2.1,0c1.3,0,2.6-0.6,3.5-1.5c0.9-0.9,1.5-2.3,1.5-3.5c-0.1-1.3-0.5-2.6-1.5-3.5
				C180.9,60.4,179.7,59.8,178.4,59.8L178.4,59.8z"/>
		</g>
	</g>
	<g>
		<g>
			<path class="st1" d="M199.5,21.1c6.4,0,6.4-10,0-10C193.1,11.1,193.1,21.1,199.5,21.1L199.5,21.1z"/>
		</g>
	</g>
	<g>
		<g>
			<path class="st1" d="M37.9,263.8c0,0.7,0,1.4,0,2.1c0,1.3,0.6,2.6,1.5,3.5c0.9,0.9,2.3,1.5,3.5,1.5c1.3-0.1,2.6-0.5,3.5-1.5
				c0.9-1,1.5-2.2,1.5-3.5c0-0.7,0-1.4,0-2.1c0-1.3-0.6-2.6-1.5-3.5c-0.9-0.9-2.3-1.5-3.5-1.5c-1.3,0.1-2.6,0.5-3.5,1.5
				C38.5,261.3,37.9,262.5,37.9,263.8L37.9,263.8z"/>
		</g>
	</g>
	<g>
		<g>
			<path class="st1" d="M148.7,156.6c6.4,0,6.4-10,0-10C142.3,146.6,142.3,156.6,148.7,156.6L148.7,156.6z"/>
		</g>
	</g>
	<g>
		<g>
			<path class="st1" d="M1120.4,23.3c6.4,0,6.4-10,0-10C1113.9,13.3,1113.9,23.3,1120.4,23.3L1120.4,23.3z"/>
		</g>
	</g>
	<g>
		<g>
			<path class="st1" d="M1099.9,129c-0.7,0.7-1.4,1.4-2.1,2.1c-0.9,0.9-1.5,2.3-1.5,3.5c0,1.2,0.5,2.7,1.5,3.5
				c1,0.9,2.2,1.5,3.5,1.5c1.3-0.1,2.6-0.5,3.5-1.5c0.7-0.7,1.4-1.4,2.1-2.1c0.9-0.9,1.5-2.3,1.5-3.5c0-1.2-0.5-2.7-1.5-3.5
				c-1-0.9-2.2-1.5-3.5-1.5C1102.1,127.6,1100.9,128.1,1099.9,129L1099.9,129z"/>
		</g>
	</g>
	<g>
		<g>
			<path class="st1" d="M1137.3,172c-0.7,0-1.4,0-2.1,0c-1.3,0-2.6,0.6-3.5,1.5c-0.9,0.9-1.5,2.3-1.5,3.5c0.1,1.3,0.5,2.6,1.5,3.5
				c1,0.9,2.2,1.5,3.5,1.5c0.7,0,1.4,0,2.1,0c1.3,0,2.6-0.6,3.5-1.5c0.9-0.9,1.5-2.3,1.5-3.5c-0.1-1.3-0.5-2.6-1.5-3.5
				C1139.9,172.6,1138.7,172,1137.3,172L1137.3,172z"/>
		</g>
	</g>
	<g>
		<g>
			<path class="st1" d="M1200.8,268.8c6.4,0,6.4-10,0-10C1194.4,258.8,1194.4,268.8,1200.8,268.8L1200.8,268.8z"/>
		</g>
	</g>
	<g>
		<g>
			<path class="st1" d="M933.3,448c0,0.7,0,1.4,0,2.1c0,1.3,0.6,2.6,1.5,3.5c0.9,0.9,2.3,1.5,3.5,1.5c1.3-0.1,2.6-0.5,3.5-1.5
				c0.9-1,1.5-2.2,1.5-3.5c0-0.7,0-1.4,0-2.1c0-1.3-0.6-2.6-1.5-3.5c-0.9-0.9-2.3-1.5-3.5-1.5c-1.3,0.1-2.6,0.5-3.5,1.5
				C933.9,445.4,933.3,446.6,933.3,448L933.3,448z"/>
		</g>
	</g>
	<g>
		<g>
			<path class="st1" d="M1176.8,412c0,0.7,0,1.4,0,2.1c0,1.3,0.6,2.6,1.5,3.5c0.9,0.9,2.3,1.5,3.5,1.5c1.3-0.1,2.6-0.5,3.5-1.5
				c0.9-1,1.5-2.2,1.5-3.5c0-0.7,0-1.4,0-2.1c0-1.3-0.6-2.6-1.5-3.5c-0.9-0.9-2.3-1.5-3.5-1.5c-1.3,0.1-2.6,0.5-3.5,1.5
				C1177.3,409.4,1176.8,410.6,1176.8,412L1176.8,412z"/>
		</g>
	</g>
	<g>
		<g>
			<path class="st1" d="M62.7,471.3c0-0.7,0-1.4,0-2.1c0-1.3-0.6-2.6-1.5-3.5c-0.9-0.9-2.3-1.5-3.5-1.5c-1.3,0.1-2.6,0.5-3.5,1.5
				c-0.9,1-1.5,2.2-1.5,3.5c0,0.7,0,1.4,0,2.1c0,1.3,0.6,2.6,1.5,3.5c0.9,0.9,2.3,1.5,3.5,1.5c1.3-0.1,2.6-0.5,3.5-1.5
				C62.1,473.8,62.7,472.6,62.7,471.3L62.7,471.3z"/>
		</g>
	</g>
	<g>
		<g>
			<path class="st1" d="M140.3,450.9c6.4,0,6.4-10,0-10C133.8,440.9,133.8,450.9,140.3,450.9L140.3,450.9z"/>
		</g>
	</g>
	<g>
		<g>
			<path class="st1" d="M167.8,393.7c0.7,0,1.4,0,2.1,0c1.3,0,2.6-0.6,3.5-1.5c0.9-0.9,1.5-2.3,1.5-3.5c-0.1-1.3-0.5-2.6-1.5-3.5
				c-1-0.9-2.2-1.5-3.5-1.5c-0.7,0-1.4,0-2.1,0c-1.3,0-2.6,0.6-3.5,1.5c-0.9,0.9-1.5,2.3-1.5,3.5c0.1,1.3,0.5,2.6,1.5,3.5
				C165.2,393.1,166.4,393.7,167.8,393.7L167.8,393.7z"/>
		</g>
	</g>
	<g>
		<g>
			<path class="st1" d="M32.3,354.1c-0.7,0-1.4,0-2.1,0c-1.3,0-2.6,0.6-3.5,1.5c-0.9,0.9-1.5,2.3-1.5,3.5c0.1,1.3,0.5,2.6,1.5,3.5
				c1,0.9,2.2,1.5,3.5,1.5c0.7,0,1.4,0,2.1,0c1.3,0,2.6-0.6,3.5-1.5c0.9-0.9,1.5-2.3,1.5-3.5c-0.1-1.3-0.5-2.6-1.5-3.5
				C34.9,354.6,33.7,354.1,32.3,354.1L32.3,354.1z"/>
		</g>
	</g>
	<g>
		<g>
			<path class="st1" d="M1226.2,1154.2c-0.4,0-0.8,0-1.2,0c-6.4,0-6.4,10,0,10c0.4,0,0.8,0,1.2,0
				C1232.6,1164.2,1232.7,1154.2,1226.2,1154.2c-0.4,0-0.8,0-1.2,0c-6.4,0-6.4,10,0,10c0.4,0,0.8,0,1.2,0
				C1232.6,1164.2,1232.7,1154.2,1226.2,1154.2L1226.2,1154.2z"/>
		</g>
	</g>
	<g>
		<g>
			<path class="st1" d="M1217.7,1113.4c6.4,0,6.4-10,0-10C1211.3,1103.4,1211.3,1113.4,1217.7,1113.4L1217.7,1113.4z"/>
		</g>
	</g>
	<g>
		<g>
			<path class="st1" d="M1194.5,1151.5c6.4,0,6.4-10,0-10C1188,1141.5,1188,1151.5,1194.5,1151.5L1194.5,1151.5z"/>
		</g>
	</g>
	<g>
		<g>
			<path class="st1" d="M1100.7,1089c0,0-0.1,0-0.1,0.1c0.4-0.2,0.8-0.3,1.2-0.5c0,0-0.1,0-0.1,0c0.4-0.1,0.9-0.1,1.3-0.2
				c0,0-0.1,0-0.1,0c0.4,0.1,0.9,0.1,1.3,0.2c0,0-0.1,0-0.1,0c0.4,0.2,0.8,0.3,1.2,0.5c0,0-0.1,0-0.1-0.1c0.3,0.3,0.7,0.5,1,0.8
				c0,0-0.1,0-0.1-0.1c0.3,0.3,0.5,0.7,0.8,1c0,0-0.1-0.1-0.1-0.2c0.2,0.4,0.3,0.8,0.5,1.2c0-0.1-0.1-0.2-0.1-0.3
				c0.1,0.4,0.1,0.9,0.2,1.3c0-0.1,0-0.3,0-0.4c-0.1,0.4-0.1,0.9-0.2,1.3c0-0.1,0-0.2,0.1-0.3c-0.2,0.4-0.3,0.8-0.5,1.2
				c0-0.1,0.1-0.1,0.1-0.2c-0.3,0.3-0.5,0.7-0.8,1c0,0,0-0.1,0.1-0.1c-0.3,0.3-0.7,0.5-1,0.8c0,0,0.1,0,0.1-0.1
				c-0.4,0.2-0.8,0.3-1.2,0.5c0,0,0.1,0,0.1,0c-0.4,0.1-0.9,0.1-1.3,0.2c0,0,0.1,0,0.1,0c-0.4-0.1-0.9-0.1-1.3-0.2c0,0,0.1,0,0.1,0
				c-0.4-0.2-0.8-0.3-1.2-0.5c0,0,0.1,0,0.1,0.1c1.1,0.7,2.6,0.9,3.9,0.5c1.2-0.3,2.4-1.2,3-2.3c0.6-1.2,0.9-2.6,0.5-3.9
				c-0.4-1.2-1.1-2.3-2.3-3c-2.1-1.2-4.9-1-6.6,0.8c-1.1,1.1-1.7,2.7-1.7,4.3c0,1.6,0.5,3.1,1.7,4.3c1.8,1.8,4.5,2,6.6,0.8
				c1.1-0.6,2-1.8,2.3-3c0.3-1.2,0.2-2.8-0.5-3.9C1106.1,1088.5,1103.2,1087.7,1100.7,1089L1100.7,1089z"/>
		</g>
	</g>
	<g>
		<g>
			<path class="st1" d="M915,1198.1c6.4,0,6.4-10,0-10C908.6,1188.1,908.6,1198.1,915,1198.1L915,1198.1z"/>
		</g>
	</g>
	<g>
		<g>
			<path class="st1" d="M881.2,215.9c6.4,0,6.4-10,0-10C874.7,205.9,874.7,215.9,881.2,215.9L881.2,215.9z"/>
		</g>
	</g>
	<g>
		<g>
			<path class="st1" d="M820.5,469.2c0-0.7,0-1.4,0-2.1c0-1.3-0.6-2.6-1.5-3.5c-0.9-0.9-2.3-1.5-3.5-1.5c-1.3,0.1-2.6,0.5-3.5,1.5
				c-0.9,1-1.5,2.2-1.5,3.5c0,0.7,0,1.4,0,2.1c0,1.3,0.6,2.6,1.5,3.5c0.9,0.9,2.3,1.5,3.5,1.5c1.3-0.1,2.6-0.5,3.5-1.5
				C820,471.7,820.5,470.5,820.5,469.2L820.5,469.2z"/>
		</g>
	</g>
	<g>
		<g>
			<path class="st1" d="M758.4,675.3c6.4,0,6.4-10,0-10C752,665.3,751.9,675.3,758.4,675.3L758.4,675.3z"/>
		</g>
	</g>
	<g>
		<g>
			<path class="st1" d="M506.5,898.1c-0.7,0-1.4,0-2.1,0c-1.3,0-2.6,0.6-3.5,1.5c-0.9,0.9-1.5,2.3-1.5,3.5c0.1,1.3,0.5,2.6,1.5,3.5
				c1,0.9,2.2,1.5,3.5,1.5c0.7,0,1.4,0,2.1,0c1.3,0,2.6-0.6,3.5-1.5c0.9-0.9,1.5-2.3,1.5-3.5c-0.1-1.3-0.5-2.6-1.5-3.5
				C509,898.7,507.8,898.1,506.5,898.1L506.5,898.1z"/>
		</g>
	</g>
	<g>
		<g>
			<path class="st1" d="M275.7,1045.7c6.4,0,6.4-10,0-10C269.3,1035.7,269.3,1045.7,275.7,1045.7L275.7,1045.7z"/>
		</g>
	</g>
	<g>
		<g>
			<path class="st1" d="M1027.4,680c0,0.7,0,1.5,0,2.2c0,1.3,0.6,2.6,1.5,3.5c0.9,0.9,2.3,1.5,3.5,1.5c1.3-0.1,2.6-0.5,3.5-1.5
				c0.9-1,1.5-2.2,1.5-3.5c0-0.7,0-1.5,0-2.2c0-1.3-0.6-2.6-1.5-3.5c-0.9-0.9-2.3-1.5-3.5-1.5c-1.3,0.1-2.6,0.5-3.5,1.5
				C1028,677.5,1027.4,678.7,1027.4,680L1027.4,680z"/>
		</g>
	</g>
	<g>
		<g>
			<path class="st1" d="M1005.5,655.9c6.4,0,6.4-10,0-10C999,645.9,999,655.9,1005.5,655.9L1005.5,655.9z"/>
		</g>
	</g>
	<g>
		<g>
			<path class="st1" d="M1129.3,388.2c6.4,0,6.4-10,0-10C1122.9,378.2,1122.9,388.2,1129.3,388.2L1129.3,388.2z"/>
		</g>
	</g>
</g>
</svg>
