<?xml version="1.0" encoding="utf-8"?>
<!-- Generator: Adobe Illustrator 22.1.0, SVG Export Plug-In . SVG Version: 6.00 Build 0)  -->
<svg version="1.1" id="Layer_1" xmlns="http://www.w3.org/2000/svg" xmlns:xlink="http://www.w3.org/1999/xlink" x="0px" y="0px"
	 viewBox="0 0 289 282" style="enable-background:new 0 0 289 282;" xml:space="preserve">
<style type="text/css">
	.st0{fill:#7C7C7C;}
	.st1{fill:#FFFFFF;stroke:#FFFFFF;stroke-miterlimit:10;}
</style>
<g id="motions">
	<ellipse id="shadow" class="st0" cx="141" cy="240" rx="68" ry="18"/>
	<g id="big_gear">
		<g>
			<path class="st1" d="M165.1,26.4c1.8,0,2,0.5,2.1,0.7c0.5,1.2,0.4,4.1,0.3,6.4c-0.2,4.3-0.4,8.8,2.3,11.3
				c1.7,1.6,6.2,5.2,11.1,5.2c1.4,0,2.6-0.3,3.8-0.8c2.3-1.1,3.9-2.9,5.1-4.4c0.7-0.8,1.3-1.7,2.1-2.7c1.4-2,3.5-5,5-5
				c0.1,0,0.2,0,0.3,0c1.4,0.3,2.6,1.6,4.2,3.1l5,5.1c0.9,0.9,1.8,1.8,2.2,2.7c0.7,1.7-3.7,4.9-6,6.6c-1.4,1-2.7,2-3.6,2.9
				c-0.5,0.5-1.4,1.4-1.8,2.8c-1.4,4.9,3.2,10.4,6.9,12c1.1,0.5,2.4,0.7,4,0.7c1.9,0,3.9-0.3,5.9-0.7c1.7-0.3,3.5-0.6,4.9-0.6
				c1.2,0,1.9,0.2,2.1,0.6c0.3,0.5,0.4,1.4,0.5,2.3c0.1,0.6,0.2,1.2,0.3,1.9c0.5,3.2,1.4,9.2-0.1,11.3c-0.1,0.1-0.2,0.3-1.3,0.3
				c-0.5,0-1.2-0.1-1.8-0.1c-0.8-0.1-1.6-0.1-2.4-0.1l0,0c-1,0-4.1,0-6.4,2.5c-1.5,1.6-1.9,3.7-2.2,5.2l-0.8,4.1
				c-0.3,1.7-0.8,3.8-0.4,5.9c0.7,5,4.9,6.6,8,7.7c2.4,0.9,3.6,1.4,3.9,2.5c0.8,3-5.3,11.2-9.2,13.3c-0.9-0.6-1.8-1.4-2.7-2.2
				c-2.4-2.1-5.2-4.5-9-4.5c-1.9,0-3.8,0.6-5.6,1.8l-3.1,2l-1.9,1.2c-1.1,0.7-2.7,1.8-3.5,3.7c-1,2.3-0.3,5.4,0.3,8.1
				c0.2,0.8,0.4,1.6,0.4,2c0.1,0.9,0.3,1.7,0.5,2.5c0.6,2.5,0.5,2.8-0.6,3.6c-1.5,1.1-3.9,1.4-5.9,1.6l-4.6,0.5l-2.2,0.3
				c-0.6,0.1-1.3,0.1-2.1,0.1s-1.8-0.1-2.2-0.6c-0.5-0.5-0.5-1.9-0.6-3.1c0-0.2,0-0.4,0-0.7c-0.3-5.7-1.7-11.2-9.2-13.1
				c-0.6-0.1-1.1-0.3-1.6-0.4c-2.1-0.6-4.2-1.2-6.5-1.2c-2.4,0-4.6,0.7-6.5,2c-1.5,1-2.6,2.4-3.5,3.6l-3.9,4.9
				c-0.6,0.7-1.4,1.8-2,1.9c-0.1,0-0.2,0-0.3,0c-0.5,0-1.7-0.4-3.9-2.9l-2.4-2.7l-4.5-5.1c-1-1.1-1.5-2.1-1.5-2.7
				c0.1-0.9,1.8-2.3,3.2-3.5c2.5-2.1,5.7-4.6,6.1-8.8c0.1-1.2-0.3-2.1-0.5-2.6c-1.4-3.3-2.9-6.6-4.4-9.9c-0.3-0.6-0.9-1.8-2.1-2.6
				c-0.8-0.5-1.7-0.7-2.7-0.7c-0.4,0-0.8,0-1.2,0.1c-2.6,0.3-5,1.2-7.3,2.1s-4.5,1.7-6.5,1.8H105c-0.4,0-0.6-0.1-0.7-0.1
				c-0.1-0.1-0.3-0.7-0.4-0.8c-0.1-0.3-0.3-0.7-0.4-1.1c-1.2-3.3-4-11.1-2.9-14c0.7-1.7,5.7-1.7,7.8-1.7h0.3h0.3c0.6,0,1.2,0,1.6,0
				c7.5-0.3,9.3-1,12.2-8.2c1.1-2.8,1.7-5.5,2.2-8.3c1.4-7-4.8-9.8-8.4-11.4c-4.2-1.9-5.3-3.3-5.6-4.3c-0.3-1.1,0.6-2.5,1.3-3.5
				c2.5-3.3,5.1-6.6,7.8-9.8c0.7-0.9,1.4-1.3,2-1.3c2.2,0,5.8,4.6,7.6,7c0.8,1,1.5,1.9,2.1,2.7c1,1.1,2.7,3,5.3,3.3
				c0.2,0,0.5,0,0.7,0c2,0,3.6-1,4.7-1.6c0.4-0.3,0.9-0.5,1.4-0.8c2.9-1.6,6.9-3.8,7.1-8.7c0.1-1.1-0.1-2.1-0.3-3
				c-0.2-1-0.6-2.2-1-3.6c-0.5-1.7-1.8-5.5-1.5-6.7l0,0c1.3-2.1,7.4-2.6,10.3-2.8c0.6,0,1.1-0.1,1.6-0.1c0.5-0.1,1.1-0.1,1.7-0.2
				C163,26.6,164.1,26.4,165.1,26.4 M165.1,23.4c-1.8,0-3.7,0.4-5.2,0.5c-3.9,0.4-11.8,0.6-14.1,4.4c-1.7,2.5,1.6,9.6,2.1,12.4
				c0.1,0.8,0.3,1.6,0.2,2.4c-0.2,4-4.2,5.4-7.1,7.1c-1,0.6-2,1.2-3.1,1.2c-0.1,0-0.2,0-0.3,0c-1.4-0.2-2.4-1.3-3.4-2.3
				c-2.8-3.2-7.3-10.8-12.1-10.8c-1.4,0-2.9,0.7-4.3,2.4c-2.7,3.2-5.4,6.5-7.9,9.9c-4.7,6.2-0.4,9.7,5.4,12.3
				c3.9,1.7,7.6,3.5,6.7,8.1c-0.5,2.7-1.1,5.2-2.1,7.7c-2.4,5.9-2.8,6.1-9.5,6.3c-0.5,0-1,0-1.5,0c-0.2,0-0.4,0-0.6,0
				c-3.8,0-9.2,0.1-10.6,3.7c-1.6,4.3,1.8,13.1,3.3,17.2c0.2,0.6,0.5,1.3,0.9,1.8c0.7,0.8,1.9,1.2,3,1.2c0.1,0,0.1,0,0.2,0
				c4.8-0.2,9.2-3.3,14-3.9c0.3,0,0.5-0.1,0.8-0.1c0.4,0,0.8,0.1,1.1,0.3c0.5,0.3,0.7,0.8,1,1.3c1.5,3.2,3,6.5,4.4,9.8
				c0.2,0.4,0.3,0.7,0.3,1.1c-0.6,7.2-14.7,8.7-7.1,17.2c2.3,2.6,4.6,5.2,6.9,7.9c1.7,1.9,3.8,3.9,6.2,3.9c0.4,0,0.8-0.1,1.2-0.2
				c1.5-0.5,2.5-1.7,3.5-3c1.3-1.6,2.6-3.3,3.9-4.9c0.8-1.1,1.7-2.2,2.8-3c1.6-1.1,3.2-1.5,4.8-1.5c2.4,0,4.9,0.9,7.4,1.5
				c5.5,1.4,6.6,5,6.9,10.4c0.1,1.9,0.1,4.1,1.3,5.5c1.1,1.3,2.8,1.6,4.5,1.6c0.8,0,1.6-0.1,2.4-0.2c2.2-0.3,4.5-0.5,6.7-0.8
				c2.6-0.3,5.2-0.7,7.3-2.2c3.7-2.6,1.8-5.5,1.4-8.9c-0.3-2.2-1.8-6.6-1-8.6c0.4-1.1,1.5-1.8,2.4-2.4c1.6-1.1,3.3-2.2,4.9-3.2
				c1.5-1,2.8-1.3,4-1.3c3.9,0,6.7,4,10.2,6.3c0.4,0.3,0.9,0.5,1.4,0.6c0,0,0,0,0.1,0c0.4,0,0.8-0.2,1.2-0.4
				c4.3-2.1,12.4-11.7,10.9-16.9c-1.5-5.5-10.9-3.6-11.8-9.8c-0.2-1.6,0.1-3.3,0.4-4.9c0.3-1.4,0.6-2.7,0.8-4.1
				c0.3-1.3,0.6-2.7,1.5-3.8c1.1-1.2,2.6-1.5,4.2-1.5c1.4,0,2.9,0.2,4.2,0.2c1.5,0,2.8-0.3,3.7-1.5c2.7-3.6,1-11.4,0.4-15.4
				c-0.2-1.2-0.3-2.4-0.9-3.4c-0.9-1.6-2.6-2-4.7-2c-3.3,0-7.5,1.3-10.8,1.3c-1.1,0-2-0.1-2.8-0.5c-2.7-1.1-6-5.3-5.2-8.4
				c0.2-0.6,0.6-1.1,1-1.5c3.1-3.1,12.4-7.6,10.3-12.8c-0.6-1.4-1.7-2.6-2.8-3.7c-1.7-1.7-3.3-3.4-5-5.1c-1.6-1.7-3.3-3.4-5.6-3.9
				c-0.4-0.1-0.7-0.1-1-0.1c-4.1,0-7,6.1-9.4,8.8c-1.2,1.4-2.5,2.8-4.2,3.6c-0.8,0.4-1.7,0.5-2.5,0.5c-3.3,0-6.9-2.4-9.1-4.4
				c-3-2.7-0.1-12.6-2-16.8C169,23.9,167.1,23.4,165.1,23.4L165.1,23.4z"/>
		</g>
		<g>
			<path class="st1" d="M165.6,70.8L165.6,70.8c0.3,0,0.5,0,0.8,0c4.7,0.2,9.1,2.2,12.3,5.7s4.8,8,4.6,12.7
				c-0.4,9.5-8.2,16.9-17.7,16.9c-0.3,0-0.5,0-0.8,0c-4.7-0.2-9.1-2.2-12.3-5.7s-4.8-8-4.6-12.7C148.4,78.2,156.1,70.8,165.6,70.8
				 M165.6,67.8c-11,0-20.2,8.7-20.7,19.8c-0.5,11.4,8.4,21.1,19.8,21.6c0.3,0,0.6,0,0.9,0c11,0,20.2-8.7,20.7-19.8
				c0.5-11.4-8.4-21.1-19.8-21.6C166.3,67.8,166,67.8,165.6,67.8L165.6,67.8z"/>
		</g>
	</g>
	<g id="middle_gear">
		<g id="outer">
			<path class="st1" d="M75.1,112.8c1.5,0,2.3,0.3,3.1,3.1c1.5,5.4,3,6.6,9.5,7.6c1.9,0.3,3.4,0.5,4.7,0.5c4.5,0,6.1-2,7.4-3.6
				c0.1-0.2,0.3-0.3,0.4-0.5c0.2-0.2,0.3-0.4,0.5-0.6c1.1-1.3,2-2.4,3-2.4c0.6,0,1.9,0.3,4.2,2.5c2.9,2.7,3.3,4.3,3.3,5.1
				c0,0.8-0.7,1.6-1.6,2.4c-4.1,3.6-3.1,8.6-1.6,13c2.2,6.3,5.2,7.4,7.9,7.9h0.2c0.8,0.2,1.6,0.2,2.4,0.3c0.9,0.1,2.1,0.1,2.4,0.5
				c0.1,0.1,0.7,1,0.2,4.4c-0.8,6.1-2.3,6.1-3.3,6.1c-0.7,0-1.6-0.1-2.6-0.3c-1.2-0.2-2.1-0.4-3-0.4c-3.9,0-5.6,2.3-8,5.6l-0.2,0.3
				l-0.2,0.3c-2.9,3.6-4.4,5.7-2.6,11.3c0.2,0.5,0.3,1,0.5,1.5c0.4,1.2,0.9,2.4,0.6,3c-0.1,0.3-0.8,1.4-4.8,2.9
				c-2,0.8-3.3,0.9-4,0.9c-1.4,0-1.7-0.4-2.5-2.7c-0.1-0.4-0.2-0.8-0.4-1.1c-1.4-3.7-3.1-5.5-10-6.7c-2-0.4-3.6-0.5-4.9-0.5
				c-3.9,0-5.8,1.6-7.5,4.1c-0.1,0.1-0.2,0.3-0.3,0.5c-0.8,1.3-1.6,2.1-2.7,2.1s-2.7-0.8-4.5-2.2c-3.1-2.5-3.5-4-3.5-4.5
				c0-0.9,0.7-1.8,1.7-2.7l0.2-0.2l0,0l0,0c3.2-3.4,3.5-7.3,1-12.9c-2.6-6-5.5-7-8.4-7.5c-0.2,0-0.4-0.1-0.5-0.1
				c-0.4-0.1-0.7-0.1-1.1-0.2c-1.4-0.2-2.5-0.4-3-1.1c-0.6-0.8-0.7-2.4-0.4-4.5c0.9-5.6,2.4-5.6,3.6-5.6c0.6,0,1.2,0.1,1.9,0.1
				l0.6,0.1c0.7,0.1,1.5,0.1,2.3,0.1c4,0,6.2-1.8,9-5.5c3.4-4.2,6.1-7.5,3-12.9l0,0c-0.6-1.3-1.2-2.6-0.9-3.4
				c0.1-0.4,0.8-1.4,3.6-2.6C72.1,113.2,73.8,112.8,75.1,112.8 M75.1,109.8c-1.6,0-3.6,0.4-6.2,1.4c-7.7,3.3-5.7,7.2-4.2,10.2
				c2,3.5,1,5.2-2.6,9.6c-2.7,3.5-4.1,4.3-6.6,4.3c-0.6,0-1.3,0-2-0.1c-0.9-0.1-1.9-0.2-2.8-0.2c-2.9,0-5.5,1.2-6.6,8.1
				c-1.4,9.2,4.7,8.8,6.9,9.3c2.3,0.5,4.5,0.4,6.9,5.9s1.2,7.8-0.5,9.6c-1.8,1.8-6.1,5.5,1.8,11.9c2.6,2.2,4.7,2.9,6.4,2.9
				c3.3,0,4.9-3.1,5.4-3.9c1.3-1.9,2.4-2.8,5-2.8c1.1,0,2.5,0.2,4.4,0.5c6.1,1.1,6.7,2.3,7.7,4.8c0.7,2,1.2,5.7,5.6,5.7
				c1.3,0,3-0.3,5.1-1.1c9.3-3.5,6.7-6.9,5.4-11.1c-1.4-4.5-0.5-5.4,2.3-8.8c2.5-3.3,3.4-4.8,5.9-4.8c0.7,0,1.5,0.1,2.4,0.3
				c1.1,0.2,2.2,0.3,3.1,0.3c3,0,5.3-1.5,6.2-8.7c1.3-9.6-4-7.8-7.3-8.6c-1.8-0.4-4-0.5-5.9-6s-1.3-7.9,0.7-9.8
				c2-1.8,5.4-5.3-1.6-11.9c-2.6-2.4-4.6-3.3-6.3-3.3c-2.9,0-4.6,2.6-5.8,4c-1.5,1.7-2.1,3.1-5.6,3.1c-1.1,0-2.4-0.1-4.2-0.4
				c-5.7-0.8-6-1.4-7.1-5.4C80.3,112.3,79,109.8,75.1,109.8L75.1,109.8z"/>
		</g>
		<g id="circle">
			<path class="st1" d="M84.3,141.2c4.1,0,7.5,3.4,7.5,7.5s-3.4,7.5-7.5,7.5s-7.5-3.4-7.5-7.5S80.2,141.2,84.3,141.2 M84.3,138.2
				c-5.8,0-10.5,4.7-10.5,10.5s4.7,10.5,10.5,10.5s10.5-4.7,10.5-10.5S90.1,138.2,84.3,138.2L84.3,138.2z"/>
		</g>
	</g>
	<g id="small_gear">
		<g id="outer_1_">
			<path class="st1" d="M140,154.8c0.9,0,1.1,0,1.4,1.6c0.9,4.2,2.2,5.4,7,6.4c1.7,0.4,3,0.6,4.1,0.6c3,0,4.4-1.4,5.3-2.5
				c0.1-0.1,0.2-0.2,0.3-0.3s0.2-0.3,0.4-0.4c0.4-0.4,1.1-1.2,1.4-1.2c0,0,0.7,0,2.2,1.6c1.8,2,1.8,2.9,1.8,3c0,0.3-0.7,0.8-0.9,1
				c-3.5,2.7-2.9,6.7-2,9.9c1.3,4.7,3.5,5.9,5.8,6.5h0.1c0.6,0.2,1.2,0.3,1.8,0.3c0.3,0,0.7,0.1,1,0.2c0,0.3,0.1,1-0.2,2.3
				c-0.6,2.8-1.2,3.3-1.2,3.3l0,0c0,0-0.1,0-0.2,0c-0.5,0-1.1-0.2-1.8-0.3c-1-0.3-1.9-0.4-2.6-0.4c-2.9,0-4.4,1.8-6.1,3.9l-0.2,0.2
				l-0.1,0.2c-2.3,2.4-3.6,4.2-2.5,8.5c0.1,0.4,0.2,0.7,0.3,1.1c0.1,0.5,0.3,1.2,0.3,1.5c-0.2,0.2-0.8,0.7-2.8,1.3
				c-1.2,0.4-1.9,0.4-2.3,0.4c-0.4,0-0.5-0.1-0.5-0.1l0,0c-0.2-0.2-0.3-0.9-0.4-1.2c-0.1-0.3-0.1-0.6-0.2-0.8
				c-1-3.3-2.7-4.6-7.3-5.7c-1.8-0.4-3.1-0.6-4.2-0.6c-2.9,0-4.4,1.5-5.5,2.8c-0.1,0.1-0.2,0.2-0.3,0.3c-0.3,0.3-0.7,1-1.1,1
				c-0.1,0-0.9-0.1-2.5-1.5c-1.5-1.4-1.9-2.3-1.9-2.6s0.7-0.9,1-1.1l0.2-0.1l0,0l0,0c2.6-2.5,3.1-5.5,1.5-9.9
				c-1.7-4.7-4-5.6-6.1-6.2c-0.1,0-0.2-0.1-0.3-0.1c-0.2-0.1-0.5-0.1-0.8-0.2c-0.5-0.1-1.3-0.3-1.5-0.5c-0.1-0.2-0.3-1,0.1-2.5
				c0.7-3,1.3-3,1.6-3c0.4,0,0.9,0.1,1.5,0.2l0.4,0.1c0.9,0.1,1.6,0.2,2.3,0.2c2.8,0,4.5-1.4,6.6-3.7c2.5-2.8,4.9-5.4,2.8-9.8
				c-0.2-0.5-0.6-1.4-0.5-1.7c0,0,0.3-0.5,2.1-1.2C138.2,155,139.2,154.8,140,154.8 M140,151.8c-1,0-2.3,0.2-3.9,0.7
				c-5.5,1.9-4.2,4.8-3.4,6.9c1.3,2.5,0.4,3.6-2.3,6.6c-1.9,2.1-2.9,2.7-4.4,2.7c-0.5,0-1.1-0.1-1.8-0.2c-0.8-0.1-1.6-0.3-2.3-0.3
				c-1.9,0-3.5,0.9-4.5,5.4c-1.4,6.3,2.9,6.3,4.3,6.7c1.6,0.4,3.1,0.4,4.5,4.4c1.4,3.9,0.5,5.5-0.8,6.7s-4.5,3.6,0.7,8.3
				c1.9,1.7,3.3,2.3,4.5,2.3c2.2,0,3.3-1.9,3.7-2.5c0.9-1.1,1.6-1.7,3.2-1.7c0.9,0,1.9,0.2,3.4,0.5c4.2,1,4.6,1.9,5.1,3.7
				c0.4,1.4,0.6,4.2,4,4.2c0.8,0,1.9-0.2,3.2-0.6c6.6-2,5-4.5,4.2-7.4c-0.8-3.2-0.1-3.8,2-6c1.8-2.1,2.5-3.1,4.1-3.1
				c0.5,0,1.1,0.1,1.9,0.3c0.9,0.2,1.7,0.4,2.5,0.4c1.9,0,3.4-1.1,4.4-5.7c1.3-6.6-2.4-5.6-4.7-6.2c-1.2-0.3-2.7-0.5-3.8-4.4
				s-0.6-5.6,0.9-6.7s4-3.4-0.6-8.3c-1.8-1.9-3.2-2.6-4.4-2.6c-1.9,0-3.1,1.6-4,2.5c-1,1.1-1.5,1.9-3.5,1.9c-0.8,0-1.9-0.1-3.4-0.5
				c-3.9-0.8-4.1-1.3-4.7-4.1C143.9,153.7,143.1,151.8,140,151.8L140,151.8z"/>
		</g>
		<g id="circle_1_">
			<path class="st1" d="M145.1,174.9L145.1,174.9c0.1,0,0.2,0,0.3,0c1.1,0.1,2.2,0.6,2.9,1.4c0.8,0.9,1.1,2,1.1,3.1
				c-0.1,2.2-2,4-4.3,4c-0.1,0-0.2,0-0.3,0c-2.4-0.1-4.1-2.2-4-4.5C141,176.6,142.9,174.9,145.1,174.9 M145.1,171.9
				c-3.8,0-7,3-7.3,6.8c-0.3,4,2.8,7.5,6.8,7.7c0.2,0,0.3,0,0.5,0c3.8,0,7-3,7.3-6.8c0.3-4-2.8-7.5-6.8-7.7
				C145.4,171.9,145.3,171.9,145.1,171.9L145.1,171.9z"/>
		</g>
	</g>
</g>
</svg>
