<?xml version="1.0" encoding="utf-8"?>
<!-- Generator: Adobe Illustrator 22.1.0, SVG Export Plug-In . SVG Version: 6.00 Build 0)  -->
<svg version="1.1" id="Layer_1" xmlns="http://www.w3.org/2000/svg" xmlns:xlink="http://www.w3.org/1999/xlink" x="0px" y="0px"
	 viewBox="0 0 289 282" style="enable-background:new 0 0 289 282;" xml:space="preserve">
<style type="text/css">
	.st0{opacity:0.3;fill:#7C7C7C;}
	.st1{fill:#FFFFFF;stroke:#FFFFFF;stroke-width:3;stroke-miterlimit:10;}
	.st2{fill:#FFFFFF;stroke:#FFFFFF;stroke-miterlimit:10;}
</style>
<g id="science">
	<ellipse id="shadow_1_" class="st0" cx="145" cy="248.5" rx="59" ry="14.5"/>
	<g id="inner_components">
		<g>
			<g>
				<path class="st1" d="M195.3,197.7c4.4-4.7,6-11.1,0.6-15.6c-5.9-5-15.3-7.9-22.7-9.7c-17.8-4.3-38.2-3.2-56.1,0.5
					c-9.8,2-33.9,10-28.8,24.4c2.3,6.3,12.1,9.7,17.9,11.5c8.9,2.7,18.5,3.1,27.8,3.2c10.9,0.1,22-0.5,32.7-2.5
					C176.4,207.6,187.7,204.5,195.3,197.7c1.4-1.3-0.7-3.4-2.1-2.1c-11.4,10.1-30.1,12-44.5,12.9c-14.6,0.9-30.8,1.5-44.7-3.7
					c-6.5-2.4-17.6-8-11.3-16.3c4.3-5.7,11.8-9.1,18.4-11.1c13.5-4.1,29-5,43.1-4.5c8.4,0.3,16.8,1.5,24.8,4.2
					c3.9,1.3,7.8,3,11.4,4.9c2.2,1.1,5.1,2.8,5.9,5.4c0.9,3-1.2,6.1-3.1,8.2C191.8,197,193.9,199.2,195.3,197.7z"/>
			</g>
		</g>
		<g>
			<g>
				<path class="st1" d="M157.1,146.5c7-3.4,9.5-11.1,1.2-14.7c-9.4-4.1-21.7-2.9-30.8,1.5c-6.7,3.3-11.3,9.8-2.8,14
					c9.2,4.6,22.8,2.9,32.1-0.7c1.8-0.7,1-3.6-0.8-2.9c-6.1,2.4-13.2,3.5-19.8,3.1c-3.2-0.2-7.1-0.6-10-2c-4.8-2.4-2-6.2,1.5-8.2
					c5.6-3.1,12.5-4.4,18.8-4.1c3.2,0.1,6.4,0.6,9.4,1.7c2.6,0.9,6,2.3,4.3,6.2c-0.7,1.6-3.2,2.8-4.7,3.5
					C153.8,144.7,155.4,147.3,157.1,146.5z"/>
			</g>
		</g>
		<g>
			<g>
				<path class="st1" d="M90.8,191c4.7-8.6,10.8-16.8,16.4-24.9c2.9-4.1,5.9-8.1,8.5-12.4c2.9-4.9,5.4-9.9,8.9-14.4
					c1.2-1.5-0.9-3.6-2.1-2.1c-6.3,8.1-10.9,17.6-16.9,26c-6,8.5-12.4,17.2-17.4,26.4C87.3,191.2,89.8,192.7,90.8,191L90.8,191z"/>
			</g>
		</g>
		<g>
			<g>
				<path class="st1" d="M160,136.4c9.3,17.6,21.4,32.8,34,48.1c1.2,1.5,3.3-0.6,2.1-2.1c-12.5-15.1-24.4-30.1-33.6-47.4
					C161.7,133.2,159.1,134.7,160,136.4L160,136.4z"/>
			</g>
		</g>
	</g>
	<g id="outer_frame">
		<g>
			<g>
				<path class="st1" d="M148.1,62c4.8,0.2,10.2,0.3,14.9,1.7c4.4,1.4,2.4,6.1,0.8,9.1c-2.8,5.3-7.4,9.4-8.3,15.6
					c-0.5,3.6,0.2,7.5,0.4,11.1c0.3,4.6,0.6,9.3,1.1,13.9c0.8,8,4.3,13.9,8.8,20.4c10.2,14.5,22.3,27.5,32.5,41.9
					c2.3,3.3,4.6,6.7,6.3,10.3c2.8,5.9,0.3,11.2-4.4,15.3c-6.4,5.6-15,8.5-23.2,10.4c-17.5,4-36.4,5.5-54.3,4.1
					c-11.9-1-25.9-2.8-35.8-10.2c-14.1-10.6-0.1-24.6,6.6-35.1c4.8-7.4,9.3-15.1,14.2-22.4c4.4-6.5,9.6-12.6,12.8-19.8
					c3.3-7.5,4.2-16.1,4.6-24.2c0.3-7.5-0.4-16.4-5.4-22.4c-1.9-2.3-4.2-3.5-6.6-5.2c-2.5-1.7-5.5-5-2.9-8c1.1-1.4,3.7-2,5.3-2.5
					C126.1,62.7,137.2,61.7,148.1,62c1.9,0.1,1.9-2.9,0-3c-10.2-0.3-20.4,0.6-30.4,3.2c-4.5,1.1-11.6,2.9-11.5,8.8
					c0.1,7.2,9.5,9.2,12.7,14.5c5.2,8.6,3.6,20.7,2.1,30.2c-1.5,10.1-6.4,17.5-12.2,25.6c-6,8.5-11.3,17.4-16.8,26.1
					c-6.3,10-20.5,23.6-11.4,36c6.5,8.9,19.6,12.1,29.8,13.8c19.4,3.2,39,1.9,58.4-1c8.9-1.4,17.9-3.5,26-7.7
					c6.1-3.2,13.2-8.4,14.2-15.8c1.1-7.7-5.8-15.6-10.1-21.4c-5.9-7.9-12.3-15.4-18.4-23.1c-4-5-7.9-10-11.5-15.3
					c-3.5-4.9-7.3-9.9-8.5-15.9c-1.1-5.7-1.1-11.8-1.5-17.6c-0.5-6.5-1.2-12.1,2.5-17.9c2.9-4.6,8.3-10.1,7.2-16.1
					c-0.4-2.1-1.8-3.6-3.8-4.4c-4.9-1.9-11.6-1.9-16.8-2.1C146.1,58.9,146.2,61.9,148.1,62z"/>
			</g>
		</g>
	</g>
	<g id="bubbles">
		<g>
			<g>
				<path class="st2" d="M149.7,121.3c2.7-1.2,4.4-4.5,4.2-7.4c-0.3-4.3-4.8-5.3-8.4-4.3c-3.7,1-6.1,4.1-4.3,7.9
					c1.4,2.9,4.9,5,8.2,4c1.8-0.6,1-3.5-0.8-2.9s-3.8-0.6-4.6-2.2c-1.2-2.4,0.9-3.6,3-4c2-0.4,4.2,0.2,3.9,2.6
					c-0.2,1.6-1.2,3.1-2.7,3.8C146.4,119.5,147.9,122.1,149.7,121.3z"/>
			</g>
		</g>
		<g>
			<g>
				<path class="st2" d="M144.4,94.1c2.5-1.8,3.7-4.9,2.7-7.8c-1.1-3-4.4-4.3-7.3-3.2c-3.1,1.2-5.4,5-4.6,8.3
					C136.1,95.8,141.1,96.1,144.4,94.1c1.6-1,0.1-3.6-1.5-2.6c-1.9,1.2-5.2,1.4-4.9-1.7c0.1-1.7,1.5-3.7,3.3-4.1
					c3.6-0.7,4,4.1,1.6,5.8C141.4,92.6,142.9,95.2,144.4,94.1z"/>
			</g>
		</g>
		<g>
			<g>
				<path class="st2" d="M147.9,67.9c-1.8,2-2.5,5-0.2,7.1c2.1,1.9,5.2,1.9,7.6,0.6c3.9-2.1,2.9-7.3-0.8-9
					C152.2,65.5,149.7,66.1,147.9,67.9c-1.4,1.4,0.8,3.5,2.1,2.1c0.9-0.9,2-1.3,3.1-0.7c0.9,0.4,1.7,1.5,1.6,2.4
					c-0.3,2.9-8.1,1.9-4.8-1.7C151.4,68.6,149.2,66.5,147.9,67.9z"/>
			</g>
		</g>
		<g>
			<g>
				<path class="st2" d="M140,50.1c1.8-3.1,1.3-7.3-1.5-9.6c-3.1-2.4-7.5-1.1-9.8,1.7c-2.5,3-2.2,7.6,1.2,9.9
					C133.2,54.4,137.7,53.2,140,50.1c1.1-1.6-1.5-3.1-2.6-1.5c-1.3,1.8-4.3,2.3-6.1,0.9c-2-1.6-1.5-4.2,0.1-5.8
					c1.4-1.4,3.9-2.2,5.5-0.5c1.4,1.5,1.5,3.8,0.5,5.4C136.4,50.2,139,51.8,140,50.1z"/>
			</g>
		</g>
		<g>
			<g>
				<path class="st2" d="M153.3,163.9c1.5-1.9,2.1-4.4,0-6.1c-1.6-1.3-4.1-1.6-6.1-1c-2.3,0.7-3.7,2.6-3.3,5
					C144.7,166.2,150.6,166.9,153.3,163.9c1.3-1.4-0.8-3.6-2.1-2.1c-1.3,1.4-4.7,1.3-4.3-1c0.1-0.3,0.3-0.6,0.5-0.7
					c0.4-0.3,0.9-0.4,1.4-0.5c0.8-0.1,1.9,0,2.6,0.5c0.2,0.1,0.3,0.4,0.3,0.4c0,0.4-0.2,0.9-0.5,1.3
					C150,163.3,152.1,165.4,153.3,163.9z"/>
			</g>
		</g>
		<g>
			<g>
				<path class="st2" d="M141.1,188.3c1.7-2.7,1.9-8.2-2.1-9.1c-2.3-0.5-5.2,1-6.5,2.8c-1.6,2.2-1,5.3,1,6.9
					C136.1,191,139.2,191.1,141.1,188.3c1.1-1.6-1.5-3.1-2.6-1.5c-1.1,1.5-3.2,0.3-3.7-1.2c-0.7-1.8,1.4-3.2,3-3.5
					c0.5-0.1,0.8,0,0.9,0.1c0.3,0.3,0.5,0.6,0.6,1.2c0.2,1-0.1,2.4-0.7,3.3C137.5,188.4,140.1,190,141.1,188.3z"/>
			</g>
		</g>
		<g>
			<g>
				<path class="st2" d="M152.2,183.8c2-0.2,3.6-1.6,3.5-3.8c-0.1-1.9-1.4-3.7-3.2-4.1c-2.2-0.6-5,0.9-5.1,3.3
					C147.4,181.7,149.8,183.8,152.2,183.8c1.9,0,1.9-3,0-3c-0.7,0-2-0.7-1.8-1.6c0.1-0.5,1.2-0.5,1.4-0.4c0.3,0.1,0.5,0.3,0.6,0.5
					c0.2,0.2,0.1,0.2,0.2,0.4c0,0.1,0.1,0.6,0.1,0.4c0.1,0.5,0,0.7-0.5,0.8c-0.8,0.1-1.5,0.6-1.5,1.5
					C150.7,183,151.4,183.8,152.2,183.8z"/>
			</g>
		</g>
		<g>
			<g>
				<path class="st2" d="M165.2,34.2c2.8-4.7,2.1-11.4-2.4-14.9c-4.8-3.7-11.5-1.4-15,2.9c-3.8,4.6-3.3,11.4,1.8,15
					C154.6,40.7,161.7,39,165.2,34.2c1.1-1.6-1.5-3.1-2.6-1.5c-2.6,3.6-8.3,4.6-11.8,1.7c-3.7-3-3-8.1,0.2-11.2
					c2.8-2.8,7.6-4,10.7-0.9c2.7,2.8,2.9,7.2,1,10.4C161.6,34.3,164.2,35.9,165.2,34.2z"/>
			</g>
		</g>
	</g>
</g>
</svg>
