<?xml version="1.0" encoding="utf-8"?>
<!-- Generator: Adobe Illustrator 22.1.0, SVG Export Plug-In . SVG Version: 6.00 Build 0)  -->
<svg version="1.1" id="Layer_1" xmlns="http://www.w3.org/2000/svg" xmlns:xlink="http://www.w3.org/1999/xlink" x="0px" y="0px"
	 viewBox="0 0 289 282" style="enable-background:new 0 0 289 282;" xml:space="preserve">
<style type="text/css">
	.st0{opacity:0.3;fill:#7C7C7C;}
	.st1{fill:#FFFFFF;stroke:#FFFFFF;stroke-width:1.1763;stroke-miterlimit:10;}
</style>
<g id="motions">
	<ellipse id="shadow" class="st0" cx="142.1" cy="257.5" rx="80" ry="21.2"/>
	<g id="big_gear">
		<g>
			<path class="st1" d="M170.5,6.2c2.1,0,2.4,0.6,2.5,0.8c0.6,1.4,0.5,4.8,0.4,7.5c-0.2,5.1-0.5,10.4,2.7,13.3
				c2,1.9,7.3,6.1,13.1,6.1c1.6,0,3.1-0.4,4.5-0.9c2.7-1.3,4.6-3.4,6-5.2c0.8-0.9,1.5-2,2.5-3.2c1.6-2.4,4.1-5.9,5.9-5.9
				c0.1,0,0.2,0,0.4,0c1.6,0.4,3.1,1.9,4.9,3.6l5.9,6c1.1,1.1,2.1,2.1,2.6,3.2c0.8,2-4.4,5.8-7.1,7.8c-1.6,1.2-3.2,2.4-4.2,3.4
				c-0.6,0.6-1.6,1.6-2.1,3.3c-1.6,5.8,3.8,12.2,8.1,14.1c1.3,0.6,2.8,0.8,4.7,0.8c2.2,0,4.6-0.4,6.9-0.8c2-0.4,4.1-0.7,5.8-0.7
				c1.4,0,2.2,0.2,2.5,0.7c0.4,0.6,0.5,1.6,0.6,2.7c0.1,0.7,0.2,1.4,0.4,2.2c0.6,3.8,1.6,10.8-0.1,13.3c-0.1,0.1-0.2,0.4-1.5,0.4
				c-0.6,0-1.4-0.1-2.1-0.1c-0.9-0.1-1.9-0.1-2.8-0.1l0,0c-1.2,0-4.8,0-7.5,2.9c-1.8,1.9-2.2,4.4-2.6,6.1l-0.9,4.8
				c-0.4,2-0.9,4.5-0.5,6.9c0.8,5.9,5.8,7.8,9.4,9.1c2.8,1.1,4.2,1.6,4.6,2.9c0.9,3.5-6.2,13.2-10.8,15.6c-1.1-0.7-2.1-1.6-3.2-2.6
				c-2.8-2.5-6.1-5.3-10.6-5.3c-2.2,0-4.5,0.7-6.6,2.1l-3.6,2.4l-2.2,1.4c-1.3,0.8-3.2,2.1-4.1,4.4c-1.2,2.7-0.4,6.4,0.4,9.5
				c0.2,0.9,0.5,1.9,0.5,2.4c0.1,1.1,0.4,2,0.6,2.9c0.7,2.9,0.6,3.3-0.7,4.2c-1.8,1.3-4.6,1.6-6.9,1.9l-5.4,0.6l-2.6,0.4
				c-0.7,0.1-1.5,0.1-2.5,0.1s-2.1-0.1-2.6-0.7c-0.6-0.6-0.6-2.2-0.7-3.6c0-0.2,0-0.5,0-0.8c-0.4-6.7-2-13.2-10.8-15.4
				c-0.7-0.1-1.3-0.4-1.9-0.5c-2.5-0.7-4.9-1.4-7.6-1.4c-2.8,0-5.4,0.8-7.6,2.4c-1.8,1.2-3.1,2.8-4.1,4.2l-4.6,5.8
				c-0.7,0.8-1.6,2.1-2.4,2.2c-0.1,0-0.2,0-0.4,0c-0.6,0-2-0.5-4.6-3.4l-2.8-3.2l-5.3-6c-1.2-1.3-1.8-2.5-1.8-3.2
				c0.1-1.1,2.1-2.7,3.8-4.1c2.9-2.5,6.7-5.4,7.2-10.4c0.1-1.4-0.4-2.5-0.6-3.1c-1.6-3.9-3.4-7.8-5.2-11.6c-0.4-0.7-1.1-2.1-2.5-3.1
				c-0.9-0.6-2-0.8-3.2-0.8c-0.5,0-0.9,0-1.4,0.1c-3.1,0.4-5.9,1.4-8.6,2.5c-2.7,1.1-5.3,2-7.6,2.1h-0.1c-0.5,0-0.7-0.1-0.8-0.1
				c-0.1-0.1-0.4-0.8-0.5-0.9c-0.1-0.4-0.4-0.8-0.5-1.3c-1.4-3.9-4.7-13.1-3.4-16.5c0.8-2,6.7-2,9.2-2h0.4h0.4c0.7,0,1.4,0,1.9,0
				c8.8-0.4,10.9-1.2,14.4-9.6c1.3-3.3,2-6.5,2.6-9.8c1.6-8.2-5.6-11.5-9.9-13.4c-4.9-2.2-6.2-3.9-6.6-5.1c-0.4-1.3,0.7-2.9,1.5-4.1
				c2.9-3.9,6-7.8,9.2-11.5c0.8-1.1,1.6-1.5,2.4-1.5c2.6,0,6.8,5.4,8.9,8.2c0.9,1.2,1.8,2.2,2.5,3.2c1.2,1.3,3.2,3.5,6.2,3.9
				c0.2,0,0.6,0,0.8,0c2.4,0,4.2-1.2,5.5-1.9c0.5-0.4,1.1-0.6,1.6-0.9c3.4-1.9,8.1-4.5,8.4-10.2c0.1-1.3-0.1-2.5-0.4-3.5
				c-0.2-1.2-0.7-2.6-1.2-4.2c-0.6-2-2.1-6.5-1.8-7.9l0,0c1.5-2.5,8.7-3.1,12.1-3.3c0.7,0,1.3-0.1,1.9-0.1c0.6-0.1,1.3-0.1,2-0.2
				C168,6.5,169.3,6.2,170.5,6.2 M170.5,2.7c-2.1,0-4.4,0.5-6.1,0.6c-4.6,0.5-13.9,0.7-16.6,5.2c-2,2.9,1.9,11.3,2.5,14.6
				c0.1,0.9,0.4,1.9,0.2,2.8c-0.2,4.7-4.9,6.4-8.4,8.4c-1.2,0.7-2.4,1.4-3.6,1.4c-0.1,0-0.2,0-0.4,0c-1.6-0.2-2.8-1.5-4-2.7
				c-3.3-3.8-8.6-12.7-14.2-12.7c-1.6,0-3.4,0.8-5.1,2.8c-3.2,3.8-6.4,7.6-9.3,11.6c-5.5,7.3-0.5,11.4,6.4,14.5
				c4.6,2,8.9,4.1,7.9,9.5c-0.6,3.2-1.3,6.1-2.5,9.1c-2.8,6.9-3.3,7.2-11.2,7.4c-0.6,0-1.2,0-1.8,0c-0.2,0-0.5,0-0.7,0
				c-4.5,0-10.8,0.1-12.5,4.4c-1.9,5.1,2.1,15.4,3.9,20.2c0.2,0.7,0.6,1.5,1.1,2.1c0.8,0.9,2.2,1.4,3.5,1.4c0.1,0,0.1,0,0.2,0
				c5.6-0.2,10.8-3.9,16.5-4.6c0.4,0,0.6-0.1,0.9-0.1c0.5,0,0.9,0.1,1.3,0.4c0.6,0.4,0.8,0.9,1.2,1.5c1.8,3.8,3.5,7.6,5.2,11.5
				c0.2,0.5,0.4,0.8,0.4,1.3c-0.7,8.5-17.3,10.2-8.4,20.2c2.7,3.1,5.4,6.1,8.1,9.3c2,2.2,4.5,4.6,7.3,4.6c0.5,0,0.9-0.1,1.4-0.2
				c1.8-0.6,2.9-2,4.1-3.5c1.5-1.9,3.1-3.9,4.6-5.8c0.9-1.3,2-2.6,3.3-3.5c1.9-1.3,3.8-1.8,5.6-1.8c2.8,0,5.8,1.1,8.7,1.8
				c6.5,1.6,7.8,5.9,8.1,12.2c0.1,2.2,0.1,4.8,1.5,6.5c1.3,1.5,3.3,1.9,5.3,1.9c0.9,0,1.9-0.1,2.8-0.2c2.6-0.4,5.3-0.6,7.9-0.9
				c3.1-0.4,6.1-0.8,8.6-2.6c4.4-3.1,2.1-6.5,1.6-10.5c-0.4-2.6-2.1-7.8-1.2-10.1c0.5-1.3,1.8-2.1,2.8-2.8c1.9-1.3,3.9-2.6,5.8-3.8
				c1.8-1.2,3.3-1.5,4.7-1.5c4.6,0,7.9,4.7,12,7.4c0.5,0.4,1.1,0.6,1.6,0.7c0,0,0,0,0.1,0c0.5,0,0.9-0.2,1.4-0.5
				c5.1-2.5,14.6-13.8,12.8-19.9c-1.8-6.5-12.8-4.2-13.9-11.5c-0.2-1.9,0.1-3.9,0.5-5.8c0.4-1.6,0.7-3.2,0.9-4.8
				c0.4-1.5,0.7-3.2,1.8-4.5c1.3-1.4,3.1-1.8,4.9-1.8c1.6,0,3.4,0.2,4.9,0.2c1.8,0,3.3-0.4,4.4-1.8c3.2-4.2,1.2-13.4,0.5-18.1
				c-0.2-1.4-0.4-2.8-1.1-4c-1.1-1.9-3.1-2.4-5.5-2.4c-3.9,0-8.8,1.5-12.7,1.5c-1.3,0-2.4-0.1-3.3-0.6c-3.2-1.3-7.1-6.2-6.1-9.9
				c0.2-0.7,0.7-1.3,1.2-1.8c3.6-3.6,14.6-8.9,12.1-15.1c-0.7-1.6-2-3.1-3.3-4.4c-2-2-3.9-4-5.9-6c-1.9-2-3.9-4-6.6-4.6
				c-0.5-0.1-0.8-0.1-1.2-0.1c-4.8,0-8.2,7.2-11.1,10.4c-1.4,1.6-2.9,3.3-4.9,4.2c-0.9,0.5-2,0.6-2.9,0.6c-3.9,0-8.1-2.8-10.7-5.2
				c-3.5-3.2-0.1-14.8-2.4-19.8C175.1,3.3,172.8,2.7,170.5,2.7L170.5,2.7z"/>
		</g>
		<g>
			<path class="st1" d="M171.1,58.5L171.1,58.5c0.4,0,0.6,0,0.9,0c5.5,0.2,10.7,2.6,14.5,6.7c3.8,4.1,5.6,9.4,5.4,14.9
				c-0.5,11.2-9.6,19.9-20.8,19.9c-0.4,0-0.6,0-0.9,0c-5.5-0.2-10.7-2.6-14.5-6.7c-3.8-4.1-5.6-9.4-5.4-14.9
				C150.8,67.2,159.9,58.5,171.1,58.5 M171.1,54.9c-12.9,0-23.8,10.2-24.4,23.3c-0.6,13.4,9.9,24.8,23.3,25.4c0.4,0,0.7,0,1.1,0
				c12.9,0,23.8-10.2,24.4-23.3c0.6-13.4-9.9-24.8-23.3-25.4C171.9,54.9,171.5,54.9,171.1,54.9L171.1,54.9z"/>
		</g>
	</g>
	<g id="middle_gear">
		<g id="outer">
			<path class="st1" d="M64.6,107.9c1.8,0,2.7,0.4,3.6,3.6c1.8,6.4,3.5,7.8,11.2,8.9c2.2,0.4,4,0.6,5.5,0.6c5.3,0,7.2-2.4,8.7-4.2
				c0.1-0.2,0.4-0.4,0.5-0.6c0.2-0.2,0.4-0.5,0.6-0.7c1.3-1.5,2.4-2.8,3.5-2.8c0.7,0,2.2,0.4,4.9,2.9c3.4,3.2,3.9,5.1,3.9,6
				c0,0.9-0.8,1.9-1.9,2.8c-4.8,4.2-3.6,10.1-1.9,15.3c2.6,7.4,6.1,8.7,9.3,9.3h0.2c0.9,0.2,1.9,0.2,2.8,0.4
				c1.1,0.1,2.5,0.1,2.8,0.6c0.1,0.1,0.8,1.2,0.2,5.2c-0.9,7.2-2.7,7.2-3.9,7.2c-0.8,0-1.9-0.1-3.1-0.4c-1.4-0.2-2.5-0.5-3.5-0.5
				c-4.6,0-6.6,2.7-9.4,6.6l-0.2,0.4l-0.2,0.4c-3.4,4.2-5.2,6.7-3.1,13.3c0.2,0.6,0.4,1.2,0.6,1.8c0.5,1.4,1.1,2.8,0.7,3.5
				c-0.1,0.4-0.9,1.6-5.6,3.4c-2.4,0.9-3.9,1.1-4.7,1.1c-1.6,0-2-0.5-2.9-3.2c-0.1-0.5-0.2-0.9-0.5-1.3c-1.6-4.4-3.6-6.5-11.8-7.9
				c-2.4-0.5-4.2-0.6-5.8-0.6c-4.6,0-6.8,1.9-8.8,4.8c-0.1,0.1-0.2,0.4-0.4,0.6c-0.9,1.5-1.9,2.5-3.2,2.5c-1.3,0-3.2-0.9-5.3-2.6
				c-3.6-2.9-4.1-4.7-4.1-5.3c0-1.1,0.8-2.1,2-3.2l0.2-0.2l0,0l0,0c3.8-4,4.1-8.6,1.2-15.2c-3.1-7.1-6.5-8.2-9.9-8.8
				c-0.2,0-0.5-0.1-0.6-0.1c-0.5-0.1-0.8-0.1-1.3-0.2c-1.6-0.2-2.9-0.5-3.5-1.3c-0.7-0.9-0.8-2.8-0.5-5.3c1.1-6.6,2.8-6.6,4.2-6.6
				c0.7,0,1.4,0.1,2.2,0.1l0.7,0.1c0.8,0.1,1.8,0.1,2.7,0.1c4.7,0,7.3-2.1,10.6-6.5c4-4.9,7.2-8.8,3.5-15.2l0,0
				c-0.7-1.5-1.4-3.1-1.1-4c0.1-0.5,0.9-1.6,4.2-3.1C61.1,108.4,63.1,107.9,64.6,107.9 M64.6,104.4c-1.9,0-4.2,0.5-7.3,1.6
				c-9.1,3.9-6.7,8.5-4.9,12c2.4,4.1,1.2,6.1-3.1,11.3c-3.2,4.1-4.8,5.1-7.8,5.1c-0.7,0-1.5,0-2.4-0.1c-1.1-0.1-2.2-0.2-3.3-0.2
				c-3.4,0-6.5,1.4-7.8,9.5c-1.6,10.8,5.5,10.4,8.1,10.9c2.7,0.6,5.3,0.5,8.1,6.9c2.8,6.5,1.4,9.2-0.6,11.3c-2.1,2.1-7.2,6.5,2.1,14
				c3.1,2.6,5.5,3.4,7.5,3.4c3.9,0,5.8-3.6,6.4-4.6c1.5-2.2,2.8-3.3,5.9-3.3c1.3,0,2.9,0.2,5.2,0.6c7.2,1.3,7.9,2.7,9.1,5.6
				c0.8,2.4,1.4,6.7,6.6,6.7c1.5,0,3.5-0.4,6-1.3c10.9-4.1,7.9-8.1,6.4-13.1c-1.6-5.3-0.6-6.4,2.7-10.4c2.9-3.9,4-5.6,6.9-5.6
				c0.8,0,1.8,0.1,2.8,0.4c1.3,0.2,2.6,0.4,3.6,0.4c3.5,0,6.2-1.8,7.3-10.2c1.5-11.3-4.7-9.2-8.6-10.1c-2.1-0.5-4.7-0.6-6.9-7.1
				c-2.2-6.5-1.5-9.3,0.8-11.5c2.4-2.1,6.4-6.2-1.9-14c-3.1-2.8-5.4-3.9-7.4-3.9c-3.4,0-5.4,3.1-6.8,4.7c-1.8,2-2.5,3.6-6.6,3.6
				c-1.3,0-2.8-0.1-4.9-0.5c-6.7-0.9-7.1-1.6-8.4-6.4C70.7,107.3,69.2,104.4,64.6,104.4L64.6,104.4z"/>
		</g>
		<g id="circle">
			<path class="st1" d="M75.4,141.3c4.8,0,8.8,4,8.8,8.8c0,4.8-4,8.8-8.8,8.8s-8.8-4-8.8-8.8C66.6,145.3,70.6,141.3,75.4,141.3
				 M75.4,137.8c-6.8,0-12.4,5.5-12.4,12.4s5.5,12.4,12.4,12.4s12.4-5.5,12.4-12.4S82.2,137.8,75.4,137.8L75.4,137.8z"/>
		</g>
	</g>
	<g id="small_gear">
		<g id="outer_1_">
			<path class="st1" d="M140.9,157.3c1.1,0,1.3,0,1.6,1.9c1.1,4.9,2.6,6.4,8.2,7.5c2,0.5,3.5,0.7,4.8,0.7c3.5,0,5.2-1.6,6.2-2.9
				c0.1-0.1,0.2-0.2,0.4-0.4s0.2-0.4,0.5-0.5c0.5-0.5,1.3-1.4,1.6-1.4c0,0,0.8,0,2.6,1.9c2.1,2.4,2.1,3.4,2.1,3.5
				c0,0.4-0.8,0.9-1.1,1.2c-4.1,3.2-3.4,7.9-2.4,11.6c1.5,5.5,4.1,6.9,6.8,7.6h0.1c0.7,0.2,1.4,0.4,2.1,0.4c0.4,0,0.8,0.1,1.2,0.2
				c0,0.4,0.1,1.2-0.2,2.7c-0.7,3.3-1.4,3.9-1.4,3.9l0,0c0,0-0.1,0-0.2,0c-0.6,0-1.3-0.2-2.1-0.4c-1.2-0.4-2.2-0.5-3.1-0.5
				c-3.4,0-5.2,2.1-7.2,4.6l-0.2,0.2l-0.1,0.2c-2.7,2.8-4.2,4.9-2.9,10c0.1,0.5,0.2,0.8,0.4,1.3c0.1,0.6,0.4,1.4,0.4,1.8
				c-0.2,0.2-0.9,0.8-3.3,1.5c-1.4,0.5-2.2,0.5-2.7,0.5s-0.6-0.1-0.6-0.1l0,0c-0.2-0.2-0.4-1.1-0.5-1.4c-0.1-0.4-0.1-0.7-0.2-0.9
				c-1.2-3.9-3.2-5.4-8.6-6.7c-2.1-0.5-3.6-0.7-4.9-0.7c-3.4,0-5.2,1.8-6.5,3.3c-0.1,0.1-0.2,0.2-0.4,0.4c-0.4,0.4-0.8,1.2-1.3,1.2
				c-0.1,0-1.1-0.1-2.9-1.8c-1.8-1.6-2.2-2.7-2.2-3.1s0.8-1.1,1.2-1.3l0.2-0.1l0,0l0,0c3.1-2.9,3.6-6.5,1.8-11.6
				c-2-5.5-4.7-6.6-7.2-7.3c-0.1,0-0.2-0.1-0.4-0.1c-0.2-0.1-0.6-0.1-0.9-0.2c-0.6-0.1-1.5-0.4-1.8-0.6c-0.1-0.2-0.4-1.2,0.1-2.9
				c0.8-3.5,1.5-3.5,1.9-3.5c0.5,0,1.1,0.1,1.8,0.2l0.5,0.1c1.1,0.1,1.9,0.2,2.7,0.2c3.3,0,5.3-1.6,7.8-4.4
				c2.9-3.3,5.8-6.4,3.3-11.5c-0.2-0.6-0.7-1.6-0.6-2c0,0,0.4-0.6,2.5-1.4C138.8,157.5,140,157.3,140.9,157.3 M140.9,153.8
				c-1.2,0-2.7,0.2-4.6,0.8c-6.5,2.2-4.9,5.6-4,8.1c1.5,2.9,0.5,4.2-2.7,7.8c-2.2,2.5-3.4,3.2-5.2,3.2c-0.6,0-1.3-0.1-2.1-0.2
				c-0.9-0.1-1.9-0.4-2.7-0.4c-2.2,0-4.1,1.1-5.3,6.4c-1.6,7.4,3.4,7.4,5.1,7.9c1.9,0.5,3.6,0.5,5.3,5.2c1.6,4.6,0.6,6.5-0.9,7.9
				c-1.5,1.4-5.3,4.2,0.8,9.8c2.2,2,3.9,2.7,5.3,2.7c2.6,0,3.9-2.2,4.4-2.9c1.1-1.3,1.9-2,3.8-2c1.1,0,2.2,0.2,4,0.6
				c4.9,1.2,5.4,2.2,6,4.4c0.5,1.6,0.7,4.9,4.7,4.9c0.9,0,2.2-0.2,3.8-0.7c7.8-2.4,5.9-5.3,4.9-8.7c-0.9-3.8-0.1-4.5,2.4-7.1
				c2.1-2.5,2.9-3.6,4.8-3.6c0.6,0,1.3,0.1,2.2,0.4c1.1,0.2,2,0.5,2.9,0.5c2.2,0,4-1.3,5.2-6.7c1.5-7.8-2.8-6.6-5.5-7.3
				c-1.4-0.4-3.2-0.6-4.5-5.2c-1.3-4.6-0.7-6.6,1.1-7.9c1.8-1.3,4.7-4-0.7-9.8c-2.1-2.2-3.8-3.1-5.2-3.1c-2.2,0-3.6,1.9-4.7,2.9
				c-1.2,1.3-1.8,2.2-4.1,2.2c-0.9,0-2.2-0.1-4-0.6c-4.6-0.9-4.8-1.5-5.5-4.8C145.5,156,144.6,153.8,140.9,153.8L140.9,153.8z"/>
		</g>
		<g id="circle_1_">
			<path class="st1" d="M146.9,180.9L146.9,180.9c0.1,0,0.2,0,0.4,0c1.3,0.1,2.6,0.7,3.4,1.6c0.9,1.1,1.3,2.4,1.3,3.6
				c-0.1,2.6-2.4,4.7-5.1,4.7c-0.1,0-0.2,0-0.4,0c-2.8-0.1-4.8-2.6-4.7-5.3C142.1,182.9,144.4,180.9,146.9,180.9 M146.9,177.4
				c-4.5,0-8.2,3.5-8.6,8c-0.4,4.7,3.3,8.8,8,9.1c0.2,0,0.4,0,0.6,0c4.5,0,8.2-3.5,8.6-8c0.4-4.7-3.3-8.8-8-9.1
				C147.3,177.4,147.2,177.4,146.9,177.4L146.9,177.4z"/>
		</g>
	</g>
</g>
</svg>
