<?xml version="1.0" encoding="utf-8"?>
<!-- Generator: Adobe Illustrator 22.1.0, SVG Export Plug-In . SVG Version: 6.00 Build 0)  -->
<svg version="1.1" id="Layer_1" xmlns="http://www.w3.org/2000/svg" xmlns:xlink="http://www.w3.org/1999/xlink" x="0px" y="0px"
	 viewBox="0 0 289 282" style="enable-background:new 0 0 289 282;" xml:space="preserve">
<style type="text/css">
	.st0{opacity:0.3;fill:#7C7C7C;}
	.st1{fill:#FFFFFF;stroke:#FFFFFF;stroke-width:3;stroke-miterlimit:10;}
	.st2{fill:#FFFFFF;stroke:#FFFFFF;stroke-miterlimit:10;}
</style>
<g id="power_x5F_systems">
	<ellipse class="st0" cx="230.5" cy="219" rx="16.5" ry="9"/>
	<path class="st0" d="M124.8,216c-1.8,1.8-5.5,2-7.7,2.4c-4,0.8-8.8,1.6-13.1,1.2c-1,0.1-2,0.2-3,0.2c-1.4,0-2.8-0.1-4.2-0.3
		c-3.6,0-7.2-0.2-10.6-0.2c-0.1,0-0.1,0-0.2,0c-4.1,0-8.2,0.2-12.3,0.1c-3.9,0.3-8.2,0-11.3-2.4c-3.3-2.6-5.2-6.6-5.2-10.7
		c0-0.2,0.1-0.4,0.2-0.5c-0.1-0.4-0.1-0.9-0.1-1.3C31.9,205.9,13,211.8,13,219c0,8.3,25.3,15,56.5,15s56.5-6.7,56.5-15
		C126,218,125.6,217,124.8,216z"/>
	<g id="wires">
		<g>
			<g>
				<path class="st1" d="M83.9,101.1c-0.1-5.5-0.5-10.9-0.5-16.4c-0.1-6.5-0.6-14.9,4.4-19.7c3.8-3.7,9.4-4.4,14.5-5
					c6.3-0.7,12.7-1.1,19-1.5c12.1-0.6,24.1-0.1,36.2,0.6c6.5,0.4,10.6,2.1,12.8,8.6c1.7,5.1,1.8,10.9,2.1,16.2
					c1.3,24,0.1,48,1.4,72c0.3,5.9,0.7,11.7,1.3,17.6c0.3,2.8,0.9,5.5,3.1,7.5c4.2,4,11.1,3.4,16.4,3.3c5.7-0.1,11.3,0.1,17-0.4
					c4.5-0.4,10.2-0.7,14.3-2.9c4.2-2.2,3.8-6,3.8-10.2c0-6.9-0.3-13.8-0.9-20.7c-0.2-1.9-3.2-1.9-3,0c0.5,5.6,0.8,11.3,0.9,16.9
					c0.1,4,1,9.2-3.3,11.7c-2.5,1.5-7.2,1.7-10,2c-8.4,0.9-17.7,1.3-26.1,0.6c-4.1-0.3-7.8-1.7-8.9-6c-1.6-6.3-1.3-13.8-1.6-20.3
					c-0.6-12.3-0.8-24.6-0.9-36.9c0-11.7,0.1-23.4-0.5-35.1c-0.4-7.4-0.4-16.9-5.7-22.7c-2.2-2.4-4.8-3.4-7.9-3.8
					c-5.7-0.7-11.7-0.8-17.4-1c-12.1-0.5-24.1,0-36.2,1c-8.4,0.7-19,0.9-24.2,8.8c-3.1,4.6-3.2,10.5-3.3,15.8
					c-0.1,6.7,0.4,13.4,0.5,20.1C80.9,103,83.9,103,83.9,101.1L83.9,101.1z"/>
			</g>
		</g>
		<g>
			<g>
				<path class="st1" d="M233.6,148.2c-0.1,11.6,1.2,23.3,0.5,34.9c-0.2,3.7-0.6,7.3-4.2,9.3c-2.3,1.3-5,2.1-7.5,2.8
					c-5.5,1.6-11.2,2.5-16.9,2.6c-10.5,0.3-21.5-0.3-32-1.2c-6.1-0.5-11.7-2.2-14.6-8.1c-2.1-4.3-2.2-9.4-2.3-14.1
					c-0.3-22.2,0.2-44.4-0.6-66.5c-0.4-9.9-0.2-20.5-1.9-30.3c-1.6-9.3-8.8-9.9-17.1-9.9c-6.3,0-12.5,0.3-18.8,0.5
					c-3.5,0.2-7.2,0.1-10.5,1.5c-3.1,1.3-4.8,3.6-5.3,6.9c-1,5.8-0.1,12.3,0.1,18.1c0,1.9,3,1.9,3,0c-0.1-5.5-1.5-12.8-0.1-18.1
					c1.5-5.6,8.2-5.1,12.8-5.3c5.4-0.2,10.7-0.4,16.1-0.5c6.7-0.1,15.4-0.8,16.8,7.5c1.8,10.5,1.6,21.9,2,32.5
					c0.4,11.5,0.4,22.9,0.4,34.4c0,10.7-0.2,21.4,0.2,32.1c0.3,6.8,1.5,14.3,7.3,18.6c6.7,5,16.8,4,24.6,4.4
					c10.6,0.5,21.2,1.4,31.7-0.7c7.7-1.5,18.3-3.6,19.5-12.8c1.7-12.7-0.4-25.9-0.2-38.6C236.6,146.3,233.6,146.3,233.6,148.2
					L233.6,148.2z"/>
			</g>
		</g>
	</g>
	<g id="battery">
		<g id="chargers">
			<g>
				<g>
					<path class="st1" d="M79.1,105.3c0.1-2.8,4.1-2.2,6-2c0.7,0.1,1.1,0,1.7,0.5c0.8,0.6,0.7,0.8,0.7,1.7c0,1.1,0.2,3.1-0.4,4.1
						c-1,1.8-4.8,1.2-6.4,1c-1.7-0.2-1.9-0.6-1.8-2.3C79,107.3,79.1,106.3,79.1,105.3c0.1-1.9-2.9-1.9-3,0c-0.2,3.8-0.7,8,4.3,8.3
						c2.2,0.1,4.7,0.4,6.9-0.3c2.1-0.7,2.8-2.3,3.1-4.4c0.3-1.9,0.6-4.6-0.3-6.4s-2.7-2-4.6-2.2c-4.2-0.3-9.2-0.2-9.4,5
						C76,107.2,79,107.2,79.1,105.3z"/>
				</g>
			</g>
			<g>
				<g>
					<path class="st1" d="M106.7,110.5c-1.4,0.3-3.6,0.7-5,0.3c-2-0.5-1.8-1.9-1.8-3.6c0-1.9-1.1-8.6,0.8-9.7c0.7-0.4,3.4-0.1,4.2,0
						c2.1,0.3,2,1.4,2.1,3.4C107.1,102,108.1,110.2,106.7,110.5c-1.9,0.4-1.1,3.3,0.8,2.9s2.6-1.8,2.8-3.7c0.3-3.6,0.1-7.7-0.4-11.3
						c-0.2-1.9-0.8-3.5-2.9-3.9s-6.1-0.5-8.1,0.2c-1.9,0.7-2.1,2.4-2.1,4.2c0,3.3,0,6.7,0.1,10.1c0.1,6,6.1,5.1,10.6,4.4
						C109.4,113,108.6,110.1,106.7,110.5z"/>
				</g>
			</g>
		</g>
		<g id="body">
			<g>
				<g>
					<path class="st1" d="M110.4,106.1c3.8,0.1,6.6,0,9.2,3.2c1.2,1.4,2.3,3.2,3.4,4.7c1.4,1.9,3,3.1,2.4,5.6c0.2,1.9-0.8,2.5-2.8,2
						c-1.2,0.1-2.5,0.1-3.7,0c-8.2,0-16.5-0.1-24.7-0.1c-8.6,0-17.3,0.1-25.9,0.1c-1.3,0-4.4,0.5-5.5-0.5c-3-2.7,1-6.7,2.6-8.6
						c0.9-1.1,1.8-2.2,2.7-3.2c2.8-2.9,5.5-3.1,9.3-3.2c1.9,0,1.9-3,0-3c-2.8,0-6.2,0-8.6,1.5c-2,1.2-3.6,3.4-5.1,5.2
						c-2.3,2.7-6.9,7.2-5.5,11.2c1.5,4.3,8.2,3.6,11.7,3.5c8.1-0.1,16.2,0,24.2,0c7.6,0,15.2-0.1,22.9,0c3.2,0,10.4,1.1,12.1-2.8
						c1.8-4.2-3.7-9.4-5.8-12.4c-3.6-5-6.8-6.1-12.9-6.2C108.4,103,108.4,106,110.4,106.1L110.4,106.1z"/>
				</g>
			</g>
			<g>
				<g>
					<path class="st1" d="M57.8,144.9c0.7,1.8,1,2.8,2.8,3.5c2.8,1.1,6.8,0.8,9.8,1.1c8.2,0.7,16.3,0.7,24.5,0.6
						c7.6-0.1,15.3-0.1,22.9-0.4c3.6-0.1,10.5,0.1,11.2-4.7c0.3-1.9-2.6-2.7-2.9-0.8c-0.5,3.7-13.4,2.5-15.9,2.5
						c-5.1,0.1-10.2,0.3-15.3,0.4c-5,0.1-10,0.1-15.1-0.1c-3.1-0.1-17.7,0.6-19.1-2.9C60,142.4,57.1,143.1,57.8,144.9L57.8,144.9z"
						/>
				</g>
			</g>
			<g>
				<g>
					<path class="st1" d="M126,120.5c0,15.1,0,30.2,0,45.2c0,8.3-0.1,16.5-0.2,24.8c-0.1,7.1,2.5,22.1-5.5,25.3
						c-6.3,2.5-15.3,1-21.9,1.1c-8.7,0.1-17.3,0.3-26,0c-4.2-0.1-9.2-0.2-11.3-4.6c-1.9-3.9-0.8-9.9-0.7-14.2c0.1-7.6,0-15.2,0-22.8
						c0-18.3,0.3-36.7,0.5-55c0-1.9-3-1.9-3,0c-0.2,18.9-0.5,37.9-0.5,56.8c0,9,0,18-0.1,27c-0.1,6.2,0.7,12.7,7.5,14.9
						c3.1,1,6.5,0.8,9.7,0.9c5.3,0.1,10.6,0.1,16,0.1c8.7-0.1,17.8,0.5,26.5-0.4c6-0.7,10.1-3.6,11.2-9.7c1.5-8.5,0.6-17.9,0.7-26.5
						c0.3-20.9,0.2-41.9,0.2-62.8C129,118.6,126,118.6,126,120.5L126,120.5z"/>
				</g>
			</g>
			<g>
				<g>
					<path class="st1" d="M95.7,103c0.4-0.1,0.3-0.1-0.3,0c-0.2,0-0.4,0-0.6,0c-0.7,0-1.3,0-2,0c-1.2,0-2.5,0-3.7,0.1
						c-1.9,0-1.9,3,0,3c1.5,0,3.1-0.1,4.6-0.1c1.1,0,2.5,0.2,3.6-0.4C98.9,104.6,97.4,102,95.7,103L95.7,103z"/>
				</g>
			</g>
			<g id="lightning_bolt">
				<g>
					<path class="st1" d="M102.1,193c2.6-3.5,7.9-8.5,7.2-13.4c-0.5-4.1-4.6-3.5-7.8-3.6c-0.8,0-4.5,0.3-5.2-0.1
						c-1.4-0.9-0.7-1.4-0.6-2.7c0.1-2.7,0.8-5.2,1.2-7.8c0.2-1.8,0.1-4.6-2.6-4c-1.1,0.2-1.7,1.7-2.2,2.5c-1.6,2.5-3,5.2-4.4,7.7
						c-1.8,3.1-4,6.2-5.5,9.4c-0.6,1.2-1.3,2.6-0.7,4c1.3,3.5,7.2,2.4,9.8,2.2c1.1-0.1,2.9-0.7,3.5,0.3c0.3,0.6-2.3,6.2-2.3,6.2
						c-1.4,3.2-3.1,6.3-4.8,9.3c-0.7,1.2,0.8,3,2.1,2.1c4.6-3.4,8.7-7.2,12.2-11.7c1.2-1.5-0.9-3.6-2.1-2.1
						c-3.4,4.3-7.2,8-11.6,11.2c0.7,0.7,1.4,1.4,2.1,2.1c1.8-3.2,11-16.7,6.5-20.1c-2.8-2.1-7.5,1.5-10.4,0
						c-3.1-1.6,0.5-5.4,1.6-7.2c1.5-2.5,2.9-5,4.4-7.5c0.2-0.3,3-4.6,2.7-4.8c-1.2-1.2-1.7,3.7-1.7,3.9c-0.2,1.8-2,6.9-1,8.8
						c1.3,2.3,6.3,1.3,8.4,1.4c0.8,0,3.8-0.3,4.3,0.1c1.1,0.8,0.4,3.9-0.1,4.9c-1.1,2.6-3.7,5.2-5.4,7.5
						C98.3,193,100.9,194.5,102.1,193z"/>
				</g>
			</g>
		</g>
	</g>
	<g id="lightbulb">
		<g id="bulb">
			<g>
				<g>
					<path class="st1" d="M223.8,134.6c-0.6-2,6.5-1.6,7.4-1.7c0.6,0,1.2-0.1,1.8-0.1c0.2,0,3.1-0.2,2.4,0.4
						c-0.8,0.7-0.5,1.9,0.3,2.4c1.6,0.5,1.9,1.2,0.7,2.1c-0.9,0.5-1,2.1,0,2.6c0.2,0.6,0.4,1.2,0.6,1.9c-1,0.5-0.9,2.1,0,2.6
						c-0.1,0.5-0.3,1-0.4,1.4c-0.4,0.1-0.9,0.1-1.3,0.2c-0.6,0.1-1.3,0-2,0c-0.9,0.1-1.7,0.2-2.6,0.3c-0.8,0.1-7.6,0.4-6.2-1.3
						c0.5-0.7,0.7-1.9-0.3-2.4c-0.5-1-0.3-1.7,0.4-2.4c0.6-0.8,0-2-0.9-2.2c0.1-0.6,0.2-1.1,0.4-1.7c0.6-0.6,0.6-1.5,0-2.1
						c-0.2-0.2-0.5-0.5-0.7-0.7c-1.4-1.4-3.5,0.8-2.1,2.1c0.2,0.2,0.5,0.5,0.7,0.7c0-0.7,0-1.4,0-2.1c-2.1,2.2-2.9,5.8,1,6.7
						c-0.3-0.7-0.6-1.5-0.9-2.2c-1.6,2.1-2.3,5.2,0.7,6.5c-0.1-0.8-0.2-1.6-0.3-2.4c-1.5,1.9-1.5,4.2,0.6,5.6c2.3,1.5,5.7,1,8.3,0.7
						c2.5-0.3,6.1,0.3,8.1-1.6c1.9-1.8,1.2-4.7-1-5.9c0,0.9,0,1.7,0,2.6c3.6-1.6,2.2-5.6-0.6-7c0,0.9,0,1.7,0,2.6
						c3.9-2.3,2.5-5.2-0.7-7.3c0.1,0.8,0.2,1.6,0.3,2.4c1.3-1.2,2.3-3.1,1.1-4.7c-1.2-1.6-3.4-1.2-5.1-0.9
						c-3.8,0.6-14.7-1.4-12.5,5.7C221.5,137.3,224.4,136.5,223.8,134.6z"/>
				</g>
			</g>
			<g>
				<g>
					<path class="st1" d="M224.5,131.9c-1.1-4.3-3.3-7.5-6.2-10.7c-4.1-4.5-6.6-9.1-7-15.2c-0.9-11.4,7.1-22.1,19.2-21.4
						c10.7,0.6,17.7,10.1,16.9,20.7c-0.4,5.4-3.5,9.3-6.4,13.6c-2.7,4-4.6,8.1-5.7,12.8c-0.4,1.9,2.4,2.7,2.9,0.8
						c1.7-7.2,6-12,9.6-18.3c2.7-4.7,3.3-10.3,2.1-15.5c-2.3-9.9-9.1-16.7-19.4-17.1c-10.9-0.4-19.6,6.9-21.8,17.5
						c-1,5.1-0.5,10.9,1.5,15.7c2.8,6.8,9.5,10.6,11.4,17.9C222.1,134.6,225,133.8,224.5,131.9L224.5,131.9z"/>
				</g>
			</g>
			<g>
				<g>
					<path class="st2" d="M229,131.1c0.3-8.8-1.3-17-5.7-24.7c-1-1.7-3.6-0.2-2.6,1.5c4.2,7.3,5.5,14.9,5.3,23.2
						C225.9,133,228.9,133,229,131.1L229,131.1z"/>
				</g>
			</g>
			<g>
				<g>
					<path class="st2" d="M233.2,131.1c0.3-8.6,0.8-17.2,5.9-24.4c1.1-1.6-1.5-3.1-2.6-1.5c-5.5,7.6-6.1,16.8-6.4,25.9
						C230.1,133.1,233.1,133.1,233.2,131.1L233.2,131.1z"/>
				</g>
			</g>
			<g>
				<g>
					<path class="st2" d="M221.7,107.9c0.8,0.8,1.5,1.7,2.7,1.2c1.5-0.5,1.7-2.5,2.8-3.5c-0.6,0.1-1.2,0.2-1.8,0.2
						c-0.3-0.6-0.4-0.5-0.1,0.1c0.1,0.5,0.2,1,0.4,1.5c0.2,1,0.5,2,0.7,3c0.4,1.5,2.4,1.3,2.9,0c0.6-1.7,1.2-3.5,1.8-5.2
						c-0.8,0.2-1.7,0.4-2.5,0.7c0.8,1,1.4,2,2,3.2c0.5,1,2.1,0.9,2.6,0c0.4-0.7,0.7-1.7,1.2-2.3c-0.5,0.1-1,0.3-1.5,0.4
						c0.7,0.1,1.2,0.8,2,0.9c0.9,0.1,1.7-0.2,2.4-0.7c1.6-1.1,0.1-3.7-1.5-2.6c-0.7,0.5-2.2-0.9-3.1-0.5c-1.2,0.5-1.7,2.3-2.2,3.3
						c0.9,0,1.7,0,2.6,0c-0.6-1.4-1.4-2.6-2.4-3.8c-0.8-0.9-2.2-0.3-2.5,0.7c-0.6,1.7-1.2,3.5-1.8,5.2c1,0,1.9,0,2.9,0
						c-0.4-1.8-0.5-5.3-2.4-6.3c-0.6-0.4-1.3-0.2-1.8,0.2c-0.4,0.3-0.6,0.6-0.9,1c-0.2,0.3-0.4,0.6-0.5,0.9
						c-0.4,0.4-0.4,0.5,0.1,0.4C222.5,104.4,220.4,106.5,221.7,107.9L221.7,107.9z"/>
				</g>
			</g>
		</g>
		<g id="sparks">
			<g>
				<g>
					<path class="st1" d="M193.4,131.5c1.8-1.6,3.6-3.3,5.4-4.9c1.4-1.3-0.7-3.4-2.1-2.1c-1.8,1.6-3.6,3.3-5.4,4.9
						C189.8,130.7,191.9,132.8,193.4,131.5L193.4,131.5z"/>
				</g>
			</g>
			<g>
				<g>
					<path class="st1" d="M188.1,107.5c2.1,0.4,4.2,0.6,6.3,0.4c1.9-0.1,1.9-3.1,0-3s-3.7,0-5.5-0.3
						C187,104.3,186.2,107.2,188.1,107.5L188.1,107.5z"/>
				</g>
			</g>
			<g>
				<g>
					<path class="st1" d="M194.2,84.8c1.6,1.7,3.6,2.8,5.9,3.3c1.9,0.4,2.7-2.5,0.8-2.9c-1.8-0.4-3.3-1.2-4.6-2.5
						C195,81.2,192.8,83.4,194.2,84.8L194.2,84.8z"/>
				</g>
			</g>
			<g>
				<g>
					<path class="st1" d="M222.9,72c0.1-2.2,0.3-4.5,0.4-6.7c0.1-1.9-2.9-1.9-3,0c-0.1,2.2-0.3,4.5-0.4,6.7
						C219.8,73.9,222.8,73.9,222.9,72L222.9,72z"/>
				</g>
			</g>
			<g>
				<g>
					<path class="st1" d="M242.6,76.5c1.3-1.7,2.7-3.4,4.3-4.9c1.4-1.3-0.7-3.5-2.1-2.1c-1.7,1.7-3.3,3.5-4.7,5.5
						C238.9,76.6,241.5,78,242.6,76.5L242.6,76.5z"/>
				</g>
			</g>
			<g>
				<g>
					<path class="st1" d="M259.6,92.1c2-1.1,4-2.2,6-3.3c1.7-0.9,0.2-3.5-1.5-2.6c-2,1.1-4,2.2-6,3.3
						C256.4,90.5,257.9,93.1,259.6,92.1L259.6,92.1z"/>
				</g>
			</g>
			<g>
				<g>
					<path class="st1" d="M259.4,109.3c2.3,2,4.9,3.5,7.7,4.5c1.8,0.6,2.6-2.3,0.8-2.9c-2.4-0.8-4.5-2.1-6.4-3.7
						C260.1,105.9,258,108,259.4,109.3L259.4,109.3z"/>
				</g>
			</g>
			<g>
				<g>
					<path class="st1" d="M252,126.6c1.3,1.6,2.8,2.9,4.6,4c1.7,1,3.2-1.6,1.5-2.6c-1.5-0.9-2.9-2.1-4-3.5c-0.5-0.6-1.6-0.5-2.1,0
						C251.4,125.1,251.5,126,252,126.6L252,126.6z"/>
				</g>
			</g>
		</g>
	</g>
</g>
</svg>
