<?xml version="1.0" encoding="utf-8"?>
<!-- Generator: Adobe Illustrator 22.1.0, SVG Export Plug-In . SVG Version: 6.00 Build 0)  -->
<svg version="1.1" id="Layer_1" xmlns="http://www.w3.org/2000/svg" xmlns:xlink="http://www.w3.org/1999/xlink" x="0px" y="0px"
	 viewBox="0 0 289 282" style="enable-background:new 0 0 289 282;" xml:space="preserve">
<style type="text/css">
	.st0{opacity:0.3;fill:#7C7C7C;}
	.st1{fill:none;stroke:#FFFFFF;stroke-width:1.7803;stroke-miterlimit:10;}
	.st2{fill:#FFFFFF;}
	.st3{fill:none;stroke:#FFFFFF;stroke-width:3.5606;stroke-miterlimit:10;}
	.st4{fill:none;stroke:#FFFFFF;stroke-width:2.6705;stroke-miterlimit:10;}
</style>
<g id="Layer_1_1_">
	<g id="software_x5F_sensors">
		<ellipse id="shadow_2_" class="st0" cx="143.7" cy="227.1" rx="89.9" ry="15.1"/>
		<g id="background_windows">
			<path class="st1" d="M240.7,153.2c0,0,11,0.4,13.1-0.3c2-0.6,4.7-1.5,6.6-4.7c1.9-3.2,1.7-3.9,1.7-5.7c0-1.8,0-99.7,0-103.3
				c0-3.6-0.3-5.7-2.7-8s-4.5-2.7-8-2.7c-3.6,0-167.3-0.9-171.8,0c-4.5,0.9-4.5,0.9-7.7,3.2c-3.2,2.3-3,7.5-3,7.5v6.2"/>
			<path class="st1" d="M47.5,64.2c0,0-6.8,0-10.5,0s-9.1,6.1-9.1,10.1c0,4.1,0,99.3,0,103.8s3.6,10.7,10.7,10.7
				s171.5,0.4,173.8-0.2c2.4-0.7,8.6-2.5,8.6-10.5s0-8,0-8"/>
		</g>
		<g id="main_window">
			<g id="display">
				<g>
					<g>
						<path class="st2" d="M141.5,125c2.7,0.1,5.7,0.7,8.2-0.6c3.6-2,4.4-6.8,5.1-10.2c-0.9,0-1.7,0-2.6,0
							c1.3,6.7,2.6,13.4,3.9,20.1c0.3,1.2,2.3,1.2,2.6,0c1.9-9.3,3.3-18.7,4.5-28c-0.9,0.1-1.8,0.3-2.6,0.4
							c2.3,10.8,4.6,21.6,6.9,32.4c0.4,1.6,2.5,1.1,2.6-0.4c0.6-7.2,0.4-14.6,2.3-21.7c-0.6,0.3-1.3,0.5-2,0.8
							c2.5,1.3,2.8,7.7,3.3,10.1c1.2,5.1,2.1,10.1,3,15.2c0.3,1.6,2.5,1.1,2.6-0.4c1.2-13.9,2-27.8,2.4-41.7c-0.9,0-1.8,0-2.7,0
							c-0.2,10.8,0.9,21.7,2.8,32.3c0.3,1.5,2.7,1.2,2.6-0.4c0-2.3,1.5-5.3,2.3-7.4c0.9-2.5,2-5,2.5-7.6c-0.9-0.1-1.8-0.3-2.6-0.4
							c0.7,5.1,2,10.1,2.6,15.2c0.2,1.6,2.8,1.8,2.7,0c-0.2-3.8,1.3-7.9,2.1-11.7c1.1-5.8,1.9-11.6,3.1-17.4c-0.9,0-1.7,0-2.6,0
							c2,11.6,3.7,23.1,5.4,34.7c0.3,1.6,2.4,1,2.6-0.4c1.2-9.6,2.6-19.3,3.8-28.9c-0.9,0-1.8,0-2.7,0c0.2,3.6,0.3,7.3,0.9,10.9
							c0.3,1.7,0.4,4.7,2.1,5.7c0.5,0.4,1.2,0.2,1.6-0.2c1.2-0.9,0.7-2.9,1.7-3.7c0.4-0.4,2.5,0.4,3.3,0.4c1.6,0.1,3-0.3,4.6-0.8
							c1.6-0.6,0.9-3.2-0.7-2.6c-2.5,0.9-4.4,0.1-6.8,0c-0.6,0-1.1,0-1.6,0.4c-1.6,1-1.2,3.5-2.4,4.5c0.5-0.1,1.1-0.2,1.6-0.2
							c-1-0.6-1.2-6.2-1.2-7.2c-0.2-2.3-0.3-4.7-0.4-7.1c-0.1-1.8-2.5-1.7-2.7,0c-1.2,9.6-2.6,19.3-3.8,28.9
							c0.9-0.1,1.8-0.3,2.6-0.4c-1.6-11.6-3.4-23.1-5.4-34.7c-0.3-1.3-2.3-1.2-2.6,0c-1.3,6.1-2,12.2-3.3,18.2
							c-0.8,3.7-2.1,7.7-2,11.6c0.9,0,1.8,0,2.7,0c-0.6-5.1-2-10.1-2.6-15.2c-0.2-1.3-2.2-2-2.6-0.4c-1.2,5.1-5,10.4-4.9,15.7
							c0.9-0.1,1.8-0.3,2.6-0.4c-1.8-10.3-2.8-21.1-2.7-31.6c0-1.7-2.6-1.7-2.7,0c-0.4,13.9-1.2,27.8-2.4,41.7
							c0.9-0.1,1.8-0.3,2.6-0.4c-1.1-6.1-2.4-12.3-3.7-18.3c-0.6-2.8-1.1-7.1-3.8-8.6c-0.7-0.4-1.7-0.1-2,0.8
							c-2,7.3-1.7,15-2.4,22.4c0.9-0.1,1.8-0.3,2.6-0.4c-2.3-10.8-4.6-21.6-6.9-32.4c-0.4-1.6-2.5-1-2.6,0.4
							c-1.2,9.2-2.6,18.2-4.4,27.3c0.9,0,1.7,0,2.6,0c-1.3-6.7-2.6-13.4-3.9-20.1c-0.3-1.2-2.3-1.2-2.6,0c-0.5,3-1.2,7.8-4.5,9
							c-1.9,0.6-4.2,0-6.1,0C139.7,122.3,139.7,125,141.5,125L141.5,125z"/>
					</g>
				</g>
				<rect x="133" y="90.7" class="st3" width="95.2" height="68.8"/>
			</g>
			<g id="code">
				<g>
					<g>
						<path class="st2" d="M82.4,153.1c4.6,0,9.3,0,14,0c1.7,0,1.7-2.7,0-2.7c-4.6,0-9.3,0-14,0C80.7,150.4,80.7,153.1,82.4,153.1
							L82.4,153.1z"/>
					</g>
				</g>
				<g>
					<g>
						<path class="st2" d="M102.4,150c-0.1,0-0.2,0-0.3,0c-0.7,0-1.3,0.6-1.3,1.3s0.6,1.3,1.3,1.3c0.1,0,0.2,0,0.3,0
							c0.7,0,1.3-0.6,1.3-1.3C103.7,150.6,103.1,150,102.4,150L102.4,150z"/>
					</g>
				</g>
				<g>
					<g>
						<path class="st2" d="M93.3,138.9c1.4,0,2.9,0,4.4,0c1.7,0,1.7-2.7,0-2.7c-1.4,0-2.9,0-4.4,0C91.6,136.2,91.6,138.9,93.3,138.9
							L93.3,138.9z"/>
					</g>
				</g>
				<g>
					<g>
						<path class="st2" d="M87.6,143.9c-0.1,0-0.2,0-0.3,0c-0.7,0-1.3,0.6-1.3,1.3s0.6,1.3,1.3,1.3c0.1,0,0.2,0,0.3,0
							c0.7,0,1.3-0.6,1.3-1.3S88.4,143.9,87.6,143.9L87.6,143.9z"/>
					</g>
				</g>
				<g>
					<g>
						<path class="st2" d="M93,146.3c3,0,6.1,0,9.1,0c1.7,0,1.7-2.7,0-2.7c-3,0-6.1,0-9.1,0C91.3,143.6,91.3,146.3,93,146.3
							L93,146.3z"/>
					</g>
				</g>
				<g>
					<g>
						<path class="st2" d="M87.3,138.9c1.7,0,1.7-2.7,0-2.7C85.6,136.2,85.6,138.9,87.3,138.9L87.3,138.9z"/>
					</g>
				</g>
				<g>
					<g>
						<path class="st2" d="M85.1,130.2c1.7,0,3.4,0,5.1,0c1.7,0,1.7-2.7,0-2.7s-3.4,0-5.1,0C83.4,127.6,83.4,130.2,85.1,130.2
							L85.1,130.2z"/>
					</g>
				</g>
				<g>
					<g>
						<path class="st2" d="M94.6,130c4.7,0,9.5,0,14.2,0c1.7,0,1.7-2.7,0-2.7c-4.7,0-9.5,0-14.2,0C92.8,127.3,92.8,130,94.6,130
							L94.6,130z"/>
					</g>
				</g>
				<g>
					<g>
						<path class="st2" d="M113.6,130c1.2,0,2.6,0,3.8,0c1.7,0,1.7-2.7,0-2.7c-1.2,0-2.6,0-3.8,0C111.9,127.3,111.9,130,113.6,130
							L113.6,130z"/>
					</g>
				</g>
				<g>
					<g>
						<path class="st2" d="M99.7,107.3c2.8,0,5.4,0,8.2,0c1.7,0,1.7-2.7,0-2.7c-2.8,0-5.4,0-8.2,0C98,104.6,98,107.3,99.7,107.3
							L99.7,107.3z"/>
					</g>
				</g>
				<g>
					<g>
						<path class="st2" d="M80.4,122.8c5.5,0,11.1,0,16.6,0c1.7,0,1.7-2.7,0-2.7c-5.5,0-11.1,0-16.6,0
							C78.6,120.2,78.6,122.8,80.4,122.8L80.4,122.8z"/>
					</g>
				</g>
				<g>
					<g>
						<path class="st2" d="M102,122.2c2.9,0,6,0,8.9,0c1.7,0,1.7-2.7,0-2.7c-2.9,0-6,0-8.9,0C100.3,119.6,100.3,122.2,102,122.2
							L102,122.2z"/>
					</g>
				</g>
				<g>
					<g>
						<path class="st2" d="M116.7,120.9c0-0.1,0-0.2,0-0.3c0-0.7-0.6-1.3-1.3-1.3s-1.3,0.6-1.3,1.3c0,0.1,0,0.2,0,0.3
							c0,0.7,0.6,1.3,1.3,1.3C116.1,122.1,116.7,121.6,116.7,120.9L116.7,120.9z"/>
					</g>
				</g>
				<g>
					<g>
						<path class="st2" d="M72.9,107.1c4.6,0,9.3,0,14,0c1.7,0,1.7-2.7,0-2.7c-4.6,0-9.3,0-14,0C71.2,104.4,71.2,107.1,72.9,107.1
							L72.9,107.1z"/>
					</g>
				</g>
				<g>
					<g>
						<path class="st2" d="M93.4,107.1c1.7,0,1.7-2.7,0-2.7S91.7,107.1,93.4,107.1L93.4,107.1z"/>
					</g>
				</g>
				<g>
					<g>
						<path class="st2" d="M66.7,115.4c5.6,0,11.3,0,16.9,0c1.7,0,1.7-2.7,0-2.7c-5.6,0-11.3,0-16.9,0C65,112.7,65,115.4,66.7,115.4
							L66.7,115.4z"/>
					</g>
				</g>
				<g>
					<g>
						<path class="st2" d="M89.5,115.1c6,0,11.8,0,17.8,0c1.7,0,1.7-2.7,0-2.7c-6,0-11.8,0-17.8,0C87.9,112.4,87.9,115.1,89.5,115.1
							L89.5,115.1z"/>
					</g>
				</g>
				<g>
					<g>
						<path class="st2" d="M65.5,99.3c6,0,11.8,0,17.8,0c1.7,0,1.7-2.7,0-2.7c-6,0-11.8,0-17.8,0C63.7,96.7,63.7,99.3,65.5,99.3
							L65.5,99.3z"/>
					</g>
				</g>
				<g>
					<g>
						<path class="st2" d="M89.8,99.1c0.1,0,0.2,0,0.3,0c0.7,0,1.3-0.6,1.3-1.3s-0.6-1.3-1.3-1.3c-0.1,0-0.2,0-0.3,0
							c-0.7,0-1.3,0.6-1.3,1.3C88.6,98.5,89.1,99.1,89.8,99.1L89.8,99.1z"/>
					</g>
				</g>
				<g>
					<g>
						<path class="st2" d="M66.4,107.1c1.7,0,1.7-2.7,0-2.7C64.6,104.4,64.6,107.1,66.4,107.1L66.4,107.1z"/>
					</g>
				</g>
				<g>
					<g>
						<path class="st2" d="M66.9,122.5c0.2,0,0.4,0,0.6,0c0.7,0,1.3-0.6,1.3-1.3c0-0.7-0.6-1.3-1.3-1.3c-0.2,0-0.4,0-0.6,0
							c-0.7,0-1.3,0.6-1.3,1.3C65.7,121.9,66.2,122.5,66.9,122.5L66.9,122.5z"/>
					</g>
				</g>
				<g>
					<g>
						<path class="st2" d="M73.2,122.5c1.7,0,1.7-2.7,0-2.7S71.5,122.5,73.2,122.5L73.2,122.5z"/>
					</g>
				</g>
				<g>
					<g>
						<path class="st2" d="M66.9,130.2c4.2,0,8.3,0,12.5,0c1.7,0,1.7-2.7,0-2.7c-4.2,0-8.3,0-12.5,0
							C65.2,127.6,65.2,130.2,66.9,130.2L66.9,130.2z"/>
					</g>
				</g>
				<g>
					<g>
						<path class="st2" d="M67.5,139.1c2.8,0,5.7,0,8.6,0c1.7,0,1.7-2.7,0-2.7c-2.8,0-5.7,0-8.6,0C65.7,136.5,65.7,139.1,67.5,139.1
							L67.5,139.1z"/>
					</g>
				</g>
				<g>
					<g>
						<path class="st2" d="M81.4,136.5c-0.1,0-0.2,0-0.3,0c-0.7,0-1.3,0.6-1.3,1.3c0,0.7,0.6,1.3,1.3,1.3c0.1,0,0.2,0,0.3,0
							c0.7,0,1.3-0.6,1.3-1.3C82.8,137.1,82.2,136.5,81.4,136.5L81.4,136.5z"/>
					</g>
				</g>
				<g>
					<g>
						<path class="st2" d="M66.8,146.8c4.8,0,9.7,0,14.5,0c1.7,0,1.7-2.7,0-2.7c-4.8,0-9.7,0-14.5,0C65,144.1,65,146.8,66.8,146.8
							L66.8,146.8z"/>
					</g>
				</g>
				<g>
					<g>
						<path class="st2" d="M66.9,153.9c3.6,0,7,0,10.6,0c1.7,0,1.7-2.7,0-2.7c-3.6,0-7,0-10.6,0C65.2,151.2,65.2,153.9,66.9,153.9
							L66.9,153.9z"/>
					</g>
				</g>
			</g>
			<g id="secondary_buttons">
				<g>
					<g>
						<path class="st2" d="M143.8,55.6c-1.6,2.2-3.7,4.5-3.6,7.5c0.1,3,2.8,5.3,4.8,7c1.2,1.2,3.2-0.7,1.9-1.9
							c-1.7-1.5-4.4-3.5-3.9-6.1c0.4-2,2-3.7,3.2-5.3C147,55.5,144.7,54.1,143.8,55.6L143.8,55.6z"/>
					</g>
				</g>
				<g>
					<g>
						<path class="st2" d="M141.4,64.5c3.5,0,7,0,10.5,0c1.7,0,1.7-2.7,0-2.7c-3.5,0-7,0-10.5,0C139.7,61.9,139.7,64.5,141.4,64.5
							L141.4,64.5z"/>
					</g>
				</g>
				<g>
					<g>
						<path class="st2" d="M207.8,67.5c-5,6.1-14.2-2.2-10-8.3c3.1-4.5,9.7-3.8,11.7,1.2c0.6,1.6,3.2,0.9,2.6-0.7
							c-1.3-3.6-4.3-6.2-8.3-6.2c-3.6,0-7,2-8.7,5.2c-4.5,8.6,8,18.8,14.6,10.7C210.7,68,208.8,66.1,207.8,67.5L207.8,67.5z"/>
					</g>
				</g>
				<g>
					<g>
						<path class="st2" d="M205.3,60.4c1.7,1,4.5,3.6,6.6,2.5c1.1-0.5,1.2-1.7,1.5-2.8c0.4-1.3,0.8-2.8,1.2-4.1
							c0.5-1.7-2-2.3-2.6-0.7c-0.3,0.8-0.4,1.5-0.7,2.3c-0.2,0.5-0.4,2.2-0.8,2.6c-0.4,0.4,0.1,0.2-0.4,0.1
							c-0.4-0.1-0.8-0.4-1.2-0.7c-0.8-0.4-1.6-1-2.5-1.4C205.1,57.2,203.8,59.6,205.3,60.4L205.3,60.4z"/>
					</g>
				</g>
				<g>
					<g>
						<path class="st2" d="M173.9,56.9c1.2,1.6,2.8,3.3,3.2,5.3c0.4,2.6-2.2,4.5-3.9,6.1c-1.2,1.2,0.6,3,1.9,1.9c2-1.9,4.7-4,4.8-7
							c0.1-2.9-2-5.3-3.6-7.5C175.3,54.1,173,55.5,173.9,56.9L173.9,56.9z"/>
					</g>
				</g>
				<g>
					<g>
						<path class="st2" d="M178.6,61.9c-3.5,0-7,0-10.5,0c-1.7,0-1.7,2.7,0,2.7c3.5,0,7,0,10.5,0C180.3,64.5,180.3,61.9,178.6,61.9
							L178.6,61.9z"/>
					</g>
				</g>
			</g>
			<g id="main_sequence_buttons">
				<g>
					<g>
						<path class="st2" d="M78.4,62.5c-0.2-3.7-2.7-7.1-6.6-7.4c-4-0.3-7.4,2.8-7.9,6.8c-0.5,3.8,2,7.7,6,8.1
							C74.2,70.5,78.1,66.9,78.4,62.5c0.1-1.7-2.6-1.7-2.7,0c-0.1,2.8-3.1,5.5-6.1,4.7c-2.5-0.6-3.7-3.3-3.1-5.6
							c1.4-5.4,8.9-4.7,9.2,0.9C75.7,64.3,78.4,64.3,78.4,62.5z"/>
					</g>
				</g>
				<g>
					<g>
						<path class="st2" d="M89.6,58.1c6,0.3,4.5,9.2-0.7,9.2C82.9,67.2,84.4,58.4,89.6,58.1c1.7-0.1,1.7-2.8,0-2.7
							C81,55.9,79.4,69.9,88.9,70c3.8,0,6.7-3.3,7.2-6.9c0.6-4.4-2.2-7.4-6.5-7.7C87.9,55.4,87.9,58,89.6,58.1z"/>
					</g>
				</g>
				<g>
					<g>
						<path class="st2" d="M105.5,58.8c5.9-2.6,9.3,6.8,3.1,8.2c-1.7,0.4-3.7,0-4.9-1.3C102,63.4,103.3,60,105.5,58.8
							c1.5-0.9,0.2-3.1-1.3-2.3c-3.6,2-5.1,6.9-2.8,10.4c1.9,2.8,5.8,3.5,8.7,2.4c3.6-1.3,5.4-5.4,4-9c-1.6-4.2-6.1-5.6-10.1-3.8
							C102.6,57.2,104,59.4,105.5,58.8z"/>
					</g>
				</g>
			</g>
			<g id="frame">
				<g>
					<g>
						<path class="st2" d="M48.7,81c63.7,0,127.6,0,191.3,0c1.7,0,1.7-2.7,0-2.7c-63.7,0-127.6,0-191.3,0C47,78.3,47,81,48.7,81
							L48.7,81z"/>
					</g>
				</g>
				<path class="st4" d="M230,170.1H58.2c-5.9,0-10.7-4.8-10.7-10.7V56.2c0-5.9,4.8-10.7,10.7-10.7H230c5.9,0,10.7,4.8,10.7,10.7
					v103.3C240.7,165.3,235.9,170.1,230,170.1z"/>
			</g>
		</g>
	</g>
</g>
</svg>
