<?xml version="1.0" encoding="utf-8"?>
<!-- Generator: Adobe Illustrator 22.1.0, SVG Export Plug-In . SVG Version: 6.00 Build 0)  -->
<svg version="1.1" id="Layer_1" xmlns="http://www.w3.org/2000/svg" xmlns:xlink="http://www.w3.org/1999/xlink" x="0px" y="0px"
	 viewBox="0 0 834 1197" style="enable-background:new 0 0 834 1197;" xml:space="preserve">
<style type="text/css">
	.st0{opacity:0.3;}
	.st1{fill:url(#SVGID_1_);}
	.st2{fill:url(#SVGID_2_);}
	.st3{opacity:0.2;}
	.st4{fill:url(#SVGID_3_);}
	.st5{fill:url(#SVGID_4_);}
	.st6{fill:url(#SVGID_5_);}
	.st7{fill:url(#SVGID_6_);}
	.st8{fill:none;stroke:#FFFFFF;stroke-width:10;stroke-linecap:round;stroke-miterlimit:10;}
	.st9{fill:none;stroke:#FFFFFF;stroke-width:10;stroke-linecap:round;stroke-miterlimit:10;stroke-dasharray:15.5185,21.5535;}
	.st10{fill:none;stroke:#FFFFFF;stroke-width:10;stroke-linecap:round;stroke-miterlimit:10;stroke-dasharray:18.1593,25.2213;}
	.st11{fill:none;stroke:#FFFFFF;stroke-width:10;stroke-linecap:round;stroke-miterlimit:10;stroke-dasharray:19.2796,26.7772;}
	.st12{fill:none;stroke:#FFFFFF;stroke-width:10;stroke-linecap:round;stroke-miterlimit:10;stroke-dasharray:19.1756,26.6327;}
	.st13{fill:url(#SVGID_7_);}
	.st14{fill:url(#SVGID_8_);}
	.st15{fill:url(#SVGID_9_);}
	.st16{fill:url(#SVGID_10_);}
	.st17{fill:url(#SVGID_11_);}
	.st18{fill:url(#SVGID_12_);}
	.st19{fill:url(#SVGID_13_);}
	.st20{fill:url(#SVGID_14_);}
	.st21{fill:url(#SVGID_15_);}
	.st22{fill:none;}
	.st23{fill:url(#SVGID_16_);}
	.st24{fill:#18A3C6;stroke:#FFFFFF;stroke-width:1.1918;stroke-miterlimit:10;}
	.st25{fill:#FFFFFF;}
	.st26{fill:none;stroke:#FFFFFF;stroke-width:2.871;stroke-miterlimit:10;}
	.st27{fill:none;stroke:#FFFFFF;stroke-width:0.5742;stroke-miterlimit:10;}
	.st28{fill:none;stroke:#FFFFFF;stroke-width:1.7226;stroke-miterlimit:10;}
</style>
<g id="Layer_1_1_">
</g>
<g id="CLOUDS">
  <a xlink:href="#" target="_top">
    <g id="XMLID_4_" class="st0">
    
      <g>
          <linearGradient id="SVGID_1_" gradientUnits="userSpaceOnUse" x1="312.1154" y1="668.1704" x2="568.2088" y2="668.1704" gradientTransform="matrix(1 0 0 -1 0 1198)">
          <stop  offset="0" style="stop-color:#FFFFFF"/>
          <stop  offset="0.9987" style="stop-color:#A5A5A5"/>
        </linearGradient>
        <path class="st1" d="M543.2,468.5c36.6,21.2,34.8,88-17.2,88.5c-7,0.1-15.6-3.3-16.3-10c0-0.3,0-0.6-0.1-1c0,0.3,0,0.7,0.1,1
          c1,19-8,38.5-22.7,50.6c-14.8,12.2-36.2,16.3-54,9.3s-30.9-25.4-30.5-44.6c-22.9,17.7-59.3,14.4-78.6-7.1
          c-12.7-14.1-16.9-38-3.7-51.7c12.1-12.5,32.1-11.3,49.3-9.2c-4.6-7,0.9-17.3,9-19.5c10.9-2.9,16.2,4.4,22.7,11.4
          c-1.2-7.4,1.1-15.1,5.7-21.1c4.5-6,11-10.2,18-12.8c25.4-9.4,48.6,4.5,55.8,29.6c6.1-11.3,20-18.4,32.5-19.6
          c3.5-0.4,7-0.3,10.5,0C531,463.1,537.5,465.3,543.2,468.5z"/>
        
          <linearGradient id="SVGID_2_" gradientUnits="userSpaceOnUse" x1="509.61" y1="651.5" x2="509.66" y2="651.5" gradientTransform="matrix(1 0 0 -1 0 1198)">
          <stop  offset="0" style="stop-color:#FFFFFF"/>
          <stop  offset="0.9987" style="stop-color:#A5A5A5"/>
        </linearGradient>
        <path class="st2" d="M509.6,546c0,0.3,0,0.6,0.1,1C509.6,546.7,509.6,546.4,509.6,546z"/>
      </g>
    </g>
  </a>
  <a xlink:href="#" target="_top">
    <g id="XMLID_5_" class="st3">
      <g>
        
          <linearGradient id="SVGID_3_" gradientUnits="userSpaceOnUse" x1="142.1753" y1="465.5179" x2="456.2979" y2="465.5179" gradientTransform="matrix(1 0 0 -1 0 1198)">
          <stop  offset="0" style="stop-color:#FFFFFF"/>
          <stop  offset="0.9987" style="stop-color:#A5A5A5"/>
        </linearGradient>
        <path class="st4" d="M423.8,671.5c24.9,14.1,39.4,46.4,29.2,73.1c-6.5,17-21.9,29.8-39.3,35.1s-36.5,3.4-53.4-3.1
          c-5.2,10.9-15.1,20.7-27.2,21.5s-24.6-10.9-21.3-22.5c-3.7,10.5-7.6,21.1-14.2,30s-16.7,15.9-27.8,16.3
          c-7.2,0.2-14.2-2.4-20.4-5.9c-21.6-12.3-35.3-40-26.3-63.2c-12.5,11.2-30.1,16.4-46.7,13.7c-7.4-1.2-14.7-4-20.6-8.8
          c-16.1-12.9-18.1-39.4-5.1-55.4c12.9-16.1,37.9-20.2,56.1-10.5c-0.2-12.7,8.2-25,20-29.4c11.8-4.5,26.3-0.7,34.4,9
          c5-16.9,22.4-29.2,40-28.3c25,1.3,30.8,18.5,34,39.3C352.9,657,400.1,658.1,423.8,671.5z"/>
      </g>
   
    </g>
  </a>
  <a xlink:href="#" target="_top">
    <g id="XMLID_6_" class="st3">
      <g>
        
          <linearGradient id="SVGID_4_" gradientUnits="userSpaceOnUse" x1="503.6039" y1="398.4559" x2="797.5821" y2="398.4559" gradientTransform="matrix(1 0 0 -1 0 1198)">
          <stop  offset="0" style="stop-color:#FFFFFF"/>
          <stop  offset="0.9987" style="stop-color:#A5A5A5"/>
        </linearGradient>
        <path class="st5" d="M765.4,753.4c19.8,10.9,36.9,33.1,31,56.7c-4.8,18.9-25.8,32.9-44.6,27.7c4,18.2-9.4,37.8-27.5,42.3
          c-18.1,4.4-38.2-5.6-47.1-21.9c-2.9,5.8-9.3,9.7-15.8,9.6s-12.8-4.2-15.5-10.1c-5.2,17.5-22.6,31.3-40.9,30.3
          c-18.3-1-34.6-18.4-32.7-36.6c-13.6,5.8-29.5,2.4-42.6-4.2c-11.3-5.7-22-14.5-25.2-26.7c-3.4-13,3.2-27.5,14.3-35
          s25.8-8.6,38.7-4.6c0.9-12.2,5.8-25.2,16.5-31.1c10.7-5.9,27.4-0.1,28.5,12.1c5.2-15.5,14-30.1,27.1-39.8s30.7-14,46.2-8.9
          c20.3,6.7,33.8,25.1,34.4,46.2C728.4,752.3,746.7,743.1,765.4,753.4z"/>
      </g>
    </g>
  </a>
  <a xlink:href="#" target="_top">
    <g id="XMLID_7_" class="st3">
      <g>
        
          <linearGradient id="SVGID_5_" gradientUnits="userSpaceOnUse" x1="7.7357" y1="180.7431" x2="349.4129" y2="180.7431" gradientTransform="matrix(1 0 0 -1 0 1198)">
          <stop  offset="0" style="stop-color:#FFFFFF"/>
          <stop  offset="0.9987" style="stop-color:#A5A5A5"/>
        </linearGradient>
        <path class="st6" d="M349.4,1032.8c0.6,23.6-19.8,44.4-42.9,49.3s-47.4-3.3-66.9-16.8c-3.5,6.2-8.5,12.2-15.4,13.8
          c-6.9,1.7-15.5-3.2-15.2-10.3c-2,23.4-26.5,42.4-49.7,38.4s-39.9-30.1-33.9-52.8c-22.8,12.3-49.9,16.2-75.3,11.1
          c-16-3.3-32.6-11.3-39.4-26.2c-9-19.7,3.6-44.3,22.9-54.2s42.6-8,63.4-1.8c0.1-11.5,0.5-23.3,5.2-33.8
          c4.6-10.5,14.6-19.5,26.1-19.5c15.3,0,21.5,10.7,27.2,22.8c0.4,0.9,0.9,1.8,1.8,2.2c1.5,0.5,2.8-0.9,3.7-2.1
          c15.7-21.6,38-31.5,65.5-23.2c23.1,7,41.1,28.6,43.8,52.6c17.5-1.9,35.9-0.1,51.4,8.5C337.1,999.2,348.9,1015.2,349.4,1032.8z"/>
      </g>
    </g>
  </a>
  <a xlink:href="#" target="_top">
    <g id="XMLID_8_" class="st3">
      <g>
        
          <linearGradient id="SVGID_6_" gradientUnits="userSpaceOnUse" x1="504.7529" y1="90.789" x2="822.1299" y2="90.789" gradientTransform="matrix(1 0 0 -1 0 1198)">
          <stop  offset="0" style="stop-color:#FFFFFF"/>
          <stop  offset="0.9987" style="stop-color:#A5A5A5"/>
        </linearGradient>
        <path class="st7" d="M820.2,1096.2c5.5,14.2-1.3,31.1-13.5,40.2s-28.4,11.2-43.4,9c-2.7-0.4-5.5-0.9-8.1-0.1
          c-2.8,0.9-4.8,3.2-6.8,5.5c-17.9,20.3-42.1,38.5-69.1,37c-20.9-1.1-40.6-15.1-48.6-34.5c1.7,4.1-26,17.3-29.3,18.5
          c-10.7,4.1-22.4,6-33.9,4.9c-23.9-2.3-51.5-7.4-60.8-33.1c-1.7-4.6-2.1-9.7-1.9-14.6c0.8-17.3,8.8-30.1,22.2-35.9
          c4.8-2.1,10.3-3.2,16.3-3.4c3.8-0.1,8.2,0.1,10.5,3.1c-3.4-4.6,10.9-17.4,14.3-18.6c4-1.3,8.3-1.4,12.5-1.4
          c8-0.1,17.4,0.6,21.9,7.3c4.5-21.4,14.1-40.8,35.1-50c15.7-6.9,35-3.4,48.4,7.2s21.1,27.7,21.9,44.8c3.8-8.8,13.1-14.8,22.6-14.8
          s18.8,6.1,22.6,14.8c11.6-5.5,24.4-9.2,37.1-7.5C803.2,1076.5,815.5,1084.3,820.2,1096.2z"/>
      </g>
    </g>
  </a>
</g>
<g id="Dotted_Lines">
	<g>
		<g>
			<path class="st8" d="M450,398c-0.2,3.8-0.3,6.7-0.3,9"/>
			<path class="st8" d="M450.3,424c0,2.3-0.1,5.2-0.3,9"/>
		</g>
	</g>
	<g>
		<g>
			<path class="st8" d="M399,598c-1.8,2.5-3.7,4.8-5.7,7"/>
			<path class="st9" d="M377.5,619.5c-7.7,6.2-15.1,11.5-20.2,16.8"/>
			<path class="st8" d="M351.2,645.2c-1,2.8-1.2,5.7-0.2,8.8"/>
		</g>
	</g>
	<g>
		<g>
			<path class="st8" d="M473,730c2.2,1.2,5.1,2,8.6,2.3"/>
			<path class="st10" d="M506.7,730.6c23.3-3.6,52.5-11,73-12.7"/>
			<path class="st8" d="M592.4,717.7c3.5,0.3,6.5,1.1,8.6,2.3"/>
		</g>
	</g>
	<g>
		<g>
			<path class="st8" d="M554,901c-1.3,1.4-4.3,2.2-8.4,2.8"/>
			<path class="st11" d="M518.9,905.2c-27.1,1-63.5,3.5-86.9,21.8c-25.2,19.7-87.8,24.6-121.4,29"/>
			<path class="st8" d="M297.4,958.1c-4.4,0.9-7.4,1.8-8.4,2.9"/>
		</g>
	</g>
	<g>
		<g>
			<path class="st8" d="M375,1040c2.9-1,5.9-1.5,8.8-1.5"/>
			<path class="st12" d="M409.5,1044.8c11.4,4.7,22.5,10.2,32.5,10.2c28.9,0,99.3-30.6,133.1-17.8"/>
			<path class="st8" d="M586.2,1044.5c2,2.1,3.6,4.6,4.8,7.5"/>
		</g>
	</g>
</g>
<g id="ROCKET">
	<g id="XMLID_3_">
		<g>
			
				<linearGradient id="SVGID_7_" gradientUnits="userSpaceOnUse" x1="508" y1="1021.8" x2="551.4097" y2="1021.8" gradientTransform="matrix(1 0 0 -1 0 1198)">
				<stop  offset="0" style="stop-color:#CC4645"/>
				<stop  offset="1" style="stop-color:#AB3428"/>
			</linearGradient>
			<path class="st13" d="M511.1,146.6c0-3.1-0.1-6.2-0.3-9.3c-0.3-5.9-0.8-11.7-1.5-17.6h0.3c2.2,13,12.9,18.9,21.6,27.3
				c10.9,10.5,16.7,25.4,18.9,40.4s1.2,30.2,0.1,45.3c-9.7-17-24.6-31.1-42.2-39.9c1-7.2,1.8-14.4,2.3-21.6
				C510.9,163,511.2,154.8,511.1,146.6z"/>
			
				<linearGradient id="SVGID_8_" gradientUnits="userSpaceOnUse" x1="407.4586" y1="1030.5463" x2="511.0127" y2="1030.5463" gradientTransform="matrix(1 0 0 -1 0 1198)">
				<stop  offset="0" style="stop-color:#18A3C6"/>
				<stop  offset="0.9987" style="stop-color:#2D728F"/>
			</linearGradient>
			<path class="st14" d="M511.1,146.6c0.1,8.2-0.1,16.4-0.7,24.6h-0.1C482,193,439,194,409.6,174l-1.4,0.1
				c-0.3-3.4-0.4-6.9-0.6-10.3c-0.1-3.8-0.2-7.5-0.1-11.2h2c19.3,7.8,38.1,13.3,59.2,12.1c7.4-0.4,15-3.4,21.9-6
				C498.2,156,505.2,152,511.1,146.6z"/>
			
				<linearGradient id="SVGID_9_" gradientUnits="userSpaceOnUse" x1="407.6" y1="1088.4678" x2="511.1" y2="1088.4678" gradientTransform="matrix(1 0 0 -1 0 1198)">
				<stop  offset="0" style="stop-color:#18A3C6"/>
				<stop  offset="0.9987" style="stop-color:#2D728F"/>
			</linearGradient>
			<path class="st15" d="M510.8,137.3c0.2,3.1,0.2,6.2,0.3,9.3c-5.9,5.4-12.9,9.4-20.4,12.2c-7,2.5-14.5,5.6-21.9,6
				c-21,1.2-39.8-4.3-59.2-12.1h-2c0.1-7.6,0.5-15.2,1.2-22.8c2.2-22.8,7.3-45.2,15.2-66.7l0,0c0.6-0.3,18.8-9.1,37-9.1
				c17.3,0,33.3,10,35.3,11.4c6.5,17.5,10.8,35.8,13,54.4C510,125.6,510.5,131.4,510.8,137.3z"/>
			
				<linearGradient id="SVGID_10_" gradientUnits="userSpaceOnUse" x1="408.2" y1="984.0743" x2="510.3" y2="984.0743" gradientTransform="matrix(1 0 0 -1 0 1198)">
				<stop  offset="0" style="stop-color:#18A3C6"/>
				<stop  offset="0.9987" style="stop-color:#2D728F"/>
			</linearGradient>
			<path class="st16" d="M508,192.8c-0.4,2.6-0.8,5.2-1.2,7.8c-1.8,10.7-5,21.4-7.9,31.9c-3.2,11.8-4.3,29.6-20,22.2
				c-6.7-3.2-14.9-4.9-22.2-4.5c-4.7,0.3-9.3,1.5-13.9,2.8c-9,2.6-14.5,7.3-18.9-2.4c-2.6-5.6-2.9-12-4.7-17.8
				c-3.1-10-5.5-20.2-7.4-30.4c-1.7-9.3-2.9-18.7-3.6-28.1l1.4-0.1c29.4,20,72.4,19,100.6-2.8h0.1C509.8,178.4,509,185.6,508,192.8z
				"/>
			
				<linearGradient id="SVGID_11_" gradientUnits="userSpaceOnUse" x1="424" y1="1144.6" x2="496.3" y2="1144.6" gradientTransform="matrix(1 0 0 -1 0 1198)">
				<stop  offset="0" style="stop-color:#18A3C6"/>
				<stop  offset="0.9987" style="stop-color:#2D728F"/>
			</linearGradient>
			<path class="st17" d="M494.5,60.7c0.6,1.5,1.2,3.1,1.8,4.6c-2-1.3-18-11.4-35.3-11.4c-18.2,0-36.4,8.8-37,9.1l3.2-8.1
				c0-0.1,0.1-0.2,0.1-0.2c0.5-1.1,0.9-2.2,1.4-3.3c11-8.9,22.9-9.9,32.9-9.9c9.8,0,17.7,2.9,29.4,10.6
				C492.2,55,493.4,57.8,494.5,60.7z"/>
			
				<linearGradient id="SVGID_12_" gradientUnits="userSpaceOnUse" x1="428.6" y1="1167.3169" x2="490.9" y2="1167.3169" gradientTransform="matrix(1 0 0 -1 0 1198)">
				<stop  offset="0" style="stop-color:#CC4645"/>
				<stop  offset="1" style="stop-color:#AB3428"/>
			</linearGradient>
			<path class="st18" d="M472.6,19c7.1,10.5,13.2,21.6,18.3,33.1c-11.7-7.7-19.6-10.6-29.4-10.6c-10,0-21.9,1-32.9,9.9
				c3.2-7.6,6.9-15.1,10.8-22.4C447.9,13.6,459.2-1,472.6,19z"/>
			
				<linearGradient id="SVGID_13_" gradientUnits="userSpaceOnUse" x1="423.98" y1="1138.95" x2="427.14" y2="1138.95" gradientTransform="matrix(1 0 0 -1 0 1198)">
				<stop  offset="0" style="stop-color:#18A3C6"/>
				<stop  offset="0.9987" style="stop-color:#2D728F"/>
			</linearGradient>
			<path class="st19" d="M427.1,55l-3.2,8.1l0,0C425,60.4,426,57.7,427.1,55z"/>
			
				<linearGradient id="SVGID_14_" gradientUnits="userSpaceOnUse" x1="366.2904" y1="1011.95" x2="411.8" y2="1011.95" gradientTransform="matrix(1 0 0 -1 0 1198)">
				<stop  offset="0" style="stop-color:#CC4645"/>
				<stop  offset="1" style="stop-color:#AB3428"/>
			</linearGradient>
			<path class="st20" d="M408.2,174.1c0.7,9.4,1.9,18.8,3.6,28.1l-1.4,0.2c-17.9,8.8-33,23-42.9,40.2c-1.1-15.1-2.1-30.3,0.1-45.3
				s8-29.9,18.9-40.4c8.7-8.4,19.4-14.4,21.6-27.4l0.6,0.1c-0.7,7.6-1.1,15.2-1.2,22.8c0,3.8,0,7.5,0.1,11.2
				C407.8,167.3,408,170.7,408.2,174.1z"/>
		</g>
	</g>
	<g id="XMLID_2_">
		<g>
			
				<linearGradient id="SVGID_15_" gradientUnits="userSpaceOnUse" x1="407.1" y1="877.1166" x2="499.8409" y2="877.1166" gradientTransform="matrix(1 0 0 -1 0 1198)">
				<stop  offset="0" style="stop-color:#FFDA3F"/>
				<stop  offset="1" style="stop-color:#F8991D"/>
			</linearGradient>
			<path class="st21" d="M499.3,305.9c0.6,6.4,1.1,12.7-0.8,18.8c-1.1,3.5-2.6,6.8-4.2,10.1c-1,2-4.6,6.2-4.7,8.3
				c0.1-7.2-1-14.5-3.3-21.4c-1.6-4.7-4-9.5-8.5-11.7c0.9,7.2-1,14-1,21.1c0,6.3-1.7,12.6-3.8,18.5c-2.3,6.4-5.4,12.5-9.3,18
				c-1.9,2.7-4,5.2-6.2,7.6c-1.5,1.6-6.1,4.4-6.7,6.3c2.4-6.8,3.8-14.4,1.3-21.3c-2.9-8-9.9-13.9-13.4-21.7
				c-3.5-7.8,2.5-16.7-2.5-24.3c-2.5,6-6,11.6-10.9,15.9c-4.5,3.9-12.1,7.8-18.2,6.2c3.9-3.3,6.8-4.6,9.1-9.7
				c2.7-5.9,3.7-12.5,4.4-19c0.9-9.5,0.7-21.3,6.2-29.6c4.9-7.4,13.1-13.3,21.4-16.2c9.7-3.4,17-0.6,26,3.1
				C489.4,271.2,497.7,290.4,499.3,305.9z"/>
		</g>
		<g>
			<path class="st22" d="M499.3,305.9c-1.6-15.5-9.9-34.6-25.2-40.8c-9.1-3.7-16.3-6.5-26-3.1c-8.3,2.9-16.5,8.9-21.4,16.2
				c-5.5,8.3-5.2,20-6.2,29.6c-0.6,6.4-1.7,13-4.4,19c-2.3,5.1-5.2,6.4-9.1,9.7c6.1,1.6,13.7-2.4,18.2-6.2
				c4.9-4.2,8.4-9.9,10.9-15.9c5,7.6-1,16.5,2.5,24.3c3.4,7.8,10.5,13.6,13.4,21.7c2.4,6.8,1,14.4-1.3,21.3c0.6-1.9,5.2-4.7,6.7-6.3
				c2.2-2.4,4.3-5,6.2-7.6c3.9-5.5,7-11.6,9.3-18c2.1-5.9,3.8-12.2,3.8-18.5c0-7.1,2-13.9,1-21.1c4.5,2.1,6.9,7,8.5,11.7
				c2.3,6.9,3.4,14.1,3.3,21.4c0-2.1,3.7-6.3,4.7-8.3c1.6-3.2,3.1-6.6,4.2-10.1C500.4,318.5,499.9,312.2,499.3,305.9z"/>
		</g>
	</g>
	<g id="XMLID_1_">
		<g>
			
				<linearGradient id="SVGID_16_" gradientUnits="userSpaceOnUse" x1="447.1694" y1="971.1544" x2="472.7457" y2="971.1544" gradientTransform="matrix(1 0 0 -1 0 1198)">
				<stop  offset="0" style="stop-color:#CC4645"/>
				<stop  offset="1" style="stop-color:#AB3428"/>
			</linearGradient>
			<path class="st23" d="M472.7,193.5c0.2,2.8-0.1,5.5-0.4,8.3c-0.1,1.3-0.3,2.6-0.4,4c-1.1,10.7-1.5,21.1-3.1,31.8
				c-1,6.9-2.1,13.8-3.3,20.7c-0.5,2.8-1,5.6-1.6,8.4c-0.5,2.2-0.4,7.3-2,9.1c-3.4,3.6-4.8-1.6-5.6-4.1c-1.8-5.9-1.8-12-2.8-17.9
				c-3.5-19.6-6.2-39.8-6.2-59.7c0-3.4,0.1-6.9,1.5-10.2c3.1-7.2,12.8-10.2,19-3.5C471,184,472.4,189,472.7,193.5z"/>
		</g>
	</g>
	<g id="YONDER_LOGO">
		<circle class="st24" cx="460" cy="120" r="32.2"/>
		<g>
			<polygon class="st25" points="477.9,105.2 471.8,105.2 461.7,121.6 461.7,142.5 467.9,136.5 467.8,125.2 479.4,106.4 			"/>
			<polygon class="st25" points="442.7,105.2 448.8,105.2 458.9,121.6 458.9,142.5 452.8,136.5 452.8,125.2 441.2,106.4 			"/>
			<polygon class="st25" points="465.7,110.7 455,110.7 460.3,119.6 			"/>
		</g>
	</g>
</g>
<a xlink:href="#" target="_top">
<g id="SCIENCE">
	<g>
		<g>
			<path class="st25" d="M182.3,886.7c3.6,0.2,9.3-0.3,12.5,1.4c3.8,2.1,1.9,5.6,0.3,8.3c-2.7,4.6-6.4,8.1-6.7,13.7
				c-0.4,6.2,0.8,13,1.3,19.2c0.6,6.6,3.2,11.3,6.9,16.8c8.4,12.1,18.3,22.9,27,34.8c2,2.8,4,5.6,5.6,8.7c2.7,5.3,1.6,9.6-2.7,13.6
				c-5.9,5.4-14.2,7.9-21.9,9.5c-14.3,2.9-29.6,4.2-44.2,3c-9.9-0.8-22.1-2.4-30.1-9.1c-11.5-9.6,2.6-23,8.1-31.8
				c3.7-5.8,7.2-11.7,11-17.3c3.7-5.4,7.9-10.4,10.3-16.6c2.5-6.5,3.3-14,3.3-20.9c0-5.7-0.8-12.1-4.4-16.7
				c-1.5-1.9-3.2-2.9-5.2-4.2c-2.1-1.4-5.4-3.3-3.1-7c1-1.5,3.9-2,5.5-2.5C164.5,887.3,173.4,886.5,182.3,886.7c1.6,0,1.6-2.5,0-2.5
				c-8.2-0.3-16.4,0.5-24.4,2.4c-3.8,0.9-10.3,2.1-10.7,7.1s4.7,6.8,7.8,9.5c7.1,5.9,5.9,17.5,5,25.6c-1,8.4-3.9,15.2-8.9,22.1
				c-5.3,7.3-10,15-14.8,22.7c-4,6.3-9.9,12.5-12.3,19.6c-1.3,3.8-1,8,1.2,11.4c5,7.9,16.5,10.8,25.1,12.3
				c16.4,2.8,32.9,1.7,49.2-0.7c10.9-1.7,31.5-5.9,33.9-19.5c1.2-6.6-4.9-13.6-8.6-18.4c-5-6.6-10.3-12.9-15.5-19.4
				c-3.4-4.3-6.8-8.7-9.9-13.2c-2.7-3.9-5.6-7.8-6.6-12.5c-1.1-5.2-1-10.8-1.4-16.1c-0.4-5.4-0.6-9.6,2.4-14.3
				c2.4-3.7,6.8-8.4,5.8-13.3c-1.3-6-12.8-5.1-17.2-5.3C180.7,884.1,180.7,886.6,182.3,886.7z"/>
		</g>
	</g>
	<g>
		<g>
			<path class="st25" d="M180.3,936.5c2.2-1,3.7-3.8,3.5-6.2c-0.3-3.6-4-4.4-7-3.6c-3.1,0.8-5.2,3.5-3.7,6.6
				c1.2,2.5,4.1,4.2,6.9,3.3c1.5-0.5,0.9-2.9-0.7-2.4c-1.5,0.5-3.1-0.5-3.9-1.9c-1-2,0.8-3,2.5-3.3s3.5,0.1,3.3,2.2
				c-0.2,1.3-1,2.6-2.3,3.2S178.8,937.1,180.3,936.5z"/>
		</g>
	</g>
	<g>
		<g>
			<path class="st25" d="M175.9,913.6c2.1-1.5,3.1-4.1,2.2-6.6c-0.9-2.5-3.7-3.6-6.2-2.7c-2.6,1-4.5,4.2-3.9,7
				C168.9,915.1,173.1,915.3,175.9,913.6c1.4-0.8,0.1-3-1.3-2.2c-1.6,1-4.3,1.2-4.1-1.4c0.1-1.5,1.3-3.1,2.8-3.4
				c3-0.6,3.4,3.4,1.4,4.9C173.3,912.4,174.6,914.6,175.9,913.6z"/>
		</g>
	</g>
	<g>
		<g>
			<path class="st25" d="M178.8,891.6c-1.5,1.7-2.1,4.2-0.2,5.9c1.7,1.6,4.4,1.6,6.3,0.5c3.3-1.8,2.4-6.1-0.7-7.5
				C182.4,889.6,180.3,890.2,178.8,891.6c-1.1,1.1,0.6,2.9,1.8,1.8c0.7-0.7,1.7-1.1,2.6-0.6c0.8,0.4,1.5,1.2,1.4,2
				c-0.3,2.5-6.8,1.6-4-1.4C181.7,892.2,179.9,890.4,178.8,891.6z"/>
		</g>
	</g>
	<g>
		<g>
			<path class="st25" d="M164.7,868c1.5-2.6,1.1-6.1-1.3-8.1c-2.6-2-6.3-0.9-8.2,1.5c-2.1,2.5-1.9,6.3,1,8.3
				C159,871.5,162.8,870.6,164.7,868c1-1.3-1.2-2.6-2.2-1.3c-1.1,1.5-3.6,2-5.1,0.7c-1.6-1.3-1.3-3.5,0.1-4.9
				c1.2-1.2,3.3-1.8,4.6-0.5c1.2,1.2,1.2,3.2,0.4,4.6C161.7,868.1,163.9,869.3,164.7,868z"/>
		</g>
	</g>
	<g>
		<g>
			<path class="st25" d="M221.9,1000.6c11.1-12.2-8.9-18.9-18.2-21.2c-15-3.7-31.8-2.6-46.9,0.2c-8.4,1.6-28.3,8-24.8,20.2
				c1.5,5,8.8,7.8,13.2,9.4c7.7,2.7,16.1,3.2,24.1,3.3C186.1,1012.7,208.5,1012.2,221.9,1000.6c1.2-1.1-0.6-2.8-1.8-1.8
				c-12,10.4-32,11-47,11.2c-8,0.1-16.4-0.1-24.1-2.2c-4-1.1-7.9-2.8-11.4-5.2c-4.7-3.3-3.8-7.7-0.1-11.5
				c10.4-10.5,29.3-10.9,43.1-11.3c7.8-0.2,15.6,0.3,23.2,2.2c3.9,1,7.6,2.5,11.3,4.2c1.3,0.6,2.6,1.1,3.8,1.9
				c4.6,2.8,4.5,7.1,1.2,10.7C219,1000,220.8,1001.8,221.9,1000.6z"/>
		</g>
	</g>
	<g>
		<g>
			<path class="st25" d="M189.9,957.6c5.8-2.9,8-9.1,1.1-12.3c-8-3.6-19.4-2.5-26.9,1.7c-5.2,2.9-8,7.9-1.6,11.2
				c7.7,4,19.3,2.4,27.1-0.5c1.5-0.6,0.8-3-0.7-2.4c-4.7,1.8-9.9,2.7-14.9,2.6c-2.7,0-5.6-0.3-8.2-1.1c-3.4-1-5.4-4.3-1.7-6.9
				c4.1-2.8,9.9-4,14.8-4.1c3-0.1,6,0.2,8.9,1.1c2.4,0.7,3,0.8,3.9,3.4c1.3,1.5,1.1,2.6-0.5,3.3c-0.7,0.9-1.6,1.5-2.7,1.8
				C187.2,956.1,188.4,958.3,189.9,957.6z"/>
		</g>
	</g>
	<g>
		<g>
			<path class="st25" d="M134.2,995c4.2-7.6,9.6-15,14.6-22.1c4.9-7,8.7-14.8,13.9-21.5c1-1.3-1.2-2.5-2.2-1.3
				c-5.2,6.7-9,14.6-13.9,21.5c-5.1,7.1-10.4,14.5-14.6,22.1C131.3,995.1,133.4,996.4,134.2,995L134.2,995z"/>
		</g>
	</g>
	<g>
		<g>
			<path class="st25" d="M192.3,949.1c7.8,14.7,18,27.5,28.6,40.3c1,1.2,2.8-0.5,1.8-1.8c-10.5-12.6-20.4-25.3-28.2-39.8
				C193.7,946.4,191.6,947.7,192.3,949.1L192.3,949.1z"/>
		</g>
	</g>
	<g>
		<g>
			<path class="st25" d="M183.4,972.2c1.2-1.6,1.8-3.7,0-5.1c-1.4-1.1-3.4-1.3-5.1-0.8c-1.9,0.6-3.1,2.2-2.8,4.2
				C176.1,974.1,181.1,974.7,183.4,972.2c1.1-1.2-0.7-3-1.8-1.8c-1,1.2-4,1.1-3.6-0.8c0.1-0.3,0.2-0.5,0.4-0.6
				c0.3-0.3,0.7-0.4,1.2-0.4c0.7-0.1,1.6,0,2.2,0.4c0.1,0.1,0.3,0.3,0.3,0.3c0,0.3-0.2,0.7-0.5,1.1
				C180.6,971.7,182.4,973.5,183.4,972.2z"/>
		</g>
	</g>
	<g>
		<g>
			<path class="st25" d="M173.1,992.7c1.4-2.3,1.6-6.9-1.7-7.6c-1.9-0.4-4.3,0.8-5.4,2.3c-1.3,1.8-0.8,4.4,0.9,5.8
				C168.9,995,171.5,995,173.1,992.7c0.9-1.3-1.3-2.6-2.2-1.3s-2.7,0.2-3.1-1c-0.6-1.5,1.2-2.7,2.5-2.9c0.4-0.1,0.6,0,0.7,0.1
				c0.3,0.2,0.4,0.5,0.5,1c0.2,0.9-0.1,2-0.6,2.8C170.1,992.8,172.2,994.1,173.1,992.7z"/>
		</g>
	</g>
	<g>
		<g>
			<path class="st25" d="M182.5,988.9c1.7-0.2,3-1.3,3-3.2c-0.1-1.6-1.2-3.1-2.7-3.5c-1.9-0.5-4.2,0.7-4.3,2.8
				S180.4,988.9,182.5,988.9c1.6,0,1.6-2.5,0-2.5c-0.6,0-1.7-0.6-1.5-1.3c0.1-0.4,1-0.4,1.2-0.4c0.3,0.1,0.4,0.3,0.5,0.4
				c0.1,0.2,0.1,0.2,0.2,0.3c0,0,0.1,0.5,0.1,0.3c0.1,0.4,0,0.6-0.4,0.6c-0.7,0.1-1.3,0.5-1.3,1.3
				C181.2,988.2,181.8,988.9,182.5,988.9z"/>
		</g>
	</g>
</g>
</a>
<a xlink:href="#" target="_top">
<g id="MOTIONS">
	<g id="outer_4_">
		<path class="st25" d="M619.3,735.7c1.3,0,2,0.3,2.7,2.7c1.3,4.7,2.6,5.8,8.3,6.6c1.6,0.3,3,0.4,4.1,0.4c3.9,0,5.3-1.7,6.5-3.1
			c0.1-0.1,0.2-0.3,0.4-0.5c0.1-0.2,0.3-0.3,0.4-0.5c0.9-1.2,1.7-2.1,2.6-2.1c0.5,0,1.7,0.3,3.7,2.2c2.5,2.4,2.9,3.8,2.9,4.4
			c0,0.7-0.6,1.4-1.4,2.1c-3.6,3.2-2.7,7.5-1.4,11.4c1.9,5.5,4.6,6.5,6.9,6.9h0.2c0.7,0.2,1.4,0.2,2.1,0.3c0.8,0.1,1.9,0.1,2.1,0.4
			c0.1,0.1,0.6,0.8,0.2,3.9c-0.7,5.3-2,5.3-2.9,5.3c-0.6,0-1.4-0.1-2.3-0.3c-1-0.2-1.8-0.3-2.6-0.3c-3.4,0-4.9,2-7,4.9l-0.2,0.3
			l-0.2,0.2c-2.6,3.1-3.8,5-2.2,9.9c0.1,0.4,0.3,0.9,0.4,1.3c0.4,1.1,0.7,2.1,0.6,2.6c-0.1,0.3-0.7,1.3-4.2,2.6
			c-1.8,0.7-2.9,0.8-3.5,0.8c-1.2,0-1.5-0.3-2.2-2.3c-0.1-0.3-0.2-0.7-0.3-0.9c-1.2-3.3-2.7-4.8-8.7-5.9c-1.8-0.3-3.1-0.5-4.3-0.5
			c-3.4,0-5.1,1.4-6.5,3.5c-0.1,0.1-0.2,0.2-0.3,0.4c-0.7,1.2-1.4,1.9-2.3,1.9c-1,0-2.4-0.7-3.9-2c-2.7-2.2-3-3.5-3.1-4
			c0-0.8,0.7-1.5,1.5-2.4l0.2-0.2l0,0l0,0c2.8-3,3-6.3,0.9-11.3c-2.3-5.2-4.8-6.1-7.4-6.6c-0.2,0-0.3-0.1-0.5-0.1
			c-0.3-0.1-0.6-0.1-1-0.2c-1.2-0.2-2.2-0.4-2.7-1c-0.5-0.7-0.6-2.1-0.3-4c0.8-4.9,2.1-4.9,3.2-4.9c0.5,0,1.1,0.1,1.7,0.1h0.5
			c0.6,0.1,1.3,0.1,2,0.1c3.5,0,5.4-1.6,7.9-4.8c3-3.7,5.3-6.6,2.6-11.3l0,0c-0.5-1.1-1.1-2.3-0.8-3c0.1-0.3,0.7-1.2,3.2-2.3
			C616.7,736,618.2,735.7,619.3,735.7 M619.3,733c-1.4,0-3.2,0.4-5.4,1.2c-6.7,2.8-4.9,6.3-3.7,8.9c1.8,3.1,0.8,4.5-2.3,8.4
			c-2.4,3.1-3.6,3.8-5.8,3.8c-0.5,0-1.1,0-1.8-0.1c-0.8-0.1-1.6-0.2-2.4-0.2c-2.6,0-4.8,1-5.8,7.1c-1.3,8,4.1,7.7,6,8.1
			c2,0.4,3.9,0.3,6,5.2c2.1,4.8,1.1,6.8-0.4,8.4c-1.6,1.6-5.4,4.8,1.6,10.4c2.3,1.9,4.1,2.5,5.6,2.5c2.9,0,4.3-2.7,4.7-3.4
			c1.1-1.6,2.1-2.4,4.4-2.4c1,0,2.2,0.1,3.8,0.4c5.4,0.9,5.9,2,6.7,4.2c0.7,1.7,1,5,4.9,5c1.1,0,2.6-0.3,4.4-1
			c8.1-3.1,5.9-6,4.7-9.7c-1.3-3.9-0.4-4.7,2-7.7c2.2-2.9,3-4.2,5.2-4.2c0.6,0,1.3,0.1,2.1,0.3c1,0.2,1.9,0.3,2.7,0.3
			c2.6,0,4.6-1.3,5.5-7.6c1.2-8.4-3.5-6.8-6.4-7.5c-1.6-0.3-3.5-0.4-5.2-5.3s-1.2-6.9,0.6-8.5s4.7-4.6-1.4-10.4
			c-2.2-2.1-4-2.9-5.5-2.9c-2.5,0-4,2.2-5.1,3.5c-1.3,1.5-1.8,2.7-4.9,2.7c-0.9,0-2.1-0.1-3.7-0.4c-4.9-0.7-5.3-1.3-6.2-4.7
			C623.8,735.2,622.7,733,619.3,733L619.3,733z"/>
	</g>
	<g id="circle_5_">
		<path class="st25" d="M627.4,760.4c3.6,0,6.5,2.9,6.5,6.5s-2.9,6.5-6.5,6.5s-6.5-2.9-6.5-6.5S623.8,760.4,627.4,760.4
			 M627.4,757.8c-5.1,0-9.2,4.1-9.2,9.2c0,5.1,4.1,9.2,9.2,9.2c5.1,0,9.2-4.1,9.2-9.2C636.5,761.9,632.4,757.8,627.4,757.8
			L627.4,757.8z"/>
	</g>
	<g>
		<path class="st25" d="M695.4,661.4c1.5,0,1.7,0.4,1.8,0.6c0.5,1,0.4,3.6,0.3,5.6c-0.2,3.8-0.3,7.7,2.1,9.9
			c1.5,1.4,5.4,4.5,9.7,4.5c1.2,0,2.3-0.2,3.3-0.7c2-0.9,3.4-2.5,4.5-3.8c0.6-0.7,1.2-1.5,1.8-2.4c1.2-1.7,3.1-4.4,4.4-4.4
			c0.1,0,0.2,0,0.3,0c1.2,0.3,2.3,1.4,3.6,2.7l2.2,2.2l2.2,2.2c0.8,0.8,1.6,1.6,1.9,2.4c0.6,1.5-3.2,4.3-5.3,5.8
			c-1.2,0.9-2.4,1.7-3.2,2.6c-0.4,0.4-1.3,1.3-1.6,2.5c-1.2,4.3,2.8,9.1,6,10.5c1,0.4,2.1,0.6,3.5,0.6c1.7,0,3.4-0.3,5.1-0.6
			c1.5-0.3,3.1-0.5,4.3-0.5c1,0,1.6,0.2,1.8,0.5c0.3,0.4,0.4,1.2,0.5,2c0.1,0.5,0.2,1,0.2,1.6c0.4,2.8,1.2,8.1-0.1,9.9
			c0,0.1-0.2,0.2-1.1,0.2c-0.5,0-1,0-1.6-0.1c-0.7-0.1-1.4-0.1-2.1-0.1l0,0c-0.9,0-3.6,0-5.6,2.2c-1.3,1.4-1.7,3.2-1.9,4.5l-0.7,3.6
			c-0.3,1.5-0.7,3.3-0.4,5.2c0.6,4.4,4.3,5.7,7,6.7c2.1,0.8,3.2,1.3,3.4,2.2c0.7,2.6-4.6,9.8-8,11.6c-0.8-0.5-1.6-1.2-2.4-1.9
			c-2.1-1.8-4.6-3.9-7.8-3.9c-1.6,0-3.3,0.5-4.9,1.6l-2.2,1.4l-2.2,1.4c-1,0.6-2.4,1.6-3.1,3.3c-0.8,2-0.2,4.7,0.3,7
			c0.2,0.7,0.3,1.4,0.4,1.8c0.1,0.8,0.3,1.5,0.4,2.2c0.5,2.2,0.5,2.4-0.5,3.2c-1.3,1-3.4,1.2-5.2,1.4l-3.1,0.4l-2.8,0.3
			c-0.5,0.1-1.2,0.1-1.8,0.1c-0.7,0-1.6-0.1-1.9-0.5c-0.4-0.5-0.5-1.6-0.5-2.7c0-0.2,0-0.4,0-0.6c-0.3-5-1.5-9.8-8-11.4
			c-0.5-0.1-1-0.3-1.4-0.4c-1.8-0.5-3.7-1-5.7-1c-2.1,0-4,0.6-5.7,1.8c-1.3,0.9-2.2,2.1-3.1,3.1l-2.8,3.5L669,762
			c-0.5,0.6-1.2,1.5-1.8,1.7c-0.1,0-0.2,0-0.3,0c-0.4,0-1.5-0.3-3.4-2.5l-5.1-5.8l-0.9-1.1c-0.9-1-1.3-1.8-1.3-2.4
			c0.1-0.8,1.5-2,2.8-3.1c2.2-1.8,5-4.1,5.3-7.7c0.1-1-0.3-1.8-0.4-2.3c-1.2-2.9-2.5-5.8-3.9-8.6c-0.3-0.6-0.7-1.6-1.8-2.3
			c-0.7-0.4-1.5-0.6-2.4-0.6c-0.4,0-0.7,0-1,0.1c-2.3,0.3-4.4,1.1-6.4,1.8c-2,0.8-3.9,1.5-5.7,1.5h-0.1c-0.3,0-0.5-0.1-0.6-0.1
			c-0.1-0.1-0.3-0.6-0.3-0.7c-0.1-0.3-0.2-0.6-0.3-1c-1.1-2.9-3.5-9.7-2.6-12.3c0.6-1.5,4.9-1.5,6.8-1.5h0.3h0.3c0.5,0,1,0,1.4,0
			c6.6-0.2,8.1-0.8,10.6-7.2c1-2.5,1.5-4.8,2-7.2c1.2-6.1-4.2-8.6-7.4-10c-3.6-1.6-4.7-2.9-4.9-3.7c-0.2-1,0.5-2.2,1.2-3.1
			c2.2-2.9,4.5-5.8,6.8-8.5c0.6-0.8,1.2-1.1,1.8-1.1c2,0,5,4,6.7,6.2c0.7,0.9,1.3,1.7,1.9,2.4c0.9,1,2.3,2.7,4.6,2.9
			c0.2,0,0.4,0,0.6,0c1.7,0,3.2-0.9,4.1-1.4c0.4-0.2,0.8-0.5,1.3-0.7c2.5-1.4,6-3.3,6.2-7.6c0-1-0.1-1.9-0.2-2.6
			c-0.2-0.9-0.5-1.9-0.9-3.2c-0.5-1.5-1.6-4.8-1.3-5.8l0,0c1.1-1.8,6.4-2.2,9-2.5c0.5,0,1-0.1,1.4-0.1c0.5,0,1-0.1,1.5-0.2
			C693.6,661.5,694.5,661.4,695.4,661.4 M695.4,658.7c-1.6,0-3.3,0.3-4.6,0.5c-3.4,0.3-10.3,0.5-12.3,3.8c-1.5,2.2,1.4,8.4,1.8,10.8
			c0.1,0.7,0.2,1.4,0.2,2.1c-0.2,3.5-3.7,4.7-6.2,6.2c-0.8,0.5-1.8,1-2.7,1c-0.1,0-0.2,0-0.3,0c-1.2-0.1-2.1-1.1-2.9-2
			c-2.5-2.8-6.4-9.4-10.5-9.4c-1.2,0-2.5,0.6-3.8,2.1c-2.4,2.8-4.7,5.7-6.9,8.7c-4.1,5.4-0.4,8.5,4.7,10.8c3.4,1.5,6.6,3.1,5.9,7.1
			c-0.5,2.4-0.9,4.5-1.8,6.8c-2.1,5.1-2.4,5.3-8.3,5.5c-0.4,0-0.8,0-1.3,0c-0.2,0-0.3,0-0.5,0c-3.3,0-8.1,0.1-9.3,3.2
			c-1.4,3.8,1.6,11.5,2.9,15c0.2,0.6,0.4,1.1,0.8,1.6c0.6,0.7,1.6,1,2.6,1c0.1,0,0.1,0,0.2,0c4.2-0.2,8-2.9,12.3-3.4
			c0.2,0,0.5-0.1,0.7-0.1c0.3,0,0.7,0.1,1,0.2c0.4,0.3,0.6,0.7,0.8,1.2c1.3,2.8,2.6,5.7,3.8,8.6c0.1,0.3,0.3,0.6,0.2,1
			c-0.6,6.3-12.8,7.6-6.2,15.1c2,2.3,4,4.6,6.1,6.9c1.4,1.6,3.4,3.4,5.4,3.4c0.3,0,0.7,0,1-0.2c1.3-0.4,2.2-1.5,3.1-2.6
			c1.1-1.4,2.3-2.9,3.4-4.3c0.7-0.9,1.5-1.9,2.5-2.6c1.4-1,2.8-1.3,4.2-1.3c2.1,0,4.3,0.8,6.5,1.3c4.8,1.2,5.8,4.4,6,9.1
			c0.1,1.7,0.1,3.6,1.2,4.8c1,1.1,2.4,1.4,3.9,1.4c0.7,0,1.4-0.1,2.1-0.1c2-0.2,3.9-0.5,5.9-0.7c2.2-0.3,4.6-0.6,6.4-1.9
			c3.2-2.3,1.6-4.8,1.2-7.8c-0.2-1.9-1.6-5.7-0.8-7.5c0.4-0.9,1.3-1.5,2.1-2.1c1.4-0.9,2.9-1.9,4.3-2.8c1.3-0.8,2.4-1.2,3.5-1.2
			c3.4,0,5.9,3.5,8.9,5.5c0.4,0.2,0.8,0.5,1.2,0.5l0,0c0.4,0,0.7-0.1,1.1-0.3c3.7-1.8,10.8-10.2,9.5-14.8c-1.3-4.8-9.5-3.1-10.3-8.5
			c-0.2-1.4,0.1-2.9,0.4-4.3c0.2-1.2,0.5-2.4,0.7-3.6c0.2-1.2,0.5-2.4,1.3-3.3c1-1.1,2.3-1.3,3.6-1.3c1.2,0,2.5,0.2,3.7,0.2
			c1.3,0,2.4-0.3,3.2-1.3c2.3-3.2,0.9-9.9,0.4-13.5c-0.1-1-0.3-2.1-0.8-3c-0.8-1.4-2.3-1.8-4.1-1.8c-2.9,0-6.6,1.1-9.4,1.1
			c-0.9,0-1.8-0.1-2.5-0.4c-2.4-1-5.2-4.7-4.5-7.3c0.1-0.5,0.5-0.9,0.9-1.3c2.7-2.7,10.9-6.7,9-11.2c-0.5-1.3-1.5-2.3-2.4-3.2
			c-1.5-1.5-2.9-3-4.4-4.5c-1.4-1.4-2.9-3-4.9-3.4c-0.3-0.1-0.6-0.1-0.9-0.1c-3.6,0-6.1,5.3-8.2,7.7c-1.1,1.2-2.2,2.5-3.6,3.2
			c-0.7,0.3-1.4,0.5-2.2,0.5c-2.9,0-6-2.1-7.9-3.8c-2.6-2.4-0.1-11-1.7-14.6C698.9,659.2,697.2,658.7,695.4,658.7L695.4,658.7z"/>
	</g>
	<g>
		<path class="st25" d="M695.9,700.1L695.9,700.1c0.2,0,0.5,0,0.7,0c4.1,0.2,7.9,2,10.7,5s4.2,7,4,11.1c-0.4,8.3-7.2,14.8-15.5,14.8
			c-0.2,0-0.5,0-0.7,0c-8.5-0.4-15.2-7.6-14.8-16.2C680.8,706.6,687.6,700.1,695.9,700.1 M695.9,697.5c-9.6,0-17.7,7.6-18.1,17.3
			c-0.4,10,7.3,18.5,17.3,18.9c0.3,0,0.5,0,0.8,0c9.6,0,17.7-7.6,18.1-17.3c0.4-10-7.3-18.5-17.3-18.9
			C696.5,697.5,696.2,697.5,695.9,697.5L695.9,697.5z"/>
	</g>
	<g id="outer_1_">
		<path class="st25" d="M672.3,771c0.8,0,0.9,0,1.2,1.4c0.7,3.6,1.9,4.7,6.1,5.6c1.5,0.3,2.6,0.5,3.6,0.5c2.7,0,3.8-1.3,4.7-2.2
			c0.1-0.1,0.2-0.2,0.3-0.3s0.2-0.2,0.3-0.3c0.3-0.3,1-1.1,1.3-1.1c0,0,0.6,0,1.9,1.4c1.6,1.7,1.6,2.5,1.6,2.6
			c0,0.3-0.6,0.7-0.8,0.8c-3,2.3-2.5,5.9-1.7,8.7c1.2,4.1,3.1,5.2,5,5.7h0.1c0.5,0.2,1.1,0.2,1.6,0.3c0.3,0,0.6,0.1,0.9,0.1
			c0,0.3,0.1,0.8-0.2,2c-0.5,2.5-1.1,2.9-1.1,2.9l0,0c0,0-0.1,0-0.2,0c-0.4,0-1-0.1-1.5-0.3c-0.9-0.3-1.6-0.4-2.3-0.4
			c-2.5,0-3.8,1.6-5.4,3.4l-0.1,0.2l-0.1,0.1c-2,2.1-3.2,3.6-2.2,7.5c0.1,0.3,0.2,0.6,0.3,1s0.3,1,0.3,1.3c-0.1,0.1-0.7,0.6-2.5,1.1
			c-1,0.3-1.7,0.4-2,0.4s-0.4,0-0.5,0l0,0c-0.1-0.1-0.3-0.7-0.4-1.1c-0.1-0.3-0.1-0.5-0.2-0.7c-0.9-2.9-2.3-4-6.4-5
			c-1.6-0.4-2.7-0.5-3.6-0.5c-2.5,0-3.9,1.3-4.8,2.5c-0.1,0.1-0.1,0.2-0.2,0.3c-0.2,0.3-0.6,0.9-1,0.9c-0.1,0-0.8-0.1-2.2-1.3
			c-1.3-1.2-1.7-2-1.7-2.3c0-0.2,0.6-0.8,0.9-1l0.1-0.1l0,0l0,0c2.3-2.2,2.7-4.8,1.3-8.6c-1.5-4.1-3.5-4.9-5.4-5.4
			c-0.1,0-0.2-0.1-0.3-0.1c-0.2-0.1-0.5-0.1-0.7-0.2c-0.4-0.1-1.1-0.2-1.3-0.5c-0.1-0.2-0.2-0.8,0-2.2c0.6-2.6,1.2-2.6,1.4-2.6
			c0.3,0,0.8,0.1,1.3,0.2l0.4,0.1c0.7,0.1,1.4,0.2,2,0.2c2.4,0,3.9-1.2,5.8-3.2c2.2-2.4,4.3-4.7,2.4-8.6c-0.2-0.4-0.5-1.2-0.4-1.5
			c0,0,0.3-0.5,1.8-1C670.7,771.1,671.6,771,672.3,771 M672.3,768.3c-0.9,0-2,0.2-3.4,0.6c-4.8,1.7-3.7,4.2-2.9,6
			c1.1,2.2,0.4,3.2-2,5.7c-1.6,1.8-2.5,2.4-3.8,2.4c-0.5,0-1-0.1-1.6-0.2c-0.7-0.1-1.4-0.2-2-0.2c-1.6,0-3.1,0.8-3.9,4.7
			c-1.2,5.5,2.5,5.5,3.8,5.9c1.4,0.4,2.7,0.4,3.9,3.8c1.2,3.4,0.4,4.8-0.7,5.8c-1.2,1-3.9,3.1,0.6,7.3c1.6,1.5,2.9,2,4,2
			c1.9,0,2.9-1.7,3.2-2.1c0.8-1,1.4-1.5,2.8-1.5c0.7,0,1.7,0.2,3,0.5c3.7,0.9,4,1.6,4.5,3.2c0.4,1.3,0.5,3.7,3.5,3.7
			c0.7,0,1.7-0.1,2.8-0.5c5.8-1.8,4.3-3.9,3.7-6.5c-0.7-2.8-0.1-3.3,1.7-5.2c1.5-1.8,2.2-2.7,3.5-2.7c0.5,0,1,0.1,1.7,0.3
			c0.8,0.2,1.5,0.3,2.2,0.3c1.7,0,3-1,3.8-5c1.2-5.8-2.1-4.9-4.1-5.5c-1.1-0.3-2.4-0.4-3.3-3.9s-0.5-4.9,0.8-5.9s3.5-3-0.5-7.3
			c-1.5-1.7-2.8-2.2-3.8-2.2c-1.6,0-2.7,1.4-3.5,2.2c-0.9,0.9-1.3,1.7-3,1.7c-0.7,0-1.7-0.1-3-0.4c-3.4-0.7-3.6-1.1-4.1-3.6
			C675.7,770,675,768.3,672.3,768.3L672.3,768.3z"/>
	</g>
	<g id="circle_1_">
		<path class="st25" d="M676.7,788.5L676.7,788.5c0.1,0,0.2,0,0.2,0c2.1,0.1,3.6,1.9,3.5,4c-0.1,2-1.8,3.5-3.7,3.5
			c-0.1,0-0.2,0-0.2,0c-1-0.1-1.9-0.5-2.6-1.3c-0.7-0.7-1-1.7-0.9-2.7C673.1,790,674.8,788.5,676.7,788.5 M676.7,785.9
			c-3.3,0-6.1,2.6-6.3,6c-0.2,3.5,2.4,6.5,5.9,6.7c0.1,0,0.3,0,0.4,0c3.3,0,6.1-2.6,6.3-6c0.2-3.5-2.4-6.5-5.9-6.7
			C677,785.9,676.9,785.9,676.7,785.9L676.7,785.9z"/>
	</g>
</g>
</a>
<a xlink:href="#" target="_top">
  <g id="ELECTRICAL">
    <g>
      <g>
        <path class="st25" d="M637.3,1007c0.4,0,0.3-0.1-0.3,0c-0.2,0-0.3,0-0.5,0c-0.6,0-1.1,0-1.7,0c-1,0-2.1,0-3.1,0.1
          c-1.6,0-1.6,2.5,0,2.5c1.3,0,2.6,0,3.8-0.1c1,0,2.1,0.2,3-0.3C640,1008.4,638.7,1006.2,637.3,1007L637.3,1007z"/>
      </g>
    </g>
    <g>
      <g>
        <path class="st25" d="M648.7,1009.6c5,0.1,6.7,1.2,9.6,5.3c0.7,1,2.2,2.5,2.6,3.6c1.1,0.9,0.9,1.7-0.7,2.5
          c-0.5,1.4-1.5,1.9-2.9,1.6c-3.1,0.5-6.6-0.1-9.7-0.1c-3.6,0-7.2,0-10.8,0c-7.5,0-15,0.1-22.5,0c-1.5,0-4.5,0.6-5.5-0.4
          c-1.8-1.7,0.1-4.4,1.1-5.8c3.1-4.1,5.5-6.7,11.2-6.8c1.6,0,1.6-2.5,0-2.5c-5.6,0.1-8,1.4-11.6,5.7c-1.8,2.2-5.7,6-4.5,9.2
          c1.4,3.7,7.3,3,10.2,3c7.2-0.1,14.4,0,21.5,0c6.3,0,12.6,0,18.9,0.1c2.8,0,7.9,0.5,8.8-3.1c0.9-3.6-4.1-8.6-6-11
          c-2.6-3.4-5.7-3.8-9.9-3.9C647.1,1007.1,647.1,1009.6,648.7,1009.6L648.7,1009.6z"/>
      </g>
    </g>
    <g>
      <g>
        <path class="st25" d="M604.8,1042.1c1.6,3.9,4.3,3.3,8.4,3.7c7.3,0.7,14.7,0.8,22.1,0.7c6.9-0.1,13.9,0,20.8-0.4
          c2.9-0.2,7.7-0.2,8.2-3.8c0.2-1.6-2.2-2.3-2.4-0.7c-0.5,3.6-24.2,2.4-27.6,2.4c-4.5,0.1-9,0-13.5-0.2c-2.7-0.1-12.4,0.6-13.6-2.3
          C606.6,1040,604.2,1040.6,604.8,1042.1L604.8,1042.1z"/>
      </g>
    </g>
    <g>
      <g>
        <path class="st25" d="M622.6,1009c0.1-2.3,3.5-1.8,5.1-1.7c0.6,0,0.9,0,1.5,0.4c0.7,0.5,0.6,0.6,0.6,1.4c0,1,0.1,2.6-0.3,3.4
          c-0.8,1.5-4,1-5.3,0.9c-1.4-0.1-1.6-0.5-1.5-1.9C622.5,1010.7,622.5,1009.9,622.6,1009c0.1-1.6-2.4-1.6-2.5,0
          c-0.1,3.2-0.6,6.7,3.6,6.9c1.8,0.1,4,0.3,5.7-0.3c1.8-0.6,2.4-1.9,2.6-3.7c0.2-1.6,0.5-3.8-0.2-5.3c-0.8-1.5-2.3-1.7-3.8-1.8
          c-3.5-0.3-7.7-0.2-7.9,4.2C620,1010.6,622.5,1010.6,622.6,1009z"/>
      </g>
    </g>
    <g>
      <g>
        <path class="st25" d="M645.6,1013.3c-1.2,0.2-3,0.5-4.2,0.2c-1.7-0.4-1.5-1.6-1.5-3c0-1.6-0.9-7.2,0.7-8.1c0.6-0.3,2.8-0.1,3.5,0
          c1.8,0.2,1.7,1.2,1.8,2.8C646,1006.3,646.8,1013.1,645.6,1013.3c-1.6,0.4-0.9,2.8,0.7,2.4c1.6-0.4,2.2-1.5,2.3-3.1
          c0.3-3,0.1-6.4-0.3-9.4c-0.2-1.6-0.7-2.9-2.4-3.2c-1.7-0.4-5.1-0.4-6.8,0.2c-1.6,0.6-1.8,2-1.8,3.5c0,2.8,0,5.6,0,8.4
          c0.1,5,5.1,4.3,8.9,3.6C647.9,1015.5,647.2,1013,645.6,1013.3z"/>
      </g>
    </g>
    <g>
      <g>
        <path class="st25" d="M641.8,1082.3c2.2-2.9,10.6-12.7,2.8-14.1c-1.8-0.3-3.7-0.1-5.6-0.2c-0.6,0-2.6,0.2-3-0.5
          c-0.2-0.3,0.5-1.5,0.5-1.9c0-2.8,1.8-6.2,0.9-8.9c-0.1-0.4-0.4-0.8-0.9-0.9c-2.5-0.5-3.4,2.8-4.4,4.6c-1.7,2.9-3.4,5.9-5.2,8.8
          c-0.8,1.4-2.3,3.2-2.4,4.9c-0.2,2.7,2.1,3.3,4.4,3.4c1.4,0.1,2.8-0.2,4.2-0.2c2.8,0,2.2-0.1,2.1,2c-0.1,3.4-3.8,8.2-5.4,11.2
          c-0.6,1,0.6,2.5,1.7,1.7c3.9-2.8,7.2-6,10.2-9.8c1-1.3-0.8-3-1.8-1.8c-2.9,3.6-6,6.7-9.7,9.4c0.6,0.6,1.1,1.1,1.7,1.7
          c1.8-3.3,7.2-11,6.4-15c-1-4.4-6.7-0.6-9.4-1.7c-3.1-1.4,0.9-5.7,2-7.6c1.2-2.1,4.3-5.7,4.7-8c0.2-1.7-0.5,0.1-0.8,0.8
          c-0.2,0.4-0.4,3-0.5,3.5c-0.3,1.9-1,3.6-0.7,5.5c0.1,0.4,0.5,0.8,0.9,0.9c2.6,0.8,5.6-0.3,8.1,0.5c3.9,1.2,2.1,3.4,0.6,5.7
          c-1.1,1.6-2.3,3.1-3.4,4.7C638.6,1082.3,640.8,1083.6,641.8,1082.3z"/>
      </g>
    </g>
    <g>
      <g>
        <path class="st25" d="M626.6,1005.5c-0.2-8.7-3.7-25.4,4.5-31.3c3.5-2.5,7.9-2.8,12-3.2c5.2-0.5,10.5-0.9,15.8-1.2
          c10.2-0.5,20.6-0.2,30.8,0.7c11.4,1,10.6,14.7,10.9,23.4c0.8,20.4,0,40.9,1.3,61.3c0.3,5.3-0.7,14.3,4.4,17.9c4,2.8,9.7,2,14.3,2
          c4.9-0.1,9.7,0.1,14.6-0.5c3.4-0.4,8.3-0.6,11.1-2.8c2.4-1.8,2.1-4.9,2.1-7.6c0-5.9-0.2-11.8-0.8-17.6c-0.1-1.6-2.7-1.6-2.5,0
          c0.4,4.9,0.7,9.9,0.8,14.9c0,2.9,0.4,5-1.4,7.3c-2.2,2.8-6,2.9-9.4,3.3c-7,0.8-14.7,1.1-21.7,0.5c-5.1-0.4-7.6-2.4-8.2-7.6
          c-0.6-5.2-0.9-10.4-1.1-15.6c-0.5-10.4-0.6-20.8-0.7-31.1c0-10.4,0.1-20.8-0.6-31.1c-0.4-5.6-0.8-12.7-5.4-16.7
          c-2-1.7-4.3-2.2-6.8-2.4c-5.4-0.5-10.9-0.7-16.3-0.9c-10.1-0.3-20.1,0.2-30.1,1.2c-6.4,0.6-14,1.3-17.8,7.4
          c-5.1,8.1-2.4,20.8-2.2,29.7C624.1,1007.1,626.6,1007.1,626.6,1005.5L626.6,1005.5z"/>
      </g>
    </g>
    <g>
      <g>
        <path class="st25" d="M751.7,1044.9c-0.1,9.6,1.1,19.3,0.4,28.9c-0.4,6.7-3.7,8.7-9.6,10.4c-5,1.5-10.2,2.2-15.5,2.3
          c-9.1,0.1-19.4,0.2-28.4-1.4c-10.5-1.8-11.2-11.3-11.3-20.1c-0.2-18.7,0.1-37.4-0.6-56.1c-0.2-4.1-0.3-8.2-0.7-12.2
          c-0.4-3.9-0.1-8.1-1.1-11.9c-1.6-6.7-7.8-7-13.8-7.1c-5.5,0-11.1,0.2-16.6,0.5c-2.8,0.1-5.8,0.1-8.4,1.3
          c-7.1,3.2-4.3,14.8-4.2,20.8c0,1.6,2.5,1.6,2.5,0c-0.1-5-1.2-11.1,0.9-15.7c1.4-3.1,2.8-3.4,6.1-3.7c2-0.2,4.1-0.2,6.1-0.3
          c4.8-0.2,9.6-0.4,14.5-0.3c2.3,0,5.2-0.2,7.3,0.9c3.4,1.8,3.5,5.5,3.7,8.9c1.2,18.7,1.7,37.3,1.6,56.1c0,8.4-0.3,16.9,0.3,25.2
          c0.4,5.4,2,11,6.8,14.1c5.8,3.7,14.2,2.8,20.7,3.1c9.1,0.4,18.2,1.1,27.2-1c6.1-1.4,13.4-3.1,14.6-10.2
          c1.7-10.5-0.3-21.8-0.2-32.5C754.3,1043.3,751.7,1043.3,751.7,1044.9L751.7,1044.9z"/>
      </g>
    </g>
    <g>
      <g>
        <path class="st25" d="M661.8,1021.7c0,16.6,0.1,33.2-0.1,49.8c0,4.1-0.1,8.3-0.2,12.4c-0.1,4.1,0.6,9.3-0.6,13.3
          c-1.7,5.4-7.6,5-12.1,5c-4.3,0-8.6,0.1-12.9,0.2c-4.3,0.1-8.6,0.1-12.9,0.1c-4.5,0-12.3,0.9-15.1-3.5c-2.1-3.4-0.9-9.9-0.9-13.6
          c0-4.1,0-8.2,0-12.3c0-17.2,0.2-34.4,0.5-51.6c0-1.6-2.5-1.6-2.5,0c-0.2,16.2-0.5,32.5-0.5,48.7c0,7.9-0.2,15.8-0.1,23.6
          c0,4.7,1.8,9,6.7,10.4c6.3,1.9,14.4,0.8,20.9,0.7c7.4-0.1,15.1,0.5,22.4-0.4c4.6-0.5,8.1-2.6,9.2-7.3c1.5-6.6,0.6-14.3,0.7-21.1
          c0.2-18.1,0.2-36.3,0.2-54.4C664.3,1020.1,661.8,1020.1,661.8,1021.7L661.8,1021.7z"/>
      </g>
    </g>
    <g>
      <g>
        <path class="st25" d="M743.6,1033.5c-0.5-1.7,5.4-1.3,6.2-1.4c0.5,0,1-0.1,1.5-0.1c0.2,0,2.6-0.2,2,0.3c-0.6,0.6-0.4,1.6,0.3,2
          c1.4,0.4,1.6,1,0.6,1.7c-0.8,0.5-0.9,1.7,0,2.2c0.2,0.5,0.4,1,0.5,1.5c-0.9,0.4-0.8,1.8,0,2.2c-0.1,0.4-0.2,0.8-0.3,1.2
          c-0.4,0-0.7,0.1-1.1,0.1c-0.5,0.1-1.1,0-1.7,0c-0.7,0.1-1.5,0.2-2.2,0.3c-0.7,0.1-6.3,0.4-5.2-1.1c0.4-0.6,0.6-1.6-0.3-2
          c-0.4-0.8-0.3-1.5,0.3-2c0.5-0.6,0-1.7-0.7-1.8c0.1-0.5,0.2-0.9,0.3-1.4c0.5-0.5,0.5-1.3,0-1.8c-0.2-0.2-0.4-0.4-0.6-0.6
          c-1.2-1.1-2.9,0.6-1.8,1.8c0.2,0.2,0.4,0.4,0.6,0.6c0-0.6,0-1.2,0-1.8c-1.7,1.9-2.4,4.9,0.8,5.6c-0.2-0.6-0.5-1.2-0.7-1.8
          c-1.3,1.8-1.9,4.3,0.6,5.4c-0.1-0.7-0.2-1.3-0.3-2c-1.3,1.6-1.2,3.5,0.5,4.7c1.9,1.3,4.8,0.8,6.9,0.6c2.1-0.3,5.1,0.2,6.8-1.3
          c1.6-1.5,1-4-0.8-4.9c0,0.7,0,1.4,0,2.2c3-1.3,1.8-4.7-0.5-5.9c0,0.7,0,1.4,0,2.2c3.2-1.9,2.1-4.3-0.6-6.1c0.1,0.7,0.2,1.3,0.3,2
          c1.1-1,1.9-2.6,0.9-3.9c-1-1.4-2.9-1-4.3-0.8c-3.1,0.5-12.3-1.1-10.5,4.8C741.6,1035.7,744,1035.1,743.6,1033.5z"/>
      </g>
    </g>
    <g>
      <g>
        <path class="st25" d="M744.1,1031.3c-2-7.4-9.1-11.2-10.7-18.8c-2.1-10.2,3.9-21,15.2-20.8c9.7,0.1,16.1,9.4,14.4,18.8
          c-0.8,4.4-3.6,7.4-5.9,11c-1.9,3-3.2,6.1-4,9.6c-0.4,1.6,2,2.2,2.4,0.7c2.4-10,12.1-16.5,9.9-27.5c-1.7-8.8-7.8-14.9-16.9-15
          c-8.9-0.1-15.9,6-17.7,14.6c-0.9,4.3-0.4,9,1.2,13.1c2.3,5.7,8,8.9,9.6,15.1C742.1,1033.5,744.5,1032.8,744.1,1031.3
          L744.1,1031.3z"/>
      </g>
    </g>
    <g>
      <g>
        <path class="st25" d="M718.1,1030.9c1.5-1.4,3-2.7,4.6-4.1c1.2-1.1-0.6-2.9-1.8-1.8c-1.5,1.4-3,2.7-4.6,4.1
          C715.1,1030.2,716.9,1032,718.1,1030.9L718.1,1030.9z"/>
      </g>
    </g>
    <g>
      <g>
        <path class="st25" d="M713.7,1010.9c1.8,0.3,3.5,0.5,5.3,0.4c1.6-0.1,1.6-2.6,0-2.5s-3.1,0-4.6-0.3
          C712.8,1008.1,712.1,1010.6,713.7,1010.9L713.7,1010.9z"/>
      </g>
    </g>
    <g>
      <g>
        <path class="st25" d="M718.8,991.8c1.3,1.4,3,2.4,4.9,2.7c1.6,0.3,2.3-2.1,0.7-2.4c-1.5-0.3-2.8-1-3.8-2.1
          C719.4,988.9,717.7,990.7,718.8,991.8L718.8,991.8z"/>
      </g>
    </g>
    <g>
      <g>
        <path class="st25" d="M742.8,981.2c0.1-1.9,0.2-3.7,0.4-5.6c0.1-1.6-2.4-1.6-2.5,0c-0.1,1.9-0.2,3.7-0.4,5.6
          C740.2,982.8,742.7,982.8,742.8,981.2L742.8,981.2z"/>
      </g>
    </g>
    <g>
      <g>
        <path class="st25" d="M759.3,984.9c1.1-1.5,2.3-2.8,3.6-4.1c1.2-1.1-0.6-2.9-1.8-1.8c-1.4,1.4-2.8,2.9-4,4.6
          C756.2,985,758.4,986.2,759.3,984.9L759.3,984.9z"/>
      </g>
    </g>
    <g>
      <g>
        <path class="st25" d="M773.5,998c1.7-0.9,3.3-1.8,5-2.7c1.4-0.8,0.2-2.9-1.3-2.2c-1.7,0.9-3.3,1.8-5,2.7
          C770.8,996.6,772.1,998.8,773.5,998L773.5,998z"/>
      </g>
    </g>
    <g>
      <g>
        <path class="st25" d="M773.3,1012.3c1.9,1.7,4.1,2.9,6.5,3.8c1.5,0.5,2.2-1.9,0.7-2.4c-2-0.7-3.8-1.7-5.4-3.1
          C773.9,1009.5,772.1,1011.3,773.3,1012.3L773.3,1012.3z"/>
      </g>
    </g>
    <g>
      <g>
        <path class="st25" d="M767.2,1026.8c1.1,1.3,2.4,2.4,3.8,3.3c1.4,0.8,2.7-1.3,1.3-2.2c-1.3-0.8-2.4-1.7-3.3-2.9
          c-0.4-0.5-1.3-0.4-1.8,0C766.6,1025.6,766.7,1026.3,767.2,1026.8L767.2,1026.8z"/>
      </g>
    </g>
    <g>
      <g>
        <path class="st25" d="M747.9,1030.6c0.3-7.4-1.1-14.2-4.7-20.6c-0.8-1.4-3-0.1-2.2,1.3c3.5,6.1,4.6,12.4,4.4,19.4
          C745.3,1032.2,747.8,1032.2,747.9,1030.6L747.9,1030.6z"/>
      </g>
    </g>
    <g>
      <g>
        <path class="st25" d="M751.4,1030.6c0.2-7.2,0.7-14.3,5-20.4c0.9-1.3-1.2-2.6-2.2-1.3c-4.6,6.4-5.1,14-5.3,21.6
          C748.8,1032.2,751.4,1032.2,751.4,1030.6L751.4,1030.6z"/>
      </g>
    </g>
    <g>
      <g>
        <path class="st25" d="M741.8,1011.2c0.6,0.7,1.2,1.4,2.2,1c1.2-0.4,1.4-2.1,2.4-2.9c-0.5,0.1-1,0.1-1.5,0.2
          c-0.3-0.5-0.3-0.4-0.1,0.1c0.1,0.4,0.2,0.8,0.3,1.2c0.2,0.8,0.4,1.7,0.6,2.5c0.3,1.3,2,1.1,2.4,0c0.5-1.5,1-2.9,1.5-4.4
          c-0.7,0.2-1.4,0.4-2.1,0.6c0.7,0.8,1.2,1.7,1.7,2.7c0.4,0.9,1.8,0.8,2.2,0c0.3-0.6,0.6-1.5,1-2c-0.4,0.1-0.8,0.2-1.2,0.3
          c0.6,0.1,1,0.7,1.7,0.7c0.8,0.1,1.4-0.1,2-0.6c1.3-0.9,0.1-3.1-1.3-2.2c-0.6,0.4-1.8-0.7-2.6-0.4c-1,0.4-1.4,1.9-1.8,2.7
          c0.7,0,1.4,0,2.2,0c-0.5-1.2-1.2-2.2-2-3.2c-0.6-0.8-1.8-0.3-2.1,0.6c-0.5,1.5-1,2.9-1.5,4.4c0.8,0,1.6,0,2.4,0
          c-0.4-1.5-0.5-4.5-2-5.3c-0.5-0.3-1.1-0.2-1.5,0.2c-0.3,0.3-0.5,0.5-0.7,0.9c-0.1,0.2-0.3,0.5-0.4,0.7c-0.3,0.4-0.3,0.5,0.1,0.3
          C742.5,1008.2,740.7,1010,741.8,1011.2L741.8,1011.2z"/>
      </g>
    </g>
  </g>
</a>
<a xlink:href="#" target="_top">
  <g id="BUSINESS__x2B__PR">
    <g>
      <path class="st25" d="M444.3,431.3v3.3l0,0c15.6,0,30,6.2,40.7,17.5c10.3,10.9,15.8,25.1,15.4,40.1s-6.6,28.9-17.5,39.2
        c-10.5,9.9-24.2,15.4-38.6,15.4c-15.6,0-30-6.2-40.7-17.5c-21.3-22.4-20.4-58,2.1-79.4c10.5-9.9,24.2-15.4,38.6-15.4V431.3
         M444.3,431.3c-14.7,0-29.4,5.4-40.9,16.3c-23.8,22.6-24.8,60.2-2.2,84c11.7,12.3,27.4,18.5,43.1,18.5c14.7,0,29.4-5.4,40.9-16.3
        c23.8-22.6,24.8-60.2,2.2-84C475.8,437.5,460.1,431.3,444.3,431.3L444.3,431.3z"/>
    </g>
    <g>
      <g>
        <path class="st25" d="M443.6,491.2c17.1,9.3,34.3,18.5,51.4,27.8c1.4,0.7,2.6-1.4,1.2-2.1c-17.1-9.3-34.3-18.5-51.4-27.8
          C443.4,488.3,442.2,490.4,443.6,491.2L443.6,491.2z"/>
      </g>
    </g>
    <g>
      <g>
        <path class="st25" d="M457.1,433.9c-4,18.8-10,37.1-13.9,55.9c-0.3,1.5,2,2.2,2.4,0.6c4-18.8,10-37.1,13.9-55.9
          C459.8,433,457.5,432.4,457.1,433.9L457.1,433.9z"/>
      </g>
    </g>
    <g>
      <g>
        <path class="st25" d="M501.5,483.7c-19,2.7-38.3,3.3-57.3,6c-1.5,0.2-0.9,2.6,0.6,2.4c19-2.7,38.3-3.3,57.3-6
          C503.7,485.8,503.1,483.5,501.5,483.7L501.5,483.7z"/>
      </g>
    </g>
    <g>
      <g>
        <path class="st25" d="M493.4,458.9c-16,10.6-33.2,19.4-49.2,29.9c-1.3,0.9-0.1,3,1.2,2.1c16-10.6,33.2-19.4,49.2-29.9
          C495.9,460.2,494.7,458.1,493.4,458.9L493.4,458.9z"/>
      </g>
    </g>
    <g>
      <g>
        <path class="st25" d="M443.3,490.7c10.2,16.6,20.5,33.2,30.7,49.7c0.8,1.3,2.9,0.1,2.1-1.2c-10.2-16.6-20.5-33.2-30.7-49.7
          C444.6,488.1,442.4,489.3,443.3,490.7L443.3,490.7z"/>
      </g>
    </g>
    <g>
      <g>
        <path class="st25" d="M530.9,511.8c-1.6,2.2-11.2,2.1-13.5,0.9c-2.8-1.5-2.7-4.4-2.8-7.1c-0.1-2.8-0.4-5.9,2-7.7
          c3-2.3,13.7-2.9,14.6,2C531.9,503.4,532.5,508.5,530.9,511.8c-0.7,1.4,1.5,2.7,2.1,1.2c1.5-3.3,1.2-6.8,0.9-10.3
          c-0.2-2.3-0.1-5.2-1.7-7.1c-2-2.4-6.8-1.8-9.6-1.8c-3.1,0-7.2,0.1-9.1,3c-1.9,2.9-1.4,7.5-1.2,10.7c0.2,2.9,0.5,5.6,3.3,7.1
          c3,1.5,7,1.1,10.3,1c3-0.1,5.3,0.1,7.1-2.5C533.9,511.8,531.8,510.6,530.9,511.8z"/>
      </g>
    </g>
    <g>
      <g>
        <path class="st25" d="M527.2,508.8c1.5-2.2,1.4-5.3-0.5-7.2c-1.8-1.8-4.9-1.8-6.8-0.1c-1.9,1.7-1.8,5.5-0.1,7.4
          c1.8,1.9,5.5,2.1,7.3,0.1c1.1-1.2-0.7-2.9-1.7-1.7c-0.9,1-3.1,0.9-3.9-0.2c-0.8-1.1-0.7-3.3,0.6-4c3-1.6,4.6,2.3,3.1,4.5
          C524.2,508.9,526.3,510.1,527.2,508.8z"/>
      </g>
    </g>
    <g>
      <g>
        <path class="st25" d="M530.2,499.9c0.1-1-0.6-1.9-1.6-2c-0.9,0-1.7,0.5-1.9,1.4s0.3,1.8,1.2,2.1c1,0.4,2.1-0.2,2.3-1.2
          c0.4-1.5-2-2.2-2.4-0.6c0.1-0.2,0.2-0.2,0.4-0.3c0.2-0.2,0.4-0.2,0.6,0c0.2,0.2,0.2,0.5,0.1,0.8c-0.2,0.4-0.9,0.4-1.1-0.1
          c0-0.1-0.1-0.3-0.1-0.1c-0.1,0.7,0.6,1.2,1.2,1.2C529.7,501.1,530.2,500.6,530.2,499.9z"/>
      </g>
    </g>
    <g>
      <g>
        <path class="st25" d="M497.2,424.9c-0.1,0.8-0.1,1.6,0,2.4c0.4-0.4,0.8-0.8,1.2-1.2c-3.5-0.1-4.3,1.9-4,5.1
          c0,0.7,0.5,1.2,1.2,1.2c1.9,0.1,1.3-0.4,1.3,1.8c0.4-0.4,0.8-0.8,1.2-1.2c-0.8,0-1.6,0.1-2.4,0.1c-0.6,0-1.3,0.5-1.2,1.2
          c0.1,1.7,0.1,3.5,0.1,5.2c0.4-0.4,0.8-0.8,1.2-1.2c-1.3,0.1-2.4,0.2-3.7,0.1c0.4,0.4,0.8,0.8,1.2,1.2c0-1.7,0.1-3.5,0-5.2
          c0-0.6-0.5-1.3-1.2-1.2c-0.3,0-0.7,0.1-1,0.1c-1.1,0.1-1.3,0.1-0.7,0c0.3,0.6,0.4-1.6,0.4-1.5c-0.4,0.4-0.8,0.8-1.2,1.2
          c0.7-0.1,1.4-0.2,2-0.2c0.7-0.1,1.2-0.5,1.2-1.2c0-1.1-0.3-2.8,0-3.8c0.7-2.4,3.2-2.1,5.1-1.8c1.5,0.3,2.2-2.1,0.6-2.4
          c-2.2-0.4-5.2-0.6-7,1c-1.9,1.7-1.2,4.7-1.2,6.9c0.4-0.4,0.8-0.8,1.2-1.2c-0.7,0.1-1.4,0.1-2,0.2c-0.7,0.1-1.2,0.5-1.2,1.2
          c-0.3,3.4,0.2,4.1,3.7,3.8c-0.4-0.4-0.8-0.8-1.2-1.2c0.1,1.7,0,3.5,0,5.2c0,0.7,0.6,1.2,1.2,1.2c1.3,0.1,2.4,0,3.7-0.1
          c0.7-0.1,1.2-0.5,1.2-1.2c0-1.7,0-3.5-0.1-5.2c-0.4,0.4-0.8,0.8-1.2,1.2c0.8,0,1.6-0.1,2.4-0.1c0.7,0,1.2-0.6,1.2-1.2
          c0-1,0.3-2.2,0-3.2c-0.1-0.4-0.5-0.7-0.9-0.9c-0.9-0.2-2-0.1-2.9-0.1c0.4,0.4,0.8,0.8,1.2,1.2c-0.1-1.1-0.4-2.7,1.6-2.6
          c0.6,0,1.2-0.6,1.2-1.2c0-0.8,0-1.6,0-2.4C499.7,423.3,497.3,423.3,497.2,424.9L497.2,424.9z"/>
      </g>
    </g>
    <g>
      <g>
        <path class="st25" d="M503.7,433.5c0-2.3,0-4.7,0-7c0-1.6,0.3-3.8-0.4-5.2c-1.3-2.6-4.4-2.7-6.9-2.7c-6.8-0.1-14.7-1.1-15.1,7.4
          c-0.1,3.6-0.7,8.3,0.3,11.9c0.8,3,4.4,3.1,7,3.2c2.3,0.1,4.7-0.1,7-0.1c1.6,0,3.4,0.3,4.9-0.3
          C503.7,439.4,503.8,436.3,503.7,433.5c0-1.6-2.5-1.6-2.4,0c0.1,2.4-0.5,4.8-3.1,5c-0.8,0.1-1.7,0-2.6,0c-2.6,0-5.2,0.2-7.7,0.1
          c-3.4-0.2-3.9-1.1-4.1-4.1c-0.2-2.6-0.2-5.3-0.1-8c0.1-3.3,1.5-5,4.9-5.3c2.5-0.2,5.3-0.3,7.8-0.1c2.2,0.1,4.1-0.1,4.8,2.5
          c0.2,0.9,0,2.1,0,3c0,2.3,0,4.7,0,7C501.3,435,503.7,435,503.7,433.5z"/>
      </g>
    </g>
    <g>
      <g>
        <path class="st25" d="M528.6,454.9c-2.5,2.3-3.9-0.9-6.9,0.3c-2.4,0.9-2.9,3-3.1,5.3c0.5-0.4,1-0.8,1.5-1.2
          c-3.4-1-5.5-3.8-8.1-5.9c-0.5-0.4-1.2-0.5-1.7,0c-3.1,2.9-0.5,7.3,2,9.3c0.3-0.7,0.6-1.4,0.9-2.1c-1,0-3.1,0.2-4-0.3
          c-0.9-0.6-2.1,0.4-1.8,1.4c0.9,3.3,2.9,5.3,6,6.5c0.1-0.8,0.2-1.6,0.3-2.4c-1.4,0.2-2.7,0.2-4.1,0.2c-1.1,0-1.6,1.3-0.9,2.1
          c2,2.1,3.9,2.1,6.2,3.5c-0.1-0.6-0.2-1.3-0.2-1.9c-1.3,1.6-4.6,2.9-6.8,2.4c-1.3-0.3-2.1,1.5-0.9,2.2c4.5,2.9,11.6,2.3,16.2-0.3
          c2-1.1,3.5-2.7,4.4-4.8c0.5-1.1,0.7-2.2,0.9-3.4c0.1-1,0.2-2.1,0.2-3.1c1-0.5,2-1,3.1-1.5c1-0.5,0.6-1.9-0.3-2.2
          c-1.9-0.7-1.5-0.6-3.4-0.7c0.4,0.5,0.8,1,1.2,1.5c0.4-1.1,0.9-2.2,1.4-3.2c0.6-1.4-1.5-2.7-2.1-1.2c-0.6,1.3-1.1,2.5-1.6,3.8
          c-0.3,0.8,0.5,1.5,1.2,1.5c0.9,0.2,1.9,0.4,2.8,0.6c-0.1-0.7-0.2-1.5-0.3-2.2c-4.6,2.3-3.6,1.9-4.5,6.6
          c-1.4,7.3-11.7,10.4-17.8,6.5c-0.3,0.7-0.6,1.5-0.9,2.2c2.9,0.6,7.3-0.8,9.1-3.1c0.5-0.6,0.5-1.5-0.2-1.9
          c-1.9-1.2-3.9-1.3-5.7-3.1c-0.3,0.7-0.6,1.4-0.9,2.1c1.4,0,2.7,0,4.1-0.2s1.7-1.9,0.3-2.4c-2.4-0.8-3.9-2.4-4.3-4.8
          c-0.6,0.5-1.2,0.9-1.8,1.4c1.3,0.9,3.7,0.8,5.2,0.7c0.9,0,1.8-1.4,0.9-2.1c-1.5-1.2-3.6-4.2-2-5.8c-0.6,0-1.2,0-1.7,0
          c2.9,2.5,5.4,5.4,9.2,6.6c0.8,0.2,1.5-0.4,1.5-1.2c-0.2-2.7,1.4-3.3,4.8-1.8c0.4,0.3,1,0.5,1.5,0.2c1.1-0.7,2.1-1.3,3-2.2
          C531.5,455.6,529.8,453.9,528.6,454.9L528.6,454.9z"/>
      </g>
    </g>
    <g>
      <g>
        <path class="st25" d="M494.8,535.3c0,3.5,0,7,0,10.5c0,1.6,2.4,1.6,2.4,0c0-3.5,0-7,0-10.5C497.2,533.7,494.8,533.7,494.8,535.3
          L494.8,535.3z"/>
      </g>
    </g>
    <g>
      <g>
        <path class="st25" d="M495.8,547.2c2.4,0.5,4.8,1,7.2,1.5c1.5,0.3,2.2-2,0.6-2.4c-2.4-0.5-4.8-1-7.2-1.5
          C494.9,544.5,494.3,546.9,495.8,547.2L495.8,547.2z"/>
      </g>
    </g>
    <g>
      <g>
        <path class="st25" d="M504.7,547.3c0-3.5,0-7.1,0-10.6c0-1.6-2.4-1.6-2.4,0c0,3.5,0,7.1,0,10.6
          C502.2,548.9,504.7,548.9,504.7,547.3L504.7,547.3z"/>
      </g>
    </g>
    <g>
      <g>
        <path class="st25" d="M495.8,535.8c2.6,0.4,5.1,0.9,7.6,1.2c1.6,0.2,1.5-2.3,0-2.4c-2.3-0.2-4.6-0.8-7-1.1
          C494.9,533.3,494.3,535.6,495.8,535.8L495.8,535.8z"/>
      </g>
    </g>
    <g>
      <g>
        <path class="st25" d="M510.5,543.5c-1.2-1.5-2.4-3-3.5-4.5c-0.9-1.2-1.5-2.8-2.5-3.9c-1.1-1.1-2.8,0.6-1.7,1.7
          c0.5,0.5,0.8,1.4,1.2,2c0.5,0.8,1.1,1.6,1.7,2.4c1.1,1.4,2.2,2.7,3.2,4.1C509.8,546.4,511.5,544.7,510.5,543.5L510.5,543.5z"/>
      </g>
    </g>
    <g>
      <g>
        <path class="st25" d="M507.3,539.1c0.8-1.3,1.6-2.7,2.4-4s-1.3-2.6-2.1-1.2c-0.8,1.3-1.6,2.6-2.4,4
          C504.4,539.2,506.5,540.5,507.3,539.1L507.3,539.1z"/>
      </g>
    </g>
    <g>
      <g>
        <path class="st25" d="M510.9,544.8c1.7-2,2.5-4.5,4-6.7c0.9-1.3-1.2-2.5-2.1-1.2c-1.3,2-2,4.4-3.6,6.2
          C508.2,544.2,509.9,546,510.9,544.8L510.9,544.8z"/>
      </g>
    </g>
    <g>
      <g>
        <path class="st25" d="M508.8,535.4c1,0.1,2,0.6,2.9,0.9c0.9,0.3,2,0.5,2.9,0.9c1.4,0.7,2.6-1.4,1.2-2.1c-1.1-0.5-2.3-0.8-3.4-1.2
          c-1.2-0.4-2.3-0.9-3.6-1C507.2,532.8,507.3,535.3,508.8,535.4L508.8,535.4z"/>
      </g>
    </g>
    <g>
      <g>
        <path class="st25" d="M514,536.2c0,3.6,0,7.2,0,10.8c0,1.6,2.4,1.6,2.4,0c0-3.6,0-7.2,0-10.8C516.5,534.7,514,534.7,514,536.2
          L514,536.2z"/>
      </g>
    </g>
    <g>
      <g>
        <path class="st25" d="M503.8,543.9c3.6,1.7,7.4,3.2,11.1,4.6c1.5,0.5,2.1-1.8,0.6-2.4c-3.5-1.3-7.2-2.7-10.5-4.3
          C503.7,541.1,502.4,543.2,503.8,543.9L503.8,543.9z"/>
      </g>
    </g>
    <g>
      <g>
        <path class="st25" d="M419.5,461.1c3.1-1,5.4,0.7,6.4,3.7c0.1,0.4,0.5,0.6,0.9,0.4c2-1.1,4.7-0.4,4.4,3.5c0,0.3,0.3,0.6,0.6,0.6
          c0.4,0,1.1,4.8,1,5.2c-0.5,1.3-3.6,3.1-4.1,1.6c-0.1-0.4-0.7-0.6-1-0.3c-1.9,0.1-3.8,0.2-5.6,0.3c-0.3-0.4-0.9-0.1-1,0.3
          c-2.5-0.2-4.9-0.4-7.4-0.5c-0.1-0.2-0.3-0.5-0.6-0.4c-6-1.9-6.7-4.1-2-6.6c0.3,0,0.6-0.3,0.6-0.6c1.4-0.4,2.7-0.8,4.1-1.2
          c0.3,0.6,1.1,0.3,1.1-0.3c-0.1-2.3,0.8-4.3,2.7-5.8c0.7-0.4,0-1.5-0.6-1.1c-2.6,1.7-3.1,3.9-3.3,6.9c0.4-0.1,0.8-0.2,1.1-0.3
          c-1.1-2-3.3-3.9-5.4-1.7c-0.8,0.8-0.9,2.1-1.5,2.9c-0.8,1-1.9,1.2-2.6,2.6c-1.5,3.2,0.3,5.1,3.2,6.3c1.9,0.8,2.2,1.3,3.5,2.6
          c1.2,1.2,2.8,1.7,4.4,1.3c1.4-0.3,1.9-1.5,2.9-2c1.2-0.6,0.3-0.1,2.2,0.2c1.8,0.3,2.8-1.3,4.2-1.3c0.5,0,1.4,1.3,2.3,1.4
          c2.6,0.3,4.6-3.8,5.4-5.8c1.3-3.5-1.4-3.5-3-5.6c-1-1.2-0.7-3.1-2.6-3.9c-1-0.4-2.6,0.6-3.3,0.3c-0.2-0.1-1.4-3.3-2.6-3.9
          c-1.6-0.8-3.2-0.6-4.8-0.1C418.4,460.2,418.7,461.4,419.5,461.1z"/>
      </g>
    </g>
    <g>
      <g>
        <path class="st25" d="M407.8,492.3c-0.4-2.8,4.3-2.7,4.8-0.8c0.1,0.3,0.3,0.5,0.6,0.4c1.5-0.1,4.2,1.2,2.8,3.2
          c-0.3,0.5-1.1,0.6-1.5,1c-0.2,0.2-0.2,0.6-0.3,0.8c-1,1.3-5,3.4-6,0.3c-0.1-0.4-0.5-0.6-0.9-0.4c-2-1.6-2.3-2.6-0.8-3.2
          c0.4-0.3,0.8-0.5,1.2-0.5c0.8-0.2,0.4-1.3-0.3-1.2c-1.9,0.4-3.7,1.8-3.4,3.9c0.3,2,2.3,2.8,4,1.9c-0.3-0.1-0.6-0.2-0.9-0.4
          c0.9,2.9,5,3.1,7.2,1.4c0.6-0.4,0.6-0.8,1-1.4s1-0.7,1.4-1.2c0.8-0.8,1-2.1,0.7-3.2c-0.4-1.1-1.4-1.9-2.5-2.2
          c-0.5-0.1-0.9-0.1-1.2-0.3c-0.5-0.4-0.8-0.9-1.4-1.2c-2.6-1.2-6,0.2-5.5,3.3C406.8,493.4,407.9,493.1,407.8,492.3L407.8,492.3z"
          />
      </g>
    </g>
    <g>
      <g>
        <path class="st25" d="M413.5,515.5c-0.7,2.6,2.3,4.4,4.2,2.4c-0.2,0-0.5,0.1-0.7,0.1c1.3,0.7,3.2,0.6,3.9-0.9
          c0.3-0.6,0.3-1.4,0-2c-0.3-0.7-0.9-0.8-1.2-1.3l-0.1-1.1c-0.1-0.5-0.4-1-0.7-1.3c-0.5-0.6-1.1-1-1.9-1c-1.5-0.2-2.8,1-2.9,2.5
          c0.3-0.2,0.6-0.4,0.9-0.5c-1.4-0.7-3.5-1-3.7,1.1c-0.2,1.8,1.5,3.1,3.1,3c0.8,0,0.8-1.2,0-1.2c-0.7,0.1-1.3-0.2-1.7-0.8
          c0.4-1.2,0.9-1.6,1.6-1.1c0.4,0.2,0.9-0.1,0.9-0.5c0.2-2.1,2.7-1.2,3.1,0.2c0.1,0.4,0,1.1,0.2,1.5c0.1,0.2,0.4,0.3,0.5,0.4
          c1,0.7,1,1.5-0.1,2.2c-0.5,0.1-1,0.1-1.4-0.2c-0.2-0.1-0.6-0.1-0.7,0.1c-1.3,1-2,0.6-2.1-1.2
          C414.9,515.1,413.7,514.7,413.5,515.5L413.5,515.5z"/>
      </g>
    </g>
    <g>
      <g>
        <path class="st25" d="M439.8,528.1c0.6-3.3,3.9-5.1,3.3-8.8c-0.5-2.8-2.8-5.1-5.6-5.3c-2.9-0.3-5.6,1.7-6.4,4.5
          c-1.1,3.8,2.2,6.1,2.6,9.6c0.1,0.8,1.3,0.8,1.2,0c-0.2-1.9-1.1-3.3-2-4.9c-1.8-3.4-0.2-8.2,4.3-7.9c3.7,0.2,5.7,4.4,4,7.5
          c-0.9,1.7-2.3,3-2.6,5C438.5,528.5,439.6,528.9,439.8,528.1L439.8,528.1z"/>
      </g>
    </g>
    <g>
      <g>
        <path class="st25" d="M434.8,533.1c0-0.1,0-0.8,0.1-0.8c0.6-0.1,0.6-1.1,0-1.2c-0.5,0-0.5-0.2-0.1-0.6c0.6,0,0.8-0.8,0.3-1.1
          c-0.4-0.2,0.4-0.6,0.5-0.6c0.2-0.1,0.7-0.1,0.9-0.1c0.3,0,0.6,0,1,0c0.1,0,1.9-0.1,1.2,0.7c-0.4,0.4-0.1,1,0.4,1
          c0.3,0.2,0.3,0.4-0.1,0.5c-0.4,0.3-0.4,0.8,0,1.1c0.5,0.4,0.3,1.1-0.1,1.4c-0.3,0.2-1,0.1-1.3,0.2
          C436.8,533.7,435.2,534,434.8,533.1c-0.1-0.9-1.3-0.5-1.1,0.2c0.7,2.3,3.5,1.7,5.3,1.4c1.8-0.4,2.1-2.6,0.6-3.7
          c0,0.4,0,0.7,0,1.1c1.3-1,1.4-2.6-0.5-2.8c0.1,0.3,0.3,0.7,0.4,1c0.5-0.6,0.9-1.5,0.3-2.3c-0.7-0.9-2.6-0.6-3.6-0.6
          c-0.8,0-1.9,0.2-2.4,0.9c-0.6,0.8,0,1.6,0.7,2.1c0.1-0.4,0.2-0.8,0.3-1.1c-0.8,0-1.4,0.5-1.6,1.3c-0.2,1,0.4,1.5,1.3,1.7
          c0-0.4,0-0.8,0-1.2c-0.8,0.2-1,1.3-1,2C433.7,533.9,434.9,533.9,434.8,533.1z"/>
      </g>
    </g>
    <g>
      <g>
        <path class="st25" d="M436.5,527.4c-0.6-1.9-0.6-3.9-1.4-5.8c-0.3-0.7-1.5-0.4-1.2,0.3c0.7,1.9,0.8,3.9,1.4,5.8
          C435.6,528.5,436.8,528.2,436.5,527.4L436.5,527.4z"/>
      </g>
    </g>
    <g>
      <g>
        <path class="st25" d="M438.6,520.9c-0.8,2-1.4,4-1.7,6.1c-0.1,0.8,1.1,1.1,1.2,0.3c0.3-2.1,0.9-4.1,1.7-6.1
          C440.1,520.5,438.9,520.2,438.6,520.9L438.6,520.9z"/>
      </g>
    </g>
    <g>
      <g>
        <path class="st25" d="M434.2,522.3c0.3,0.5,0.7,1.1,1.4,0.8c0.6-0.3,1.2-1.3,1.5-1.9c-0.4,0-0.7-0.1-1.1-0.1
          c0.2,0.6,0.3,1.1,0.6,1.6c0.2,0.3,0.7,0.4,1,0.1c0.6-0.5,0.8-1.2,1-1.9c-0.4-0.1-0.8-0.1-1.2-0.2c-0.1,0.6-0.3,1.5,0.5,1.8
          s1.5-0.4,1.5-1.2s-1.2-0.8-1.2,0h0.1c0.1,0.1,0.2,0.2,0.3,0.4c-0.1-0.3,0-0.7,0.1-1c0.1-0.7-1-0.7-1.2-0.2s-0.3,1-0.7,1.4
          c0.3,0,0.6,0.1,1,0.1c-0.3-0.4-0.4-0.9-0.5-1.3c-0.2-0.5-0.8-0.6-1.1-0.1c-0.3,0.4-0.6,1.2-1,1.4c0.2,0,0.4,0,0.6,0
          c-0.1-0.1-0.2-0.2-0.3-0.4C434.8,521,433.8,521.6,434.2,522.3L434.2,522.3z"/>
      </g>
    </g>
  </g>
</a>
<a xlink:href="#" target="_top">
  <g id="SOFTWARE">
    <g>
      <g>
        <path class="st25" d="M260.7,666.2c-0.1-2.4-1.7-4.6-4.3-4.8c-2.6-0.2-4.8,1.9-5.1,4.3c-0.3,2.5,1.3,4.9,3.9,5.2
          C258,671.3,260.5,669,260.7,666.2c0-1.1-1.7-1.1-1.7,0c-0.1,1.9-2,3.5-3.9,3c-1.6-0.4-2.4-2.1-2-3.6c0.9-3.5,5.7-3,5.9,0.6
          C259,667.3,260.7,667.3,260.7,666.2z"/>
      </g>
    </g>
    <g>
      <g>
        <path class="st25" d="M267.9,663.3c3.9,0.2,2.9,5.9-0.4,5.9C263.5,669.2,264.5,663.5,267.9,663.3c1.1-0.1,1.1-1.8,0-1.7
          c-5.6,0.3-6.6,9.3-0.4,9.3c2.5,0,4.3-2.1,4.6-4.4c0.4-2.8-1.5-4.8-4.2-4.9C266.8,661.6,266.8,663.3,267.9,663.3z"/>
      </g>
    </g>
    <g>
      <g>
        <path class="st25" d="M278.2,663.7c3.8-1.7,6,4.4,2,5.3c-1.1,0.3-2.4,0-3.1-0.9C275.9,666.7,276.7,664.5,278.2,663.7
          c1-0.5,0.1-2-0.9-1.5c-2.3,1.3-3.3,4.5-1.8,6.7c1.2,1.8,3.7,2.3,5.6,1.6c2.3-0.9,3.5-3.5,2.6-5.8c-1-2.7-4-3.6-6.5-2.5
          C276.3,662.7,277.2,664.2,278.2,663.7z"/>
      </g>
    </g>
    <path class="st26" d="M361.3,735.6H250.5c-3.8,0-6.9-3.1-6.9-6.9v-66.6c0-3.8,3.1-6.9,6.9-6.9h110.8c3.8,0,6.9,3.1,6.9,6.9v66.6
      C368.2,732.5,365.1,735.6,361.3,735.6z"/>
    <g>
      <g>
        <path class="st25" d="M244.4,678.1c41.1,0,82.3,0,123.4,0c1.1,0,1.1-1.7,0-1.7c-41.1,0-82.3,0-123.4,0
          C243.3,676.4,243.3,678.1,244.4,678.1L244.4,678.1z"/>
      </g>
    </g>
    <rect x="298.8" y="684.4" class="st27" width="61.4" height="44.4"/>
    <g>
      <g>
        <path class="st25" d="M304.2,706.4c5.6,0.2,7.4-1.2,8.5-7c-0.6,0-1.1,0-1.7,0c0.8,4.3,1.7,8.6,2.5,13c0.2,0.8,1.5,0.8,1.7,0
          c1.2-6,2.1-12,2.9-18.1c-0.6,0.1-1.1,0.2-1.7,0.2c1.5,7,3,13.9,4.4,20.9c0.2,1,1.6,0.7,1.7-0.2c0.4-4.7,0.3-9.4,1.5-14
          c-0.4,0.2-0.8,0.3-1.3,0.5c1.7,1.2,1.8,5.1,2.2,6.9c0.7,3.1,1.3,6.3,1.9,9.5c0.2,1,1.6,0.7,1.7-0.2c0.7-8.9,1.2-17.9,1.5-26.9
          c-0.6,0-1.1,0-1.7,0c-0.1,7,0.6,14,1.8,20.9c0.2,1,1.6,0.7,1.7-0.2c0.2-3.2,2.3-6.5,3.1-9.7c-0.6,0-1.1,0-1.7,0
          c0.5,3.3,1.2,6.5,1.7,9.8c0.1,1,1.7,0.7,1.7-0.2c0-2.6,0.9-5.3,1.4-7.9c0.7-3.6,1.2-7.2,1.9-10.8c-0.6,0-1.1,0-1.7,0
          c1.3,7.5,2.4,14.9,3.5,22.4c0.1,1.1,1.6,0.6,1.7-0.2c0.8-6.2,1.6-12.4,2.5-18.7c-0.6,0-1.1,0-1.7,0c0.1,3.3-0.1,7.4,1.5,10.4
          c0.2,0.4,0.8,0.5,1.2,0.3c0.6-0.3,0.4-0.8,0.9-1.2c1.9-1.3,3.5-1,5.6-1.6c1.1-0.3,0.6-2-0.5-1.7c-4.8,1.5-3.4-0.9-6.1,1.1
          c-1,0.7-0.1,3.2-0.2,0.5c-0.1-2.6-0.6-5.2-0.7-7.8c-0.1-1.1-1.6-1.1-1.7,0c-0.8,6.2-1.6,12.4-2.5,18.7c0.6-0.1,1.1-0.2,1.7-0.2
          c-1-7.5-2.2-15-3.5-22.4c-0.1-0.8-1.5-0.8-1.7,0c-0.8,3.9-1.4,7.9-2.1,11.8c-0.5,2.4-1.3,4.9-1.3,7.4c0.6-0.1,1.1-0.2,1.7-0.2
          c-0.5-3.3-1.2-6.5-1.7-9.8c-0.1-0.9-1.5-0.8-1.7,0c-0.8,3.3-2.9,6.7-3.2,10.1c0.6-0.1,1.1-0.2,1.7-0.2
          c-1.1-6.7-1.8-13.6-1.7-20.4c0-1.1-1.7-1.1-1.7,0c-0.3,9-0.8,17.9-1.5,26.9c0.6-0.1,1.1-0.2,1.7-0.2c-0.7-4.2-1.6-8.3-2.5-12.5
          c-0.4-1.9-0.7-3.8-2.4-4.9c-0.5-0.3-1.1,0-1.3,0.5c-1.2,4.7-1.1,9.6-1.5,14.4c0.6-0.1,1.1-0.2,1.7-0.2c-1.5-7-3-13.9-4.4-20.9
          c-0.2-1-1.6-0.7-1.7,0.2c-0.7,5.9-1.7,11.8-2.8,17.6c0.6,0,1.1,0,1.7,0c-0.8-4.3-1.7-8.6-2.5-13c-0.2-0.8-1.5-0.8-1.7,0
          c-0.5,2.3-0.8,5.2-3.5,5.8c-1,0.3-2.3,0-3.3-0.1C303.1,704.7,303.1,706.4,304.2,706.4L304.2,706.4z"/>
      </g>
    </g>
    <g>
      <g>
        <path class="st25" d="M306.9,661.6c-1.1,1.4-2.4,2.9-2.4,4.8c0,1.9,1.8,3.4,3.1,4.5c0.8,0.7,2-0.5,1.2-1.2
          c-1.1-1-2.8-2.2-2.5-3.9c0.2-1.3,1.3-2.4,2.1-3.4C309,661.6,307.5,660.8,306.9,661.6L306.9,661.6z"/>
      </g>
    </g>
    <g>
      <g>
        <path class="st25" d="M305.3,667.5c2.3,0,4.5,0,6.8,0c1.1,0,1.1-1.7,0-1.7c-2.3,0-4.5,0-6.8,0
          C304.2,665.7,304.2,667.5,305.3,667.5L305.3,667.5z"/>
      </g>
    </g>
    <g>
      <g>
        <path class="st25" d="M348.1,669.3c-3.2,3.9-9.1-1.5-6.4-5.3c2-2.9,6.3-2.5,7.5,0.8c0.4,1,2.1,0.6,1.7-0.5c-0.9-2.3-2.7-4-5.3-4
          c-2.3,0-4.6,1.3-5.6,3.3c-2.9,5.6,5.2,12.1,9.4,6.9C350,669.7,348.8,668.5,348.1,669.3L348.1,669.3z"/>
      </g>
    </g>
    <g>
      <g>
        <path class="st25" d="M346.5,664.8c1.1,0.6,2.9,2.3,4.2,1.6c0.7-0.3,0.8-1.1,1-1.8c0.3-0.9,0.5-1.8,0.8-2.6
          c0.3-1.1-1.3-1.5-1.7-0.5c-0.1,0.5-0.3,1-0.4,1.5c-0.1,0.3-0.2,1.4-0.5,1.7c-0.2,0.2,0.1,0.1-0.2,0c-0.2,0-0.5-0.3-0.7-0.4
          c-0.5-0.3-1.1-0.6-1.6-0.9C346.4,662.8,345.6,664.2,346.5,664.8L346.5,664.8z"/>
      </g>
    </g>
    <g>
      <g>
        <path class="st25" d="M326.3,662.5c0.7,1,1.9,2.1,2.1,3.4c0.3,1.6-1.4,2.9-2.5,3.9c-0.8,0.7,0.4,2,1.2,1.2
          c1.3-1.2,3.1-2.6,3.1-4.5s-1.3-3.4-2.4-4.8C327.2,660.8,325.7,661.6,326.3,662.5L326.3,662.5z"/>
      </g>
    </g>
    <g>
      <g>
        <path class="st25" d="M329.3,665.7c-2.3,0-4.5,0-6.8,0c-1.1,0-1.1,1.7,0,1.7c2.3,0,4.5,0,6.8,0
          C330.4,667.5,330.4,665.7,329.3,665.7L329.3,665.7z"/>
      </g>
    </g>
    <path class="st28" d="M368.2,724.7c0,0,7.1,0.2,8.4-0.2s3-1,4.2-3s1.1-2.5,1.1-3.7c0-1.1,0-64.3,0-66.6s-0.2-3.7-1.7-5.2
      s-2.9-1.7-5.2-1.7c-2.3,0-108-0.6-110.8,0c-2.9,0.6-2.9,0.6-4.9,2.1c-2.1,1.5-2,4.8-2,4.8v4"/>
    <path class="st28" d="M243.6,667.2c0,0-4.4,0-6.8,0c-2.4,0-5.9,3.9-5.9,6.5s0,64.1,0,67s2.3,6.9,6.9,6.9s110.6,0.3,112.2-0.1
      c1.5-0.4,5.6-1.6,5.6-6.8s0-5.2,0-5.2"/>
    <g>
      <g>
        <path class="st25" d="M256.9,689.9c3.8,0,7.7,0,11.5,0c1.1,0,1.1-1.7,0-1.7c-3.8,0-7.7,0-11.5,0
          C255.8,688.2,255.8,689.9,256.9,689.9L256.9,689.9z"/>
      </g>
    </g>
    <g>
      <g>
        <path class="st25" d="M272.6,689.7c0.1,0,0.1,0,0.2,0c1.1,0,1.1-1.7,0-1.7c-0.1,0-0.1,0-0.2,0C271.5,688,271.5,689.7,272.6,689.7
          L272.6,689.7z"/>
      </g>
    </g>
    <g>
      <g>
        <path class="st25" d="M257.5,694.9c1.1,0,1.1-1.7,0-1.7S256.4,694.9,257.5,694.9L257.5,694.9z"/>
      </g>
    </g>
    <g>
      <g>
        <path class="st25" d="M261.7,694.9c3,0,6,0,9,0c1.1,0,1.1-1.7,0-1.7c-3,0-6,0-9,0C260.6,693.2,260.6,694.9,261.7,694.9
          L261.7,694.9z"/>
      </g>
    </g>
    <g>
      <g>
        <path class="st25" d="M274.9,694.9c1.1,0,1.1-1.7,0-1.7S273.8,694.9,274.9,694.9L274.9,694.9z"/>
      </g>
    </g>
    <g>
      <g>
        <path class="st25" d="M257.7,700.3c3.6,0,7.3,0,10.9,0c1.1,0,1.1-1.7,0-1.7c-3.6,0-7.3,0-10.9,0
          C256.6,698.5,256.6,700.3,257.7,700.3L257.7,700.3z"/>
      </g>
    </g>
    <g>
      <g>
        <path class="st25" d="M272.4,700.1c3.8,0,7.7,0,11.5,0c1.1,0,1.1-1.7,0-1.7c-3.8,0-7.7,0-11.5,0
          C271.3,698.3,271.3,700.1,272.4,700.1L272.4,700.1z"/>
      </g>
    </g>
    <g>
      <g>
        <path class="st25" d="M257.9,704.9c0.1,0,0.3,0,0.4,0c1.1,0,1.1-1.7,0-1.7c-0.1,0-0.3,0-0.4,0
          C256.8,703.1,256.8,704.9,257.9,704.9L257.9,704.9z"/>
      </g>
    </g>
    <g>
      <g>
        <path class="st25" d="M261.9,704.9c1.1,0,1.1-1.7,0-1.7C260.8,703.1,260.8,704.9,261.9,704.9L261.9,704.9z"/>
      </g>
    </g>
    <g>
      <g>
        <path class="st25" d="M266.5,705c3.6,0,7.2,0,10.7,0c1.1,0,1.1-1.7,0-1.7c-3.6,0-7.2,0-10.7,0C265.4,703.3,265.4,705,266.5,705
          L266.5,705z"/>
      </g>
    </g>
    <g>
      <g>
        <path class="st25" d="M280.5,704.7c1.9,0,3.8,0,5.7,0c1.1,0,1.1-1.7,0-1.7c-1.9,0-3.8,0-5.7,0
          C279.4,702.9,279.4,704.7,280.5,704.7L280.5,704.7z"/>
      </g>
    </g>
    <g>
      <g>
        <path class="st25" d="M290,703.8c0-0.1,0-0.1,0-0.2c0-1.1-1.7-1.1-1.7,0c0,0.1,0,0.1,0,0.2C288.3,704.9,290,704.9,290,703.8
          L290,703.8z"/>
      </g>
    </g>
    <g>
      <g>
        <path class="st25" d="M257.9,709.8c2.7,0,5.4,0,8,0c1.1,0,1.1-1.7,0-1.7c-2.7,0-5.4,0-8,0C256.8,708.1,256.8,709.8,257.9,709.8
          L257.9,709.8z"/>
      </g>
    </g>
    <g>
      <g>
        <path class="st25" d="M269.6,709.8c1.1,0,2.2,0,3.3,0c1.1,0,1.1-1.7,0-1.7s-2.2,0-3.3,0C268.5,708.1,268.5,709.8,269.6,709.8
          L269.6,709.8z"/>
      </g>
    </g>
    <g>
      <g>
        <path class="st25" d="M275.7,709.6c3.1,0,6.1,0,9.2,0c1.1,0,1.1-1.7,0-1.7c-3.1,0-6.1,0-9.2,0
          C274.6,707.9,274.6,709.6,275.7,709.6L275.7,709.6z"/>
      </g>
    </g>
    <g>
      <g>
        <path class="st25" d="M288,709.6c0.8,0,1.7,0,2.5,0c1.1,0,1.1-1.7,0-1.7c-0.8,0-1.7,0-2.5,0C286.9,707.9,286.9,709.6,288,709.6
          L288,709.6z"/>
      </g>
    </g>
    <g>
      <g>
        <path class="st25" d="M279,695c1.8,0,3.5,0,5.3,0c1.1,0,1.1-1.7,0-1.7c-1.8,0-3.5,0-5.3,0C277.9,693.3,277.9,695,279,695L279,695
          z"/>
      </g>
    </g>
    <g>
      <g>
        <path class="st25" d="M258.2,715.6c1.8,0,3.7,0,5.5,0c1.1,0,1.1-1.7,0-1.7c-1.8,0-3.7,0-5.5,0
          C257.1,713.9,257.1,715.6,258.2,715.6L258.2,715.6z"/>
      </g>
    </g>
    <g>
      <g>
        <path class="st25" d="M267.2,713.9c-0.1,0-0.1,0-0.2,0c-1.1,0-1.1,1.7,0,1.7c0.1,0,0.1,0,0.2,0
          C268.3,715.6,268.3,713.9,267.2,713.9L267.2,713.9z"/>
      </g>
    </g>
    <g>
      <g>
        <path class="st25" d="M271,715.4c1.1,0,1.1-1.7,0-1.7S269.9,715.4,271,715.4L271,715.4z"/>
      </g>
    </g>
    <g>
      <g>
        <path class="st25" d="M257.7,720.5c3.1,0,6.2,0,9.4,0c1.1,0,1.1-1.7,0-1.7c-3.1,0-6.2,0-9.4,0
          C256.6,718.8,256.6,720.5,257.7,720.5L257.7,720.5z"/>
      </g>
    </g>
    <g>
      <g>
        <path class="st25" d="M271.2,718.6c-0.1,0-0.1,0-0.2,0c-1.1,0-1.1,1.7,0,1.7c0.1,0,0.1,0,0.2,0
          C272.3,720.3,272.3,718.6,271.2,718.6L271.2,718.6z"/>
      </g>
    </g>
    <g>
      <g>
        <path class="st25" d="M274.7,720.2c2,0,3.9,0,5.9,0c1.1,0,1.1-1.7,0-1.7c-2,0-3.9,0-5.9,0C273.6,718.5,273.6,720.2,274.7,720.2
          L274.7,720.2z"/>
      </g>
    </g>
    <g>
      <g>
        <path class="st25" d="M257.9,725.1c2.3,0,4.5,0,6.8,0c1.1,0,1.1-1.7,0-1.7c-2.3,0-4.5,0-6.8,0
          C256.8,723.4,256.8,725.1,257.9,725.1L257.9,725.1z"/>
      </g>
    </g>
    <g>
      <g>
        <path class="st25" d="M267.9,724.6c3,0,6,0,9,0c1.1,0,1.1-1.7,0-1.7c-3,0-6,0-9,0C266.8,722.9,266.8,724.6,267.9,724.6
          L267.9,724.6z"/>
      </g>
    </g>
    <g>
      <g>
        <path class="st25" d="M280.7,722.6c-0.1,0-0.1,0-0.2,0c-1.1,0-1.1,1.7,0,1.7c0.1,0,0.1,0,0.2,0
          C281.8,724.3,281.8,722.6,280.7,722.6L280.7,722.6z"/>
      </g>
    </g>
    <g>
      <g>
        <path class="st25" d="M274.9,715.4c0.9,0,1.9,0,2.8,0c1.1,0,1.1-1.7,0-1.7c-0.9,0-1.9,0-2.8,0
          C273.8,713.7,273.8,715.4,274.9,715.4L274.9,715.4z"/>
      </g>
    </g>
  </g>
</a>
</svg>
