<?xml version="1.0" encoding="utf-8"?>
<!-- Generator: Adobe Illustrator 21.1.0, SVG Export Plug-In . SVG Version: 6.00 Build 0)  -->
<svg version="1.1" id="Layer_1" xmlns="http://www.w3.org/2000/svg" xmlns:xlink="http://www.w3.org/1999/xlink" x="0px" y="0px"
	 viewBox="0 0 834 1254.7" style="enable-background:new 0 0 834 1254.7;" xml:space="preserve">
<style type="text/css">
	.st0{fill:url(#SVGID_1_);}
	.st1{opacity:0.3;}
	.st2{fill:url(#SVGID_2_);}
	.st3{fill:url(#SVGID_3_);}
	.st4{opacity:0.2;}
	.st5{fill:url(#SVGID_4_);}
	.st6{fill:url(#SVGID_5_);}
	.st7{fill:url(#SVGID_6_);}
	.st8{fill:url(#SVGID_7_);}
	.st9{fill:none;stroke:#FFFFFF;stroke-width:10;stroke-linecap:round;stroke-miterlimit:10;}
	.st10{fill:none;stroke:#FFFFFF;stroke-width:10;stroke-linecap:round;stroke-miterlimit:10;stroke-dasharray:15.5185,21.5535;}
	.st11{fill:none;stroke:#FFFFFF;stroke-width:10;stroke-linecap:round;stroke-miterlimit:10;stroke-dasharray:18.1593,25.2213;}
	.st12{fill:url(#SVGID_8_);}
	.st13{fill:none;stroke:#FFFFFF;stroke-width:10;stroke-linecap:round;stroke-miterlimit:10;stroke-dasharray:19.2796,26.7772;}
	.st14{fill:none;stroke:#FFFFFF;stroke-width:10;stroke-linecap:round;stroke-miterlimit:10;stroke-dasharray:19.1756,26.6327;}
	.st15{fill:url(#SVGID_9_);}
	.st16{fill:url(#SVGID_10_);}
	.st17{fill:url(#SVGID_11_);}
	.st18{fill:url(#SVGID_12_);}
	.st19{fill:url(#SVGID_13_);}
	.st20{fill:url(#SVGID_14_);}
	.st21{fill:url(#SVGID_15_);}
	.st22{fill:url(#SVGID_16_);}
	.st23{fill:url(#SVGID_17_);}
	.st24{fill:url(#SVGID_18_);}
	.st25{fill:#18A3C6;stroke:#FFFFFF;stroke-width:1.1918;stroke-miterlimit:10;}
	.st26{fill:#FFFFFF;}
	.st27{fill:none;stroke:#FFFFFF;stroke-width:2.871;stroke-miterlimit:10;}
	.st28{fill:none;stroke:#FFFFFF;stroke-width:0.5742;stroke-miterlimit:10;}
	.st29{fill:none;stroke:#FFFFFF;stroke-width:1.7226;stroke-miterlimit:10;}
	.st30{fill:none;}
	.st31{font-family:'Helvetica';}
	.st32{font-size:28px;}
</style>
<linearGradient id="SVGID_1_" gradientUnits="userSpaceOnUse" x1="523.3675" y1="225.6985" x2="523.3675" y2="104.0954">
	<stop  offset="0" style="stop-color:#FF2F15"/>
	<stop  offset="1" style="stop-color:#AB3428"/>
</linearGradient>
<path class="st0" d="M495.7,104.1v84.1c0,0,27.3-2,48.1,37.5c0,0,22.6-57.2-12.3-92.5C531.5,133.2,502.3,115.9,495.7,104.1z"/>
<g id="Layer_1_1_">
</g>
<g id="CLOUDS">
	<a xlink:href="#" target="_top" >
		<g id="XMLID_4_" class="st1">
			<g>

					<linearGradient id="SVGID_2_" gradientUnits="userSpaceOnUse" x1="312.1154" y1="100.5635" x2="568.2088" y2="100.5635" gradientTransform="matrix(1 0 0 1 0 430)">
					<stop  offset="0" style="stop-color:#FFFFFF"/>
					<stop  offset="0.9987" style="stop-color:#A5A5A5"/>
				</linearGradient>
				<path class="st2" d="M543.2,469.2c36.6,21.2,34.8,88-17.2,88.5c-7,0.1-15.6-3.3-16.3-10c0-0.3,0-0.6-0.1-1c0,0.3,0,0.7,0.1,1
					c1,19-8,38.5-22.7,50.6c-14.8,12.2-36.2,16.3-54,9.3s-30.9-25.4-30.5-44.6c-22.9,17.7-59.3,14.4-78.6-7.1
					c-12.7-14.1-16.9-38-3.7-51.7c12.1-12.5,32.1-11.3,49.3-9.2c-4.6-7,0.9-17.3,9-19.5c10.9-2.9,16.2,4.4,22.7,11.4
					c-1.2-7.4,1.1-15.1,5.7-21.1c4.5-6,11-10.2,18-12.8c25.4-9.4,48.6,4.5,55.8,29.6c6.1-11.3,20-18.4,32.5-19.6
					c3.5-0.4,7-0.3,10.5,0C531,463.8,537.5,466,543.2,469.2z"/>

					<linearGradient id="SVGID_3_" gradientUnits="userSpaceOnUse" x1="509.61" y1="117.2339" x2="509.66" y2="117.2339" gradientTransform="matrix(1 0 0 1 0 430)">
					<stop  offset="0" style="stop-color:#FFFFFF"/>
					<stop  offset="0.9987" style="stop-color:#A5A5A5"/>
				</linearGradient>
				<path class="st3" d="M509.6,546.7c0,0.3,0,0.6,0.1,1C509.6,547.4,509.6,547.1,509.6,546.7z"/>
			</g>
		</g>
	</a>
	<a xlink:href="#" target="_top" >
		<g id="XMLID_5_" class="st4">
			<g>

					<linearGradient id="SVGID_4_" gradientUnits="userSpaceOnUse" x1="142.1753" y1="303.216" x2="456.2979" y2="303.216" gradientTransform="matrix(1 0 0 1 0 430)">
					<stop  offset="0" style="stop-color:#FFFFFF"/>
					<stop  offset="0.9987" style="stop-color:#A5A5A5"/>
				</linearGradient>
				<path class="st5" d="M423.8,672.2c24.9,14.1,39.4,46.4,29.2,73.1c-6.5,17-21.9,29.8-39.3,35.1s-36.5,3.4-53.4-3.1
					c-5.2,10.9-15.1,20.7-27.2,21.5s-24.6-10.9-21.3-22.5c-3.7,10.5-7.6,21.1-14.2,30s-16.7,15.9-27.8,16.3
					c-7.2,0.2-14.2-2.4-20.4-5.9c-21.6-12.3-35.3-40-26.3-63.2c-12.5,11.2-30.1,16.4-46.7,13.7c-7.4-1.2-14.7-4-20.6-8.8
					c-16.1-12.9-18.1-39.4-5.1-55.4c12.9-16.1,37.9-20.2,56.1-10.5c-0.2-12.7,8.2-25,20-29.4c11.8-4.5,26.3-0.7,34.4,9
					c5-16.9,22.4-29.2,40-28.3c25,1.3,30.8,18.5,34,39.3C352.9,657.7,400.1,658.8,423.8,672.2z"/>
			</g>
		</g>
	</a>
	<a xlink:href="#" target="_top" >
		<g id="XMLID_6_" class="st4">
			<g>

					<linearGradient id="SVGID_5_" gradientUnits="userSpaceOnUse" x1="503.6039" y1="370.278" x2="797.5821" y2="370.278" gradientTransform="matrix(1 0 0 1 0 430)">
					<stop  offset="0" style="stop-color:#FFFFFF"/>
					<stop  offset="0.9987" style="stop-color:#A5A5A5"/>
				</linearGradient>
				<path class="st6" d="M765.4,754.1c19.8,10.9,36.9,33.1,31,56.7c-4.8,18.9-25.8,32.9-44.6,27.7c4,18.2-9.4,37.8-27.5,42.3
					c-18.1,4.4-38.2-5.6-47.1-21.9c-2.9,5.8-9.3,9.7-15.8,9.6s-12.8-4.2-15.5-10.1c-5.2,17.5-22.6,31.3-40.9,30.3
					c-18.3-1-34.6-18.4-32.7-36.6c-13.6,5.8-29.5,2.4-42.6-4.2c-11.3-5.7-22-14.5-25.2-26.7c-3.4-13,3.2-27.5,14.3-35
					s25.8-8.6,38.7-4.6c0.9-12.2,5.8-25.2,16.5-31.1c10.7-5.9,27.4-0.1,28.5,12.1c5.2-15.5,14-30.1,27.1-39.8s30.7-14,46.2-8.9
					c20.3,6.7,33.8,25.1,34.4,46.2C728.4,753,746.7,743.8,765.4,754.1z"/>
			</g>
		</g>
	</a>
	<a xlink:href="#" target="_top">
		<g id="XMLID_7_" class="st4">
			<g>

					<linearGradient id="SVGID_6_" gradientUnits="userSpaceOnUse" x1="7.7357" y1="587.9908" x2="349.4129" y2="587.9908" gradientTransform="matrix(1 0 0 1 0 430)">
					<stop  offset="0" style="stop-color:#FFFFFF"/>
					<stop  offset="0.9987" style="stop-color:#A5A5A5"/>
				</linearGradient>
				<path class="st7" d="M349.4,1033.5c0.6,23.6-19.8,44.4-42.9,49.3s-47.4-3.3-66.9-16.8c-3.5,6.2-8.5,12.2-15.4,13.8
					c-6.9,1.7-15.5-3.2-15.2-10.3c-2,23.4-26.5,42.4-49.7,38.4s-39.9-30.1-33.9-52.8c-22.8,12.3-49.9,16.2-75.3,11.1
					c-16-3.3-32.6-11.3-39.4-26.2c-9-19.7,3.6-44.3,22.9-54.2s42.6-8,63.4-1.8c0.1-11.5,0.5-23.3,5.2-33.8
					c4.6-10.5,14.6-19.5,26.1-19.5c15.3,0,21.5,10.7,27.2,22.8c0.4,0.9,0.9,1.8,1.8,2.2c1.5,0.5,2.8-0.9,3.7-2.1
					c15.7-21.6,38-31.5,65.5-23.2c23.1,7,41.1,28.6,43.8,52.6c17.5-1.9,35.9-0.1,51.4,8.5C337.1,999.9,348.9,1015.9,349.4,1033.5z"
					/>
			</g>
		</g>
	</a>
	<a xlink:href="#" target="_top" >
		<g id="XMLID_8_" class="st4">
			<g>

					<linearGradient id="SVGID_7_" gradientUnits="userSpaceOnUse" x1="504.7529" y1="677.9449" x2="822.1299" y2="677.9449" gradientTransform="matrix(1 0 0 1 0 430)">
					<stop  offset="0" style="stop-color:#FFFFFF"/>
					<stop  offset="0.9987" style="stop-color:#A5A5A5"/>
				</linearGradient>
				<path class="st8" d="M820.2,1096.9c5.5,14.2-1.3,31.1-13.5,40.2s-28.4,11.2-43.4,9c-2.7-0.4-5.5-0.9-8.1-0.1
					c-2.8,0.9-4.8,3.2-6.8,5.5c-17.9,20.3-42.1,38.5-69.1,37c-20.9-1.1-40.6-15.1-48.6-34.5c1.7,4.1-26,17.3-29.3,18.5
					c-10.7,4.1-22.4,6-33.9,4.9c-23.9-2.3-51.5-7.4-60.8-33.1c-1.7-4.6-2.1-9.7-1.9-14.6c0.8-17.3,8.8-30.1,22.2-35.9
					c4.8-2.1,10.3-3.2,16.3-3.4c3.8-0.1,8.2,0.1,10.5,3.1c-3.4-4.6,10.9-17.4,14.3-18.6c4-1.3,8.3-1.4,12.5-1.4
					c8-0.1,17.4,0.6,21.9,7.3c4.5-21.4,14.1-40.8,35.1-50c15.7-6.9,35-3.4,48.4,7.2s21.1,27.7,21.9,44.8
					c3.8-8.8,13.1-14.8,22.6-14.8s18.8,6.1,22.6,14.8c11.6-5.5,24.4-9.2,37.1-7.5C803.2,1077.2,815.5,1085,820.2,1096.9z"/>
			</g>
		</g>
	</a>
</g>
<g>
	<g>
		<path class="st9" d="M447.3,381.7c-0.2,3.8-0.3,6.7-0.3,9"/>
		<path class="st9" d="M447.6,407.7c0,2.3-0.1,5.2-0.3,9"/>
	</g>
</g>
<g>
	<g>
		<path class="st9" d="M364.8,598.7c-1.9,1.6-3.8,3.1-5.8,4.5"/>
		<path class="st10" d="M343.9,611.8c-7.2,3.5-14,6.3-19,9.6"/>
		<path class="st9" d="M318.6,627.3c-1.3,2-2,4.3-1.7,6.9"/>
	</g>
</g>
<g>
	<g>
		<path class="st9" d="M473,730.7c2.2,1.2,5.1,2,8.6,2.3"/>
		<path class="st11" d="M506.7,731.3c23.3-3.6,52.5-11,73-12.7"/>
		<path class="st9" d="M592.4,718.4c3.5,0.3,6.5,1.1,8.6,2.3"/>
	</g>
</g>
<linearGradient id="SVGID_8_" gradientUnits="userSpaceOnUse" x1="357.2856" y1="164.897" x2="414.0803" y2="164.897">
	<stop  offset="0" style="stop-color:#FF2F15"/>
	<stop  offset="1" style="stop-color:#AB3428"/>
</linearGradient>
<path class="st12" d="M414.1,104.1v84.1c0,0-28.1-2-49.4,37.5c0,0-23.2-57.2,12.6-92.5C377.3,133.2,407.3,115.9,414.1,104.1z"/>
<g>
	<g>
		<path class="st9" d="M571,884.9c-1.4,1.8-4.6,2.8-8.9,3.6"/>
		<path class="st13" d="M533.7,890.3c-28.8,1.3-67.6,4.5-92.5,27.9c-26.8,25.2-93.4,31.5-129.2,37.1"/>
		<path class="st9" d="M297.9,958c-4.7,1.2-7.9,2.3-8.9,3.7"/>
	</g>
</g>
<g>
	<g>
		<path class="st9" d="M320,1040.7c3.6-1,7.4-1.5,11-1.5"/>
		<path class="st14" d="M363.3,1045.5c14.3,4.7,28.2,10.2,40.8,10.2c36.3,0,124.6-30.6,167-17.8"/>
		<path class="st9" d="M585,1045.2c2.5,2.1,4.5,4.6,6,7.5"/>
	</g>
</g>
<g>

		<linearGradient id="SVGID_9_" gradientUnits="userSpaceOnUse" x1="400.4586" y1="-271.8124" x2="504.0127" y2="-271.8124" gradientTransform="matrix(1 0 0 1 0 430)">
		<stop  offset="0" style="stop-color:#18A3C6"/>
		<stop  offset="0.9987" style="stop-color:#2D728F"/>
	</linearGradient>
	<path class="st15" d="M504.1,137.3c0.1,8.2-0.1,16.4-0.7,24.6h-0.1c-28.3,21.8-71.3,22.8-100.7,2.8l-1.4,0.1
		c-0.3-3.4-0.4-6.9-0.6-10.3c-0.1-3.8-0.2-7.5-0.1-11.2h2c19.3,7.8,38.1,13.3,59.2,12.1c7.4-0.4,15-3.4,21.9-6
		C491.2,146.7,498.2,142.7,504.1,137.3z"/>

		<linearGradient id="SVGID_10_" gradientUnits="userSpaceOnUse" x1="400.6" y1="-329.7339" x2="504.1" y2="-329.7339" gradientTransform="matrix(1 0 0 1 0 430)">
		<stop  offset="0" style="stop-color:#18A3C6"/>
		<stop  offset="0.9987" style="stop-color:#2D728F"/>
	</linearGradient>
	<path class="st16" d="M503.8,128c0.2,3.1,0.2,6.2,0.3,9.3c-5.9,5.4-12.9,9.4-20.4,12.2c-7,2.5-14.5,5.6-21.9,6
		c-21,1.2-39.8-4.3-59.2-12.1h-2c0.1-7.6,0.5-15.2,1.2-22.8c2.2-22.8,7.3-45.2,15.2-66.7l0,0c0.6-0.3,18.8-9.1,37-9.1
		c17.3,0,33.3,10,35.3,11.4c6.5,17.5,10.8,35.8,13,54.4C503,116.3,503.5,122.1,503.8,128z"/>

		<linearGradient id="SVGID_11_" gradientUnits="userSpaceOnUse" x1="401.2" y1="-225.3405" x2="503.3" y2="-225.3405" gradientTransform="matrix(1 0 0 1 0 430)">
		<stop  offset="0" style="stop-color:#18A3C6"/>
		<stop  offset="0.9987" style="stop-color:#2D728F"/>
	</linearGradient>
	<path class="st17" d="M501,183.5c-0.4,2.6-0.8,5.2-1.2,7.8c-1.8,10.7-5,21.4-7.9,31.9c-3.2,11.8-4.3,29.6-20,22.2
		c-6.7-3.2-14.9-4.9-22.2-4.5c-4.7,0.3-9.3,1.5-13.9,2.8c-9,2.6-14.5,7.3-18.9-2.4c-2.6-5.6-2.9-12-4.7-17.8
		c-3.1-10-5.5-20.2-7.4-30.4c-1.7-9.3-2.9-18.7-3.6-28.1l1.4-0.1c29.4,20,72.4,19,100.6-2.8h0.1C502.8,169.1,502,176.3,501,183.5z"
		/>

		<linearGradient id="SVGID_12_" gradientUnits="userSpaceOnUse" x1="417" y1="-385.8661" x2="489.3" y2="-385.8661" gradientTransform="matrix(1 0 0 1 0 430)">
		<stop  offset="0" style="stop-color:#18A3C6"/>
		<stop  offset="0.9987" style="stop-color:#2D728F"/>
	</linearGradient>
	<path class="st18" d="M487.5,51.4c0.6,1.5,1.2,3.1,1.8,4.6c-2-1.3-18-11.4-35.3-11.4c-18.2,0-36.4,8.8-37,9.1l3.2-8.1
		c0-0.1,0.1-0.2,0.1-0.2c0.5-1.1,0.9-2.2,1.4-3.3c11-8.9,22.9-9.9,32.9-9.9c9.8,0,17.7,2.9,29.4,10.6
		C485.2,45.7,486.4,48.5,487.5,51.4z"/>

		<linearGradient id="SVGID_13_" gradientUnits="userSpaceOnUse" x1="421.6" y1="-408.5831" x2="483.9" y2="-408.5831" gradientTransform="matrix(1 0 0 1 0 430)">
		<stop  offset="0" style="stop-color:#CC4645"/>
		<stop  offset="1" style="stop-color:#AB3428"/>
	</linearGradient>
	<path class="st19" d="M465.6,9.7c7.1,10.5,13.2,21.6,18.3,33.1c-11.7-7.7-19.6-10.6-29.4-10.6c-10,0-21.9,1-32.9,9.9
		c3.2-7.6,6.9-15.1,10.8-22.4C440.9,4.3,452.2-10.3,465.6,9.7z"/>

		<linearGradient id="SVGID_14_" gradientUnits="userSpaceOnUse" x1="416.98" y1="-380.2161" x2="420.14" y2="-380.2161" gradientTransform="matrix(1 0 0 1 0 430)">
		<stop  offset="0" style="stop-color:#18A3C6"/>
		<stop  offset="0.9987" style="stop-color:#2D728F"/>
	</linearGradient>
	<path class="st20" d="M420.1,45.7l-3.2,8.1l0,0C418,51.1,419,48.4,420.1,45.7z"/>

		<linearGradient id="SVGID_15_" gradientUnits="userSpaceOnUse" x1="401.7" y1="-309.6661" x2="401.7" y2="-309.6661" gradientTransform="matrix(1 0 0 1 0 430)">
		<stop  offset="0" style="stop-color:#CC4645"/>
		<stop  offset="1" style="stop-color:#AB3428"/>
	</linearGradient>
	<path class="st21" d="M401.7,120.3"/>
</g>
<g id="XMLID_2_">
	<g>
		<linearGradient id="SVGID_16_" gradientUnits="userSpaceOnUse" x1="446.4705" y1="372.2339" x2="446.4705" y2="251.0007">
			<stop  offset="0.3045" style="stop-color:#F6FF00"/>
			<stop  offset="0.953" style="stop-color:#FF6300"/>
		</linearGradient>
		<path class="st22" d="M492.3,296.6c0.6,6.4,1.1,12.7-0.8,18.8c-1.1,3.5-2.6,6.8-4.2,10.1c-1,2-4.6,6.2-4.7,8.3
			c0.1-7.2-1-14.5-3.3-21.4c-1.6-4.7-4-9.5-8.5-11.7c0.9,7.2-1,14-1,21.1c0,6.3-1.7,12.6-3.8,18.5c-2.3,6.4-5.4,12.5-9.3,18
			c-1.9,2.7-4,5.2-6.2,7.6c-1.5,1.6-6.1,4.4-6.7,6.3c2.4-6.8,3.8-14.4,1.3-21.3c-2.9-8-9.9-13.9-13.4-21.7
			c-3.5-7.8,2.5-16.7-2.5-24.3c-2.5,6-6,11.6-10.9,15.9c-4.5,3.9-12.1,7.8-18.2,6.2c3.9-3.3,6.8-4.6,9.1-9.7
			c2.7-5.9,3.7-12.5,4.4-19c0.9-9.5,0.7-21.3,6.2-29.6c4.9-7.4,13.1-13.3,21.4-16.2c9.7-3.4,17-0.6,26,3.1
			C482.4,261.9,490.7,281.1,492.3,296.6z"/>
	</g>
	<g>
		<linearGradient id="SVGID_17_" gradientUnits="userSpaceOnUse" x1="446.4154" y1="372.4339" x2="446.4154" y2="251.2007">
			<stop  offset="0.3045" style="stop-color:#F6FF00"/>
			<stop  offset="0.953" style="stop-color:#FF6300"/>
		</linearGradient>
		<path class="st23" d="M492.3,296.6c-1.6-15.5-9.9-34.6-25.2-40.8c-9.1-3.7-16.3-6.5-26-3.1c-8.3,2.9-16.5,8.9-21.4,16.2
			c-5.5,8.3-5.2,20-6.2,29.6c-0.6,6.4-1.7,13-4.4,19c-2.3,5.1-5.2,6.4-9.1,9.7c6.1,1.6,13.7-2.4,18.2-6.2c4.9-4.2,8.4-9.9,10.9-15.9
			c5,7.6-1,16.5,2.5,24.3c3.4,7.8,10.5,13.6,13.4,21.7c2.4,6.8,1,14.4-1.3,21.3c0.6-1.9,5.2-4.7,6.7-6.3c2.2-2.4,4.3-5,6.2-7.6
			c3.9-5.5,7-11.6,9.3-18c2.1-5.9,3.8-12.2,3.8-18.5c0-7.1,2-13.9,1-21.1c4.5,2.1,6.9,7,8.5,11.7c2.3,6.9,3.4,14.1,3.3,21.4
			c0-2.1,3.7-6.3,4.7-8.3c1.6-3.2,3.1-6.6,4.2-10.1C493.4,309.2,492.9,302.9,492.3,296.6z"/>
	</g>
</g>
<g id="XMLID_1_">
	<g>

			<linearGradient id="SVGID_18_" gradientUnits="userSpaceOnUse" x1="440.1694" y1="-212.4205" x2="465.7457" y2="-212.4205" gradientTransform="matrix(1 0 0 1 0 430)">
			<stop  offset="0" style="stop-color:#CC4645"/>
			<stop  offset="1" style="stop-color:#AB3428"/>
		</linearGradient>
		<path class="st24" d="M465.7,184.2c0.2,2.8-0.1,5.5-0.4,8.3c-0.1,1.3-0.3,2.6-0.4,4c-1.1,10.7-1.5,21.1-3.1,31.8
			c-1,6.9-2.1,13.8-3.3,20.7c-0.5,2.8-1,5.6-1.6,8.4c-0.5,2.2-0.4,7.3-2,9.1c-3.4,3.6-4.8-1.6-5.6-4.1c-1.8-5.9-1.8-12-2.8-17.9
			c-3.5-19.6-6.2-39.8-6.2-59.7c0-3.4,0.1-6.9,1.5-10.2c3.1-7.2,12.8-10.2,19-3.5C464,174.7,465.4,179.7,465.7,184.2z"/>
	</g>
</g>
<g id="YONDER_LOGO">
	<circle class="st25" cx="453" cy="110.7" r="32.2"/>
	<g>
		<polygon class="st26" points="470.9,95.9 464.8,95.9 454.7,112.3 454.7,133.2 460.9,127.2 460.8,115.9 472.4,97.1 		"/>
		<polygon class="st26" points="435.7,95.9 441.8,95.9 451.9,112.3 451.9,133.2 445.8,127.2 445.8,115.9 434.2,97.1 		"/>
		<polygon class="st26" points="458.7,101.4 448,101.4 453.3,110.3 		"/>
	</g>
</g>
<a xlink:href="#" target="_top" >
	<g id="SCIENCE">
		<g>
			<g>
				<path class="st26" d="M182.3,887.4c3.6,0.2,9.3-0.3,12.5,1.4c3.8,2.1,1.9,5.6,0.3,8.3c-2.7,4.6-6.4,8.1-6.7,13.7
					c-0.4,6.2,0.8,13,1.3,19.2c0.6,6.6,3.2,11.3,6.9,16.8c8.4,12.1,18.3,22.9,27,34.8c2,2.8,4,5.6,5.6,8.7c2.7,5.3,1.6,9.6-2.7,13.6
					c-5.9,5.4-14.2,7.9-21.9,9.5c-14.3,2.9-29.6,4.2-44.2,3c-9.9-0.8-22.1-2.4-30.1-9.1c-11.5-9.6,2.6-23,8.1-31.8
					c3.7-5.8,7.2-11.7,11-17.3c3.7-5.4,7.9-10.4,10.3-16.6c2.5-6.5,3.3-14,3.3-20.9c0-5.7-0.8-12.1-4.4-16.7
					c-1.5-1.9-3.2-2.9-5.2-4.2c-2.1-1.4-5.4-3.3-3.1-7c1-1.5,3.9-2,5.5-2.5C164.5,888,173.4,887.2,182.3,887.4c1.6,0,1.6-2.5,0-2.5
					c-8.2-0.3-16.4,0.5-24.4,2.4c-3.8,0.9-10.3,2.1-10.7,7.1s4.7,6.8,7.8,9.5c7.1,5.9,5.9,17.5,5,25.6c-1,8.4-3.9,15.2-8.9,22.1
					c-5.3,7.3-10,15-14.8,22.7c-4,6.3-9.9,12.5-12.3,19.6c-1.3,3.8-1,8,1.2,11.4c5,7.9,16.5,10.8,25.1,12.3
					c16.4,2.8,32.9,1.7,49.2-0.7c10.9-1.7,31.5-5.9,33.9-19.5c1.2-6.6-4.9-13.6-8.6-18.4c-5-6.6-10.3-12.9-15.5-19.4
					c-3.4-4.3-6.8-8.7-9.9-13.2c-2.7-3.9-5.6-7.8-6.6-12.5c-1.1-5.2-1-10.8-1.4-16.1c-0.4-5.4-0.6-9.6,2.4-14.3
					c2.4-3.7,6.8-8.4,5.8-13.3c-1.3-6-12.8-5.1-17.2-5.3C180.7,884.8,180.7,887.3,182.3,887.4z"/>
			</g>
		</g>
		<g>
			<g>
				<path class="st26" d="M180.3,937.2c2.2-1,3.7-3.8,3.5-6.2c-0.3-3.6-4-4.4-7-3.6c-3.1,0.8-5.2,3.5-3.7,6.6
					c1.2,2.5,4.1,4.2,6.9,3.3c1.5-0.5,0.9-2.9-0.7-2.4c-1.5,0.5-3.1-0.5-3.9-1.9c-1-2,0.8-3,2.5-3.3s3.5,0.1,3.3,2.2
					c-0.2,1.3-1,2.6-2.3,3.2S178.8,937.8,180.3,937.2z"/>
			</g>
		</g>
		<g>
			<g>
				<path class="st26" d="M175.9,914.3c2.1-1.5,3.1-4.1,2.2-6.6c-0.9-2.5-3.7-3.6-6.2-2.7c-2.6,1-4.5,4.2-3.9,7
					C168.9,915.8,173.1,916,175.9,914.3c1.4-0.8,0.1-3-1.3-2.2c-1.6,1-4.3,1.2-4.1-1.4c0.1-1.5,1.3-3.1,2.8-3.4
					c3-0.6,3.4,3.4,1.4,4.9C173.3,913.1,174.6,915.3,175.9,914.3z"/>
			</g>
		</g>
		<g>
			<g>
				<path class="st26" d="M178.8,892.3c-1.5,1.7-2.1,4.2-0.2,5.9c1.7,1.6,4.4,1.6,6.3,0.5c3.3-1.8,2.4-6.1-0.7-7.5
					C182.4,890.3,180.3,890.9,178.8,892.3c-1.1,1.1,0.6,2.9,1.8,1.8c0.7-0.7,1.7-1.1,2.6-0.6c0.8,0.4,1.5,1.2,1.4,2
					c-0.3,2.5-6.8,1.6-4-1.4C181.7,892.9,179.9,891.1,178.8,892.3z"/>
			</g>
		</g>
		<g>
			<g>
				<path class="st26" d="M164.7,868.7c1.5-2.6,1.1-6.1-1.3-8.1c-2.6-2-6.3-0.9-8.2,1.5c-2.1,2.5-1.9,6.3,1,8.3
					C159,872.2,162.8,871.3,164.7,868.7c1-1.3-1.2-2.6-2.2-1.3c-1.1,1.5-3.6,2-5.1,0.7c-1.6-1.3-1.3-3.5,0.1-4.9
					c1.2-1.2,3.3-1.8,4.6-0.5c1.2,1.2,1.2,3.2,0.4,4.6C161.7,868.8,163.9,870,164.7,868.7z"/>
			</g>
		</g>
		<g>
			<g>
				<path class="st26" d="M221.9,1001.3c11.1-12.2-8.9-18.9-18.2-21.2c-15-3.7-31.8-2.6-46.9,0.2c-8.4,1.6-28.3,8-24.8,20.2
					c1.5,5,8.8,7.8,13.2,9.4c7.7,2.7,16.1,3.2,24.1,3.3C186.1,1013.4,208.5,1012.9,221.9,1001.3c1.2-1.1-0.6-2.8-1.8-1.8
					c-12,10.4-32,11-47,11.2c-8,0.1-16.4-0.1-24.1-2.2c-4-1.1-7.9-2.8-11.4-5.2c-4.7-3.3-3.8-7.7-0.1-11.5
					c10.4-10.5,29.3-10.9,43.1-11.3c7.8-0.2,15.6,0.3,23.2,2.2c3.9,1,7.6,2.5,11.3,4.2c1.3,0.6,2.6,1.1,3.8,1.9
					c4.6,2.8,4.5,7.1,1.2,10.7C219,1000.7,220.8,1002.5,221.9,1001.3z"/>
			</g>
		</g>
		<g>
			<g>
				<path class="st26" d="M189.9,958.3c5.8-2.9,8-9.1,1.1-12.3c-8-3.6-19.4-2.5-26.9,1.7c-5.2,2.9-8,7.9-1.6,11.2
					c7.7,4,19.3,2.4,27.1-0.5c1.5-0.6,0.8-3-0.7-2.4c-4.7,1.8-9.9,2.7-14.9,2.6c-2.7,0-5.6-0.3-8.2-1.1c-3.4-1-5.4-4.3-1.7-6.9
					c4.1-2.8,9.9-4,14.8-4.1c3-0.1,6,0.2,8.9,1.1c2.4,0.7,3,0.8,3.9,3.4c1.3,1.5,1.1,2.6-0.5,3.3c-0.7,0.9-1.6,1.5-2.7,1.8
					C187.2,956.8,188.4,959,189.9,958.3z"/>
			</g>
		</g>
		<g>
			<g>
				<path class="st26" d="M134.2,995.7c4.2-7.6,9.6-15,14.6-22.1c4.9-7,8.7-14.8,13.9-21.5c1-1.3-1.2-2.5-2.2-1.3
					c-5.2,6.7-9,14.6-13.9,21.5c-5.1,7.1-10.4,14.5-14.6,22.1C131.3,995.8,133.4,997.1,134.2,995.7L134.2,995.7z"/>
			</g>
		</g>
		<g>
			<g>
				<path class="st26" d="M192.3,949.8c7.8,14.7,18,27.5,28.6,40.3c1,1.2,2.8-0.5,1.8-1.8c-10.5-12.6-20.4-25.3-28.2-39.8
					C193.7,947.1,191.6,948.4,192.3,949.8L192.3,949.8z"/>
			</g>
		</g>
		<g>
			<g>
				<path class="st26" d="M183.4,972.9c1.2-1.6,1.8-3.7,0-5.1c-1.4-1.1-3.4-1.3-5.1-0.8c-1.9,0.6-3.1,2.2-2.8,4.2
					C176.1,974.8,181.1,975.4,183.4,972.9c1.1-1.2-0.7-3-1.8-1.8c-1,1.2-4,1.1-3.6-0.8c0.1-0.3,0.2-0.5,0.4-0.6
					c0.3-0.3,0.7-0.4,1.2-0.4c0.7-0.1,1.6,0,2.2,0.4c0.1,0.1,0.3,0.3,0.3,0.3c0,0.3-0.2,0.7-0.5,1.1
					C180.6,972.4,182.4,974.2,183.4,972.9z"/>
			</g>
		</g>
		<g>
			<g>
				<path class="st26" d="M173.1,993.4c1.4-2.3,1.6-6.9-1.7-7.6c-1.9-0.4-4.3,0.8-5.4,2.3c-1.3,1.8-0.8,4.4,0.9,5.8
					C168.9,995.7,171.5,995.7,173.1,993.4c0.9-1.3-1.3-2.6-2.2-1.3s-2.7,0.2-3.1-1c-0.6-1.5,1.2-2.7,2.5-2.9c0.4-0.1,0.6,0,0.7,0.1
					c0.3,0.2,0.4,0.5,0.5,1c0.2,0.9-0.1,2-0.6,2.8C170.1,993.5,172.2,994.8,173.1,993.4z"/>
			</g>
		</g>
		<g>
			<g>
				<path class="st26" d="M182.5,989.6c1.7-0.2,3-1.3,3-3.2c-0.1-1.6-1.2-3.1-2.7-3.5c-1.9-0.5-4.2,0.7-4.3,2.8
					S180.4,989.6,182.5,989.6c1.6,0,1.6-2.5,0-2.5c-0.6,0-1.7-0.6-1.5-1.3c0.1-0.4,1-0.4,1.2-0.4c0.3,0.1,0.4,0.3,0.5,0.4
					c0.1,0.2,0.1,0.2,0.2,0.3c0,0,0.1,0.5,0.1,0.3c0.1,0.4,0,0.6-0.4,0.6c-0.7,0.1-1.3,0.5-1.3,1.3
					C181.2,988.9,181.8,989.6,182.5,989.6z"/>
			</g>
		</g>
	</g>
</a>
<a xlink:href="#" target="_top" >
	<g id="MOTIONS">
		<g id="outer_4_">
			<path class="st26" d="M600.6,771.1c1.3,0,2,0.3,2.7,2.7c1.3,4.7,2.6,5.8,8.3,6.6c1.6,0.3,3,0.4,4.1,0.4c3.9,0,5.3-1.7,6.5-3.1
				c0.1-0.1,0.2-0.3,0.4-0.5c0.1-0.2,0.3-0.3,0.4-0.5c0.9-1.2,1.7-2.1,2.6-2.1c0.5,0,1.7,0.3,3.7,2.2c2.5,2.4,2.9,3.8,2.9,4.4
				c0,0.7-0.6,1.4-1.4,2.1c-3.6,3.2-2.7,7.5-1.4,11.4c1.9,5.5,4.6,6.5,6.9,6.9h0.2c0.7,0.2,1.4,0.2,2.1,0.3c0.8,0.1,1.9,0.1,2.1,0.4
				c0.1,0.1,0.6,0.8,0.2,3.9c-0.7,5.3-2,5.3-2.9,5.3c-0.6,0-1.4-0.1-2.3-0.3c-1-0.2-1.8-0.3-2.6-0.3c-3.4,0-4.9,2-7,4.9l-0.2,0.3
				l-0.2,0.2c-2.6,3.1-3.8,5-2.2,9.9c0.1,0.4,0.3,0.9,0.4,1.3c0.4,1.1,0.7,2.1,0.6,2.6c-0.1,0.3-0.7,1.3-4.2,2.6
				c-1.8,0.7-2.9,0.8-3.5,0.8c-1.2,0-1.5-0.3-2.2-2.3c-0.1-0.3-0.2-0.7-0.3-0.9c-1.2-3.3-2.7-4.8-8.7-5.9c-1.8-0.3-3.1-0.5-4.3-0.5
				c-3.4,0-5.1,1.4-6.5,3.5c-0.1,0.1-0.2,0.2-0.3,0.4c-0.7,1.2-1.4,1.9-2.3,1.9c-1,0-2.4-0.7-3.9-2c-2.7-2.2-3-3.5-3.1-4
				c0-0.8,0.7-1.5,1.5-2.4l0.2-0.2l0,0l0,0c2.8-3,3-6.3,0.9-11.3c-2.3-5.2-4.8-6.1-7.4-6.6c-0.2,0-0.3-0.1-0.5-0.1
				c-0.3-0.1-0.6-0.1-1-0.2c-1.2-0.2-2.2-0.4-2.7-1c-0.5-0.7-0.6-2.1-0.3-4c0.8-4.9,2.1-4.9,3.2-4.9c0.5,0,1.1,0.1,1.7,0.1h0.5
				c0.6,0.1,1.3,0.1,2,0.1c3.5,0,5.4-1.6,7.9-4.8c3-3.7,5.3-6.6,2.6-11.3l0,0c-0.5-1.1-1.1-2.3-0.8-3c0.1-0.3,0.7-1.2,3.2-2.3
				C598,771.4,599.5,771.1,600.6,771.1 M600.6,768.4c-1.4,0-3.2,0.4-5.4,1.2c-6.7,2.8-4.9,6.3-3.7,8.9c1.8,3.1,0.8,4.5-2.3,8.4
				c-2.4,3.1-3.6,3.8-5.8,3.8c-0.5,0-1.1,0-1.8-0.1c-0.8-0.1-1.6-0.2-2.4-0.2c-2.6,0-4.8,1-5.8,7.1c-1.3,8,4.1,7.7,6,8.1
				c2,0.4,3.9,0.3,6,5.2c2.1,4.8,1.1,6.8-0.4,8.4c-1.6,1.6-5.4,4.8,1.6,10.4c2.3,1.9,4.1,2.5,5.6,2.5c2.9,0,4.3-2.7,4.7-3.4
				c1.1-1.6,2.1-2.4,4.4-2.4c1,0,2.2,0.1,3.8,0.4c5.4,0.9,5.9,2,6.7,4.2c0.7,1.7,1,5,4.9,5c1.1,0,2.6-0.3,4.4-1
				c8.1-3.1,5.9-6,4.7-9.7c-1.3-3.9-0.4-4.7,2-7.7c2.2-2.9,3-4.2,5.2-4.2c0.6,0,1.3,0.1,2.1,0.3c1,0.2,1.9,0.3,2.7,0.3
				c2.6,0,4.6-1.3,5.5-7.6c1.2-8.4-3.5-6.8-6.4-7.5c-1.6-0.3-3.5-0.4-5.2-5.3s-1.2-6.9,0.6-8.5s4.7-4.6-1.4-10.4
				c-2.2-2.1-4-2.9-5.5-2.9c-2.5,0-4,2.2-5.1,3.5c-1.3,1.5-1.8,2.7-4.9,2.7c-0.9,0-2.1-0.1-3.7-0.4c-4.9-0.7-5.3-1.3-6.2-4.7
				C605.1,770.6,604,768.4,600.6,768.4L600.6,768.4z"/>
		</g>
		<g id="circle_5_">
			<path class="st26" d="M608.7,795.8c3.6,0,6.5,2.9,6.5,6.5s-2.9,6.5-6.5,6.5s-6.5-2.9-6.5-6.5S605.1,795.8,608.7,795.8
				 M608.7,793.2c-5.1,0-9.2,4.1-9.2,9.2c0,5.1,4.1,9.2,9.2,9.2c5.1,0,9.2-4.1,9.2-9.2C617.8,797.3,613.7,793.2,608.7,793.2
				L608.7,793.2z"/>
		</g>
		<g>
			<path class="st26" d="M676.7,696.8c1.5,0,1.7,0.4,1.8,0.6c0.5,1,0.4,3.6,0.3,5.6c-0.2,3.8-0.3,7.7,2.1,9.9
				c1.5,1.4,5.4,4.5,9.7,4.5c1.2,0,2.3-0.2,3.3-0.7c2-0.9,3.4-2.5,4.5-3.8c0.6-0.7,1.2-1.5,1.8-2.4c1.2-1.7,3.1-4.4,4.4-4.4
				c0.1,0,0.2,0,0.3,0c1.2,0.3,2.3,1.4,3.6,2.7l2.2,2.2l2.2,2.2c0.8,0.8,1.6,1.6,1.9,2.4c0.6,1.5-3.2,4.3-5.3,5.8
				c-1.2,0.9-2.4,1.7-3.2,2.6c-0.4,0.4-1.3,1.3-1.6,2.5c-1.2,4.3,2.8,9.1,6,10.5c1,0.4,2.1,0.6,3.5,0.6c1.7,0,3.4-0.3,5.1-0.6
				c1.5-0.3,3.1-0.5,4.3-0.5c1,0,1.6,0.2,1.8,0.5c0.3,0.4,0.4,1.2,0.5,2c0.1,0.5,0.2,1,0.2,1.6c0.4,2.8,1.2,8.1-0.1,9.9
				c0,0.1-0.2,0.2-1.1,0.2c-0.5,0-1,0-1.6-0.1c-0.7-0.1-1.4-0.1-2.1-0.1l0,0c-0.9,0-3.6,0-5.6,2.2c-1.3,1.4-1.7,3.2-1.9,4.5
				l-0.7,3.6c-0.3,1.5-0.7,3.3-0.4,5.2c0.6,4.4,4.3,5.7,7,6.7c2.1,0.8,3.2,1.3,3.4,2.2c0.7,2.6-4.6,9.8-8,11.6
				c-0.8-0.5-1.6-1.2-2.4-1.9c-2.1-1.8-4.6-3.9-7.8-3.9c-1.6,0-3.3,0.5-4.9,1.6l-2.2,1.4l-2.2,1.4c-1,0.6-2.4,1.6-3.1,3.3
				c-0.8,2-0.2,4.7,0.3,7c0.2,0.7,0.3,1.4,0.4,1.8c0.1,0.8,0.3,1.5,0.4,2.2c0.5,2.2,0.5,2.4-0.5,3.2c-1.3,1-3.4,1.2-5.2,1.4
				l-3.1,0.4l-2.8,0.3c-0.5,0.1-1.2,0.1-1.8,0.1c-0.7,0-1.6-0.1-1.9-0.5c-0.4-0.5-0.5-1.6-0.5-2.7c0-0.2,0-0.4,0-0.6
				c-0.3-5-1.5-9.8-8-11.4c-0.5-0.1-1-0.3-1.4-0.4c-1.8-0.5-3.7-1-5.7-1c-2.1,0-4,0.6-5.7,1.8c-1.3,0.9-2.2,2.1-3.1,3.1l-2.8,3.5
				l-0.7,0.8c-0.5,0.6-1.2,1.5-1.8,1.7c-0.1,0-0.2,0-0.3,0c-0.4,0-1.5-0.3-3.4-2.5l-5.1-5.8l-0.9-1.1c-0.9-1-1.3-1.8-1.3-2.4
				c0.1-0.8,1.5-2,2.8-3.1c2.2-1.8,5-4.1,5.3-7.7c0.1-1-0.3-1.8-0.4-2.3c-1.2-2.9-2.5-5.8-3.9-8.6c-0.3-0.6-0.7-1.6-1.8-2.3
				c-0.7-0.4-1.5-0.6-2.4-0.6c-0.4,0-0.7,0-1,0.1c-2.3,0.3-4.4,1.1-6.4,1.8c-2,0.8-3.9,1.5-5.7,1.5h-0.1c-0.3,0-0.5-0.1-0.6-0.1
				c-0.1-0.1-0.3-0.6-0.3-0.7c-0.1-0.3-0.2-0.6-0.3-1c-1.1-2.9-3.5-9.7-2.6-12.3c0.6-1.5,4.9-1.5,6.8-1.5h0.3h0.3c0.5,0,1,0,1.4,0
				c6.6-0.2,8.1-0.8,10.6-7.2c1-2.5,1.5-4.8,2-7.2c1.2-6.1-4.2-8.6-7.4-10c-3.6-1.6-4.7-2.9-4.9-3.7c-0.2-1,0.5-2.2,1.2-3.1
				c2.2-2.9,4.5-5.8,6.8-8.5c0.6-0.8,1.2-1.1,1.8-1.1c2,0,5,4,6.7,6.2c0.7,0.9,1.3,1.7,1.9,2.4c0.9,1,2.3,2.7,4.6,2.9
				c0.2,0,0.4,0,0.6,0c1.7,0,3.2-0.9,4.1-1.4c0.4-0.2,0.8-0.5,1.3-0.7c2.5-1.4,6-3.3,6.2-7.6c0-1-0.1-1.9-0.2-2.6
				c-0.2-0.9-0.5-1.9-0.9-3.2c-0.5-1.5-1.6-4.8-1.3-5.8l0,0c1.1-1.8,6.4-2.2,9-2.5c0.5,0,1-0.1,1.4-0.1c0.5,0,1-0.1,1.5-0.2
				C674.9,696.9,675.8,696.8,676.7,696.8 M676.7,694.1c-1.6,0-3.3,0.3-4.6,0.5c-3.4,0.3-10.3,0.5-12.3,3.8
				c-1.5,2.2,1.4,8.4,1.8,10.8c0.1,0.7,0.2,1.4,0.2,2.1c-0.2,3.5-3.7,4.7-6.2,6.2c-0.8,0.5-1.8,1-2.7,1c-0.1,0-0.2,0-0.3,0
				c-1.2-0.1-2.1-1.1-2.9-2c-2.5-2.8-6.4-9.4-10.5-9.4c-1.2,0-2.5,0.6-3.8,2.1c-2.4,2.8-4.7,5.7-6.9,8.7c-4.1,5.4-0.4,8.5,4.7,10.8
				c3.4,1.5,6.6,3.1,5.9,7.1c-0.5,2.4-0.9,4.5-1.8,6.8c-2.1,5.1-2.4,5.3-8.3,5.5c-0.4,0-0.8,0-1.3,0c-0.2,0-0.3,0-0.5,0
				c-3.3,0-8.1,0.1-9.3,3.2c-1.4,3.8,1.6,11.5,2.9,15c0.2,0.6,0.4,1.1,0.8,1.6c0.6,0.7,1.6,1,2.6,1c0.1,0,0.1,0,0.2,0
				c4.2-0.2,8-2.9,12.3-3.4c0.2,0,0.5-0.1,0.7-0.1c0.3,0,0.7,0.1,1,0.2c0.4,0.3,0.6,0.7,0.8,1.2c1.3,2.8,2.6,5.7,3.8,8.6
				c0.1,0.3,0.3,0.6,0.2,1c-0.6,6.3-12.8,7.6-6.2,15.1c2,2.3,4,4.6,6.1,6.9c1.4,1.6,3.4,3.4,5.4,3.4c0.3,0,0.7,0,1-0.2
				c1.3-0.4,2.2-1.5,3.1-2.6c1.1-1.4,2.3-2.9,3.4-4.3c0.7-0.9,1.5-1.9,2.5-2.6c1.4-1,2.8-1.3,4.2-1.3c2.1,0,4.3,0.8,6.5,1.3
				c4.8,1.2,5.8,4.4,6,9.1c0.1,1.7,0.1,3.6,1.2,4.8c1,1.1,2.4,1.4,3.9,1.4c0.7,0,1.4-0.1,2.1-0.1c2-0.2,3.9-0.5,5.9-0.7
				c2.2-0.3,4.6-0.6,6.4-1.9c3.2-2.3,1.6-4.8,1.2-7.8c-0.2-1.9-1.6-5.7-0.8-7.5c0.4-0.9,1.3-1.5,2.1-2.1c1.4-0.9,2.9-1.9,4.3-2.8
				c1.3-0.8,2.4-1.2,3.5-1.2c3.4,0,5.9,3.5,8.9,5.5c0.4,0.2,0.8,0.5,1.2,0.5l0,0c0.4,0,0.7-0.1,1.1-0.3c3.7-1.8,10.8-10.2,9.5-14.8
				c-1.3-4.8-9.5-3.1-10.3-8.5c-0.2-1.4,0.1-2.9,0.4-4.3c0.2-1.2,0.5-2.4,0.7-3.6c0.2-1.2,0.5-2.4,1.3-3.3c1-1.1,2.3-1.3,3.6-1.3
				c1.2,0,2.5,0.2,3.7,0.2c1.3,0,2.4-0.3,3.2-1.3c2.3-3.2,0.9-9.9,0.4-13.5c-0.1-1-0.3-2.1-0.8-3c-0.8-1.4-2.3-1.8-4.1-1.8
				c-2.9,0-6.6,1.1-9.4,1.1c-0.9,0-1.8-0.1-2.5-0.4c-2.4-1-5.2-4.7-4.5-7.3c0.1-0.5,0.5-0.9,0.9-1.3c2.7-2.7,10.9-6.7,9-11.2
				c-0.5-1.3-1.5-2.3-2.4-3.2c-1.5-1.5-2.9-3-4.4-4.5c-1.4-1.4-2.9-3-4.9-3.4c-0.3-0.1-0.6-0.1-0.9-0.1c-3.6,0-6.1,5.3-8.2,7.7
				c-1.1,1.2-2.2,2.5-3.6,3.2c-0.7,0.3-1.4,0.5-2.2,0.5c-2.9,0-6-2.1-7.9-3.8c-2.6-2.4-0.1-11-1.7-14.6
				C680.2,694.6,678.5,694.1,676.7,694.1L676.7,694.1z"/>
		</g>
		<g>
			<path class="st26" d="M677.2,735.5L677.2,735.5c0.2,0,0.5,0,0.7,0c4.1,0.2,7.9,2,10.7,5s4.2,7,4,11.1
				c-0.4,8.3-7.2,14.8-15.5,14.8c-0.2,0-0.5,0-0.7,0c-8.5-0.4-15.2-7.6-14.8-16.2C662.1,742,668.9,735.5,677.2,735.5 M677.2,732.9
				c-9.6,0-17.7,7.6-18.1,17.3c-0.4,10,7.3,18.5,17.3,18.9c0.3,0,0.5,0,0.8,0c9.6,0,17.7-7.6,18.1-17.3c0.4-10-7.3-18.5-17.3-18.9
				C677.8,732.9,677.5,732.9,677.2,732.9L677.2,732.9z"/>
		</g>
		<g id="outer_1_">
			<path class="st26" d="M653.6,806.4c0.8,0,0.9,0,1.2,1.4c0.7,3.6,1.9,4.7,6.1,5.6c1.5,0.3,2.6,0.5,3.6,0.5c2.7,0,3.8-1.3,4.7-2.2
				c0.1-0.1,0.2-0.2,0.3-0.3s0.2-0.2,0.3-0.3c0.3-0.3,1-1.1,1.3-1.1c0,0,0.6,0,1.9,1.4c1.6,1.7,1.6,2.5,1.6,2.6
				c0,0.3-0.6,0.7-0.8,0.8c-3,2.3-2.5,5.9-1.7,8.7c1.2,4.1,3.1,5.2,5,5.7h0.1c0.5,0.2,1.1,0.2,1.6,0.3c0.3,0,0.6,0.1,0.9,0.1
				c0,0.3,0.1,0.8-0.2,2c-0.5,2.5-1.1,2.9-1.1,2.9l0,0c0,0-0.1,0-0.2,0c-0.4,0-1-0.1-1.5-0.3c-0.9-0.3-1.6-0.4-2.3-0.4
				c-2.5,0-3.8,1.6-5.4,3.4l-0.1,0.2l-0.1,0.1c-2,2.1-3.2,3.6-2.2,7.5c0.1,0.3,0.2,0.6,0.3,1s0.3,1,0.3,1.3
				c-0.1,0.1-0.7,0.6-2.5,1.1c-1,0.3-1.7,0.4-2,0.4s-0.4,0-0.5,0l0,0c-0.1-0.1-0.3-0.7-0.4-1.1c-0.1-0.3-0.1-0.5-0.2-0.7
				c-0.9-2.9-2.3-4-6.4-5c-1.6-0.4-2.7-0.5-3.6-0.5c-2.5,0-3.9,1.3-4.8,2.5c-0.1,0.1-0.1,0.2-0.2,0.3c-0.2,0.3-0.6,0.9-1,0.9
				c-0.1,0-0.8-0.1-2.2-1.3c-1.3-1.2-1.7-2-1.7-2.3c0-0.2,0.6-0.8,0.9-1l0.1-0.1l0,0l0,0c2.3-2.2,2.7-4.8,1.3-8.6
				c-1.5-4.1-3.5-4.9-5.4-5.4c-0.1,0-0.2-0.1-0.3-0.1c-0.2-0.1-0.5-0.1-0.7-0.2c-0.4-0.1-1.1-0.2-1.3-0.5c-0.1-0.2-0.2-0.8,0-2.2
				c0.6-2.6,1.2-2.6,1.4-2.6c0.3,0,0.8,0.1,1.3,0.2l0.4,0.1c0.7,0.1,1.4,0.2,2,0.2c2.4,0,3.9-1.2,5.8-3.2c2.2-2.4,4.3-4.7,2.4-8.6
				c-0.2-0.4-0.5-1.2-0.4-1.5c0,0,0.3-0.5,1.8-1C652,806.5,652.9,806.4,653.6,806.4 M653.6,803.7c-0.9,0-2,0.2-3.4,0.6
				c-4.8,1.7-3.7,4.2-2.9,6c1.1,2.2,0.4,3.2-2,5.7c-1.6,1.8-2.5,2.4-3.8,2.4c-0.5,0-1-0.1-1.6-0.2c-0.7-0.1-1.4-0.2-2-0.2
				c-1.6,0-3.1,0.8-3.9,4.7c-1.2,5.5,2.5,5.5,3.8,5.9c1.4,0.4,2.7,0.4,3.9,3.8c1.2,3.4,0.4,4.8-0.7,5.8c-1.2,1-3.9,3.1,0.6,7.3
				c1.6,1.5,2.9,2,4,2c1.9,0,2.9-1.7,3.2-2.1c0.8-1,1.4-1.5,2.8-1.5c0.7,0,1.7,0.2,3,0.5c3.7,0.9,4,1.6,4.5,3.2
				c0.4,1.3,0.5,3.7,3.5,3.7c0.7,0,1.7-0.1,2.8-0.5c5.8-1.8,4.3-3.9,3.7-6.5c-0.7-2.8-0.1-3.3,1.7-5.2c1.5-1.8,2.2-2.7,3.5-2.7
				c0.5,0,1,0.1,1.7,0.3c0.8,0.2,1.5,0.3,2.2,0.3c1.7,0,3-1,3.8-5c1.2-5.8-2.1-4.9-4.1-5.5c-1.1-0.3-2.4-0.4-3.3-3.9
				s-0.5-4.9,0.8-5.9s3.5-3-0.5-7.3c-1.5-1.7-2.8-2.2-3.8-2.2c-1.6,0-2.7,1.4-3.5,2.2c-0.9,0.9-1.3,1.7-3,1.7c-0.7,0-1.7-0.1-3-0.4
				c-3.4-0.7-3.6-1.1-4.1-3.6C657,805.4,656.3,803.7,653.6,803.7L653.6,803.7z"/>
		</g>
		<g id="circle_1_">
			<path class="st26" d="M658,823.9L658,823.9c0.1,0,0.2,0,0.2,0c2.1,0.1,3.6,1.9,3.5,4c-0.1,2-1.8,3.5-3.7,3.5c-0.1,0-0.2,0-0.2,0
				c-1-0.1-1.9-0.5-2.6-1.3c-0.7-0.7-1-1.7-0.9-2.7C654.4,825.4,656.1,823.9,658,823.9 M658,821.3c-3.3,0-6.1,2.6-6.3,6
				c-0.2,3.5,2.4,6.5,5.9,6.7c0.1,0,0.3,0,0.4,0c3.3,0,6.1-2.6,6.3-6c0.2-3.5-2.4-6.5-5.9-6.7C658.3,821.3,658.2,821.3,658,821.3
				L658,821.3z"/>
		</g>
	</g>
</a>
<a xlink:href="#" target="_top" >
	<g id="ELECTRICAL">
		<g>
			<g>
				<path class="st26" d="M648.7,998.1c0.4,0,0.3-0.1-0.3,0c-0.2,0-0.3,0-0.5,0c-0.6,0-1.1,0-1.7,0c-1,0-2.1,0-3.1,0.1
					c-1.6,0-1.6,2.5,0,2.5c1.3,0,2.6,0,3.8-0.1c1,0,2.1,0.2,3-0.3C651.4,999.5,650.1,997.3,648.7,998.1L648.7,998.1z"/>
			</g>
		</g>
		<g>
			<g>
				<path class="st26" d="M660.1,1000.7c5,0.1,6.7,1.2,9.6,5.3c0.7,1,2.2,2.5,2.6,3.6c1.1,0.9,0.9,1.7-0.7,2.5
					c-0.5,1.4-1.5,1.9-2.9,1.6c-3.1,0.5-6.6-0.1-9.7-0.1c-3.6,0-7.2,0-10.8,0c-7.5,0-15,0.1-22.5,0c-1.5,0-4.5,0.6-5.5-0.4
					c-1.8-1.7,0.1-4.4,1.1-5.8c3.1-4.1,5.5-6.7,11.2-6.8c1.6,0,1.6-2.5,0-2.5c-5.6,0.1-8,1.4-11.6,5.7c-1.8,2.2-5.7,6-4.5,9.2
					c1.4,3.7,7.3,3,10.2,3c7.2-0.1,14.4,0,21.5,0c6.3,0,12.6,0,18.9,0.1c2.8,0,7.9,0.5,8.8-3.1c0.9-3.6-4.1-8.6-6-11
					c-2.6-3.4-5.7-3.8-9.9-3.9C658.5,998.2,658.5,1000.7,660.1,1000.7L660.1,1000.7z"/>
			</g>
		</g>
		<g>
			<g>
				<path class="st26" d="M616.2,1033.2c1.6,3.9,4.3,3.3,8.4,3.7c7.3,0.7,14.7,0.8,22.1,0.7c6.9-0.1,13.9,0,20.8-0.4
					c2.9-0.2,7.7-0.2,8.2-3.8c0.2-1.6-2.2-2.3-2.4-0.7c-0.5,3.6-24.2,2.4-27.6,2.4c-4.5,0.1-9,0-13.5-0.2
					c-2.7-0.1-12.4,0.6-13.6-2.3C618,1031.1,615.6,1031.7,616.2,1033.2L616.2,1033.2z"/>
			</g>
		</g>
		<g>
			<g>
				<path class="st26" d="M634,1000.1c0.1-2.3,3.5-1.8,5.1-1.7c0.6,0,0.9,0,1.5,0.4c0.7,0.5,0.6,0.6,0.6,1.4c0,1,0.1,2.6-0.3,3.4
					c-0.8,1.5-4,1-5.3,0.9c-1.4-0.1-1.6-0.5-1.5-1.9C633.9,1001.8,633.9,1001,634,1000.1c0.1-1.6-2.4-1.6-2.5,0
					c-0.1,3.2-0.6,6.7,3.6,6.9c1.8,0.1,4,0.3,5.7-0.3c1.8-0.6,2.4-1.9,2.6-3.7c0.2-1.6,0.5-3.8-0.2-5.3c-0.8-1.5-2.3-1.7-3.8-1.8
					c-3.5-0.3-7.7-0.2-7.9,4.2C631.4,1001.7,633.9,1001.7,634,1000.1z"/>
			</g>
		</g>
		<g>
			<g>
				<path class="st26" d="M657,1004.4c-1.2,0.2-3,0.5-4.2,0.2c-1.7-0.4-1.5-1.6-1.5-3c0-1.6-0.9-7.2,0.7-8.1c0.6-0.3,2.8-0.1,3.5,0
					c1.8,0.2,1.7,1.2,1.8,2.8C657.4,997.4,658.2,1004.2,657,1004.4c-1.6,0.4-0.9,2.8,0.7,2.4c1.6-0.4,2.2-1.5,2.3-3.1
					c0.3-3,0.1-6.4-0.3-9.4c-0.2-1.6-0.7-2.9-2.4-3.2c-1.7-0.4-5.1-0.4-6.8,0.2c-1.6,0.6-1.8,2-1.8,3.5c0,2.8,0,5.6,0,8.4
					c0.1,5,5.1,4.3,8.9,3.6C659.3,1006.6,658.6,1004.1,657,1004.4z"/>
			</g>
		</g>
		<g>
			<g>
				<path class="st26" d="M653.2,1073.4c2.2-2.9,10.6-12.7,2.8-14.1c-1.8-0.3-3.7-0.1-5.6-0.2c-0.6,0-2.6,0.2-3-0.5
					c-0.2-0.3,0.5-1.5,0.5-1.9c0-2.8,1.8-6.2,0.9-8.9c-0.1-0.4-0.4-0.8-0.9-0.9c-2.5-0.5-3.4,2.8-4.4,4.6c-1.7,2.9-3.4,5.9-5.2,8.8
					c-0.8,1.4-2.3,3.2-2.4,4.9c-0.2,2.7,2.1,3.3,4.4,3.4c1.4,0.1,2.8-0.2,4.2-0.2c2.8,0,2.2-0.1,2.1,2c-0.1,3.4-3.8,8.2-5.4,11.2
					c-0.6,1,0.6,2.5,1.7,1.7c3.9-2.8,7.2-6,10.2-9.8c1-1.3-0.8-3-1.8-1.8c-2.9,3.6-6,6.7-9.7,9.4c0.6,0.6,1.1,1.1,1.7,1.7
					c1.8-3.3,7.2-11,6.4-15c-1-4.4-6.7-0.6-9.4-1.7c-3.1-1.4,0.9-5.7,2-7.6c1.2-2.1,4.3-5.7,4.7-8c0.2-1.7-0.5,0.1-0.8,0.8
					c-0.2,0.4-0.4,3-0.5,3.5c-0.3,1.9-1,3.6-0.7,5.5c0.1,0.4,0.5,0.8,0.9,0.9c2.6,0.8,5.6-0.3,8.1,0.5c3.9,1.2,2.1,3.4,0.6,5.7
					c-1.1,1.6-2.3,3.1-3.4,4.7C650,1073.4,652.2,1074.7,653.2,1073.4z"/>
			</g>
		</g>
		<g>
			<g>
				<path class="st26" d="M638,996.6c-0.2-8.7-3.7-25.4,4.5-31.3c3.5-2.5,7.9-2.8,12-3.2c5.2-0.5,10.5-0.9,15.8-1.2
					c10.2-0.5,20.6-0.2,30.8,0.7c11.4,1,10.6,14.7,10.9,23.4c0.8,20.4,0,40.9,1.3,61.3c0.3,5.3-0.7,14.3,4.4,17.9
					c4,2.8,9.7,2,14.3,2c4.9-0.1,9.7,0.1,14.6-0.5c3.4-0.4,8.3-0.6,11.1-2.8c2.4-1.8,2.1-4.9,2.1-7.6c0-5.9-0.2-11.8-0.8-17.6
					c-0.1-1.6-2.7-1.6-2.5,0c0.4,4.9,0.7,9.9,0.8,14.9c0,2.9,0.4,5-1.4,7.3c-2.2,2.8-6,2.9-9.4,3.3c-7,0.8-14.7,1.1-21.7,0.5
					c-5.1-0.4-7.6-2.4-8.2-7.6c-0.6-5.2-0.9-10.4-1.1-15.6c-0.5-10.4-0.6-20.8-0.7-31.1c0-10.4,0.1-20.8-0.6-31.1
					c-0.4-5.6-0.8-12.7-5.4-16.7c-2-1.7-4.3-2.2-6.8-2.4c-5.4-0.5-10.9-0.7-16.3-0.9c-10.1-0.3-20.1,0.2-30.1,1.2
					c-6.4,0.6-14,1.3-17.8,7.4c-5.1,8.1-2.4,20.8-2.2,29.7C635.5,998.2,638,998.2,638,996.6L638,996.6z"/>
			</g>
		</g>
		<g>
			<g>
				<path class="st26" d="M763.1,1036c-0.1,9.6,1.1,19.3,0.4,28.9c-0.4,6.7-3.7,8.7-9.6,10.4c-5,1.5-10.2,2.2-15.5,2.3
					c-9.1,0.1-19.4,0.2-28.4-1.4c-10.5-1.8-11.2-11.3-11.3-20.1c-0.2-18.7,0.1-37.4-0.6-56.1c-0.2-4.1-0.3-8.2-0.7-12.2
					c-0.4-3.9-0.1-8.1-1.1-11.9c-1.6-6.7-7.8-7-13.8-7.1c-5.5,0-11.1,0.2-16.6,0.5c-2.8,0.1-5.8,0.1-8.4,1.3
					c-7.1,3.2-4.3,14.8-4.2,20.8c0,1.6,2.5,1.6,2.5,0c-0.1-5-1.2-11.1,0.9-15.7c1.4-3.1,2.8-3.4,6.1-3.7c2-0.2,4.1-0.2,6.1-0.3
					c4.8-0.2,9.6-0.4,14.5-0.3c2.3,0,5.2-0.2,7.3,0.9c3.4,1.8,3.5,5.5,3.7,8.9c1.2,18.7,1.7,37.3,1.6,56.1c0,8.4-0.3,16.9,0.3,25.2
					c0.4,5.4,2,11,6.8,14.1c5.8,3.7,14.2,2.8,20.7,3.1c9.1,0.4,18.2,1.1,27.2-1c6.1-1.4,13.4-3.1,14.6-10.2
					c1.7-10.5-0.3-21.8-0.2-32.5C765.7,1034.4,763.1,1034.4,763.1,1036L763.1,1036z"/>
			</g>
		</g>
		<g>
			<g>
				<path class="st26" d="M673.2,1012.8c0,16.6,0.1,33.2-0.1,49.8c0,4.1-0.1,8.3-0.2,12.4c-0.1,4.1,0.6,9.3-0.6,13.3
					c-1.7,5.4-7.6,5-12.1,5c-4.3,0-8.6,0.1-12.9,0.2c-4.3,0.1-8.6,0.1-12.9,0.1c-4.5,0-12.3,0.9-15.1-3.5c-2.1-3.4-0.9-9.9-0.9-13.6
					c0-4.1,0-8.2,0-12.3c0-17.2,0.2-34.4,0.5-51.6c0-1.6-2.5-1.6-2.5,0c-0.2,16.2-0.5,32.5-0.5,48.7c0,7.9-0.2,15.8-0.1,23.6
					c0,4.7,1.8,9,6.7,10.4c6.3,1.9,14.4,0.8,20.9,0.7c7.4-0.1,15.1,0.5,22.4-0.4c4.6-0.5,8.1-2.6,9.2-7.3c1.5-6.6,0.6-14.3,0.7-21.1
					c0.2-18.1,0.2-36.3,0.2-54.4C675.7,1011.2,673.2,1011.2,673.2,1012.8L673.2,1012.8z"/>
			</g>
		</g>
		<g>
			<g>
				<path class="st26" d="M755,1024.6c-0.5-1.7,5.4-1.3,6.2-1.4c0.5,0,1-0.1,1.5-0.1c0.2,0,2.6-0.2,2,0.3c-0.6,0.6-0.4,1.6,0.3,2
					c1.4,0.4,1.6,1,0.6,1.7c-0.8,0.5-0.9,1.7,0,2.2c0.2,0.5,0.4,1,0.5,1.5c-0.9,0.4-0.8,1.8,0,2.2c-0.1,0.4-0.2,0.8-0.3,1.2
					c-0.4,0-0.7,0.1-1.1,0.1c-0.5,0.1-1.1,0-1.7,0c-0.7,0.1-1.5,0.2-2.2,0.3c-0.7,0.1-6.3,0.4-5.2-1.1c0.4-0.6,0.6-1.6-0.3-2
					c-0.4-0.8-0.3-1.5,0.3-2c0.5-0.6,0-1.7-0.7-1.8c0.1-0.5,0.2-0.9,0.3-1.4c0.5-0.5,0.5-1.3,0-1.8c-0.2-0.2-0.4-0.4-0.6-0.6
					c-1.2-1.1-2.9,0.6-1.8,1.8c0.2,0.2,0.4,0.4,0.6,0.6c0-0.6,0-1.2,0-1.8c-1.7,1.9-2.4,4.9,0.8,5.6c-0.2-0.6-0.5-1.2-0.7-1.8
					c-1.3,1.8-1.9,4.3,0.6,5.4c-0.1-0.7-0.2-1.3-0.3-2c-1.3,1.6-1.2,3.5,0.5,4.7c1.9,1.3,4.8,0.8,6.9,0.6c2.1-0.3,5.1,0.2,6.8-1.3
					c1.6-1.5,1-4-0.8-4.9c0,0.7,0,1.4,0,2.2c3-1.3,1.8-4.7-0.5-5.9c0,0.7,0,1.4,0,2.2c3.2-1.9,2.1-4.3-0.6-6.1
					c0.1,0.7,0.2,1.3,0.3,2c1.1-1,1.9-2.6,0.9-3.9c-1-1.4-2.9-1-4.3-0.8c-3.1,0.5-12.3-1.1-10.5,4.8
					C753,1026.8,755.4,1026.2,755,1024.6z"/>
			</g>
		</g>
		<g>
			<g>
				<path class="st26" d="M755.5,1022.4c-2-7.4-9.1-11.2-10.7-18.8c-2.1-10.2,3.9-21,15.2-20.8c9.7,0.1,16.1,9.4,14.4,18.8
					c-0.8,4.4-3.6,7.4-5.9,11c-1.9,3-3.2,6.1-4,9.6c-0.4,1.6,2,2.2,2.4,0.7c2.4-10,12.1-16.5,9.9-27.5c-1.7-8.8-7.8-14.9-16.9-15
					c-8.9-0.1-15.9,6-17.7,14.6c-0.9,4.3-0.4,9,1.2,13.1c2.3,5.7,8,8.9,9.6,15.1C753.5,1024.6,755.9,1023.9,755.5,1022.4
					L755.5,1022.4z"/>
			</g>
		</g>
		<g>
			<g>
				<path class="st26" d="M729.5,1022c1.5-1.4,3-2.7,4.6-4.1c1.2-1.1-0.6-2.9-1.8-1.8c-1.5,1.4-3,2.7-4.6,4.1
					C726.5,1021.3,728.3,1023.1,729.5,1022L729.5,1022z"/>
			</g>
		</g>
		<g>
			<g>
				<path class="st26" d="M725.1,1002c1.8,0.3,3.5,0.5,5.3,0.4c1.6-0.1,1.6-2.6,0-2.5s-3.1,0-4.6-0.3
					C724.2,999.2,723.5,1001.7,725.1,1002L725.1,1002z"/>
			</g>
		</g>
		<g>
			<g>
				<path class="st26" d="M730.2,982.9c1.3,1.4,3,2.4,4.9,2.7c1.6,0.3,2.3-2.1,0.7-2.4c-1.5-0.3-2.8-1-3.8-2.1
					C730.8,980,729.1,981.8,730.2,982.9L730.2,982.9z"/>
			</g>
		</g>
		<g>
			<g>
				<path class="st26" d="M754.2,972.3c0.1-1.9,0.2-3.7,0.4-5.6c0.1-1.6-2.4-1.6-2.5,0c-0.1,1.9-0.2,3.7-0.4,5.6
					C751.6,973.9,754.1,973.9,754.2,972.3L754.2,972.3z"/>
			</g>
		</g>
		<g>
			<g>
				<path class="st26" d="M770.7,976c1.1-1.5,2.3-2.8,3.6-4.1c1.2-1.1-0.6-2.9-1.8-1.8c-1.4,1.4-2.8,2.9-4,4.6
					C767.6,976.1,769.8,977.3,770.7,976L770.7,976z"/>
			</g>
		</g>
		<g>
			<g>
				<path class="st26" d="M784.9,989.1c1.7-0.9,3.3-1.8,5-2.7c1.4-0.8,0.2-2.9-1.3-2.2c-1.7,0.9-3.3,1.8-5,2.7
					C782.2,987.7,783.5,989.9,784.9,989.1L784.9,989.1z"/>
			</g>
		</g>
		<g>
			<g>
				<path class="st26" d="M784.7,1003.4c1.9,1.7,4.1,2.9,6.5,3.8c1.5,0.5,2.2-1.9,0.7-2.4c-2-0.7-3.8-1.7-5.4-3.1
					C785.3,1000.6,783.5,1002.4,784.7,1003.4L784.7,1003.4z"/>
			</g>
		</g>
		<g>
			<g>
				<path class="st26" d="M778.6,1017.9c1.1,1.3,2.4,2.4,3.8,3.3c1.4,0.8,2.7-1.3,1.3-2.2c-1.3-0.8-2.4-1.7-3.3-2.9
					c-0.4-0.5-1.3-0.4-1.8,0C778,1016.7,778.1,1017.4,778.6,1017.9L778.6,1017.9z"/>
			</g>
		</g>
		<g>
			<g>
				<path class="st26" d="M759.3,1021.7c0.3-7.4-1.1-14.2-4.7-20.6c-0.8-1.4-3-0.1-2.2,1.3c3.5,6.1,4.6,12.4,4.4,19.4
					C756.7,1023.3,759.2,1023.3,759.3,1021.7L759.3,1021.7z"/>
			</g>
		</g>
		<g>
			<g>
				<path class="st26" d="M762.8,1021.7c0.2-7.2,0.7-14.3,5-20.4c0.9-1.3-1.2-2.6-2.2-1.3c-4.6,6.4-5.1,14-5.3,21.6
					C760.2,1023.3,762.8,1023.3,762.8,1021.7L762.8,1021.7z"/>
			</g>
		</g>
		<g>
			<g>
				<path class="st26" d="M753.2,1002.3c0.6,0.7,1.2,1.4,2.2,1c1.2-0.4,1.4-2.1,2.4-2.9c-0.5,0.1-1,0.1-1.5,0.2
					c-0.3-0.5-0.3-0.4-0.1,0.1c0.1,0.4,0.2,0.8,0.3,1.2c0.2,0.8,0.4,1.7,0.6,2.5c0.3,1.3,2,1.1,2.4,0c0.5-1.5,1-2.9,1.5-4.4
					c-0.7,0.2-1.4,0.4-2.1,0.6c0.7,0.8,1.2,1.7,1.7,2.7c0.4,0.9,1.8,0.8,2.2,0c0.3-0.6,0.6-1.5,1-2c-0.4,0.1-0.8,0.2-1.2,0.3
					c0.6,0.1,1,0.7,1.7,0.7c0.8,0.1,1.4-0.1,2-0.6c1.3-0.9,0.1-3.1-1.3-2.2c-0.6,0.4-1.8-0.7-2.6-0.4c-1,0.4-1.4,1.9-1.8,2.7
					c0.7,0,1.4,0,2.2,0c-0.5-1.2-1.2-2.2-2-3.2c-0.6-0.8-1.8-0.3-2.1,0.6c-0.5,1.5-1,2.9-1.5,4.4c0.8,0,1.6,0,2.4,0
					c-0.4-1.5-0.5-4.5-2-5.3c-0.5-0.3-1.1-0.2-1.5,0.2c-0.3,0.3-0.5,0.5-0.7,0.9c-0.1,0.2-0.3,0.5-0.4,0.7c-0.3,0.4-0.3,0.5,0.1,0.3
					C753.9,999.3,752.1,1001.1,753.2,1002.3L753.2,1002.3z"/>
			</g>
		</g>
	</g>
</a>
<a xlink:href="#" target="_top" >
	<g id="BUSINESS__x2B__PR">
		<g>
			<path class="st26" d="M444.3,429v3.3l0,0c15.6,0,30,6.2,40.7,17.5c10.3,10.9,15.8,25.1,15.4,40.1s-6.6,28.9-17.5,39.2
				c-10.5,9.9-24.2,15.4-38.6,15.4c-15.6,0-30-6.2-40.7-17.5c-21.3-22.4-20.4-58,2.1-79.4c10.5-9.9,24.2-15.4,38.6-15.4V429
				 M444.3,429c-14.7,0-29.4,5.4-40.9,16.3c-23.8,22.6-24.8,60.2-2.2,84c11.7,12.3,27.4,18.5,43.1,18.5c14.7,0,29.4-5.4,40.9-16.3
				c23.8-22.6,24.8-60.2,2.2-84C475.8,435.2,460.1,429,444.3,429L444.3,429z"/>
		</g>
		<g>
			<g>
				<path class="st26" d="M443.6,488.9c17.1,9.3,34.3,18.5,51.4,27.8c1.4,0.7,2.6-1.4,1.2-2.1c-17.1-9.3-34.3-18.5-51.4-27.8
					C443.4,486,442.2,488.1,443.6,488.9L443.6,488.9z"/>
			</g>
		</g>
		<g>
			<g>
				<path class="st26" d="M457.1,431.6c-4,18.8-10,37.1-13.9,55.9c-0.3,1.5,2,2.2,2.4,0.6c4-18.8,10-37.1,13.9-55.9
					C459.8,430.7,457.5,430.1,457.1,431.6L457.1,431.6z"/>
			</g>
		</g>
		<g>
			<g>
				<path class="st26" d="M501.5,481.4c-19,2.7-38.3,3.3-57.3,6c-1.5,0.2-0.9,2.6,0.6,2.4c19-2.7,38.3-3.3,57.3-6
					C503.7,483.5,503.1,481.2,501.5,481.4L501.5,481.4z"/>
			</g>
		</g>
		<g>
			<g>
				<path class="st26" d="M493.4,456.6c-16,10.6-33.2,19.4-49.2,29.9c-1.3,0.9-0.1,3,1.2,2.1c16-10.6,33.2-19.4,49.2-29.9
					C495.9,457.9,494.7,455.8,493.4,456.6L493.4,456.6z"/>
			</g>
		</g>
		<g>
			<g>
				<path class="st26" d="M443.3,488.4c10.2,16.6,20.5,33.2,30.7,49.7c0.8,1.3,2.9,0.1,2.1-1.2c-10.2-16.6-20.5-33.2-30.7-49.7
					C444.6,485.8,442.4,487,443.3,488.4L443.3,488.4z"/>
			</g>
		</g>
		<g>
			<g>
				<path class="st26" d="M530.9,509.5c-1.6,2.2-11.2,2.1-13.5,0.9c-2.8-1.5-2.7-4.4-2.8-7.1c-0.1-2.8-0.4-5.9,2-7.7
					c3-2.3,13.7-2.9,14.6,2C531.9,501.1,532.5,506.2,530.9,509.5c-0.7,1.4,1.5,2.7,2.1,1.2c1.5-3.3,1.2-6.8,0.9-10.3
					c-0.2-2.3-0.1-5.2-1.7-7.1c-2-2.4-6.8-1.8-9.6-1.8c-3.1,0-7.2,0.1-9.1,3c-1.9,2.9-1.4,7.5-1.2,10.7c0.2,2.9,0.5,5.6,3.3,7.1
					c3,1.5,7,1.1,10.3,1c3-0.1,5.3,0.1,7.1-2.5C533.9,509.5,531.8,508.3,530.9,509.5z"/>
			</g>
		</g>
		<g>
			<g>
				<path class="st26" d="M527.2,506.5c1.5-2.2,1.4-5.3-0.5-7.2c-1.8-1.8-4.9-1.8-6.8-0.1c-1.9,1.7-1.8,5.5-0.1,7.4
					c1.8,1.9,5.5,2.1,7.3,0.1c1.1-1.2-0.7-2.9-1.7-1.7c-0.9,1-3.1,0.9-3.9-0.2c-0.8-1.1-0.7-3.3,0.6-4c3-1.6,4.6,2.3,3.1,4.5
					C524.2,506.6,526.3,507.8,527.2,506.5z"/>
			</g>
		</g>
		<g>
			<g>
				<path class="st26" d="M530.2,497.6c0.1-1-0.6-1.9-1.6-2c-0.9,0-1.7,0.5-1.9,1.4s0.3,1.8,1.2,2.1c1,0.4,2.1-0.2,2.3-1.2
					c0.4-1.5-2-2.2-2.4-0.6c0.1-0.2,0.2-0.2,0.4-0.3c0.2-0.2,0.4-0.2,0.6,0c0.2,0.2,0.2,0.5,0.1,0.8c-0.2,0.4-0.9,0.4-1.1-0.1
					c0-0.1-0.1-0.3-0.1-0.1c-0.1,0.7,0.6,1.2,1.2,1.2C529.7,498.8,530.2,498.3,530.2,497.6z"/>
			</g>
		</g>
		<g>
			<g>
				<path class="st26" d="M497.2,422.6c-0.1,0.8-0.1,1.6,0,2.4c0.4-0.4,0.8-0.8,1.2-1.2c-3.5-0.1-4.3,1.9-4,5.1
					c0,0.7,0.5,1.2,1.2,1.2c1.9,0.1,1.3-0.4,1.3,1.8c0.4-0.4,0.8-0.8,1.2-1.2c-0.8,0-1.6,0.1-2.4,0.1c-0.6,0-1.3,0.5-1.2,1.2
					c0.1,1.7,0.1,3.5,0.1,5.2c0.4-0.4,0.8-0.8,1.2-1.2c-1.3,0.1-2.4,0.2-3.7,0.1c0.4,0.4,0.8,0.8,1.2,1.2c0-1.7,0.1-3.5,0-5.2
					c0-0.6-0.5-1.3-1.2-1.2c-0.3,0-0.7,0.1-1,0.1c-1.1,0.1-1.3,0.1-0.7,0c0.3,0.6,0.4-1.6,0.4-1.5c-0.4,0.4-0.8,0.8-1.2,1.2
					c0.7-0.1,1.4-0.2,2-0.2c0.7-0.1,1.2-0.5,1.2-1.2c0-1.1-0.3-2.8,0-3.8c0.7-2.4,3.2-2.1,5.1-1.8c1.5,0.3,2.2-2.1,0.6-2.4
					c-2.2-0.4-5.2-0.6-7,1c-1.9,1.7-1.2,4.7-1.2,6.9c0.4-0.4,0.8-0.8,1.2-1.2c-0.7,0.1-1.4,0.1-2,0.2c-0.7,0.1-1.2,0.5-1.2,1.2
					c-0.3,3.4,0.2,4.1,3.7,3.8c-0.4-0.4-0.8-0.8-1.2-1.2c0.1,1.7,0,3.5,0,5.2c0,0.7,0.6,1.2,1.2,1.2c1.3,0.1,2.4,0,3.7-0.1
					c0.7-0.1,1.2-0.5,1.2-1.2c0-1.7,0-3.5-0.1-5.2c-0.4,0.4-0.8,0.8-1.2,1.2c0.8,0,1.6-0.1,2.4-0.1c0.7,0,1.2-0.6,1.2-1.2
					c0-1,0.3-2.2,0-3.2c-0.1-0.4-0.5-0.7-0.9-0.9c-0.9-0.2-2-0.1-2.9-0.1c0.4,0.4,0.8,0.8,1.2,1.2c-0.1-1.1-0.4-2.7,1.6-2.6
					c0.6,0,1.2-0.6,1.2-1.2c0-0.8,0-1.6,0-2.4C499.7,421,497.3,421,497.2,422.6L497.2,422.6z"/>
			</g>
		</g>
		<g>
			<g>
				<path class="st26" d="M503.7,431.2c0-2.3,0-4.7,0-7c0-1.6,0.3-3.8-0.4-5.2c-1.3-2.6-4.4-2.7-6.9-2.7c-6.8-0.1-14.7-1.1-15.1,7.4
					c-0.1,3.6-0.7,8.3,0.3,11.9c0.8,3,4.4,3.1,7,3.2c2.3,0.1,4.7-0.1,7-0.1c1.6,0,3.4,0.3,4.9-0.3
					C503.7,437.1,503.8,434,503.7,431.2c0-1.6-2.5-1.6-2.4,0c0.1,2.4-0.5,4.8-3.1,5c-0.8,0.1-1.7,0-2.6,0c-2.6,0-5.2,0.2-7.7,0.1
					c-3.4-0.2-3.9-1.1-4.1-4.1c-0.2-2.6-0.2-5.3-0.1-8c0.1-3.3,1.5-5,4.9-5.3c2.5-0.2,5.3-0.3,7.8-0.1c2.2,0.1,4.1-0.1,4.8,2.5
					c0.2,0.9,0,2.1,0,3c0,2.3,0,4.7,0,7C501.3,432.7,503.7,432.7,503.7,431.2z"/>
			</g>
		</g>
		<g>
			<g>
				<path class="st26" d="M528.6,452.6c-2.5,2.3-3.9-0.9-6.9,0.3c-2.4,0.9-2.9,3-3.1,5.3c0.5-0.4,1-0.8,1.5-1.2
					c-3.4-1-5.5-3.8-8.1-5.9c-0.5-0.4-1.2-0.5-1.7,0c-3.1,2.9-0.5,7.3,2,9.3c0.3-0.7,0.6-1.4,0.9-2.1c-1,0-3.1,0.2-4-0.3
					c-0.9-0.6-2.1,0.4-1.8,1.4c0.9,3.3,2.9,5.3,6,6.5c0.1-0.8,0.2-1.6,0.3-2.4c-1.4,0.2-2.7,0.2-4.1,0.2c-1.1,0-1.6,1.3-0.9,2.1
					c2,2.1,3.9,2.1,6.2,3.5c-0.1-0.6-0.2-1.3-0.2-1.9c-1.3,1.6-4.6,2.9-6.8,2.4c-1.3-0.3-2.1,1.5-0.9,2.2c4.5,2.9,11.6,2.3,16.2-0.3
					c2-1.1,3.5-2.7,4.4-4.8c0.5-1.1,0.7-2.2,0.9-3.4c0.1-1,0.2-2.1,0.2-3.1c1-0.5,2-1,3.1-1.5c1-0.5,0.6-1.9-0.3-2.2
					c-1.9-0.7-1.5-0.6-3.4-0.7c0.4,0.5,0.8,1,1.2,1.5c0.4-1.1,0.9-2.2,1.4-3.2c0.6-1.4-1.5-2.7-2.1-1.2c-0.6,1.3-1.1,2.5-1.6,3.8
					c-0.3,0.8,0.5,1.5,1.2,1.5c0.9,0.2,1.9,0.4,2.8,0.6c-0.1-0.7-0.2-1.5-0.3-2.2c-4.6,2.3-3.6,1.9-4.5,6.6
					c-1.4,7.3-11.7,10.4-17.8,6.5c-0.3,0.7-0.6,1.5-0.9,2.2c2.9,0.6,7.3-0.8,9.1-3.1c0.5-0.6,0.5-1.5-0.2-1.9
					c-1.9-1.2-3.9-1.3-5.7-3.1c-0.3,0.7-0.6,1.4-0.9,2.1c1.4,0,2.7,0,4.1-0.2s1.7-1.9,0.3-2.4c-2.4-0.8-3.9-2.4-4.3-4.8
					c-0.6,0.5-1.2,0.9-1.8,1.4c1.3,0.9,3.7,0.8,5.2,0.7c0.9,0,1.8-1.4,0.9-2.1c-1.5-1.2-3.6-4.2-2-5.8c-0.6,0-1.2,0-1.7,0
					c2.9,2.5,5.4,5.4,9.2,6.6c0.8,0.2,1.5-0.4,1.5-1.2c-0.2-2.7,1.4-3.3,4.8-1.8c0.4,0.3,1,0.5,1.5,0.2c1.1-0.7,2.1-1.3,3-2.2
					C531.5,453.3,529.8,451.6,528.6,452.6L528.6,452.6z"/>
			</g>
		</g>
		<g>
			<g>
				<path class="st26" d="M494.8,533c0,3.5,0,7,0,10.5c0,1.6,2.4,1.6,2.4,0c0-3.5,0-7,0-10.5C497.2,531.4,494.8,531.4,494.8,533
					L494.8,533z"/>
			</g>
		</g>
		<g>
			<g>
				<path class="st26" d="M495.8,544.9c2.4,0.5,4.8,1,7.2,1.5c1.5,0.3,2.2-2,0.6-2.4c-2.4-0.5-4.8-1-7.2-1.5
					C494.9,542.2,494.3,544.6,495.8,544.9L495.8,544.9z"/>
			</g>
		</g>
		<g>
			<g>
				<path class="st26" d="M504.7,545c0-3.5,0-7.1,0-10.6c0-1.6-2.4-1.6-2.4,0c0,3.5,0,7.1,0,10.6C502.2,546.6,504.7,546.6,504.7,545
					L504.7,545z"/>
			</g>
		</g>
		<g>
			<g>
				<path class="st26" d="M495.8,533.5c2.6,0.4,5.1,0.9,7.6,1.2c1.6,0.2,1.5-2.3,0-2.4c-2.3-0.2-4.6-0.8-7-1.1
					C494.9,531,494.3,533.3,495.8,533.5L495.8,533.5z"/>
			</g>
		</g>
		<g>
			<g>
				<path class="st26" d="M510.5,541.2c-1.2-1.5-2.4-3-3.5-4.5c-0.9-1.2-1.5-2.8-2.5-3.9c-1.1-1.1-2.8,0.6-1.7,1.7
					c0.5,0.5,0.8,1.4,1.2,2c0.5,0.8,1.1,1.6,1.7,2.4c1.1,1.4,2.2,2.7,3.2,4.1C509.8,544.1,511.5,542.4,510.5,541.2L510.5,541.2z"/>
			</g>
		</g>
		<g>
			<g>
				<path class="st26" d="M507.3,536.8c0.8-1.3,1.6-2.7,2.4-4s-1.3-2.6-2.1-1.2c-0.8,1.3-1.6,2.6-2.4,4
					C504.4,536.9,506.5,538.2,507.3,536.8L507.3,536.8z"/>
			</g>
		</g>
		<g>
			<g>
				<path class="st26" d="M510.9,542.5c1.7-2,2.5-4.5,4-6.7c0.9-1.3-1.2-2.5-2.1-1.2c-1.3,2-2,4.4-3.6,6.2
					C508.2,541.9,509.9,543.7,510.9,542.5L510.9,542.5z"/>
			</g>
		</g>
		<g>
			<g>
				<path class="st26" d="M508.8,533.1c1,0.1,2,0.6,2.9,0.9c0.9,0.3,2,0.5,2.9,0.9c1.4,0.7,2.6-1.4,1.2-2.1
					c-1.1-0.5-2.3-0.8-3.4-1.2c-1.2-0.4-2.3-0.9-3.6-1C507.2,530.5,507.3,533,508.8,533.1L508.8,533.1z"/>
			</g>
		</g>
		<g>
			<g>
				<path class="st26" d="M514,533.9c0,3.6,0,7.2,0,10.8c0,1.6,2.4,1.6,2.4,0c0-3.6,0-7.2,0-10.8C516.5,532.4,514,532.4,514,533.9
					L514,533.9z"/>
			</g>
		</g>
		<g>
			<g>
				<path class="st26" d="M503.8,541.6c3.6,1.7,7.4,3.2,11.1,4.6c1.5,0.5,2.1-1.8,0.6-2.4c-3.5-1.3-7.2-2.7-10.5-4.3
					C503.7,538.8,502.4,540.9,503.8,541.6L503.8,541.6z"/>
			</g>
		</g>
		<g>
			<g>
				<path class="st26" d="M419.5,458.8c3.1-1,5.4,0.7,6.4,3.7c0.1,0.4,0.5,0.6,0.9,0.4c2-1.1,4.7-0.4,4.4,3.5c0,0.3,0.3,0.6,0.6,0.6
					c0.4,0,1.1,4.8,1,5.2c-0.5,1.3-3.6,3.1-4.1,1.6c-0.1-0.4-0.7-0.6-1-0.3c-1.9,0.1-3.8,0.2-5.6,0.3c-0.3-0.4-0.9-0.1-1,0.3
					c-2.5-0.2-4.9-0.4-7.4-0.5c-0.1-0.2-0.3-0.5-0.6-0.4c-6-1.9-6.7-4.1-2-6.6c0.3,0,0.6-0.3,0.6-0.6c1.4-0.4,2.7-0.8,4.1-1.2
					c0.3,0.6,1.1,0.3,1.1-0.3c-0.1-2.3,0.8-4.3,2.7-5.8c0.7-0.4,0-1.5-0.6-1.1c-2.6,1.7-3.1,3.9-3.3,6.9c0.4-0.1,0.8-0.2,1.1-0.3
					c-1.1-2-3.3-3.9-5.4-1.7c-0.8,0.8-0.9,2.1-1.5,2.9c-0.8,1-1.9,1.2-2.6,2.6c-1.5,3.2,0.3,5.1,3.2,6.3c1.9,0.8,2.2,1.3,3.5,2.6
					c1.2,1.2,2.8,1.7,4.4,1.3c1.4-0.3,1.9-1.5,2.9-2c1.2-0.6,0.3-0.1,2.2,0.2c1.8,0.3,2.8-1.3,4.2-1.3c0.5,0,1.4,1.3,2.3,1.4
					c2.6,0.3,4.6-3.8,5.4-5.8c1.3-3.5-1.4-3.5-3-5.6c-1-1.2-0.7-3.1-2.6-3.9c-1-0.4-2.6,0.6-3.3,0.3c-0.2-0.1-1.4-3.3-2.6-3.9
					c-1.6-0.8-3.2-0.6-4.8-0.1C418.4,457.9,418.7,459.1,419.5,458.8z"/>
			</g>
		</g>
		<g>
			<g>
				<path class="st26" d="M407.8,490c-0.4-2.8,4.3-2.7,4.8-0.8c0.1,0.3,0.3,0.5,0.6,0.4c1.5-0.1,4.2,1.2,2.8,3.2
					c-0.3,0.5-1.1,0.6-1.5,1c-0.2,0.2-0.2,0.6-0.3,0.8c-1,1.3-5,3.4-6,0.3c-0.1-0.4-0.5-0.6-0.9-0.4c-2-1.6-2.3-2.6-0.8-3.2
					c0.4-0.3,0.8-0.5,1.2-0.5c0.8-0.2,0.4-1.3-0.3-1.2c-1.9,0.4-3.7,1.8-3.4,3.9c0.3,2,2.3,2.8,4,1.9c-0.3-0.1-0.6-0.2-0.9-0.4
					c0.9,2.9,5,3.1,7.2,1.4c0.6-0.4,0.6-0.8,1-1.4s1-0.7,1.4-1.2c0.8-0.8,1-2.1,0.7-3.2c-0.4-1.1-1.4-1.9-2.5-2.2
					c-0.5-0.1-0.9-0.1-1.2-0.3c-0.5-0.4-0.8-0.9-1.4-1.2c-2.6-1.2-6,0.2-5.5,3.3C406.8,491.1,407.9,490.8,407.8,490L407.8,490z"/>
			</g>
		</g>
		<g>
			<g>
				<path class="st26" d="M413.5,513.2c-0.7,2.6,2.3,4.4,4.2,2.4c-0.2,0-0.5,0.1-0.7,0.1c1.3,0.7,3.2,0.6,3.9-0.9
					c0.3-0.6,0.3-1.4,0-2c-0.3-0.7-0.9-0.8-1.2-1.3l-0.1-1.1c-0.1-0.5-0.4-1-0.7-1.3c-0.5-0.6-1.1-1-1.9-1c-1.5-0.2-2.8,1-2.9,2.5
					c0.3-0.2,0.6-0.4,0.9-0.5c-1.4-0.7-3.5-1-3.7,1.1c-0.2,1.8,1.5,3.1,3.1,3c0.8,0,0.8-1.2,0-1.2c-0.7,0.1-1.3-0.2-1.7-0.8
					c0.4-1.2,0.9-1.6,1.6-1.1c0.4,0.2,0.9-0.1,0.9-0.5c0.2-2.1,2.7-1.2,3.1,0.2c0.1,0.4,0,1.1,0.2,1.5c0.1,0.2,0.4,0.3,0.5,0.4
					c1,0.7,1,1.5-0.1,2.2c-0.5,0.1-1,0.1-1.4-0.2c-0.2-0.1-0.6-0.1-0.7,0.1c-1.3,1-2,0.6-2.1-1.2
					C414.9,512.8,413.7,512.4,413.5,513.2L413.5,513.2z"/>
			</g>
		</g>
		<g>
			<g>
				<path class="st26" d="M439.8,525.8c0.6-3.3,3.9-5.1,3.3-8.8c-0.5-2.8-2.8-5.1-5.6-5.3c-2.9-0.3-5.6,1.7-6.4,4.5
					c-1.1,3.8,2.2,6.1,2.6,9.6c0.1,0.8,1.3,0.8,1.2,0c-0.2-1.9-1.1-3.3-2-4.9c-1.8-3.4-0.2-8.2,4.3-7.9c3.7,0.2,5.7,4.4,4,7.5
					c-0.9,1.7-2.3,3-2.6,5C438.5,526.2,439.6,526.6,439.8,525.8L439.8,525.8z"/>
			</g>
		</g>
		<g>
			<g>
				<path class="st26" d="M434.8,530.8c0-0.1,0-0.8,0.1-0.8c0.6-0.1,0.6-1.1,0-1.2c-0.5,0-0.5-0.2-0.1-0.6c0.6,0,0.8-0.8,0.3-1.1
					c-0.4-0.2,0.4-0.6,0.5-0.6c0.2-0.1,0.7-0.1,0.9-0.1c0.3,0,0.6,0,1,0c0.1,0,1.9-0.1,1.2,0.7c-0.4,0.4-0.1,1,0.4,1
					c0.3,0.2,0.3,0.4-0.1,0.5c-0.4,0.3-0.4,0.8,0,1.1c0.5,0.4,0.3,1.1-0.1,1.4c-0.3,0.2-1,0.1-1.3,0.2
					C436.8,531.4,435.2,531.7,434.8,530.8c-0.1-0.9-1.3-0.5-1.1,0.2c0.7,2.3,3.5,1.7,5.3,1.4c1.8-0.4,2.1-2.6,0.6-3.7
					c0,0.4,0,0.7,0,1.1c1.3-1,1.4-2.6-0.5-2.8c0.1,0.3,0.3,0.7,0.4,1c0.5-0.6,0.9-1.5,0.3-2.3c-0.7-0.9-2.6-0.6-3.6-0.6
					c-0.8,0-1.9,0.2-2.4,0.9c-0.6,0.8,0,1.6,0.7,2.1c0.1-0.4,0.2-0.8,0.3-1.1c-0.8,0-1.4,0.5-1.6,1.3c-0.2,1,0.4,1.5,1.3,1.7
					c0-0.4,0-0.8,0-1.2c-0.8,0.2-1,1.3-1,2C433.7,531.6,434.9,531.6,434.8,530.8z"/>
			</g>
		</g>
		<g>
			<g>
				<path class="st26" d="M436.5,525.1c-0.6-1.9-0.6-3.9-1.4-5.8c-0.3-0.7-1.5-0.4-1.2,0.3c0.7,1.9,0.8,3.9,1.4,5.8
					C435.6,526.2,436.8,525.9,436.5,525.1L436.5,525.1z"/>
			</g>
		</g>
		<g>
			<g>
				<path class="st26" d="M438.6,518.6c-0.8,2-1.4,4-1.7,6.1c-0.1,0.8,1.1,1.1,1.2,0.3c0.3-2.1,0.9-4.1,1.7-6.1
					C440.1,518.2,438.9,517.9,438.6,518.6L438.6,518.6z"/>
			</g>
		</g>
		<g>
			<g>
				<path class="st26" d="M434.2,520c0.3,0.5,0.7,1.1,1.4,0.8c0.6-0.3,1.2-1.3,1.5-1.9c-0.4,0-0.7-0.1-1.1-0.1
					c0.2,0.6,0.3,1.1,0.6,1.6c0.2,0.3,0.7,0.4,1,0.1c0.6-0.5,0.8-1.2,1-1.9c-0.4-0.1-0.8-0.1-1.2-0.2c-0.1,0.6-0.3,1.5,0.5,1.8
					s1.5-0.4,1.5-1.2s-1.2-0.8-1.2,0h0.1c0.1,0.1,0.2,0.2,0.3,0.4c-0.1-0.3,0-0.7,0.1-1c0.1-0.7-1-0.7-1.2-0.2s-0.3,1-0.7,1.4
					c0.3,0,0.6,0.1,1,0.1c-0.3-0.4-0.4-0.9-0.5-1.3c-0.2-0.5-0.8-0.6-1.1-0.1c-0.3,0.4-0.6,1.2-1,1.4c0.2,0,0.4,0,0.6,0
					c-0.1-0.1-0.2-0.2-0.3-0.4C434.8,518.7,433.8,519.3,434.2,520L434.2,520z"/>
			</g>
		</g>
	</g>
</a>
<a xlink:href="#" target="_top" >
	<g id="SOFTWARE">
		<g>
			<g>
				<path class="st26" d="M259.1,686.5c-0.1-2.4-1.7-4.6-4.3-4.8c-2.6-0.2-4.8,1.9-5.1,4.3c-0.3,2.5,1.3,4.9,3.9,5.2
					C256.4,691.6,258.9,689.3,259.1,686.5c0-1.1-1.7-1.1-1.7,0c-0.1,1.9-2,3.5-3.9,3c-1.6-0.4-2.4-2.1-2-3.6c0.9-3.5,5.7-3,5.9,0.6
					C257.4,687.6,259.1,687.6,259.1,686.5z"/>
			</g>
		</g>
		<g>
			<g>
				<path class="st26" d="M266.3,683.6c3.9,0.2,2.9,5.9-0.4,5.9C261.9,689.5,262.9,683.8,266.3,683.6c1.1-0.1,1.1-1.8,0-1.7
					c-5.6,0.3-6.6,9.3-0.4,9.3c2.5,0,4.3-2.1,4.6-4.4c0.4-2.8-1.5-4.8-4.2-4.9C265.2,681.9,265.2,683.6,266.3,683.6z"/>
			</g>
		</g>
		<g>
			<g>
				<path class="st26" d="M276.6,684c3.8-1.7,6,4.4,2,5.3c-1.1,0.3-2.4,0-3.1-0.9C274.3,687,275.1,684.8,276.6,684
					c1-0.5,0.1-2-0.9-1.5c-2.3,1.3-3.3,4.5-1.8,6.7c1.2,1.8,3.7,2.3,5.6,1.6c2.3-0.9,3.5-3.5,2.6-5.8c-1-2.7-4-3.6-6.5-2.5
					C274.7,683,275.6,684.5,276.6,684z"/>
			</g>
		</g>
		<path class="st27" d="M359.7,755.9H248.9c-3.8,0-6.9-3.1-6.9-6.9v-66.6c0-3.8,3.1-6.9,6.9-6.9h110.8c3.8,0,6.9,3.1,6.9,6.9V749
			C366.6,752.8,363.5,755.9,359.7,755.9z"/>
		<g>
			<g>
				<path class="st26" d="M242.8,698.4c41.1,0,82.3,0,123.4,0c1.1,0,1.1-1.7,0-1.7c-41.1,0-82.3,0-123.4,0
					C241.7,696.7,241.7,698.4,242.8,698.4L242.8,698.4z"/>
			</g>
		</g>
		<rect x="297.2" y="704.7" class="st28" width="61.4" height="44.4"/>
		<g>
			<g>
				<path class="st26" d="M302.6,726.7c5.6,0.2,7.4-1.2,8.5-7c-0.6,0-1.1,0-1.7,0c0.8,4.3,1.7,8.6,2.5,13c0.2,0.8,1.5,0.8,1.7,0
					c1.2-6,2.1-12,2.9-18.1c-0.6,0.1-1.1,0.2-1.7,0.2c1.5,7,3,13.9,4.4,20.9c0.2,1,1.6,0.7,1.7-0.2c0.4-4.7,0.3-9.4,1.5-14
					c-0.4,0.2-0.8,0.3-1.3,0.5c1.7,1.2,1.8,5.1,2.2,6.9c0.7,3.1,1.3,6.3,1.9,9.5c0.2,1,1.6,0.7,1.7-0.2c0.7-8.9,1.2-17.9,1.5-26.9
					c-0.6,0-1.1,0-1.7,0c-0.1,7,0.6,14,1.8,20.9c0.2,1,1.6,0.7,1.7-0.2c0.2-3.2,2.3-6.5,3.1-9.7c-0.6,0-1.1,0-1.7,0
					c0.5,3.3,1.2,6.5,1.7,9.8c0.1,1,1.7,0.7,1.7-0.2c0-2.6,0.9-5.3,1.4-7.9c0.7-3.6,1.2-7.2,1.9-10.8c-0.6,0-1.1,0-1.7,0
					c1.3,7.5,2.4,14.9,3.5,22.4c0.1,1.1,1.6,0.6,1.7-0.2c0.8-6.2,1.6-12.4,2.5-18.7c-0.6,0-1.1,0-1.7,0c0.1,3.3-0.1,7.4,1.5,10.4
					c0.2,0.4,0.8,0.5,1.2,0.3c0.6-0.3,0.4-0.8,0.9-1.2c1.9-1.3,3.5-1,5.6-1.6c1.1-0.3,0.6-2-0.5-1.7c-4.8,1.5-3.4-0.9-6.1,1.1
					c-1,0.7-0.1,3.2-0.2,0.5c-0.1-2.6-0.6-5.2-0.7-7.8c-0.1-1.1-1.6-1.1-1.7,0c-0.8,6.2-1.6,12.4-2.5,18.7c0.6-0.1,1.1-0.2,1.7-0.2
					c-1-7.5-2.2-15-3.5-22.4c-0.1-0.8-1.5-0.8-1.7,0c-0.8,3.9-1.4,7.9-2.1,11.8c-0.5,2.4-1.3,4.9-1.3,7.4c0.6-0.1,1.1-0.2,1.7-0.2
					c-0.5-3.3-1.2-6.5-1.7-9.8c-0.1-0.9-1.5-0.8-1.7,0c-0.8,3.3-2.9,6.7-3.2,10.1c0.6-0.1,1.1-0.2,1.7-0.2
					c-1.1-6.7-1.8-13.6-1.7-20.4c0-1.1-1.7-1.1-1.7,0c-0.3,9-0.8,17.9-1.5,26.9c0.6-0.1,1.1-0.2,1.7-0.2c-0.7-4.2-1.6-8.3-2.5-12.5
					c-0.4-1.9-0.7-3.8-2.4-4.9c-0.5-0.3-1.1,0-1.3,0.5c-1.2,4.7-1.1,9.6-1.5,14.4c0.6-0.1,1.1-0.2,1.7-0.2c-1.5-7-3-13.9-4.4-20.9
					c-0.2-1-1.6-0.7-1.7,0.2c-0.7,5.9-1.7,11.8-2.8,17.6c0.6,0,1.1,0,1.7,0c-0.8-4.3-1.7-8.6-2.5-13c-0.2-0.8-1.5-0.8-1.7,0
					c-0.5,2.3-0.8,5.2-3.5,5.8c-1,0.3-2.3,0-3.3-0.1C301.5,725,301.5,726.7,302.6,726.7L302.6,726.7z"/>
			</g>
		</g>
		<g>
			<g>
				<path class="st26" d="M305.3,681.9c-1.1,1.4-2.4,2.9-2.4,4.8c0,1.9,1.8,3.4,3.1,4.5c0.8,0.7,2-0.5,1.2-1.2
					c-1.1-1-2.8-2.2-2.5-3.9c0.2-1.3,1.3-2.4,2.1-3.4C307.4,681.9,305.9,681.1,305.3,681.9L305.3,681.9z"/>
			</g>
		</g>
		<g>
			<g>
				<path class="st26" d="M303.7,687.8c2.3,0,4.5,0,6.8,0c1.1,0,1.1-1.7,0-1.7c-2.3,0-4.5,0-6.8,0
					C302.6,686,302.6,687.8,303.7,687.8L303.7,687.8z"/>
			</g>
		</g>
		<g>
			<g>
				<path class="st26" d="M346.5,689.6c-3.2,3.9-9.1-1.5-6.4-5.3c2-2.9,6.3-2.5,7.5,0.8c0.4,1,2.1,0.6,1.7-0.5c-0.9-2.3-2.7-4-5.3-4
					c-2.3,0-4.6,1.3-5.6,3.3c-2.9,5.6,5.2,12.1,9.4,6.9C348.4,690,347.2,688.8,346.5,689.6L346.5,689.6z"/>
			</g>
		</g>
		<g>
			<g>
				<path class="st26" d="M344.9,685.1c1.1,0.6,2.9,2.3,4.2,1.6c0.7-0.3,0.8-1.1,1-1.8c0.3-0.9,0.5-1.8,0.8-2.6
					c0.3-1.1-1.3-1.5-1.7-0.5c-0.1,0.5-0.3,1-0.4,1.5c-0.1,0.3-0.2,1.4-0.5,1.7c-0.2,0.2,0.1,0.1-0.2,0c-0.2,0-0.5-0.3-0.7-0.4
					c-0.5-0.3-1.1-0.6-1.6-0.9C344.8,683.1,344,684.5,344.9,685.1L344.9,685.1z"/>
			</g>
		</g>
		<g>
			<g>
				<path class="st26" d="M324.7,682.8c0.7,1,1.9,2.1,2.1,3.4c0.3,1.6-1.4,2.9-2.5,3.9c-0.8,0.7,0.4,2,1.2,1.2
					c1.3-1.2,3.1-2.6,3.1-4.5s-1.3-3.4-2.4-4.8C325.6,681.1,324.1,681.9,324.7,682.8L324.7,682.8z"/>
			</g>
		</g>
		<g>
			<g>
				<path class="st26" d="M327.7,686c-2.3,0-4.5,0-6.8,0c-1.1,0-1.1,1.7,0,1.7c2.3,0,4.5,0,6.8,0C328.8,687.8,328.8,686,327.7,686
					L327.7,686z"/>
			</g>
		</g>
		<path class="st29" d="M366.6,745c0,0,7.1,0.2,8.4-0.2s3-1,4.2-3s1.1-2.5,1.1-3.7c0-1.1,0-64.3,0-66.6s-0.2-3.7-1.7-5.2
			s-2.9-1.7-5.2-1.7c-2.3,0-108-0.6-110.8,0c-2.9,0.6-2.9,0.6-4.9,2.1c-2.1,1.5-2,4.8-2,4.8v4"/>
		<path class="st29" d="M242,687.5c0,0-4.4,0-6.8,0c-2.4,0-5.9,3.9-5.9,6.5s0,64.1,0,67s2.3,6.9,6.9,6.9s110.6,0.3,112.2-0.1
			c1.5-0.4,5.6-1.6,5.6-6.8s0-5.2,0-5.2"/>
		<g>
			<g>
				<path class="st26" d="M255.3,710.2c3.8,0,7.7,0,11.5,0c1.1,0,1.1-1.7,0-1.7c-3.8,0-7.7,0-11.5,0
					C254.2,708.5,254.2,710.2,255.3,710.2L255.3,710.2z"/>
			</g>
		</g>
		<g>
			<g>
				<path class="st26" d="M271,710c0.1,0,0.1,0,0.2,0c1.1,0,1.1-1.7,0-1.7c-0.1,0-0.1,0-0.2,0C269.9,708.3,269.9,710,271,710
					L271,710z"/>
			</g>
		</g>
		<g>
			<g>
				<path class="st26" d="M255.9,715.2c1.1,0,1.1-1.7,0-1.7S254.8,715.2,255.9,715.2L255.9,715.2z"/>
			</g>
		</g>
		<g>
			<g>
				<path class="st26" d="M260.1,715.2c3,0,6,0,9,0c1.1,0,1.1-1.7,0-1.7c-3,0-6,0-9,0C259,713.5,259,715.2,260.1,715.2L260.1,715.2z
					"/>
			</g>
		</g>
		<g>
			<g>
				<path class="st26" d="M273.3,715.2c1.1,0,1.1-1.7,0-1.7S272.2,715.2,273.3,715.2L273.3,715.2z"/>
			</g>
		</g>
		<g>
			<g>
				<path class="st26" d="M256.1,720.6c3.6,0,7.3,0,10.9,0c1.1,0,1.1-1.7,0-1.7c-3.6,0-7.3,0-10.9,0
					C255,718.8,255,720.6,256.1,720.6L256.1,720.6z"/>
			</g>
		</g>
		<g>
			<g>
				<path class="st26" d="M270.8,720.4c3.8,0,7.7,0,11.5,0c1.1,0,1.1-1.7,0-1.7c-3.8,0-7.7,0-11.5,0
					C269.7,718.6,269.7,720.4,270.8,720.4L270.8,720.4z"/>
			</g>
		</g>
		<g>
			<g>
				<path class="st26" d="M256.3,725.2c0.1,0,0.3,0,0.4,0c1.1,0,1.1-1.7,0-1.7c-0.1,0-0.3,0-0.4,0
					C255.2,723.4,255.2,725.2,256.3,725.2L256.3,725.2z"/>
			</g>
		</g>
		<g>
			<g>
				<path class="st26" d="M260.3,725.2c1.1,0,1.1-1.7,0-1.7C259.2,723.4,259.2,725.2,260.3,725.2L260.3,725.2z"/>
			</g>
		</g>
		<g>
			<g>
				<path class="st26" d="M264.9,725.3c3.6,0,7.2,0,10.7,0c1.1,0,1.1-1.7,0-1.7c-3.6,0-7.2,0-10.7,0
					C263.8,723.6,263.8,725.3,264.9,725.3L264.9,725.3z"/>
			</g>
		</g>
		<g>
			<g>
				<path class="st26" d="M278.9,725c1.9,0,3.8,0,5.7,0c1.1,0,1.1-1.7,0-1.7c-1.9,0-3.8,0-5.7,0C277.8,723.2,277.8,725,278.9,725
					L278.9,725z"/>
			</g>
		</g>
		<g>
			<g>
				<path class="st26" d="M288.4,724.1c0-0.1,0-0.1,0-0.2c0-1.1-1.7-1.1-1.7,0c0,0.1,0,0.1,0,0.2
					C286.7,725.2,288.4,725.2,288.4,724.1L288.4,724.1z"/>
			</g>
		</g>
		<g>
			<g>
				<path class="st26" d="M256.3,730.1c2.7,0,5.4,0,8,0c1.1,0,1.1-1.7,0-1.7c-2.7,0-5.4,0-8,0C255.2,728.4,255.2,730.1,256.3,730.1
					L256.3,730.1z"/>
			</g>
		</g>
		<g>
			<g>
				<path class="st26" d="M268,730.1c1.1,0,2.2,0,3.3,0c1.1,0,1.1-1.7,0-1.7s-2.2,0-3.3,0C266.9,728.4,266.9,730.1,268,730.1
					L268,730.1z"/>
			</g>
		</g>
		<g>
			<g>
				<path class="st26" d="M274.1,729.9c3.1,0,6.1,0,9.2,0c1.1,0,1.1-1.7,0-1.7c-3.1,0-6.1,0-9.2,0C273,728.2,273,729.9,274.1,729.9
					L274.1,729.9z"/>
			</g>
		</g>
		<g>
			<g>
				<path class="st26" d="M286.4,729.9c0.8,0,1.7,0,2.5,0c1.1,0,1.1-1.7,0-1.7c-0.8,0-1.7,0-2.5,0
					C285.3,728.2,285.3,729.9,286.4,729.9L286.4,729.9z"/>
			</g>
		</g>
		<g>
			<g>
				<path class="st26" d="M277.4,715.3c1.8,0,3.5,0,5.3,0c1.1,0,1.1-1.7,0-1.7c-1.8,0-3.5,0-5.3,0
					C276.3,713.6,276.3,715.3,277.4,715.3L277.4,715.3z"/>
			</g>
		</g>
		<g>
			<g>
				<path class="st26" d="M256.6,735.9c1.8,0,3.7,0,5.5,0c1.1,0,1.1-1.7,0-1.7c-1.8,0-3.7,0-5.5,0
					C255.5,734.2,255.5,735.9,256.6,735.9L256.6,735.9z"/>
			</g>
		</g>
		<g>
			<g>
				<path class="st26" d="M265.6,734.2c-0.1,0-0.1,0-0.2,0c-1.1,0-1.1,1.7,0,1.7c0.1,0,0.1,0,0.2,0
					C266.7,735.9,266.7,734.2,265.6,734.2L265.6,734.2z"/>
			</g>
		</g>
		<g>
			<g>
				<path class="st26" d="M269.4,735.7c1.1,0,1.1-1.7,0-1.7S268.3,735.7,269.4,735.7L269.4,735.7z"/>
			</g>
		</g>
		<g>
			<g>
				<path class="st26" d="M256.1,740.8c3.1,0,6.2,0,9.4,0c1.1,0,1.1-1.7,0-1.7c-3.1,0-6.2,0-9.4,0C255,739.1,255,740.8,256.1,740.8
					L256.1,740.8z"/>
			</g>
		</g>
		<g>
			<g>
				<path class="st26" d="M269.6,738.9c-0.1,0-0.1,0-0.2,0c-1.1,0-1.1,1.7,0,1.7c0.1,0,0.1,0,0.2,0
					C270.7,740.6,270.7,738.9,269.6,738.9L269.6,738.9z"/>
			</g>
		</g>
		<g>
			<g>
				<path class="st26" d="M273.1,740.5c2,0,3.9,0,5.9,0c1.1,0,1.1-1.7,0-1.7c-2,0-3.9,0-5.9,0C272,738.8,272,740.5,273.1,740.5
					L273.1,740.5z"/>
			</g>
		</g>
		<g>
			<g>
				<path class="st26" d="M256.3,745.4c2.3,0,4.5,0,6.8,0c1.1,0,1.1-1.7,0-1.7c-2.3,0-4.5,0-6.8,0
					C255.2,743.7,255.2,745.4,256.3,745.4L256.3,745.4z"/>
			</g>
		</g>
		<g>
			<g>
				<path class="st26" d="M266.3,744.9c3,0,6,0,9,0c1.1,0,1.1-1.7,0-1.7c-3,0-6,0-9,0C265.2,743.2,265.2,744.9,266.3,744.9
					L266.3,744.9z"/>
			</g>
		</g>
		<g>
			<g>
				<path class="st26" d="M279.1,742.9c-0.1,0-0.1,0-0.2,0c-1.1,0-1.1,1.7,0,1.7c0.1,0,0.1,0,0.2,0
					C280.2,744.6,280.2,742.9,279.1,742.9L279.1,742.9z"/>
			</g>
		</g>
		<g>
			<g>
				<path class="st26" d="M273.3,735.7c0.9,0,1.9,0,2.8,0c1.1,0,1.1-1.7,0-1.7c-0.9,0-1.9,0-2.8,0
					C272.2,734,272.2,735.7,273.3,735.7L273.3,735.7z"/>
			</g>
		</g>
	</g>
</a>
<rect x="76.5" y="1028.7" class="st30" width="199" height="42"/>
<text transform="matrix(1 0 0 1 113.542 1049.1177)" class="st26 st31 st32">Sciences</text>
<rect x="138.9" y="778.7" class="st30" width="331.8" height="67.9"/>
<text transform="matrix(1 0 0 1 152.9875 799.0621)" class="st26 st31 st32">Software and Systems</text>
<rect x="543.6" y="866.2" class="st30" width="226" height="52"/>
<text transform="matrix(1 0 0 1 603.2249 886.5402)" class="st26 st31 st32">Motions</text>
<rect x="501.9" y="1106.5" class="st30" width="320.3" height="101.3"/>
<text transform="matrix(1 0 0 1 528.0825 1126.8524)"><tspan x="0" y="0" class="st26 st31 st32">Power Systems and </tspan><tspan x="-20.9" y="33.6" class="st26 st31 st32">Electrical Components</tspan></text>
<rect x="309.6" y="559.5" class="st30" width="279.5" height="59.8"/>
<text transform="matrix(1 0 0 1 312.4651 579.859)"><tspan x="0" y="0" class="st26 st31 st32">Business and Public </tspan><tspan x="73.1" y="33.6" class="st26 st31 st32">Relations</tspan></text>
</svg>
